<svg id="svg" version="1.1" xmlns="http://www.w3.org/2000/svg" xmlns:xlink="http://www.w3.org/1999/xlink" width="400" height="451.46726862302484" viewBox="0, 0, 400,451.46726862302484"><g id="svgg"><path id="path0" d="M23.380 72.035 L 0.005 99.436 0.003 123.491 C 0.000 144.826,0.032 147.535,0.283 147.439 C 0.527 147.345,11.593 148.449,13.311 148.738 L 13.923 148.841 13.923 154.452 L 13.923 160.063 7.479 163.511 C 3.935 165.407,0.803 167.090,0.519 167.252 L 0.002 167.545 0.001 191.486 L 0.000 215.428 4.957 215.428 C 7.683 215.428,10.815 215.483,11.918 215.551 L 13.923 215.673 13.923 225.499 L 13.923 235.324 8.292 235.462 C 5.195 235.538,2.062 235.540,1.330 235.467 L 0.000 235.333 0.004 259.294 L 0.008 283.255 6.919 286.954 L 13.829 290.654 13.879 296.409 C 13.925 301.799,13.907 302.164,13.596 302.169 C 13.414 302.172,10.428 302.501,6.961 302.899 C 1.272 303.553,0.626 303.595,0.329 303.335 C 0.016 303.060,0.000 304.212,0.009 327.205 L 0.019 351.364 23.387 378.720 L 46.754 406.076 46.802 371.785 L 46.850 337.495 47.366 337.624 C 47.651 337.696,58.763 341.127,72.060 345.250 C 85.357 349.372,105.273 355.546,116.316 358.969 L 136.395 365.193 199.902 365.193 L 263.408 365.193 290.735 356.717 C 305.765 352.056,326.021 345.775,335.748 342.760 L 353.434 337.278 376.536 320.522 C 394.021 307.840,399.557 303.734,399.302 303.637 C 399.015 303.527,386.981 302.161,386.315 302.163 C 386.137 302.164,386.071 300.851,386.033 296.540 L 385.983 290.917 370.555 299.228 C 362.070 303.799,354.704 307.764,354.186 308.039 C 353.459 308.426,345.122 310.400,317.404 316.750 C 297.690 321.266,277.540 325.885,272.625 327.015 L 263.688 329.068 200.142 329.068 L 136.595 329.069 91.833 318.721 C 67.213 313.029,47.020 308.373,46.959 308.373 C 46.898 308.373,46.849 292.963,46.849 274.130 L 46.849 239.887 48.067 239.887 C 48.737 239.887,69.413 240.691,94.014 241.675 L 138.743 243.462 200.180 243.462 C 252.487 243.463,262.611 243.420,268.297 243.173 C 271.971 243.014,292.629 242.171,314.205 241.301 L 353.434 239.718 375.447 237.686 C 399.509 235.465,399.534 235.461,389.323 235.393 L 386.077 235.372 386.077 225.522 L 386.077 215.673 387.912 215.551 C 388.921 215.485,392.074 215.423,394.920 215.414 C 397.766 215.405,400.009 215.366,399.906 215.326 C 399.802 215.286,389.219 214.278,376.388 213.085 L 353.057 210.916 308.184 209.126 L 263.311 207.337 199.230 207.337 L 135.149 207.338 92.739 209.021 C 69.414 209.946,49.546 210.752,48.589 210.812 L 46.849 210.920 46.849 176.686 C 46.849 144.244,46.866 142.447,47.178 142.357 C 47.359 142.304,67.460 137.642,91.847 131.996 L 136.186 121.731 200.130 121.731 L 264.075 121.731 308.664 132.062 L 353.252 142.393 369.618 151.134 L 385.983 159.875 386.033 154.358 L 386.083 148.840 386.691 148.737 C 387.026 148.680,390.088 148.336,393.496 147.973 C 396.904 147.610,399.720 147.285,399.754 147.252 C 399.866 147.139,399.202 146.655,377.140 130.758 C 365.033 122.033,354.661 114.547,354.092 114.121 C 353.186 113.443,352.403 113.144,347.789 111.714 C 344.892 110.815,324.754 104.574,303.039 97.843 L 263.558 85.607 199.898 85.607 L 136.238 85.607 119.906 90.671 C 99.569 96.977,47.622 113.064,47.178 113.193 C 46.866 113.284,46.847 111.533,46.802 78.962 L 46.754 44.635 23.380 72.035 " stroke="none" fill="#1c446c" fill-rule="evenodd"></path><path id="path1" d="M263.594 42.758 L 263.594 85.516 308.137 99.321 C 332.636 106.914,352.787 113.166,352.916 113.215 C 353.104 113.287,353.151 106.355,353.151 78.948 L 353.151 44.591 308.561 22.295 C 284.036 10.033,263.885 -0.000,263.782 -0.000 C 263.657 -0.000,263.594 14.354,263.594 42.758 M263.594 164.478 L 263.594 207.250 307.573 208.996 C 331.762 209.956,351.912 210.738,352.352 210.733 L 353.151 210.724 353.151 176.596 L 353.151 142.468 352.728 142.367 C 352.495 142.311,332.493 137.683,308.278 132.080 C 284.064 126.478,264.104 121.852,263.923 121.800 C 263.610 121.710,263.594 123.832,263.594 164.478 M307.150 241.685 C 283.763 242.649,264.396 243.443,264.111 243.450 L 263.594 243.462 263.594 286.195 L 263.594 328.929 264.299 328.805 C 264.687 328.736,284.817 324.130,309.031 318.568 L 353.057 308.456 353.105 274.172 L 353.152 239.887 351.412 239.910 C 350.454 239.922,330.536 240.721,307.150 241.685 M308.843 351.193 C 284.732 358.685,264.687 364.903,264.299 365.011 L 263.594 365.207 263.594 408.003 C 263.594 431.541,263.636 450.800,263.688 450.800 C 263.739 450.800,283.890 440.746,308.466 428.457 L 353.151 406.115 353.151 371.825 C 353.151 344.509,353.104 337.539,352.916 337.553 C 352.787 337.563,332.954 343.701,308.843 351.193 " stroke="none" fill="#5393cb" fill-rule="evenodd"></path><path id="path2" d="M136.406 42.709 L 136.406 85.419 200.000 85.419 L 263.594 85.419 263.594 42.709 L 263.594 0.000 200.000 0.000 L 136.406 0.000 136.406 42.709 M353.151 78.852 L 353.151 113.127 353.584 113.528 C 354.123 114.027,399.735 146.943,399.889 146.943 C 399.950 146.943,400.000 136.271,400.000 123.228 L 400.000 99.513 399.056 98.379 C 398.154 97.295,395.851 94.592,390.499 88.336 C 389.153 86.763,386.698 83.885,385.042 81.939 C 383.387 79.993,380.974 77.174,379.680 75.673 C 378.387 74.173,377.118 72.683,376.861 72.362 C 376.480 71.887,374.512 69.578,371.148 65.662 C 370.926 65.402,369.559 63.793,368.112 62.087 C 366.664 60.380,365.258 58.730,364.986 58.420 C 364.714 58.109,363.626 56.839,362.568 55.597 C 361.510 54.356,360.461 53.128,360.237 52.869 C 360.013 52.611,359.153 51.595,358.325 50.613 C 357.497 49.631,356.439 48.397,355.974 47.871 C 355.508 47.345,354.923 46.667,354.673 46.364 C 354.423 46.061,353.979 45.536,353.685 45.196 L 353.151 44.578 353.151 78.852 M136.406 164.440 L 136.406 207.150 200.000 207.150 L 263.594 207.150 263.594 164.440 L 263.594 121.731 200.000 121.731 L 136.406 121.731 136.406 164.440 M353.151 176.548 C 353.151 208.919,353.134 210.700,352.822 210.766 C 352.641 210.804,352.916 210.848,353.434 210.863 C 354.508 210.896,398.692 214.998,399.483 215.138 L 400.000 215.230 400.000 191.259 L 400.000 167.287 398.861 166.708 C 397.590 166.062,395.500 164.939,394.638 164.439 C 393.759 163.928,390.656 162.303,386.642 160.249 C 383.132 158.454,356.193 144.123,354.139 142.959 L 353.151 142.399 353.151 176.548 M398.683 235.578 C 398.424 235.670,388.434 236.637,376.482 237.727 C 364.530 238.817,354.391 239.759,353.952 239.819 L 353.153 239.930 353.105 274.232 L 353.057 308.534 353.998 308.005 C 357.886 305.815,385.388 291.122,385.982 290.917 C 386.395 290.774,386.818 290.591,386.922 290.510 C 387.027 290.428,387.874 289.957,388.805 289.462 C 389.737 288.966,391.049 288.265,391.722 287.902 C 392.394 287.539,393.368 287.014,393.885 286.736 C 394.403 286.457,395.503 285.867,396.331 285.426 C 397.159 284.984,398.323 284.359,398.918 284.037 L 400.000 283.450 400.000 259.411 L 400.000 235.372 399.577 235.392 C 399.344 235.403,398.942 235.487,398.683 235.578 M136.406 286.265 L 136.406 329.069 200.047 329.069 L 263.688 329.069 263.640 286.265 L 263.592 243.462 199.999 243.462 L 136.406 243.462 136.406 286.265 M376.857 320.447 C 364.285 329.572,353.808 337.129,353.576 337.240 L 353.154 337.441 353.162 371.778 L 353.171 406.115 353.961 405.196 C 355.527 403.373,360.844 397.150,364.346 393.040 C 366.312 390.733,369.276 387.264,370.931 385.331 C 372.587 383.398,374.323 381.365,374.788 380.813 C 375.254 380.261,376.726 378.532,378.060 376.970 C 379.394 375.408,380.847 373.706,381.289 373.189 C 381.730 372.672,383.475 370.629,385.166 368.650 C 386.857 366.671,389.849 363.166,391.816 360.860 C 393.782 358.555,396.428 355.464,397.695 353.991 L 400.000 351.315 400.000 327.586 C 400.000 314.535,399.936 303.857,399.858 303.857 C 399.780 303.857,389.429 311.323,376.857 320.447 M136.406 407.872 L 136.406 450.552 140.499 450.675 C 142.749 450.743,171.366 450.799,204.092 450.799 L 263.594 450.800 263.594 407.996 L 263.594 365.193 200.000 365.193 L 136.406 365.193 136.406 407.872 " stroke="none" fill="#2c74bc" fill-rule="evenodd"></path><path id="path3" d="M91.392 22.306 L 46.849 44.591 46.849 78.940 C 46.849 111.565,46.865 113.285,47.178 113.194 C 47.623 113.064,99.574 96.975,119.906 90.671 C 128.889 87.886,136.276 85.607,136.322 85.607 C 136.368 85.607,136.406 66.345,136.406 42.803 C 136.406 8.681,136.359 0.002,136.171 0.010 C 136.042 0.016,115.891 10.049,91.392 22.306 M91.439 132.089 C 66.966 137.770,46.921 142.420,46.896 142.423 C 46.870 142.425,46.849 157.838,46.849 176.674 L 46.849 210.920 48.589 210.812 C 50.458 210.696,134.728 207.338,135.778 207.338 L 136.406 207.338 136.406 164.534 C 136.406 130.409,136.359 121.734,136.171 121.745 C 136.042 121.753,115.913 126.408,91.439 132.089 M46.849 274.130 C 46.849 292.963,46.898 308.373,46.958 308.373 C 47.043 308.373,129.894 327.507,135.230 328.759 L 136.406 329.035 136.406 286.199 L 136.406 243.363 92.333 241.616 C 68.093 240.655,47.942 239.873,47.554 239.878 L 46.849 239.887 46.849 274.130 M46.849 371.805 L 46.850 406.115 91.432 428.457 C 115.953 440.746,136.103 450.800,136.211 450.800 C 136.346 450.800,136.406 437.486,136.406 408.006 L 136.406 365.213 133.725 364.369 C 132.251 363.905,123.213 361.099,113.641 358.135 C 104.069 355.171,85.357 349.372,72.060 345.250 C 58.763 341.127,47.651 337.696,47.366 337.624 L 46.849 337.494 46.849 371.805 " stroke="none" fill="#1c5c9b" fill-rule="evenodd"></path><path id="path4" d="M168.156 85.560 C 185.670 85.586,214.330 85.586,231.844 85.560 C 249.358 85.533,235.028 85.512,200.000 85.512 C 164.972 85.512,150.642 85.533,168.156 85.560 M168.156 207.291 C 185.670 207.317,214.330 207.317,231.844 207.291 C 249.358 207.264,235.028 207.243,200.000 207.243 C 164.972 207.243,150.642 207.264,168.156 207.291 M266.557 207.471 C 266.790 207.515,267.171 207.515,267.404 207.471 C 267.636 207.426,267.446 207.389,266.980 207.389 C 266.515 207.389,266.324 207.426,266.557 207.471 M271.261 207.659 C 271.493 207.703,271.874 207.703,272.107 207.659 C 272.340 207.614,272.150 207.577,271.684 207.577 C 271.218 207.577,271.028 207.614,271.261 207.659 M275.964 207.847 C 276.197 207.892,276.578 207.892,276.811 207.847 C 277.044 207.802,276.853 207.765,276.388 207.765 C 275.922 207.765,275.731 207.802,275.964 207.847 M280.668 208.035 C 280.901 208.080,281.282 208.080,281.515 208.035 C 281.747 207.990,281.557 207.953,281.091 207.953 C 280.626 207.953,280.435 207.990,280.668 208.035 M285.372 208.223 C 285.604 208.268,285.985 208.268,286.218 208.223 C 286.451 208.178,286.261 208.142,285.795 208.142 C 285.329 208.142,285.139 208.178,285.372 208.223 M290.075 208.411 C 290.308 208.456,290.689 208.456,290.922 208.411 C 291.155 208.366,290.964 208.330,290.499 208.330 C 290.033 208.330,289.842 208.366,290.075 208.411 M294.969 208.600 C 295.203 208.645,295.542 208.643,295.722 208.596 C 295.902 208.549,295.710 208.512,295.296 208.514 C 294.882 208.516,294.735 208.555,294.969 208.600 M299.673 208.788 C 299.907 208.833,300.246 208.831,300.426 208.784 C 300.605 208.737,300.414 208.700,300.000 208.702 C 299.586 208.704,299.439 208.743,299.673 208.788 M304.377 208.976 C 304.611 209.021,304.949 209.019,305.129 208.972 C 305.309 208.925,305.118 208.888,304.704 208.890 C 304.290 208.892,304.143 208.931,304.377 208.976 M309.080 209.164 C 309.314 209.209,309.653 209.207,309.833 209.160 C 310.013 209.113,309.821 209.076,309.407 209.078 C 308.993 209.081,308.846 209.119,309.080 209.164 M313.784 209.352 C 314.018 209.397,314.357 209.396,314.537 209.348 C 314.716 209.301,314.525 209.265,314.111 209.267 C 313.697 209.269,313.550 209.307,313.784 209.352 M318.488 209.540 C 318.722 209.585,319.060 209.584,319.240 209.537 C 319.420 209.490,319.229 209.453,318.815 209.455 C 318.401 209.457,318.254 209.495,318.488 209.540 M323.191 209.729 C 323.425 209.774,323.764 209.772,323.944 209.725 C 324.124 209.678,323.932 209.641,323.518 209.643 C 323.104 209.645,322.957 209.684,323.191 209.729 M327.895 209.917 C 328.129 209.962,328.468 209.960,328.648 209.913 C 328.827 209.866,328.636 209.829,328.222 209.831 C 327.808 209.833,327.661 209.872,327.895 209.917 M332.599 210.105 C 332.833 210.150,333.171 210.148,333.351 210.101 C 333.531 210.054,333.340 210.017,332.926 210.019 C 332.512 210.021,332.365 210.060,332.599 210.105 M337.302 210.293 C 337.536 210.338,337.875 210.336,338.055 210.289 C 338.235 210.242,338.043 210.205,337.629 210.207 C 337.215 210.209,337.068 210.248,337.302 210.293 M342.006 210.481 C 342.240 210.526,342.579 210.524,342.759 210.477 C 342.938 210.430,342.747 210.393,342.333 210.396 C 341.919 210.398,341.772 210.436,342.006 210.481 M346.707 210.669 C 346.940 210.714,347.321 210.714,347.554 210.669 C 347.787 210.624,347.596 210.587,347.131 210.587 C 346.665 210.587,346.475 210.624,346.707 210.669 M351.411 210.857 C 351.644 210.902,352.025 210.902,352.258 210.857 C 352.491 210.812,352.300 210.776,351.834 210.776 C 351.369 210.776,351.178 210.812,351.411 210.857 M352.634 239.834 C 352.919 239.877,353.384 239.877,353.669 239.834 C 353.953 239.791,353.721 239.755,353.151 239.755 C 352.582 239.755,352.349 239.791,352.634 239.834 M348.027 240.020 C 348.261 240.065,348.599 240.063,348.779 240.016 C 348.959 239.969,348.768 239.932,348.354 239.935 C 347.940 239.937,347.793 239.975,348.027 240.020 M343.323 240.208 C 343.557 240.253,343.896 240.252,344.076 240.205 C 344.255 240.157,344.064 240.121,343.650 240.123 C 343.236 240.125,343.089 240.163,343.323 240.208 M338.617 240.396 C 338.850 240.441,339.231 240.441,339.464 240.396 C 339.697 240.351,339.506 240.315,339.040 240.315 C 338.575 240.315,338.384 240.351,338.617 240.396 M333.913 240.584 C 334.146 240.629,334.527 240.629,334.760 240.584 C 334.993 240.539,334.802 240.503,334.337 240.503 C 333.871 240.503,333.681 240.539,333.913 240.584 M329.400 240.773 C 329.634 240.818,329.973 240.816,330.153 240.769 C 330.333 240.722,330.141 240.685,329.727 240.687 C 329.313 240.689,329.166 240.728,329.400 240.773 M324.696 240.961 C 324.930 241.006,325.269 241.004,325.449 240.957 C 325.629 240.910,325.437 240.873,325.024 240.875 C 324.610 240.877,324.462 240.916,324.696 240.961 M319.991 241.149 C 320.223 241.194,320.604 241.194,320.837 241.149 C 321.070 241.104,320.880 241.067,320.414 241.067 C 319.948 241.067,319.758 241.104,319.991 241.149 M315.477 241.337 C 315.711 241.382,316.050 241.381,316.230 241.333 C 316.410 241.286,316.218 241.249,315.804 241.252 C 315.390 241.254,315.243 241.292,315.477 241.337 M310.774 241.525 C 311.008 241.570,311.346 241.569,311.526 241.522 C 311.706 241.474,311.515 241.438,311.101 241.440 C 310.687 241.442,310.540 241.480,310.774 241.525 M306.068 241.713 C 306.301 241.758,306.682 241.758,306.914 241.713 C 307.147 241.668,306.957 241.632,306.491 241.632 C 306.025 241.632,305.835 241.668,306.068 241.713 M301.364 241.901 C 301.597 241.946,301.978 241.946,302.211 241.901 C 302.444 241.857,302.253 241.820,301.787 241.820 C 301.322 241.820,301.131 241.857,301.364 241.901 M296.851 242.090 C 297.085 242.135,297.423 242.133,297.603 242.086 C 297.783 242.039,297.592 242.002,297.178 242.004 C 296.764 242.006,296.617 242.045,296.851 242.090 M292.147 242.278 C 292.381 242.323,292.720 242.321,292.900 242.274 C 293.080 242.227,292.888 242.190,292.474 242.192 C 292.060 242.194,291.913 242.233,292.147 242.278 M287.441 242.466 C 287.674 242.511,288.055 242.511,288.288 242.466 C 288.521 242.421,288.330 242.384,287.865 242.384 C 287.399 242.384,287.208 242.421,287.441 242.466 M282.928 242.654 C 283.162 242.699,283.501 242.698,283.680 242.650 C 283.860 242.603,283.669 242.567,283.255 242.569 C 282.841 242.571,282.694 242.609,282.928 242.654 M278.224 242.842 C 278.458 242.887,278.797 242.886,278.977 242.839 C 279.157 242.791,278.965 242.755,278.551 242.757 C 278.137 242.759,277.990 242.797,278.224 242.842 M273.518 243.030 C 273.751 243.075,274.132 243.075,274.365 243.030 C 274.598 242.985,274.407 242.949,273.942 242.949 C 273.476 242.949,273.286 242.985,273.518 243.030 M268.815 243.218 C 269.048 243.263,269.429 243.263,269.661 243.218 C 269.894 243.174,269.704 243.137,269.238 243.137 C 268.772 243.137,268.582 243.174,268.815 243.218 M264.301 243.407 C 264.535 243.452,264.874 243.450,265.054 243.403 C 265.234 243.356,265.042 243.319,264.628 243.321 C 264.214 243.323,264.067 243.362,264.301 243.407 M137.779 450.751 C 138.586 450.787,139.856 450.787,140.601 450.751 C 141.347 450.715,140.687 450.686,139.135 450.687 C 137.582 450.687,136.972 450.716,137.779 450.751 " stroke="none" fill="#2c6baa" fill-rule="evenodd"></path></g></svg>