<svg id="svg" version="1.1" xmlns="http://www.w3.org/2000/svg" xmlns:xlink="http://www.w3.org/1999/xlink" width="400" height="484.26150121065376" viewBox="0, 0, 400,484.26150121065376"><g id="svgg"><path id="path0" d="M199.950 241.549 L 199.899 483.098 299.950 433.073 L 400.000 383.047 400.000 241.473 L 400.000 99.899 300.101 49.950 C 245.157 22.477,200.157 -0.000,200.101 -0.000 C 200.046 -0.000,199.978 108.697,199.950 241.549 M125.126 241.452 C 125.126 404.650,125.177 445.608,125.378 445.599 C 125.517 445.592,133.350 442.753,142.785 439.290 L 159.939 432.993 159.990 241.536 L 160.041 50.080 158.981 49.685 C 158.398 49.467,150.676 46.642,141.821 43.405 C 132.966 40.169,125.587 37.470,125.424 37.407 C 125.162 37.306,125.126 61.636,125.126 241.452 M67.003 241.546 C 67.003 381.449,67.054 416.519,67.255 416.451 C 67.473 416.377,77.923 413.413,90.464 409.867 L 94.248 408.798 94.248 241.542 L 94.248 74.286 92.886 73.884 C 90.943 73.310,68.224 66.862,67.558 66.695 L 67.003 66.556 67.003 241.546 M20.182 241.278 C 20.182 324.579,20.250 392.732,20.333 392.729 C 20.416 392.726,25.343 391.608,31.282 390.246 L 42.079 387.769 42.129 241.328 L 42.180 94.887 40.414 94.477 C 39.443 94.251,34.606 93.150,29.667 92.031 C 24.728 90.912,20.573 89.956,20.434 89.908 C 20.232 89.838,20.182 120.200,20.182 241.278 " stroke="none" fill="#f48434" fill-rule="evenodd"></path><path id="path1" d="M179.768 9.900 L 160.040 19.778 160.040 241.473 L 160.040 463.168 179.818 473.057 C 190.696 478.496,199.687 482.947,199.798 482.947 C 199.933 482.947,200.000 402.645,200.000 241.473 C 200.000 48.423,199.949 0.002,199.748 0.011 C 199.609 0.017,190.618 4.467,179.768 9.900 M109.536 45.016 L 94.248 52.675 94.248 241.473 L 94.248 430.272 109.586 437.941 C 118.021 442.159,124.969 445.610,125.025 445.610 C 125.080 445.610,125.126 353.749,125.126 241.473 C 125.126 129.198,125.058 37.341,124.975 37.347 C 124.892 37.353,117.944 40.804,109.536 45.016 M54.476 72.575 L 42.180 78.753 42.180 241.466 L 42.180 404.180 54.264 410.263 C 60.910 413.609,66.450 416.347,66.574 416.347 C 66.741 416.347,66.814 370.540,66.851 241.372 C 66.879 145.136,66.873 66.398,66.837 66.398 C 66.801 66.398,61.239 69.177,54.476 72.575 M9.842 94.922 L 0.006 99.798 0.007 241.473 L 0.007 383.148 10.094 388.128 L 20.182 393.107 20.182 241.559 C 20.182 120.445,20.131 90.014,19.929 90.028 C 19.791 90.038,15.251 92.241,9.842 94.922 " stroke="none" fill="#9c5324" fill-rule="evenodd"></path><path id="path2" d="M66.902 241.574 C 66.902 337.866,66.925 377.258,66.953 329.112 C 66.981 280.966,66.981 202.182,66.953 154.036 C 66.925 105.891,66.902 145.283,66.902 241.574 " stroke="none" fill="#dc882c" fill-rule="evenodd"></path><path id="path3" d="M66.902 241.574 C 66.902 337.866,66.925 377.258,66.953 329.112 C 66.981 280.966,66.981 202.182,66.953 154.036 C 66.925 105.891,66.902 145.283,66.902 241.574 " stroke="none" fill="#dc882c" fill-rule="evenodd"></path><path id="path4" d="M66.902 241.574 C 66.902 337.866,66.925 377.258,66.953 329.112 C 66.981 280.966,66.981 202.182,66.953 154.036 C 66.925 105.891,66.902 145.283,66.902 241.574 " stroke="none" fill="#dc882c" fill-rule="evenodd"></path></g></svg>