<svg id="svg" version="1.1" xmlns="http://www.w3.org/2000/svg" xmlns:xlink="http://www.w3.org/1999/xlink" width="400" height="486.27450980392155" viewBox="0, 0, 400,486.27450980392155"><g id="svgg"><path id="path0" d="M306.500 26.300 C 247.478 26.393,241.600 26.460,241.600 27.039 C 241.600 27.389,241.262 27.763,240.849 27.871 C 240.436 27.979,239.899 28.503,239.657 29.034 C 239.415 29.565,238.972 30.000,238.673 30.000 C 238.373 30.000,237.923 30.450,237.673 31.000 C 237.422 31.550,236.939 32.000,236.599 32.000 C 236.259 32.000,235.809 32.450,235.600 33.000 C 235.391 33.550,234.945 34.000,234.610 34.000 C 234.274 34.000,234.000 34.274,234.000 34.610 C 234.000 34.945,233.565 35.385,233.034 35.587 C 232.503 35.789,231.954 36.315,231.814 36.757 C 231.674 37.198,231.208 37.670,230.780 37.806 C 230.351 37.943,230.000 38.316,230.000 38.636 C 230.000 38.955,229.550 39.422,229.000 39.673 C 228.450 39.923,228.000 40.374,228.000 40.674 C 228.000 40.974,227.550 41.391,227.000 41.600 C 226.450 41.809,226.000 42.259,226.000 42.600 C 226.000 42.941,225.550 43.391,225.000 43.600 C 224.450 43.809,224.000 44.259,224.000 44.600 C 224.000 44.941,223.550 45.391,223.000 45.600 C 222.450 45.809,222.000 46.243,222.000 46.563 C 222.000 46.884,221.649 47.257,221.220 47.394 C 220.792 47.530,220.333 47.983,220.200 48.400 C 220.067 48.817,219.636 49.262,219.240 49.387 C 218.845 49.513,218.318 50.062,218.069 50.608 C 217.821 51.153,217.339 51.600,216.999 51.600 C 216.659 51.600,216.209 52.050,216.000 52.600 C 215.791 53.150,215.345 53.600,215.010 53.600 C 214.674 53.600,214.400 53.874,214.400 54.210 C 214.400 54.545,213.965 54.985,213.434 55.187 C 212.903 55.389,212.354 55.915,212.214 56.357 C 212.074 56.798,211.617 57.267,211.200 57.400 C 210.783 57.533,210.333 57.983,210.200 58.400 C 210.067 58.817,209.608 59.270,209.180 59.406 C 208.751 59.543,208.400 59.916,208.400 60.237 C 208.400 60.557,207.950 60.991,207.400 61.200 C 206.850 61.409,206.400 61.859,206.400 62.200 C 206.400 62.541,205.950 62.991,205.400 63.200 C 204.850 63.409,204.400 63.859,204.400 64.200 C 204.400 64.541,203.950 64.991,203.400 65.200 C 202.850 65.409,202.400 65.843,202.400 66.163 C 202.400 66.484,202.049 66.857,201.620 66.994 C 201.192 67.130,200.733 67.583,200.600 68.000 C 200.467 68.417,200.017 68.867,199.600 69.000 C 199.183 69.133,198.738 69.564,198.613 69.960 C 198.487 70.355,197.938 70.882,197.392 71.131 C 196.847 71.379,196.400 71.857,196.400 72.191 C 196.400 72.526,196.126 72.800,195.790 72.800 C 195.455 72.800,195.009 73.250,194.800 73.800 C 194.591 74.350,194.141 74.800,193.801 74.800 C 193.461 74.800,192.979 75.247,192.731 75.792 C 192.482 76.338,191.955 76.887,191.560 77.013 C 191.164 77.138,190.730 77.592,190.594 78.020 C 190.457 78.449,190.084 78.800,189.763 78.800 C 189.443 78.800,189.009 79.250,188.800 79.800 C 188.591 80.350,188.141 80.800,187.800 80.800 C 187.459 80.800,187.009 81.250,186.800 81.800 C 186.591 82.350,186.128 82.800,185.772 82.800 C 185.416 82.800,185.027 83.174,184.908 83.631 C 184.788 84.088,184.265 84.623,183.745 84.821 C 183.225 85.018,182.800 85.443,182.800 85.763 C 182.800 86.084,182.449 86.457,182.020 86.594 C 181.592 86.730,181.133 87.183,181.000 87.600 C 180.867 88.017,180.417 88.467,180.000 88.600 C 179.583 88.733,179.138 89.164,179.013 89.560 C 178.887 89.955,178.338 90.482,177.792 90.731 C 177.247 90.979,176.800 91.457,176.800 91.791 C 176.800 92.126,176.526 92.400,176.190 92.400 C 175.855 92.400,175.409 92.850,175.200 93.400 C 174.991 93.950,174.541 94.400,174.201 94.400 C 173.861 94.400,173.379 94.847,173.131 95.392 C 172.882 95.938,172.355 96.487,171.960 96.613 C 171.564 96.738,171.130 97.192,170.994 97.620 C 170.857 98.049,170.484 98.400,170.164 98.400 C 169.845 98.400,169.378 98.850,169.127 99.400 C 168.877 99.950,168.426 100.400,168.126 100.400 C 167.826 100.400,167.409 100.850,167.200 101.400 C 166.991 101.950,166.541 102.400,166.200 102.400 C 165.859 102.400,165.418 102.825,165.221 103.345 C 165.023 103.865,164.488 104.388,164.031 104.508 C 163.574 104.627,163.200 104.983,163.200 105.298 C 163.200 105.614,162.750 106.077,162.200 106.327 C 161.650 106.578,161.200 107.045,161.200 107.364 C 161.200 107.684,160.849 108.057,160.420 108.194 C 159.992 108.330,159.538 108.764,159.413 109.160 C 159.287 109.555,158.738 110.082,158.192 110.331 C 157.647 110.579,157.200 111.036,157.200 111.345 C 157.200 111.654,156.827 112.004,156.370 112.124 C 155.914 112.243,155.443 112.714,155.324 113.170 C 155.204 113.627,154.854 114.000,154.545 114.000 C 154.236 114.000,153.779 114.447,153.531 114.992 C 153.282 115.538,152.755 116.087,152.360 116.213 C 151.964 116.338,151.530 116.792,151.394 117.220 C 151.257 117.649,150.884 118.000,150.564 118.000 C 150.245 118.000,149.778 118.450,149.527 119.000 C 149.277 119.550,148.826 120.000,148.526 120.000 C 148.226 120.000,147.809 120.450,147.600 121.000 C 147.391 121.550,146.941 122.000,146.600 122.000 C 146.259 122.000,145.818 122.425,145.621 122.945 C 145.423 123.465,144.888 123.988,144.431 124.108 C 143.974 124.227,143.600 124.583,143.600 124.898 C 143.600 125.214,143.150 125.677,142.600 125.927 C 142.050 126.178,141.600 126.645,141.600 126.964 C 141.600 127.284,141.249 127.657,140.820 127.794 C 140.392 127.930,139.938 128.364,139.813 128.760 C 139.687 129.155,139.138 129.682,138.592 129.931 C 138.047 130.179,137.600 130.636,137.600 130.945 C 137.600 131.254,137.227 131.604,136.770 131.724 C 136.314 131.843,135.843 132.314,135.724 132.770 C 135.604 133.227,135.254 133.600,134.945 133.600 C 134.636 133.600,134.178 134.050,133.927 134.600 C 133.677 135.150,133.227 135.600,132.927 135.600 C 132.628 135.600,132.178 136.050,131.927 136.600 C 131.677 137.150,131.227 137.600,130.927 137.600 C 130.628 137.600,130.178 138.050,129.927 138.600 C 129.677 139.150,129.226 139.600,128.926 139.600 C 128.626 139.600,128.209 140.050,128.000 140.600 C 127.791 141.150,127.341 141.600,127.000 141.600 C 126.659 141.600,126.218 142.025,126.021 142.545 C 125.823 143.065,125.288 143.588,124.831 143.708 C 124.374 143.827,124.000 144.183,124.000 144.498 C 124.000 144.814,123.550 145.277,123.000 145.527 C 122.450 145.778,122.000 146.245,122.000 146.564 C 122.000 146.884,121.649 147.257,121.220 147.394 C 120.792 147.530,120.338 147.964,120.213 148.360 C 120.087 148.755,119.538 149.282,118.992 149.531 C 118.447 149.779,118.000 150.236,118.000 150.545 C 118.000 150.854,117.627 151.204,117.170 151.324 C 116.714 151.443,116.243 151.914,116.124 152.370 C 116.004 152.827,115.654 153.200,115.345 153.200 C 115.036 153.200,114.578 153.650,114.327 154.200 C 114.077 154.750,113.627 155.200,113.327 155.200 C 113.028 155.200,112.578 155.650,112.327 156.200 C 112.077 156.750,111.627 157.200,111.327 157.200 C 111.028 157.200,110.578 157.650,110.327 158.200 C 110.077 158.750,109.626 159.200,109.326 159.200 C 109.026 159.200,108.609 159.650,108.400 160.200 C 108.191 160.750,107.741 161.200,107.400 161.200 C 107.059 161.200,106.618 161.625,106.421 162.145 C 106.223 162.665,105.688 163.188,105.231 163.308 C 104.774 163.427,104.400 163.783,104.400 164.098 C 104.400 164.414,103.950 164.877,103.400 165.127 C 102.850 165.378,102.400 165.828,102.400 166.127 C 102.400 166.427,101.950 166.877,101.400 167.127 C 100.850 167.378,100.400 167.828,100.400 168.127 C 100.400 168.427,99.950 168.877,99.400 169.127 C 98.850 169.378,98.400 169.836,98.400 170.145 C 98.400 170.454,98.027 170.804,97.570 170.924 C 97.114 171.043,96.643 171.514,96.524 171.970 C 96.404 172.427,96.054 172.800,95.745 172.800 C 95.436 172.800,94.978 173.250,94.727 173.800 C 94.477 174.350,94.027 174.800,93.727 174.800 C 93.428 174.800,92.978 175.250,92.727 175.800 C 92.477 176.350,92.114 176.800,91.922 176.800 C 91.426 176.800,88.800 179.488,88.800 179.997 C 88.800 180.229,88.350 180.591,87.800 180.800 C 87.250 181.009,86.800 181.459,86.800 181.800 C 86.800 182.141,86.350 182.591,85.800 182.800 C 85.250 183.009,84.800 183.455,84.800 183.790 C 84.800 184.126,84.635 184.400,84.433 184.400 C 83.946 184.400,80.800 187.435,80.800 187.904 C 80.800 188.106,80.350 188.477,79.800 188.727 C 79.250 188.978,78.800 189.457,78.800 189.791 C 78.800 190.126,78.599 190.400,78.353 190.400 C 77.771 190.400,74.800 193.371,74.800 193.953 C 74.800 194.199,74.526 194.400,74.191 194.400 C 73.857 194.400,73.378 194.850,73.127 195.400 C 72.877 195.950,72.506 196.400,72.304 196.400 C 71.835 196.400,68.800 199.546,68.800 200.033 C 68.800 200.235,68.513 200.400,68.163 200.400 C 67.812 200.400,67.427 200.774,67.308 201.231 C 67.188 201.688,66.665 202.223,66.145 202.421 C 65.625 202.618,65.200 203.055,65.200 203.390 C 65.200 203.726,65.035 204.000,64.833 204.000 C 64.346 204.000,61.200 207.035,61.200 207.504 C 61.200 207.706,60.750 208.077,60.200 208.327 C 59.650 208.578,59.200 209.057,59.200 209.391 C 59.200 209.726,58.999 210.000,58.753 210.000 C 58.171 210.000,55.200 212.971,55.200 213.553 C 55.200 213.799,54.926 214.000,54.591 214.000 C 54.257 214.000,53.778 214.450,53.527 215.000 C 53.277 215.550,52.906 216.000,52.704 216.000 C 52.235 216.000,49.200 219.146,49.200 219.633 C 49.200 219.835,48.913 220.000,48.563 220.000 C 48.212 220.000,47.827 220.374,47.708 220.831 C 47.588 221.288,47.065 221.823,46.545 222.021 C 46.025 222.218,45.600 222.655,45.600 222.990 C 45.600 223.326,45.435 223.600,45.233 223.600 C 44.746 223.600,41.600 226.635,41.600 227.104 C 41.600 227.306,41.150 227.677,40.600 227.927 C 40.050 228.178,39.600 228.657,39.600 228.991 C 39.600 229.326,39.399 229.600,39.153 229.600 C 38.571 229.600,35.600 232.571,35.600 233.153 C 35.600 233.399,35.326 233.600,34.991 233.600 C 34.657 233.600,34.178 234.050,33.927 234.600 C 33.677 235.150,33.306 235.600,33.104 235.600 C 32.635 235.600,29.600 238.746,29.600 239.233 C 29.600 239.435,29.313 239.600,28.963 239.600 C 28.612 239.600,28.227 239.974,28.108 240.431 C 27.988 240.888,27.465 241.423,26.945 241.621 C 24.865 242.412,25.457 243.058,58.599 276.201 C 92.108 309.710,91.600 309.217,91.600 308.190 C 91.600 307.855,92.050 307.409,92.600 307.200 C 93.150 306.991,93.600 306.541,93.600 306.200 C 93.600 305.859,94.050 305.409,94.600 305.200 C 95.150 304.991,95.600 304.541,95.600 304.200 C 95.600 303.859,96.025 303.418,96.545 303.221 C 97.065 303.023,97.588 302.488,97.708 302.031 C 97.827 301.574,98.191 301.200,98.516 301.200 C 98.841 301.200,99.204 300.827,99.324 300.370 C 99.443 299.914,99.897 299.447,100.333 299.333 C 100.769 299.219,101.219 298.769,101.333 298.333 C 101.447 297.897,101.908 297.445,102.357 297.327 C 102.806 297.210,103.279 296.782,103.407 296.377 C 103.536 295.972,103.992 295.530,104.420 295.394 C 104.849 295.257,105.200 294.884,105.200 294.564 C 105.200 294.245,105.650 293.778,106.200 293.527 C 106.750 293.277,107.200 292.827,107.200 292.527 C 107.200 292.228,107.650 291.778,108.200 291.527 C 108.750 291.277,109.200 290.826,109.200 290.526 C 109.200 290.226,109.650 289.809,110.200 289.600 C 110.750 289.391,111.200 288.941,111.200 288.600 C 111.200 288.259,111.650 287.809,112.200 287.600 C 112.750 287.391,113.200 286.941,113.200 286.600 C 113.200 286.259,113.650 285.809,114.200 285.600 C 114.750 285.391,115.200 284.941,115.200 284.600 C 115.200 284.259,115.625 283.818,116.145 283.621 C 116.665 283.423,117.188 282.888,117.308 282.431 C 117.427 281.974,117.783 281.600,118.098 281.600 C 118.414 281.600,118.877 281.150,119.127 280.600 C 119.378 280.050,119.828 279.600,120.127 279.600 C 120.427 279.600,120.877 279.150,121.127 278.600 C 121.378 278.050,121.845 277.600,122.164 277.600 C 122.484 277.600,122.857 277.249,122.994 276.820 C 123.130 276.392,123.583 275.933,124.000 275.800 C 124.417 275.667,124.867 275.217,125.000 274.800 C 125.133 274.383,125.592 273.930,126.020 273.794 C 126.449 273.657,126.800 273.284,126.800 272.964 C 126.800 272.645,127.250 272.178,127.800 271.927 C 128.350 271.677,128.800 271.226,128.800 270.926 C 128.800 270.626,129.250 270.209,129.800 270.000 C 130.350 269.791,130.800 269.341,130.800 269.000 C 130.800 268.659,131.250 268.209,131.800 268.000 C 132.350 267.791,132.800 267.341,132.800 267.000 C 132.800 266.659,133.250 266.209,133.800 266.000 C 134.350 265.791,134.800 265.341,134.800 265.000 C 134.800 264.659,135.250 264.209,135.800 264.000 C 136.350 263.791,136.800 263.341,136.800 263.000 C 136.800 262.659,137.225 262.218,137.745 262.021 C 138.265 261.823,138.788 261.288,138.908 260.831 C 139.027 260.374,139.383 260.000,139.698 260.000 C 140.014 260.000,140.477 259.550,140.727 259.000 C 140.978 258.450,141.445 258.000,141.764 258.000 C 142.084 258.000,142.457 257.649,142.594 257.220 C 142.730 256.792,143.183 256.333,143.600 256.200 C 144.017 256.067,144.467 255.617,144.600 255.200 C 144.733 254.783,145.192 254.330,145.620 254.194 C 146.049 254.057,146.400 253.684,146.400 253.364 C 146.400 253.045,146.850 252.578,147.400 252.327 C 147.950 252.077,148.400 251.626,148.400 251.326 C 148.400 251.026,148.850 250.609,149.400 250.400 C 149.950 250.191,150.400 249.741,150.400 249.400 C 150.400 249.059,150.850 248.609,151.400 248.400 C 151.950 248.191,152.400 247.741,152.400 247.400 C 152.400 247.059,152.850 246.609,153.400 246.400 C 153.950 246.191,154.400 245.741,154.400 245.400 C 154.400 245.059,154.850 244.609,155.400 244.400 C 155.950 244.191,156.400 243.741,156.400 243.400 C 156.400 243.059,156.825 242.618,157.345 242.421 C 157.865 242.223,158.388 241.688,158.508 241.231 C 158.627 240.774,158.983 240.400,159.298 240.400 C 159.614 240.400,160.077 239.950,160.327 239.400 C 160.578 238.850,161.045 238.400,161.364 238.400 C 161.684 238.400,162.057 238.049,162.194 237.620 C 162.330 237.192,162.783 236.733,163.200 236.600 C 163.617 236.467,164.067 236.017,164.200 235.600 C 164.333 235.183,164.792 234.730,165.220 234.594 C 165.649 234.457,166.000 234.084,166.000 233.764 C 166.000 233.445,166.435 232.985,166.966 232.743 C 167.497 232.501,168.021 231.964,168.129 231.551 C 168.237 231.138,168.616 230.800,168.972 230.800 C 169.328 230.800,169.791 230.350,170.000 229.800 C 170.209 229.250,170.659 228.800,171.000 228.800 C 171.341 228.800,171.791 228.350,172.000 227.800 C 172.209 227.250,172.659 226.800,173.000 226.800 C 173.341 226.800,173.791 226.350,174.000 225.800 C 174.209 225.250,174.659 224.800,175.000 224.800 C 175.341 224.800,175.791 224.350,176.000 223.800 C 176.209 223.250,176.659 222.800,177.000 222.800 C 177.341 222.800,177.791 222.350,178.000 221.800 C 178.209 221.250,178.626 220.800,178.926 220.800 C 179.226 220.800,179.677 220.350,179.927 219.800 C 180.178 219.250,180.645 218.800,180.964 218.800 C 181.284 218.800,181.657 218.449,181.794 218.020 C 181.930 217.592,182.383 217.133,182.800 217.000 C 183.217 216.867,183.667 216.417,183.800 216.000 C 183.933 215.583,184.392 215.130,184.820 214.994 C 185.249 214.857,185.600 214.484,185.600 214.164 C 185.600 213.845,186.050 213.378,186.600 213.127 C 187.150 212.877,187.600 212.426,187.600 212.126 C 187.600 211.826,188.050 211.409,188.600 211.200 C 189.150 210.991,189.600 210.541,189.600 210.200 C 189.600 209.859,190.050 209.409,190.600 209.200 C 191.150 208.991,191.600 208.541,191.600 208.200 C 191.600 207.859,192.050 207.409,192.600 207.200 C 193.150 206.991,193.600 206.541,193.600 206.200 C 193.600 205.859,194.050 205.409,194.600 205.200 C 195.150 204.991,195.600 204.541,195.600 204.200 C 195.600 203.859,196.025 203.418,196.545 203.221 C 197.065 203.023,197.588 202.488,197.708 202.031 C 197.827 201.574,198.183 201.200,198.498 201.200 C 198.814 201.200,199.277 200.750,199.527 200.200 C 199.778 199.650,200.245 199.200,200.564 199.200 C 200.884 199.200,201.257 198.849,201.394 198.420 C 201.530 197.992,201.983 197.533,202.400 197.400 C 202.817 197.267,203.267 196.817,203.400 196.400 C 203.533 195.983,203.992 195.530,204.420 195.394 C 204.849 195.257,205.200 194.884,205.200 194.564 C 205.200 194.245,205.650 193.778,206.200 193.527 C 206.750 193.277,207.200 192.826,207.200 192.526 C 207.200 192.226,207.650 191.809,208.200 191.600 C 208.750 191.391,209.200 190.941,209.200 190.600 C 209.200 190.259,209.650 189.809,210.200 189.600 C 210.750 189.391,211.200 188.941,211.200 188.600 C 211.200 188.259,211.650 187.809,212.200 187.600 C 212.750 187.391,213.200 186.941,213.200 186.600 C 213.200 186.259,213.650 185.809,214.200 185.600 C 214.750 185.391,215.200 184.941,215.200 184.600 C 215.200 184.259,215.625 183.818,216.145 183.621 C 216.665 183.423,217.188 182.888,217.308 182.431 C 217.427 181.974,217.800 181.600,218.136 181.600 C 218.471 181.600,218.857 181.249,218.994 180.820 C 219.130 180.392,219.583 179.933,220.000 179.800 C 220.417 179.667,220.867 179.217,221.000 178.800 C 221.133 178.383,221.583 177.933,222.000 177.800 C 222.417 177.667,222.867 177.217,223.000 176.800 C 223.133 176.383,223.592 175.930,224.020 175.794 C 224.449 175.657,224.800 175.284,224.800 174.964 C 224.800 174.645,225.250 174.178,225.800 173.927 C 226.350 173.677,226.800 173.226,226.800 172.926 C 226.800 172.626,227.250 172.209,227.800 172.000 C 228.350 171.791,228.800 171.341,228.800 171.000 C 228.800 170.659,229.250 170.209,229.800 170.000 C 230.350 169.791,230.800 169.341,230.800 169.000 C 230.800 168.659,231.250 168.209,231.800 168.000 C 232.350 167.791,232.800 167.341,232.800 167.000 C 232.800 166.659,233.250 166.209,233.800 166.000 C 234.350 165.791,234.800 165.341,234.800 165.000 C 234.800 164.659,235.250 164.209,235.800 164.000 C 236.350 163.791,236.800 163.341,236.800 163.000 C 236.800 162.659,237.250 162.209,237.800 162.000 C 238.350 161.791,238.800 161.357,238.800 161.037 C 238.800 160.716,239.151 160.343,239.580 160.206 C 240.008 160.070,240.467 159.617,240.600 159.200 C 240.733 158.783,241.183 158.333,241.600 158.200 C 242.017 158.067,242.467 157.617,242.600 157.200 C 242.733 156.783,243.183 156.333,243.600 156.200 C 244.017 156.067,244.470 155.608,244.606 155.180 C 244.743 154.751,245.202 154.400,245.627 154.400 C 246.136 154.400,246.400 154.124,246.400 153.590 C 246.400 153.094,246.788 152.633,247.400 152.400 C 247.950 152.191,248.400 151.741,248.400 151.400 C 248.400 151.059,248.825 150.618,249.345 150.421 C 249.865 150.223,250.388 149.688,250.508 149.231 C 250.641 148.723,251.051 148.400,251.563 148.400 C 252.137 148.400,252.400 148.145,252.400 147.590 C 252.400 147.094,252.788 146.633,253.400 146.400 C 253.950 146.191,254.400 145.741,254.400 145.400 C 254.400 145.059,254.850 144.609,255.400 144.400 C 255.950 144.191,256.400 143.741,256.400 143.400 C 256.400 143.059,256.850 142.609,257.400 142.400 C 257.950 142.191,258.400 141.757,258.400 141.437 C 258.400 141.116,258.751 140.743,259.180 140.606 C 259.608 140.470,260.067 140.017,260.200 139.600 C 260.333 139.183,260.783 138.733,261.200 138.600 C 261.617 138.467,262.067 138.017,262.200 137.600 C 262.333 137.183,262.783 136.733,263.200 136.600 C 263.617 136.467,264.070 136.008,264.206 135.580 C 264.343 135.151,264.802 134.800,265.227 134.800 C 265.736 134.800,266.000 134.524,266.000 133.990 C 266.000 133.507,266.381 133.035,266.945 132.821 C 267.465 132.623,267.988 132.088,268.108 131.631 C 268.227 131.174,268.616 130.800,268.972 130.800 C 269.328 130.800,269.791 130.350,270.000 129.800 C 270.233 129.188,270.694 128.800,271.190 128.800 C 271.737 128.800,272.000 128.537,272.000 127.990 C 272.000 127.494,272.388 127.033,273.000 126.800 C 273.550 126.591,274.000 126.141,274.000 125.800 C 274.000 125.459,274.425 125.018,274.945 124.821 C 275.465 124.623,275.988 124.088,276.108 123.631 C 276.241 123.123,276.651 122.800,277.163 122.800 C 277.724 122.800,278.000 122.545,278.000 122.027 C 278.000 121.602,278.351 121.143,278.780 121.006 C 279.208 120.870,279.667 120.417,279.800 120.000 C 279.933 119.583,280.383 119.133,280.800 119.000 C 281.217 118.867,281.667 118.417,281.800 118.000 C 281.933 117.583,282.383 117.133,282.800 117.000 C 283.217 116.867,283.670 116.408,283.806 115.980 C 283.943 115.551,284.402 115.200,284.827 115.200 C 285.336 115.200,285.600 114.924,285.600 114.390 C 285.600 113.894,285.988 113.433,286.600 113.200 C 287.150 112.991,287.600 112.541,287.600 112.200 C 287.600 111.859,288.025 111.418,288.545 111.221 C 289.065 111.023,289.588 110.488,289.708 110.031 C 289.841 109.523,290.251 109.200,290.763 109.200 C 291.337 109.200,291.600 108.945,291.600 108.390 C 291.600 107.894,291.988 107.433,292.600 107.200 C 293.150 106.991,293.600 106.541,293.600 106.200 C 293.600 105.859,294.025 105.418,294.545 105.221 C 295.065 105.023,295.588 104.488,295.708 104.031 C 295.841 103.523,296.251 103.200,296.763 103.200 C 297.324 103.200,297.600 102.945,297.600 102.427 C 297.600 102.002,297.951 101.543,298.380 101.406 C 298.808 101.270,299.267 100.817,299.400 100.400 C 299.533 99.983,299.983 99.533,300.400 99.400 C 300.817 99.267,301.267 98.817,301.400 98.400 C 301.533 97.983,301.983 97.533,302.400 97.400 C 302.817 97.267,303.270 96.808,303.406 96.380 C 303.543 95.951,304.002 95.600,304.427 95.600 C 304.936 95.600,305.200 95.324,305.200 94.790 C 305.200 94.294,305.588 93.833,306.200 93.600 C 306.750 93.391,307.200 92.941,307.200 92.600 C 307.200 92.259,307.625 91.818,308.145 91.621 C 308.665 91.423,309.188 90.888,309.308 90.431 C 309.441 89.923,309.851 89.600,310.363 89.600 C 310.937 89.600,311.200 89.345,311.200 88.790 C 311.200 88.294,311.588 87.833,312.200 87.600 C 312.750 87.391,313.200 86.941,313.200 86.600 C 313.200 86.259,313.625 85.818,314.145 85.621 C 314.665 85.423,315.188 84.888,315.308 84.431 C 315.441 83.923,315.851 83.600,316.363 83.600 C 316.924 83.600,317.200 83.345,317.200 82.827 C 317.200 82.402,317.551 81.943,317.980 81.806 C 318.408 81.670,318.867 81.217,319.000 80.800 C 319.133 80.383,319.583 79.933,320.000 79.800 C 320.417 79.667,320.867 79.217,321.000 78.800 C 321.133 78.383,321.583 77.933,322.000 77.800 C 322.417 77.667,322.870 77.208,323.006 76.780 C 323.143 76.351,323.602 76.000,324.027 76.000 C 324.536 76.000,324.800 75.724,324.800 75.190 C 324.800 74.694,325.188 74.233,325.800 74.000 C 326.350 73.791,326.800 73.341,326.800 73.000 C 326.800 72.659,327.225 72.218,327.745 72.021 C 328.265 71.823,328.788 71.288,328.908 70.831 C 329.041 70.323,329.451 70.000,329.963 70.000 C 330.537 70.000,330.800 69.745,330.800 69.190 C 330.800 68.694,331.188 68.233,331.800 68.000 C 332.350 67.791,332.800 67.341,332.800 67.000 C 332.800 66.659,333.225 66.218,333.745 66.021 C 334.265 65.823,334.788 65.288,334.908 64.831 C 335.041 64.323,335.451 64.000,335.963 64.000 C 336.531 64.000,336.800 63.745,336.800 63.208 C 336.800 62.696,337.154 62.326,337.800 62.164 C 338.409 62.011,338.800 61.628,338.800 61.184 C 338.800 60.782,339.151 60.343,339.580 60.206 C 340.008 60.070,340.467 59.617,340.600 59.200 C 340.733 58.783,341.183 58.333,341.600 58.200 C 342.017 58.067,342.470 57.608,342.606 57.180 C 342.743 56.751,343.182 56.400,343.584 56.400 C 344.028 56.400,344.411 56.009,344.564 55.400 C 344.726 54.754,345.096 54.400,345.608 54.400 C 346.137 54.400,346.400 54.131,346.400 53.590 C 346.400 53.107,346.781 52.635,347.345 52.421 C 347.865 52.223,348.388 51.688,348.508 51.231 C 348.638 50.735,349.052 50.400,349.535 50.400 C 350.070 50.400,350.388 50.095,350.472 49.500 C 350.554 48.922,350.922 48.554,351.500 48.472 C 352.083 48.389,352.400 48.069,352.400 47.562 C 352.400 47.108,352.796 46.629,353.345 46.421 C 353.865 46.223,354.388 45.688,354.508 45.231 C 354.641 44.723,355.051 44.400,355.563 44.400 C 356.131 44.400,356.400 44.145,356.400 43.608 C 356.400 43.096,356.754 42.726,357.400 42.564 C 358.009 42.411,358.400 42.028,358.400 41.584 C 358.400 41.182,358.751 40.743,359.180 40.606 C 359.608 40.470,360.067 40.017,360.200 39.600 C 360.333 39.183,360.783 38.733,361.200 38.600 C 361.617 38.467,362.070 38.008,362.206 37.580 C 362.343 37.151,362.782 36.800,363.184 36.800 C 363.628 36.800,364.011 36.409,364.164 35.800 C 364.326 35.154,364.696 34.800,365.208 34.800 C 365.737 34.800,366.000 34.531,366.000 33.990 C 366.000 33.507,366.381 33.035,366.945 32.821 C 367.465 32.623,367.988 32.088,368.108 31.631 C 368.238 31.135,368.652 30.800,369.135 30.800 C 369.670 30.800,369.988 30.495,370.072 29.900 C 370.154 29.322,370.522 28.954,371.100 28.872 C 371.595 28.802,372.000 28.483,372.000 28.164 C 372.000 27.844,372.444 27.380,372.987 27.133 C 374.216 26.573,373.916 25.967,372.476 26.099 C 371.884 26.153,342.195 26.244,306.500 26.300 M216.707 252.896 C 117.094 351.681,125.162 343.401,126.926 345.037 C 127.517 345.584,128.000 346.184,128.000 346.370 C 128.000 346.555,128.360 346.801,128.800 346.916 C 129.240 347.031,129.600 347.400,129.600 347.736 C 129.600 348.071,129.915 348.461,130.300 348.601 C 130.685 348.741,131.720 349.730,132.600 350.799 C 133.480 351.868,134.413 352.755,134.673 352.771 C 134.933 352.787,135.260 353.160,135.400 353.600 C 135.540 354.040,135.792 354.400,135.960 354.400 C 136.360 354.400,141.600 359.640,141.600 360.040 C 141.600 360.208,141.960 360.460,142.400 360.600 C 142.840 360.740,143.213 361.067,143.229 361.327 C 143.245 361.587,144.132 362.520,145.201 363.400 C 146.270 364.280,147.259 365.315,147.399 365.700 C 147.539 366.085,147.929 366.400,148.264 366.400 C 148.600 366.400,148.967 366.754,149.081 367.187 C 149.194 367.619,149.582 368.082,149.943 368.214 C 150.304 368.347,151.320 369.330,152.200 370.399 C 153.080 371.468,154.013 372.355,154.273 372.371 C 154.533 372.387,154.860 372.760,155.000 373.200 C 155.140 373.640,155.392 374.000,155.560 374.000 C 155.960 374.000,161.200 379.240,161.200 379.640 C 161.200 379.808,161.560 380.060,162.000 380.200 C 162.440 380.340,162.800 380.712,162.800 381.027 C 162.800 381.342,162.943 381.600,163.118 381.600 C 163.293 381.600,164.598 382.783,166.018 384.229 C 167.438 385.676,168.813 387.071,169.072 387.329 C 169.332 387.588,174.507 392.741,180.572 398.780 C 186.638 404.819,191.602 409.949,191.604 410.180 C 191.606 410.411,202.914 421.895,216.733 435.700 L 241.857 460.800 307.880 460.800 C 366.049 460.800,373.961 460.729,374.400 460.201 C 374.821 459.693,366.007 450.717,316.909 401.652 C 285.015 369.780,258.817 343.307,258.690 342.822 C 258.533 342.222,258.720 341.727,259.276 341.271 C 261.161 339.723,372.478 228.345,372.309 228.176 C 372.207 228.074,342.849 227.948,307.068 227.895 L 242.013 227.800 216.707 252.896 M259.351 345.005 C 260.148 345.338,260.800 345.773,260.800 345.970 C 260.800 346.449,330.348 416.000,330.827 416.000 C 331.032 416.000,331.200 416.177,331.200 416.394 C 331.200 416.909,337.891 423.600,338.406 423.600 C 338.623 423.600,338.800 423.761,338.800 423.958 C 338.800 424.445,357.526 443.200,358.013 443.200 C 358.226 443.200,358.400 443.349,358.400 443.532 C 358.400 444.028,363.489 449.200,363.978 449.200 C 364.210 449.200,364.400 449.376,364.400 449.590 C 364.400 449.805,366.582 452.127,369.248 454.750 C 372.024 457.481,373.980 459.708,373.825 459.960 C 373.629 460.277,355.213 460.400,307.891 460.400 L 242.229 460.400 220.014 438.233 C 207.796 426.041,196.585 414.886,195.100 413.444 C 192.137 410.568,192.086 410.452,193.100 408.901 C 193.922 407.644,202.344 399.200,202.777 399.200 C 202.939 399.200,203.277 398.750,203.527 398.200 C 203.778 397.650,204.257 397.200,204.591 397.200 C 204.926 397.200,205.200 396.985,205.200 396.723 C 205.200 396.181,208.274 393.200,208.834 393.200 C 209.035 393.200,209.200 392.960,209.200 392.668 C 209.200 392.375,209.650 391.894,210.200 391.600 C 210.750 391.306,211.200 390.909,211.200 390.719 C 211.200 390.229,213.681 387.808,214.509 387.490 C 214.889 387.344,215.200 386.962,215.200 386.640 C 215.200 386.317,215.571 385.936,216.024 385.792 C 216.478 385.648,217.047 385.096,217.289 384.565 C 217.530 384.034,217.941 383.600,218.200 383.600 C 218.459 383.600,218.877 383.150,219.127 382.600 C 219.378 382.050,219.728 381.600,219.906 381.600 C 220.084 381.600,223.324 378.585,227.106 374.900 C 230.887 371.215,234.211 367.984,234.491 367.719 C 234.771 367.455,235.216 367.005,235.481 366.719 C 235.745 366.434,236.195 365.984,236.481 365.719 C 236.766 365.455,237.216 365.005,237.481 364.719 C 237.745 364.434,238.195 363.980,238.481 363.711 C 239.179 363.054,238.847 363.384,248.915 353.311 C 253.802 348.422,257.823 344.417,257.851 344.411 C 257.879 344.405,258.554 344.672,259.351 345.005 " stroke="none" fill="#5eb1f3" fill-rule="evenodd"></path><path id="path1" d="M248.915 353.311 C 238.847 363.384,239.179 363.054,238.481 363.711 C 238.195 363.980,237.745 364.434,237.481 364.719 C 237.216 365.005,236.766 365.455,236.481 365.719 C 236.195 365.984,235.745 366.434,235.481 366.719 C 235.216 367.005,234.771 367.455,234.491 367.719 C 234.211 367.984,230.887 371.215,227.106 374.900 C 223.324 378.585,220.084 381.600,219.906 381.600 C 219.728 381.600,219.378 382.050,219.127 382.600 C 218.877 383.150,218.459 383.600,218.200 383.600 C 217.941 383.600,217.530 384.034,217.289 384.565 C 217.047 385.096,216.478 385.648,216.024 385.792 C 215.571 385.936,215.200 386.317,215.200 386.640 C 215.200 386.962,214.889 387.344,214.509 387.490 C 213.681 387.808,211.200 390.229,211.200 390.719 C 211.200 390.909,210.750 391.306,210.200 391.600 C 209.650 391.894,209.200 392.375,209.200 392.668 C 209.200 392.960,209.035 393.200,208.834 393.200 C 208.274 393.200,205.200 396.181,205.200 396.723 C 205.200 396.985,204.926 397.200,204.591 397.200 C 204.257 397.200,203.778 397.650,203.527 398.200 C 203.277 398.750,202.939 399.200,202.777 399.200 C 202.344 399.200,193.922 407.644,193.100 408.901 C 192.086 410.452,192.137 410.568,195.100 413.444 C 196.585 414.886,207.796 426.041,220.014 438.233 L 242.229 460.400 307.891 460.400 C 355.213 460.400,373.629 460.277,373.825 459.960 C 373.980 459.708,372.024 457.481,369.248 454.750 C 366.582 452.127,364.400 449.805,364.400 449.590 C 364.400 449.376,364.210 449.200,363.978 449.200 C 363.489 449.200,358.400 444.028,358.400 443.532 C 358.400 443.349,358.226 443.200,358.013 443.200 C 357.526 443.200,338.800 424.445,338.800 423.958 C 338.800 423.761,338.623 423.600,338.406 423.600 C 337.891 423.600,331.200 416.909,331.200 416.394 C 331.200 416.177,331.032 416.000,330.827 416.000 C 330.348 416.000,260.800 346.449,260.800 345.970 C 260.800 345.705,258.207 344.334,257.851 344.411 C 257.823 344.417,253.802 348.422,248.915 353.311 " stroke="none" fill="#0c429c" fill-rule="evenodd"></path><path id="path2" d="M133.534 133.491 C 34.162 232.824,25.200 241.890,25.200 243.072 C 25.200 244.445,89.651 309.600,91.009 309.600 C 92.240 309.600,374.974 26.492,374.415 25.819 C 373.956 25.265,366.958 25.200,307.885 25.200 L 241.867 25.200 133.534 133.491 M373.764 26.342 C 373.880 26.529,373.531 26.885,372.987 27.133 C 372.444 27.380,372.000 27.844,372.000 28.164 C 372.000 28.483,371.595 28.802,371.100 28.872 C 370.522 28.954,370.154 29.322,370.072 29.900 C 369.988 30.495,369.670 30.800,369.135 30.800 C 368.652 30.800,368.238 31.135,368.108 31.631 C 367.988 32.088,367.465 32.623,366.945 32.821 C 366.381 33.035,366.000 33.507,366.000 33.990 C 366.000 34.531,365.737 34.800,365.208 34.800 C 364.696 34.800,364.326 35.154,364.164 35.800 C 364.011 36.409,363.628 36.800,363.184 36.800 C 362.782 36.800,362.343 37.151,362.206 37.580 C 362.070 38.008,361.617 38.467,361.200 38.600 C 360.783 38.733,360.333 39.183,360.200 39.600 C 360.067 40.017,359.608 40.470,359.180 40.606 C 358.751 40.743,358.400 41.182,358.400 41.584 C 358.400 42.028,358.009 42.411,357.400 42.564 C 356.754 42.726,356.400 43.096,356.400 43.608 C 356.400 44.145,356.131 44.400,355.563 44.400 C 355.051 44.400,354.641 44.723,354.508 45.231 C 354.388 45.688,353.865 46.223,353.345 46.421 C 352.796 46.629,352.400 47.108,352.400 47.562 C 352.400 48.069,352.083 48.389,351.500 48.472 C 350.922 48.554,350.554 48.922,350.472 49.500 C 350.388 50.095,350.070 50.400,349.535 50.400 C 349.052 50.400,348.638 50.735,348.508 51.231 C 348.388 51.688,347.865 52.223,347.345 52.421 C 346.781 52.635,346.400 53.107,346.400 53.590 C 346.400 54.131,346.137 54.400,345.608 54.400 C 345.096 54.400,344.726 54.754,344.564 55.400 C 344.411 56.009,344.028 56.400,343.584 56.400 C 343.182 56.400,342.743 56.751,342.606 57.180 C 342.470 57.608,342.017 58.067,341.600 58.200 C 341.183 58.333,340.733 58.783,340.600 59.200 C 340.467 59.617,340.008 60.070,339.580 60.206 C 339.151 60.343,338.800 60.782,338.800 61.184 C 338.800 61.628,338.409 62.011,337.800 62.164 C 337.154 62.326,336.800 62.696,336.800 63.208 C 336.800 63.745,336.531 64.000,335.963 64.000 C 335.451 64.000,335.041 64.323,334.908 64.831 C 334.788 65.288,334.265 65.823,333.745 66.021 C 333.225 66.218,332.800 66.659,332.800 67.000 C 332.800 67.341,332.350 67.791,331.800 68.000 C 331.188 68.233,330.800 68.694,330.800 69.190 C 330.800 69.745,330.537 70.000,329.963 70.000 C 329.451 70.000,329.041 70.323,328.908 70.831 C 328.788 71.288,328.265 71.823,327.745 72.021 C 327.225 72.218,326.800 72.659,326.800 73.000 C 326.800 73.341,326.350 73.791,325.800 74.000 C 325.188 74.233,324.800 74.694,324.800 75.190 C 324.800 75.724,324.536 76.000,324.027 76.000 C 323.602 76.000,323.143 76.351,323.006 76.780 C 322.870 77.208,322.417 77.667,322.000 77.800 C 321.583 77.933,321.133 78.383,321.000 78.800 C 320.867 79.217,320.417 79.667,320.000 79.800 C 319.583 79.933,319.133 80.383,319.000 80.800 C 318.867 81.217,318.408 81.670,317.980 81.806 C 317.551 81.943,317.200 82.402,317.200 82.827 C 317.200 83.345,316.924 83.600,316.363 83.600 C 315.851 83.600,315.441 83.923,315.308 84.431 C 315.188 84.888,314.665 85.423,314.145 85.621 C 313.625 85.818,313.200 86.259,313.200 86.600 C 313.200 86.941,312.750 87.391,312.200 87.600 C 311.588 87.833,311.200 88.294,311.200 88.790 C 311.200 89.345,310.937 89.600,310.363 89.600 C 309.851 89.600,309.441 89.923,309.308 90.431 C 309.188 90.888,308.665 91.423,308.145 91.621 C 307.625 91.818,307.200 92.259,307.200 92.600 C 307.200 92.941,306.750 93.391,306.200 93.600 C 305.588 93.833,305.200 94.294,305.200 94.790 C 305.200 95.324,304.936 95.600,304.427 95.600 C 304.002 95.600,303.543 95.951,303.406 96.380 C 303.270 96.808,302.817 97.267,302.400 97.400 C 301.983 97.533,301.533 97.983,301.400 98.400 C 301.267 98.817,300.817 99.267,300.400 99.400 C 299.983 99.533,299.533 99.983,299.400 100.400 C 299.267 100.817,298.808 101.270,298.380 101.406 C 297.951 101.543,297.600 102.002,297.600 102.427 C 297.600 102.945,297.324 103.200,296.763 103.200 C 296.251 103.200,295.841 103.523,295.708 104.031 C 295.588 104.488,295.065 105.023,294.545 105.221 C 294.025 105.418,293.600 105.859,293.600 106.200 C 293.600 106.541,293.150 106.991,292.600 107.200 C 291.988 107.433,291.600 107.894,291.600 108.390 C 291.600 108.945,291.337 109.200,290.763 109.200 C 290.251 109.200,289.841 109.523,289.708 110.031 C 289.588 110.488,289.065 111.023,288.545 111.221 C 288.025 111.418,287.600 111.859,287.600 112.200 C 287.600 112.541,287.150 112.991,286.600 113.200 C 285.988 113.433,285.600 113.894,285.600 114.390 C 285.600 114.924,285.336 115.200,284.827 115.200 C 284.402 115.200,283.943 115.551,283.806 115.980 C 283.670 116.408,283.217 116.867,282.800 117.000 C 282.383 117.133,281.933 117.583,281.800 118.000 C 281.667 118.417,281.217 118.867,280.800 119.000 C 280.383 119.133,279.933 119.583,279.800 120.000 C 279.667 120.417,279.208 120.870,278.780 121.006 C 278.351 121.143,278.000 121.602,278.000 122.027 C 278.000 122.545,277.724 122.800,277.163 122.800 C 276.651 122.800,276.241 123.123,276.108 123.631 C 275.988 124.088,275.465 124.623,274.945 124.821 C 274.425 125.018,274.000 125.459,274.000 125.800 C 274.000 126.141,273.550 126.591,273.000 126.800 C 272.388 127.033,272.000 127.494,272.000 127.990 C 272.000 128.537,271.737 128.800,271.190 128.800 C 270.694 128.800,270.233 129.188,270.000 129.800 C 269.791 130.350,269.328 130.800,268.972 130.800 C 268.616 130.800,268.227 131.174,268.108 131.631 C 267.988 132.088,267.465 132.623,266.945 132.821 C 266.381 133.035,266.000 133.507,266.000 133.990 C 266.000 134.524,265.736 134.800,265.227 134.800 C 264.802 134.800,264.343 135.151,264.206 135.580 C 264.070 136.008,263.617 136.467,263.200 136.600 C 262.783 136.733,262.333 137.183,262.200 137.600 C 262.067 138.017,261.617 138.467,261.200 138.600 C 260.783 138.733,260.333 139.183,260.200 139.600 C 260.067 140.017,259.608 140.470,259.180 140.606 C 258.751 140.743,258.400 141.116,258.400 141.437 C 258.400 141.757,257.950 142.191,257.400 142.400 C 256.850 142.609,256.400 143.059,256.400 143.400 C 256.400 143.741,255.950 144.191,255.400 144.400 C 254.850 144.609,254.400 145.059,254.400 145.400 C 254.400 145.741,253.950 146.191,253.400 146.400 C 252.788 146.633,252.400 147.094,252.400 147.590 C 252.400 148.145,252.137 148.400,251.563 148.400 C 251.051 148.400,250.641 148.723,250.508 149.231 C 250.388 149.688,249.865 150.223,249.345 150.421 C 248.825 150.618,248.400 151.059,248.400 151.400 C 248.400 151.741,247.950 152.191,247.400 152.400 C 246.788 152.633,246.400 153.094,246.400 153.590 C 246.400 154.124,246.136 154.400,245.627 154.400 C 245.202 154.400,244.743 154.751,244.606 155.180 C 244.470 155.608,244.017 156.067,243.600 156.200 C 243.183 156.333,242.733 156.783,242.600 157.200 C 242.467 157.617,242.017 158.067,241.600 158.200 C 241.183 158.333,240.733 158.783,240.600 159.200 C 240.467 159.617,240.008 160.070,239.580 160.206 C 239.151 160.343,238.800 160.716,238.800 161.037 C 238.800 161.357,238.350 161.791,237.800 162.000 C 237.250 162.209,236.800 162.659,236.800 163.000 C 236.800 163.341,236.350 163.791,235.800 164.000 C 235.250 164.209,234.800 164.659,234.800 165.000 C 234.800 165.341,234.350 165.791,233.800 166.000 C 233.250 166.209,232.800 166.659,232.800 167.000 C 232.800 167.341,232.350 167.791,231.800 168.000 C 231.250 168.209,230.800 168.659,230.800 169.000 C 230.800 169.341,230.350 169.791,229.800 170.000 C 229.250 170.209,228.800 170.659,228.800 171.000 C 228.800 171.341,228.350 171.791,227.800 172.000 C 227.250 172.209,226.800 172.626,226.800 172.926 C 226.800 173.226,226.350 173.677,225.800 173.927 C 225.250 174.178,224.800 174.645,224.800 174.964 C 224.800 175.284,224.449 175.657,224.020 175.794 C 223.592 175.930,223.133 176.383,223.000 176.800 C 222.867 177.217,222.417 177.667,222.000 177.800 C 221.583 177.933,221.133 178.383,221.000 178.800 C 220.867 179.217,220.417 179.667,220.000 179.800 C 219.583 179.933,219.130 180.392,218.994 180.820 C 218.857 181.249,218.471 181.600,218.136 181.600 C 217.800 181.600,217.427 181.974,217.308 182.431 C 217.188 182.888,216.665 183.423,216.145 183.621 C 215.625 183.818,215.200 184.259,215.200 184.600 C 215.200 184.941,214.750 185.391,214.200 185.600 C 213.650 185.809,213.200 186.259,213.200 186.600 C 213.200 186.941,212.750 187.391,212.200 187.600 C 211.650 187.809,211.200 188.259,211.200 188.600 C 211.200 188.941,210.750 189.391,210.200 189.600 C 209.650 189.809,209.200 190.259,209.200 190.600 C 209.200 190.941,208.750 191.391,208.200 191.600 C 207.650 191.809,207.200 192.226,207.200 192.526 C 207.200 192.826,206.750 193.277,206.200 193.527 C 205.650 193.778,205.200 194.245,205.200 194.564 C 205.200 194.884,204.849 195.257,204.420 195.394 C 203.992 195.530,203.533 195.983,203.400 196.400 C 203.267 196.817,202.817 197.267,202.400 197.400 C 201.983 197.533,201.530 197.992,201.394 198.420 C 201.257 198.849,200.884 199.200,200.564 199.200 C 200.245 199.200,199.778 199.650,199.527 200.200 C 199.277 200.750,198.814 201.200,198.498 201.200 C 198.183 201.200,197.827 201.574,197.708 202.031 C 197.588 202.488,197.065 203.023,196.545 203.221 C 196.025 203.418,195.600 203.859,195.600 204.200 C 195.600 204.541,195.150 204.991,194.600 205.200 C 194.050 205.409,193.600 205.859,193.600 206.200 C 193.600 206.541,193.150 206.991,192.600 207.200 C 192.050 207.409,191.600 207.859,191.600 208.200 C 191.600 208.541,191.150 208.991,190.600 209.200 C 190.050 209.409,189.600 209.859,189.600 210.200 C 189.600 210.541,189.150 210.991,188.600 211.200 C 188.050 211.409,187.600 211.826,187.600 212.126 C 187.600 212.426,187.150 212.877,186.600 213.127 C 186.050 213.378,185.600 213.845,185.600 214.164 C 185.600 214.484,185.249 214.857,184.820 214.994 C 184.392 215.130,183.933 215.583,183.800 216.000 C 183.667 216.417,183.217 216.867,182.800 217.000 C 182.383 217.133,181.930 217.592,181.794 218.020 C 181.657 218.449,181.284 218.800,180.964 218.800 C 180.645 218.800,180.178 219.250,179.927 219.800 C 179.677 220.350,179.226 220.800,178.926 220.800 C 178.626 220.800,178.209 221.250,178.000 221.800 C 177.791 222.350,177.341 222.800,177.000 222.800 C 176.659 222.800,176.209 223.250,176.000 223.800 C 175.791 224.350,175.341 224.800,175.000 224.800 C 174.659 224.800,174.209 225.250,174.000 225.800 C 173.791 226.350,173.341 226.800,173.000 226.800 C 172.659 226.800,172.209 227.250,172.000 227.800 C 171.791 228.350,171.341 228.800,171.000 228.800 C 170.659 228.800,170.209 229.250,170.000 229.800 C 169.791 230.350,169.328 230.800,168.972 230.800 C 168.616 230.800,168.237 231.138,168.129 231.551 C 168.021 231.964,167.497 232.501,166.966 232.743 C 166.435 232.985,166.000 233.445,166.000 233.764 C 166.000 234.084,165.649 234.457,165.220 234.594 C 164.792 234.730,164.333 235.183,164.200 235.600 C 164.067 236.017,163.617 236.467,163.200 236.600 C 162.783 236.733,162.330 237.192,162.194 237.620 C 162.057 238.049,161.684 238.400,161.364 238.400 C 161.045 238.400,160.578 238.850,160.327 239.400 C 160.077 239.950,159.614 240.400,159.298 240.400 C 158.983 240.400,158.627 240.774,158.508 241.231 C 158.388 241.688,157.865 242.223,157.345 242.421 C 156.825 242.618,156.400 243.059,156.400 243.400 C 156.400 243.741,155.950 244.191,155.400 244.400 C 154.850 244.609,154.400 245.059,154.400 245.400 C 154.400 245.741,153.950 246.191,153.400 246.400 C 152.850 246.609,152.400 247.059,152.400 247.400 C 152.400 247.741,151.950 248.191,151.400 248.400 C 150.850 248.609,150.400 249.059,150.400 249.400 C 150.400 249.741,149.950 250.191,149.400 250.400 C 148.850 250.609,148.400 251.026,148.400 251.326 C 148.400 251.626,147.950 252.077,147.400 252.327 C 146.850 252.578,146.400 253.045,146.400 253.364 C 146.400 253.684,146.049 254.057,145.620 254.194 C 145.192 254.330,144.733 254.783,144.600 255.200 C 144.467 255.617,144.017 256.067,143.600 256.200 C 143.183 256.333,142.730 256.792,142.594 257.220 C 142.457 257.649,142.084 258.000,141.764 258.000 C 141.445 258.000,140.978 258.450,140.727 259.000 C 140.477 259.550,140.014 260.000,139.698 260.000 C 139.383 260.000,139.027 260.374,138.908 260.831 C 138.788 261.288,138.265 261.823,137.745 262.021 C 137.225 262.218,136.800 262.659,136.800 263.000 C 136.800 263.341,136.350 263.791,135.800 264.000 C 135.250 264.209,134.800 264.659,134.800 265.000 C 134.800 265.341,134.350 265.791,133.800 266.000 C 133.250 266.209,132.800 266.659,132.800 267.000 C 132.800 267.341,132.350 267.791,131.800 268.000 C 131.250 268.209,130.800 268.659,130.800 269.000 C 130.800 269.341,130.350 269.791,129.800 270.000 C 129.250 270.209,128.800 270.626,128.800 270.926 C 128.800 271.226,128.350 271.677,127.800 271.927 C 127.250 272.178,126.800 272.645,126.800 272.964 C 126.800 273.284,126.449 273.657,126.020 273.794 C 125.592 273.930,125.133 274.383,125.000 274.800 C 124.867 275.217,124.417 275.667,124.000 275.800 C 123.583 275.933,123.130 276.392,122.994 276.820 C 122.857 277.249,122.484 277.600,122.164 277.600 C 121.845 277.600,121.378 278.050,121.127 278.600 C 120.877 279.150,120.427 279.600,120.127 279.600 C 119.828 279.600,119.378 280.050,119.127 280.600 C 118.877 281.150,118.414 281.600,118.098 281.600 C 117.783 281.600,117.427 281.974,117.308 282.431 C 117.188 282.888,116.665 283.423,116.145 283.621 C 115.625 283.818,115.200 284.259,115.200 284.600 C 115.200 284.941,114.750 285.391,114.200 285.600 C 113.650 285.809,113.200 286.259,113.200 286.600 C 113.200 286.941,112.750 287.391,112.200 287.600 C 111.650 287.809,111.200 288.259,111.200 288.600 C 111.200 288.941,110.750 289.391,110.200 289.600 C 109.650 289.809,109.200 290.226,109.200 290.526 C 109.200 290.826,108.750 291.277,108.200 291.527 C 107.650 291.778,107.200 292.228,107.200 292.527 C 107.200 292.827,106.750 293.277,106.200 293.527 C 105.650 293.778,105.200 294.245,105.200 294.564 C 105.200 294.884,104.849 295.257,104.420 295.394 C 103.992 295.530,103.536 295.972,103.407 296.377 C 103.279 296.782,102.806 297.210,102.357 297.327 C 101.908 297.445,101.447 297.897,101.333 298.333 C 101.219 298.769,100.769 299.219,100.333 299.333 C 99.897 299.447,99.443 299.914,99.324 300.370 C 99.204 300.827,98.841 301.200,98.516 301.200 C 98.191 301.200,97.827 301.574,97.708 302.031 C 97.588 302.488,97.065 303.023,96.545 303.221 C 96.025 303.418,95.600 303.859,95.600 304.200 C 95.600 304.541,95.150 304.991,94.600 305.200 C 94.050 305.409,93.600 305.859,93.600 306.200 C 93.600 306.541,93.150 306.991,92.600 307.200 C 92.050 307.409,91.600 307.855,91.600 308.190 C 91.600 309.217,92.108 309.710,58.599 276.201 C 25.457 243.058,24.865 242.412,26.945 241.621 C 27.465 241.423,27.988 240.888,28.108 240.431 C 28.227 239.974,28.612 239.600,28.963 239.600 C 29.313 239.600,29.600 239.435,29.600 239.233 C 29.600 238.746,32.635 235.600,33.104 235.600 C 33.306 235.600,33.677 235.150,33.927 234.600 C 34.178 234.050,34.657 233.600,34.991 233.600 C 35.326 233.600,35.600 233.399,35.600 233.153 C 35.600 232.571,38.571 229.600,39.153 229.600 C 39.399 229.600,39.600 229.326,39.600 228.991 C 39.600 228.657,40.050 228.178,40.600 227.927 C 41.150 227.677,41.600 227.306,41.600 227.104 C 41.600 226.635,44.746 223.600,45.233 223.600 C 45.435 223.600,45.600 223.326,45.600 222.990 C 45.600 222.655,46.025 222.218,46.545 222.021 C 47.065 221.823,47.588 221.288,47.708 220.831 C 47.827 220.374,48.212 220.000,48.563 220.000 C 48.913 220.000,49.200 219.835,49.200 219.633 C 49.200 219.146,52.235 216.000,52.704 216.000 C 52.906 216.000,53.277 215.550,53.527 215.000 C 53.778 214.450,54.257 214.000,54.591 214.000 C 54.926 214.000,55.200 213.799,55.200 213.553 C 55.200 212.971,58.171 210.000,58.753 210.000 C 58.999 210.000,59.200 209.726,59.200 209.391 C 59.200 209.057,59.650 208.578,60.200 208.327 C 60.750 208.077,61.200 207.706,61.200 207.504 C 61.200 207.035,64.346 204.000,64.833 204.000 C 65.035 204.000,65.200 203.726,65.200 203.390 C 65.200 203.055,65.625 202.618,66.145 202.421 C 66.665 202.223,67.188 201.688,67.308 201.231 C 67.427 200.774,67.812 200.400,68.163 200.400 C 68.513 200.400,68.800 200.235,68.800 200.033 C 68.800 199.546,71.835 196.400,72.304 196.400 C 72.506 196.400,72.877 195.950,73.127 195.400 C 73.378 194.850,73.857 194.400,74.191 194.400 C 74.526 194.400,74.800 194.199,74.800 193.953 C 74.800 193.371,77.771 190.400,78.353 190.400 C 78.599 190.400,78.800 190.126,78.800 189.791 C 78.800 189.457,79.250 188.978,79.800 188.727 C 80.350 188.477,80.800 188.106,80.800 187.904 C 80.800 187.435,83.946 184.400,84.433 184.400 C 84.635 184.400,84.800 184.126,84.800 183.790 C 84.800 183.455,85.250 183.009,85.800 182.800 C 86.350 182.591,86.800 182.141,86.800 181.800 C 86.800 181.459,87.250 181.009,87.800 180.800 C 88.350 180.591,88.800 180.229,88.800 179.997 C 88.800 179.488,91.426 176.800,91.922 176.800 C 92.114 176.800,92.477 176.350,92.727 175.800 C 92.978 175.250,93.428 174.800,93.727 174.800 C 94.027 174.800,94.477 174.350,94.727 173.800 C 94.978 173.250,95.436 172.800,95.745 172.800 C 96.054 172.800,96.404 172.427,96.524 171.970 C 96.643 171.514,97.114 171.043,97.570 170.924 C 98.027 170.804,98.400 170.454,98.400 170.145 C 98.400 169.836,98.850 169.378,99.400 169.127 C 99.950 168.877,100.400 168.427,100.400 168.127 C 100.400 167.828,100.850 167.378,101.400 167.127 C 101.950 166.877,102.400 166.427,102.400 166.127 C 102.400 165.828,102.850 165.378,103.400 165.127 C 103.950 164.877,104.400 164.414,104.400 164.098 C 104.400 163.783,104.774 163.427,105.231 163.308 C 105.688 163.188,106.223 162.665,106.421 162.145 C 106.618 161.625,107.059 161.200,107.400 161.200 C 107.741 161.200,108.191 160.750,108.400 160.200 C 108.609 159.650,109.026 159.200,109.326 159.200 C 109.626 159.200,110.077 158.750,110.327 158.200 C 110.578 157.650,111.028 157.200,111.327 157.200 C 111.627 157.200,112.077 156.750,112.327 156.200 C 112.578 155.650,113.028 155.200,113.327 155.200 C 113.627 155.200,114.077 154.750,114.327 154.200 C 114.578 153.650,115.036 153.200,115.345 153.200 C 115.654 153.200,116.004 152.827,116.124 152.370 C 116.243 151.914,116.714 151.443,117.170 151.324 C 117.627 151.204,118.000 150.854,118.000 150.545 C 118.000 150.236,118.447 149.779,118.992 149.531 C 119.538 149.282,120.087 148.755,120.213 148.360 C 120.338 147.964,120.792 147.530,121.220 147.394 C 121.649 147.257,122.000 146.884,122.000 146.564 C 122.000 146.245,122.450 145.778,123.000 145.527 C 123.550 145.277,124.000 144.814,124.000 144.498 C 124.000 144.183,124.374 143.827,124.831 143.708 C 125.288 143.588,125.823 143.065,126.021 142.545 C 126.218 142.025,126.659 141.600,127.000 141.600 C 127.341 141.600,127.791 141.150,128.000 140.600 C 128.209 140.050,128.626 139.600,128.926 139.600 C 129.226 139.600,129.677 139.150,129.927 138.600 C 130.178 138.050,130.628 137.600,130.927 137.600 C 131.227 137.600,131.677 137.150,131.927 136.600 C 132.178 136.050,132.628 135.600,132.927 135.600 C 133.227 135.600,133.677 135.150,133.927 134.600 C 134.178 134.050,134.636 133.600,134.945 133.600 C 135.254 133.600,135.604 133.227,135.724 132.770 C 135.843 132.314,136.314 131.843,136.770 131.724 C 137.227 131.604,137.600 131.254,137.600 130.945 C 137.600 130.636,138.047 130.179,138.592 129.931 C 139.138 129.682,139.687 129.155,139.813 128.760 C 139.938 128.364,140.392 127.930,140.820 127.794 C 141.249 127.657,141.600 127.284,141.600 126.964 C 141.600 126.645,142.050 126.178,142.600 125.927 C 143.150 125.677,143.600 125.214,143.600 124.898 C 143.600 124.583,143.974 124.227,144.431 124.108 C 144.888 123.988,145.423 123.465,145.621 122.945 C 145.818 122.425,146.259 122.000,146.600 122.000 C 146.941 122.000,147.391 121.550,147.600 121.000 C 147.809 120.450,148.226 120.000,148.526 120.000 C 148.826 120.000,149.277 119.550,149.527 119.000 C 149.778 118.450,150.245 118.000,150.564 118.000 C 150.884 118.000,151.257 117.649,151.394 117.220 C 151.530 116.792,151.964 116.338,152.360 116.213 C 152.755 116.087,153.282 115.538,153.531 114.992 C 153.779 114.447,154.236 114.000,154.545 114.000 C 154.854 114.000,155.204 113.627,155.324 113.170 C 155.443 112.714,155.914 112.243,156.370 112.124 C 156.827 112.004,157.200 111.654,157.200 111.345 C 157.200 111.036,157.647 110.579,158.192 110.331 C 158.738 110.082,159.287 109.555,159.413 109.160 C 159.538 108.764,159.992 108.330,160.420 108.194 C 160.849 108.057,161.200 107.684,161.200 107.364 C 161.200 107.045,161.650 106.578,162.200 106.327 C 162.750 106.077,163.200 105.614,163.200 105.298 C 163.200 104.983,163.574 104.627,164.031 104.508 C 164.488 104.388,165.023 103.865,165.221 103.345 C 165.418 102.825,165.859 102.400,166.200 102.400 C 166.541 102.400,166.991 101.950,167.200 101.400 C 167.409 100.850,167.826 100.400,168.126 100.400 C 168.426 100.400,168.877 99.950,169.127 99.400 C 169.378 98.850,169.845 98.400,170.164 98.400 C 170.484 98.400,170.857 98.049,170.994 97.620 C 171.130 97.192,171.564 96.738,171.960 96.613 C 172.355 96.487,172.882 95.938,173.131 95.392 C 173.379 94.847,173.861 94.400,174.201 94.400 C 174.541 94.400,174.991 93.950,175.200 93.400 C 175.409 92.850,175.855 92.400,176.190 92.400 C 176.526 92.400,176.800 92.126,176.800 91.791 C 176.800 91.457,177.247 90.979,177.792 90.731 C 178.338 90.482,178.887 89.955,179.013 89.560 C 179.138 89.164,179.583 88.733,180.000 88.600 C 180.417 88.467,180.867 88.017,181.000 87.600 C 181.133 87.183,181.592 86.730,182.020 86.594 C 182.449 86.457,182.800 86.084,182.800 85.763 C 182.800 85.443,183.225 85.018,183.745 84.821 C 184.265 84.623,184.788 84.088,184.908 83.631 C 185.027 83.174,185.416 82.800,185.772 82.800 C 186.128 82.800,186.591 82.350,186.800 81.800 C 187.009 81.250,187.459 80.800,187.800 80.800 C 188.141 80.800,188.591 80.350,188.800 79.800 C 189.009 79.250,189.443 78.800,189.763 78.800 C 190.084 78.800,190.457 78.449,190.594 78.020 C 190.730 77.592,191.164 77.138,191.560 77.013 C 191.955 76.887,192.482 76.338,192.731 75.792 C 192.979 75.247,193.461 74.800,193.801 74.800 C 194.141 74.800,194.591 74.350,194.800 73.800 C 195.009 73.250,195.455 72.800,195.790 72.800 C 196.126 72.800,196.400 72.526,196.400 72.191 C 196.400 71.857,196.847 71.379,197.392 71.131 C 197.938 70.882,198.487 70.355,198.613 69.960 C 198.738 69.564,199.183 69.133,199.600 69.000 C 200.017 68.867,200.467 68.417,200.600 68.000 C 200.733 67.583,201.192 67.130,201.620 66.994 C 202.049 66.857,202.400 66.484,202.400 66.163 C 202.400 65.843,202.850 65.409,203.400 65.200 C 203.950 64.991,204.400 64.541,204.400 64.200 C 204.400 63.859,204.850 63.409,205.400 63.200 C 205.950 62.991,206.400 62.541,206.400 62.200 C 206.400 61.859,206.850 61.409,207.400 61.200 C 207.950 60.991,208.400 60.557,208.400 60.237 C 208.400 59.916,208.751 59.543,209.180 59.406 C 209.608 59.270,210.067 58.817,210.200 58.400 C 210.333 57.983,210.783 57.533,211.200 57.400 C 211.617 57.267,212.074 56.798,212.214 56.357 C 212.354 55.915,212.903 55.389,213.434 55.187 C 213.965 54.985,214.400 54.545,214.400 54.210 C 214.400 53.874,214.674 53.600,215.010 53.600 C 215.345 53.600,215.791 53.150,216.000 52.600 C 216.209 52.050,216.659 51.600,216.999 51.600 C 217.339 51.600,217.821 51.153,218.069 50.608 C 218.318 50.062,218.845 49.513,219.240 49.387 C 219.636 49.262,220.067 48.817,220.200 48.400 C 220.333 47.983,220.792 47.530,221.220 47.394 C 221.649 47.257,222.000 46.884,222.000 46.563 C 222.000 46.243,222.450 45.809,223.000 45.600 C 223.550 45.391,224.000 44.941,224.000 44.600 C 224.000 44.259,224.450 43.809,225.000 43.600 C 225.550 43.391,226.000 42.941,226.000 42.600 C 226.000 42.259,226.450 41.809,227.000 41.600 C 227.550 41.391,228.000 40.974,228.000 40.674 C 228.000 40.374,228.450 39.923,229.000 39.673 C 229.550 39.422,230.000 38.955,230.000 38.636 C 230.000 38.316,230.351 37.943,230.780 37.806 C 231.208 37.670,231.674 37.198,231.814 36.757 C 231.954 36.315,232.503 35.789,233.034 35.587 C 233.565 35.385,234.000 34.945,234.000 34.610 C 234.000 34.274,234.274 34.000,234.610 34.000 C 234.945 34.000,235.391 33.550,235.600 33.000 C 235.809 32.450,236.259 32.000,236.599 32.000 C 236.939 32.000,237.422 31.550,237.673 31.000 C 237.923 30.450,238.373 30.000,238.673 30.000 C 238.972 30.000,239.415 29.565,239.657 29.034 C 239.899 28.503,240.436 27.979,240.849 27.871 C 241.262 27.763,241.600 27.389,241.600 27.039 C 241.600 26.460,247.478 26.393,306.500 26.300 C 342.195 26.244,371.884 26.153,372.476 26.099 C 373.068 26.044,373.648 26.154,373.764 26.342 M183.630 284.300 C 139.286 328.527,125.179 342.823,125.188 343.522 C 125.199 344.364,190.576 410.400,191.399 410.400 C 192.161 410.400,183.728 401.628,171.135 389.323 C 169.741 387.960,167.438 385.665,166.018 384.223 C 164.598 382.780,163.293 381.600,163.118 381.600 C 162.943 381.600,162.800 381.342,162.800 381.027 C 162.800 380.712,162.440 380.340,162.000 380.200 C 161.560 380.060,161.200 379.808,161.200 379.640 C 161.200 379.240,155.960 374.000,155.560 374.000 C 155.392 374.000,155.140 373.640,155.000 373.200 C 154.860 372.760,154.533 372.387,154.273 372.371 C 154.013 372.355,153.080 371.468,152.200 370.399 C 151.320 369.330,150.304 368.347,149.943 368.214 C 149.582 368.082,149.194 367.619,149.081 367.187 C 148.967 366.754,148.600 366.400,148.264 366.400 C 147.929 366.400,147.539 366.085,147.399 365.700 C 147.259 365.315,146.270 364.280,145.201 363.400 C 144.132 362.520,143.245 361.587,143.229 361.327 C 143.213 361.067,142.840 360.740,142.400 360.600 C 141.960 360.460,141.600 360.208,141.600 360.040 C 141.600 359.640,136.360 354.400,135.960 354.400 C 135.792 354.400,135.540 354.040,135.400 353.600 C 135.260 353.160,134.933 352.787,134.673 352.771 C 134.413 352.755,133.480 351.868,132.600 350.799 C 131.720 349.730,130.704 348.747,130.343 348.614 C 129.982 348.482,129.594 348.019,129.481 347.587 C 129.367 347.154,128.988 346.800,128.637 346.800 C 128.287 346.800,128.000 346.627,128.000 346.416 C 128.000 346.205,127.531 345.597,126.957 345.066 C 125.206 343.442,119.834 348.958,216.709 252.895 L 241.825 227.990 306.974 227.990 C 342.806 227.990,372.207 228.074,372.309 228.176 C 372.477 228.344,261.162 339.723,259.293 341.256 C 258.181 342.169,258.569 343.797,260.148 344.842 L 261.400 345.669 260.469 344.846 C 259.871 344.316,259.622 343.762,259.771 343.292 C 259.898 342.891,285.742 316.834,317.201 285.389 C 374.453 228.163,375.612 226.951,373.767 226.243 C 373.419 226.109,343.648 226.000,307.609 226.000 L 242.083 226.000 183.630 284.300 M261.732 346.546 C 262.135 346.870,262.730 347.465,263.054 347.868 C 263.603 348.549,263.614 348.538,263.213 347.709 C 262.976 347.219,262.381 346.624,261.891 346.387 C 261.062 345.986,261.051 345.997,261.732 346.546 M264.413 348.975 C 265.448 350.342,269.713 354.556,269.259 353.764 C 269.019 353.344,267.698 351.920,266.324 350.600 C 264.950 349.280,264.090 348.549,264.413 348.975 M270.451 355.087 C 271.635 356.569,283.233 368.010,282.859 367.327 C 282.639 366.927,282.132 366.298,281.730 365.929 C 281.329 365.561,280.307 364.526,279.459 363.629 C 278.612 362.733,277.769 362.000,277.586 362.000 C 277.403 362.000,277.143 361.649,277.006 361.220 C 276.870 360.792,276.408 360.330,275.980 360.194 C 275.551 360.057,275.200 359.792,275.200 359.604 C 275.200 359.181,271.990 356.000,271.563 356.000 C 271.393 356.000,271.140 355.640,271.000 355.200 C 270.860 354.760,270.556 354.400,270.324 354.400 C 270.077 354.400,270.130 354.685,270.451 355.087 M284.226 368.762 C 285.688 370.580,288.512 373.222,288.744 372.989 C 288.872 372.861,288.712 372.598,288.388 372.405 C 288.065 372.212,286.822 371.097,285.626 369.927 C 284.431 368.757,283.801 368.233,284.226 368.762 M290.051 374.691 C 291.556 376.585,302.136 386.794,302.351 386.560 C 302.488 386.412,302.365 386.207,302.078 386.104 C 301.790 386.002,301.340 385.665,301.078 385.355 C 299.789 383.835,297.469 381.600,297.180 381.600 C 297.001 381.600,296.743 381.249,296.606 380.820 C 296.470 380.392,296.008 379.930,295.580 379.794 C 295.151 379.657,294.800 379.364,294.800 379.142 C 294.800 378.694,291.606 375.600,291.145 375.600 C 290.985 375.600,290.740 375.240,290.600 374.800 C 290.460 374.360,290.156 374.000,289.924 374.000 C 289.677 374.000,289.730 374.286,290.051 374.691 M303.826 388.362 C 305.288 390.180,308.112 392.822,308.344 392.589 C 308.472 392.461,308.312 392.198,307.988 392.005 C 307.665 391.812,306.422 390.697,305.226 389.527 C 304.031 388.357,303.401 387.833,303.826 388.362 M309.651 394.282 C 311.236 396.251,321.736 406.394,321.950 406.162 C 322.088 406.013,321.965 405.807,321.678 405.704 C 321.390 405.602,320.940 405.264,320.678 404.953 C 319.216 403.222,315.085 399.200,314.769 399.200 C 314.566 399.200,314.400 399.021,314.400 398.802 C 314.400 398.583,313.292 397.323,311.937 396.002 C 309.529 393.653,308.554 392.920,309.651 394.282 M323.438 408.062 C 325.393 410.274,327.735 412.396,327.956 412.156 C 328.090 412.010,327.969 411.808,327.687 411.707 C 327.127 411.508,323.883 408.168,323.667 407.569 C 323.593 407.366,323.340 407.200,323.105 407.200 C 322.869 407.200,323.019 407.588,323.438 408.062 M191.600 410.960 C 191.600 411.122,202.850 422.492,216.600 436.227 L 241.599 461.200 307.920 461.200 C 376.221 461.200,375.200 461.223,375.200 459.710 C 375.200 459.201,362.060 446.000,361.552 446.000 C 361.416 446.000,364.364 449.059,368.103 452.798 C 373.849 458.545,374.824 459.690,374.401 460.198 C 373.961 460.729,366.163 460.800,307.880 460.800 L 241.857 460.800 216.918 435.900 C 188.615 407.640,191.600 410.581,191.600 410.960 M329.251 413.882 C 330.836 415.851,341.336 425.994,341.550 425.762 C 341.688 425.613,341.565 425.407,341.278 425.304 C 340.990 425.202,340.540 424.864,340.278 424.553 C 338.816 422.822,334.685 418.800,334.369 418.800 C 334.166 418.800,334.000 418.621,334.000 418.402 C 334.000 418.183,332.892 416.923,331.537 415.602 C 329.129 413.253,328.154 412.520,329.251 413.882 M344.504 429.193 C 346.068 430.729,347.406 431.928,347.477 431.856 C 347.658 431.675,342.321 426.400,341.957 426.400 C 341.794 426.400,342.940 427.657,344.504 429.193 M354.263 439.021 C 357.909 442.662,360.966 445.567,361.057 445.476 C 361.284 445.249,354.418 438.400,353.964 438.400 C 353.764 438.400,353.600 438.219,353.600 437.999 C 353.600 437.539,348.405 432.400,347.940 432.400 C 347.771 432.400,350.617 435.379,354.263 439.021 " stroke="none" fill="#8cc4fc" fill-rule="evenodd"></path><path id="path3" d="M0.000 243.000 L 0.000 486.000 200.000 486.000 L 400.000 486.000 400.000 243.000 L 400.000 0.000 200.000 0.000 L 0.000 0.000 0.000 243.000 M375.462 26.297 C 375.328 27.120,375.043 27.852,374.828 27.924 C 374.613 27.996,371.750 30.742,368.465 34.027 C 365.180 37.312,362.291 40.000,362.046 40.000 C 361.801 40.000,361.600 40.197,361.600 40.438 C 361.600 40.983,343.032 59.600,342.489 59.600 C 342.271 59.600,341.996 59.973,341.876 60.430 C 341.757 60.886,341.286 61.357,340.830 61.476 C 340.373 61.596,340.000 61.867,340.000 62.080 C 340.000 62.584,323.384 79.200,322.880 79.200 C 322.667 79.200,322.396 79.573,322.276 80.030 C 322.157 80.486,321.686 80.957,321.230 81.076 C 320.773 81.196,320.400 81.467,320.400 81.680 C 320.400 82.184,303.784 98.800,303.280 98.800 C 303.067 98.800,302.796 99.173,302.676 99.630 C 302.557 100.086,302.086 100.557,301.630 100.676 C 301.173 100.796,300.800 101.059,300.800 101.262 C 300.800 101.755,284.170 118.400,283.678 118.400 C 283.466 118.400,283.196 118.773,283.076 119.230 C 282.957 119.686,282.486 120.157,282.030 120.276 C 281.573 120.396,281.200 120.659,281.200 120.861 C 281.200 121.355,266.573 136.000,266.080 136.000 C 265.867 136.000,265.596 136.373,265.476 136.830 C 265.357 137.286,264.903 137.753,264.467 137.867 C 264.031 137.981,263.581 138.431,263.467 138.867 C 263.353 139.303,262.886 139.757,262.430 139.876 C 261.973 139.996,261.600 140.263,261.600 140.471 C 261.600 140.964,246.963 155.600,246.470 155.600 C 246.263 155.600,245.996 155.973,245.876 156.430 C 245.757 156.886,245.303 157.353,244.867 157.467 C 244.431 157.581,243.981 158.031,243.867 158.467 C 243.753 158.903,243.303 159.353,242.867 159.467 C 242.431 159.581,241.981 160.031,241.867 160.467 C 241.753 160.903,241.286 161.357,240.830 161.476 C 240.373 161.596,240.000 161.858,240.000 162.059 C 240.000 162.537,227.337 175.200,226.859 175.200 C 226.658 175.200,226.396 175.573,226.276 176.030 C 226.157 176.486,225.703 176.953,225.267 177.067 C 224.831 177.181,224.381 177.631,224.267 178.067 C 224.153 178.503,223.703 178.953,223.267 179.067 C 222.831 179.181,222.381 179.631,222.267 180.067 C 222.153 180.503,221.686 180.957,221.230 181.076 C 220.773 181.196,220.400 181.458,220.400 181.659 C 220.400 182.137,207.737 194.800,207.259 194.800 C 207.058 194.800,206.796 195.173,206.676 195.630 C 206.557 196.086,206.103 196.553,205.667 196.667 C 205.231 196.781,204.781 197.231,204.667 197.667 C 204.553 198.103,204.103 198.553,203.667 198.667 C 203.231 198.781,202.781 199.231,202.667 199.667 C 202.553 200.103,202.086 200.557,201.630 200.676 C 201.173 200.796,200.800 201.054,200.800 201.250 C 200.800 201.736,188.165 214.400,187.680 214.400 C 187.467 214.400,187.196 214.773,187.076 215.230 C 186.957 215.686,186.503 216.153,186.067 216.267 C 185.631 216.381,185.181 216.831,185.067 217.267 C 184.953 217.703,184.503 218.153,184.067 218.267 C 183.631 218.381,183.181 218.831,183.067 219.267 C 182.953 219.703,182.486 220.157,182.030 220.276 C 181.573 220.396,181.200 220.656,181.200 220.856 C 181.200 221.342,168.560 234.000,168.075 234.000 C 167.865 234.000,167.596 234.373,167.476 234.830 C 167.357 235.286,166.903 235.753,166.467 235.867 C 166.031 235.981,165.581 236.431,165.467 236.867 C 165.353 237.303,164.903 237.753,164.467 237.867 C 164.031 237.981,163.581 238.431,163.467 238.867 C 163.353 239.303,162.886 239.757,162.430 239.876 C 161.973 239.996,161.600 240.251,161.600 240.444 C 161.600 240.887,148.896 253.600,148.454 253.600 C 148.275 253.600,147.923 254.050,147.673 254.600 C 147.422 255.150,146.964 255.600,146.655 255.600 C 146.346 255.600,145.996 255.973,145.876 256.430 C 145.757 256.886,145.303 257.353,144.867 257.467 C 144.431 257.581,143.981 258.031,143.867 258.467 C 143.753 258.903,143.286 259.357,142.830 259.476 C 142.373 259.596,142.000 259.946,142.000 260.255 C 142.000 260.564,141.550 261.022,141.000 261.273 C 140.450 261.523,140.000 261.882,140.000 262.070 C 140.000 262.503,129.285 273.200,128.851 273.200 C 128.674 273.200,128.323 273.650,128.073 274.200 C 127.822 274.750,127.364 275.200,127.055 275.200 C 126.746 275.200,126.396 275.573,126.276 276.030 C 126.157 276.486,125.703 276.953,125.267 277.067 C 124.831 277.181,124.381 277.631,124.267 278.067 C 124.153 278.503,123.686 278.957,123.230 279.076 C 122.773 279.196,122.400 279.546,122.400 279.855 C 122.400 280.164,121.950 280.622,121.400 280.873 C 120.850 281.123,120.400 281.493,120.400 281.694 C 120.400 282.137,109.686 292.800,109.241 292.800 C 109.069 292.800,108.723 293.250,108.473 293.800 C 108.222 294.350,107.764 294.800,107.455 294.800 C 107.146 294.800,106.796 295.173,106.676 295.630 C 106.557 296.086,106.103 296.553,105.667 296.667 C 105.231 296.781,104.781 297.231,104.667 297.667 C 104.553 298.103,104.086 298.557,103.630 298.676 C 103.173 298.796,102.800 299.146,102.800 299.455 C 102.800 299.764,102.350 300.222,101.800 300.473 C 101.250 300.723,100.800 301.082,100.800 301.271 C 100.800 302.201,91.874 310.400,90.861 310.400 C 89.302 310.400,23.603 244.711,23.601 243.150 C 23.600 242.286,42.782 222.928,132.300 133.457 L 241.000 24.812 308.352 24.806 L 375.705 24.800 375.462 26.297 M375.859 225.688 C 376.484 226.313,376.490 226.439,375.921 227.088 C 375.576 227.479,375.171 228.205,375.020 228.700 C 374.870 229.195,374.578 229.600,374.372 229.600 C 373.920 229.600,368.800 234.817,368.800 235.277 C 368.800 235.454,368.615 235.600,368.388 235.600 C 367.906 235.600,362.800 240.699,362.800 241.180 C 362.800 241.360,362.440 241.601,362.000 241.716 C 361.560 241.831,361.200 242.212,361.200 242.563 C 361.200 242.913,361.051 243.200,360.868 243.200 C 360.372 243.200,355.200 248.289,355.200 248.778 C 355.200 249.010,355.019 249.200,354.799 249.200 C 354.329 249.200,349.200 254.400,349.200 254.877 C 349.200 255.054,349.015 255.200,348.788 255.200 C 348.278 255.200,343.200 260.313,343.200 260.827 C 343.200 261.032,343.030 261.200,342.823 261.200 C 342.330 261.200,323.600 279.931,323.600 280.424 C 323.600 280.631,323.432 280.800,323.227 280.800 C 322.329 280.800,261.200 342.440,261.200 343.345 C 261.200 344.238,266.430 350.000,267.241 350.000 C 267.438 350.000,267.600 350.151,267.600 350.335 C 267.600 350.733,286.192 369.331,286.789 369.530 C 287.015 369.605,287.200 369.802,287.200 369.968 C 287.200 370.344,305.824 388.941,306.389 389.130 C 306.615 389.205,306.800 389.395,306.800 389.551 C 306.800 389.911,325.460 408.553,326.001 408.733 C 326.220 408.807,326.400 408.995,326.400 409.151 C 326.400 409.307,330.184 413.207,334.809 417.818 C 375.943 458.822,376.200 459.089,376.200 460.695 L 376.200 462.200 308.900 462.301 C 270.250 462.359,241.600 462.252,241.600 462.050 C 241.600 461.856,241.066 461.476,240.413 461.206 C 239.761 460.935,239.121 460.383,238.993 459.977 C 238.864 459.572,238.417 459.133,238.000 459.000 C 237.583 458.867,237.133 458.417,237.000 458.000 C 236.867 457.583,236.417 457.133,236.000 457.000 C 235.583 456.867,235.130 456.408,234.994 455.980 C 234.857 455.551,234.606 455.200,234.434 455.200 C 234.114 455.200,231.200 452.493,231.200 452.196 C 231.200 451.874,222.318 443.200,221.989 443.200 C 221.805 443.200,221.540 442.840,221.400 442.400 C 221.260 441.960,220.999 441.600,220.820 441.600 C 220.641 441.600,219.776 440.857,218.899 439.948 C 218.021 439.040,217.095 438.095,216.841 437.848 C 216.586 437.602,216.158 437.166,215.889 436.881 C 215.620 436.595,215.172 436.145,214.893 435.881 C 214.614 435.616,213.714 434.718,212.893 433.884 C 206.607 427.500,204.236 425.200,203.941 425.200 C 203.753 425.200,203.600 424.913,203.600 424.563 C 203.600 424.212,203.246 423.833,202.813 423.719 C 202.381 423.606,201.918 423.173,201.786 422.757 C 201.654 422.341,201.415 422.000,201.255 422.000 C 200.794 422.000,197.600 418.906,197.600 418.458 C 197.600 418.236,197.249 417.943,196.820 417.806 C 196.392 417.670,195.930 417.208,195.794 416.780 C 195.657 416.351,195.399 416.000,195.220 416.000 C 194.813 416.000,191.600 412.813,191.600 412.409 C 191.600 412.246,176.685 397.192,158.455 378.956 C 140.226 360.720,125.109 345.413,124.862 344.939 C 123.830 342.957,123.882 342.903,183.668 283.124 L 242.008 224.791 308.590 224.895 C 370.926 224.993,375.215 225.044,375.859 225.688 " stroke="none" fill="#fcfcfc" fill-rule="evenodd"></path><path id="path4" d="M132.300 133.457 C 42.782 222.928,23.600 242.286,23.601 243.150 C 23.603 244.711,89.302 310.400,90.861 310.400 C 91.874 310.400,100.800 302.201,100.800 301.271 C 100.800 301.082,101.250 300.723,101.800 300.473 C 102.350 300.222,102.800 299.764,102.800 299.455 C 102.800 299.146,103.173 298.796,103.630 298.676 C 104.086 298.557,104.553 298.103,104.667 297.667 C 104.781 297.231,105.231 296.781,105.667 296.667 C 106.103 296.553,106.557 296.086,106.676 295.630 C 106.796 295.173,107.146 294.800,107.455 294.800 C 107.764 294.800,108.222 294.350,108.473 293.800 C 108.723 293.250,109.069 292.800,109.241 292.800 C 109.686 292.800,120.400 282.137,120.400 281.694 C 120.400 281.493,120.850 281.123,121.400 280.873 C 121.950 280.622,122.400 280.164,122.400 279.855 C 122.400 279.546,122.773 279.196,123.230 279.076 C 123.686 278.957,124.153 278.503,124.267 278.067 C 124.381 277.631,124.831 277.181,125.267 277.067 C 125.703 276.953,126.157 276.486,126.276 276.030 C 126.396 275.573,126.746 275.200,127.055 275.200 C 127.364 275.200,127.822 274.750,128.073 274.200 C 128.323 273.650,128.674 273.200,128.851 273.200 C 129.285 273.200,140.000 262.503,140.000 262.070 C 140.000 261.882,140.450 261.523,141.000 261.273 C 141.550 261.022,142.000 260.564,142.000 260.255 C 142.000 259.946,142.373 259.596,142.830 259.476 C 143.286 259.357,143.753 258.903,143.867 258.467 C 143.981 258.031,144.431 257.581,144.867 257.467 C 145.303 257.353,145.757 256.886,145.876 256.430 C 145.996 255.973,146.346 255.600,146.655 255.600 C 146.964 255.600,147.422 255.150,147.673 254.600 C 147.923 254.050,148.275 253.600,148.454 253.600 C 148.896 253.600,161.600 240.887,161.600 240.444 C 161.600 240.251,161.973 239.996,162.430 239.876 C 162.886 239.757,163.353 239.303,163.467 238.867 C 163.581 238.431,164.031 237.981,164.467 237.867 C 164.903 237.753,165.353 237.303,165.467 236.867 C 165.581 236.431,166.031 235.981,166.467 235.867 C 166.903 235.753,167.357 235.286,167.476 234.830 C 167.596 234.373,167.865 234.000,168.075 234.000 C 168.560 234.000,181.200 221.342,181.200 220.856 C 181.200 220.656,181.573 220.396,182.030 220.276 C 182.486 220.157,182.953 219.703,183.067 219.267 C 183.181 218.831,183.631 218.381,184.067 218.267 C 184.503 218.153,184.953 217.703,185.067 217.267 C 185.181 216.831,185.631 216.381,186.067 216.267 C 186.503 216.153,186.957 215.686,187.076 215.230 C 187.196 214.773,187.467 214.400,187.680 214.400 C 188.165 214.400,200.800 201.736,200.800 201.250 C 200.800 201.054,201.173 200.796,201.630 200.676 C 202.086 200.557,202.553 200.103,202.667 199.667 C 202.781 199.231,203.231 198.781,203.667 198.667 C 204.103 198.553,204.553 198.103,204.667 197.667 C 204.781 197.231,205.231 196.781,205.667 196.667 C 206.103 196.553,206.557 196.086,206.676 195.630 C 206.796 195.173,207.058 194.800,207.259 194.800 C 207.737 194.800,220.400 182.137,220.400 181.659 C 220.400 181.458,220.773 181.196,221.230 181.076 C 221.686 180.957,222.153 180.503,222.267 180.067 C 222.381 179.631,222.831 179.181,223.267 179.067 C 223.703 178.953,224.153 178.503,224.267 178.067 C 224.381 177.631,224.831 177.181,225.267 177.067 C 225.703 176.953,226.157 176.486,226.276 176.030 C 226.396 175.573,226.658 175.200,226.859 175.200 C 227.337 175.200,240.000 162.537,240.000 162.059 C 240.000 161.858,240.373 161.596,240.830 161.476 C 241.286 161.357,241.753 160.903,241.867 160.467 C 241.981 160.031,242.431 159.581,242.867 159.467 C 243.303 159.353,243.753 158.903,243.867 158.467 C 243.981 158.031,244.431 157.581,244.867 157.467 C 245.303 157.353,245.757 156.886,245.876 156.430 C 245.996 155.973,246.263 155.600,246.470 155.600 C 246.963 155.600,261.600 140.964,261.600 140.471 C 261.600 140.263,261.973 139.996,262.430 139.876 C 262.886 139.757,263.353 139.303,263.467 138.867 C 263.581 138.431,264.031 137.981,264.467 137.867 C 264.903 137.753,265.357 137.286,265.476 136.830 C 265.596 136.373,265.867 136.000,266.080 136.000 C 266.573 136.000,281.200 121.355,281.200 120.861 C 281.200 120.659,281.573 120.396,282.030 120.276 C 282.486 120.157,282.957 119.686,283.076 119.230 C 283.196 118.773,283.466 118.400,283.678 118.400 C 284.170 118.400,300.800 101.755,300.800 101.262 C 300.800 101.059,301.173 100.796,301.630 100.676 C 302.086 100.557,302.557 100.086,302.676 99.630 C 302.796 99.173,303.067 98.800,303.280 98.800 C 303.784 98.800,320.400 82.184,320.400 81.680 C 320.400 81.467,320.773 81.196,321.230 81.076 C 321.686 80.957,322.157 80.486,322.276 80.030 C 322.396 79.573,322.667 79.200,322.880 79.200 C 323.384 79.200,340.000 62.584,340.000 62.080 C 340.000 61.867,340.373 61.596,340.830 61.476 C 341.286 61.357,341.757 60.886,341.876 60.430 C 341.996 59.973,342.271 59.600,342.489 59.600 C 343.032 59.600,361.600 40.983,361.600 40.438 C 361.600 40.197,361.801 40.000,362.046 40.000 C 362.291 40.000,365.180 37.312,368.465 34.027 C 371.750 30.742,374.613 27.996,374.828 27.924 C 375.043 27.852,375.328 27.120,375.462 26.297 L 375.705 24.800 308.352 24.806 L 241.000 24.812 132.300 133.457 M374.415 25.819 C 374.974 26.492,92.240 309.600,91.009 309.600 C 89.651 309.600,25.200 244.445,25.200 243.072 C 25.200 241.890,34.162 232.824,133.534 133.491 L 241.867 25.200 307.885 25.200 C 366.958 25.200,373.956 25.265,374.415 25.819 M183.668 283.124 C 123.882 342.903,123.830 342.957,124.862 344.939 C 125.109 345.413,140.226 360.720,158.455 378.956 C 176.685 397.192,191.600 412.246,191.600 412.409 C 191.600 412.813,194.813 416.000,195.220 416.000 C 195.399 416.000,195.657 416.351,195.794 416.780 C 195.930 417.208,196.392 417.670,196.820 417.806 C 197.249 417.943,197.600 418.236,197.600 418.458 C 197.600 418.906,200.794 422.000,201.255 422.000 C 201.415 422.000,201.654 422.341,201.786 422.757 C 201.918 423.173,202.381 423.606,202.813 423.719 C 203.246 423.833,203.600 424.212,203.600 424.563 C 203.600 424.913,203.753 425.200,203.941 425.200 C 204.236 425.200,206.607 427.500,212.893 433.884 C 213.714 434.718,214.614 435.616,214.893 435.881 C 215.172 436.145,215.620 436.595,215.889 436.881 C 216.158 437.166,216.586 437.602,216.841 437.848 C 217.095 438.095,218.021 439.040,218.899 439.948 C 219.776 440.857,220.641 441.600,220.820 441.600 C 220.999 441.600,221.260 441.960,221.400 442.400 C 221.540 442.840,221.805 443.200,221.989 443.200 C 222.318 443.200,231.200 451.874,231.200 452.196 C 231.200 452.493,234.114 455.200,234.434 455.200 C 234.606 455.200,234.857 455.551,234.994 455.980 C 235.130 456.408,235.583 456.867,236.000 457.000 C 236.417 457.133,236.867 457.583,237.000 458.000 C 237.133 458.417,237.583 458.867,238.000 459.000 C 238.417 459.133,238.864 459.572,238.993 459.977 C 239.121 460.383,239.761 460.935,240.413 461.206 C 241.066 461.476,241.600 461.856,241.600 462.050 C 241.600 462.252,270.250 462.359,308.900 462.301 L 376.200 462.200 376.200 460.695 C 376.200 459.089,375.943 458.822,334.809 417.818 C 330.184 413.207,326.400 409.307,326.400 409.151 C 326.400 408.995,326.220 408.807,326.001 408.733 C 325.460 408.553,306.800 389.911,306.800 389.551 C 306.800 389.395,306.615 389.205,306.389 389.130 C 305.824 388.941,287.200 370.344,287.200 369.968 C 287.200 369.802,287.015 369.605,286.789 369.530 C 286.192 369.331,267.600 350.733,267.600 350.335 C 267.600 350.151,267.438 350.000,267.241 350.000 C 266.430 350.000,261.200 344.238,261.200 343.345 C 261.200 342.440,322.329 280.800,323.227 280.800 C 323.432 280.800,323.600 280.631,323.600 280.424 C 323.600 279.931,342.330 261.200,342.823 261.200 C 343.030 261.200,343.200 261.032,343.200 260.827 C 343.200 260.313,348.278 255.200,348.788 255.200 C 349.015 255.200,349.200 255.054,349.200 254.877 C 349.200 254.400,354.329 249.200,354.799 249.200 C 355.019 249.200,355.200 249.010,355.200 248.778 C 355.200 248.289,360.372 243.200,360.868 243.200 C 361.051 243.200,361.200 242.913,361.200 242.563 C 361.200 242.212,361.560 241.831,362.000 241.716 C 362.440 241.601,362.800 241.360,362.800 241.180 C 362.800 240.699,367.906 235.600,368.388 235.600 C 368.615 235.600,368.800 235.454,368.800 235.277 C 368.800 234.817,373.920 229.600,374.372 229.600 C 374.578 229.600,374.870 229.195,375.020 228.700 C 375.171 228.205,375.576 227.479,375.921 227.088 C 377.846 224.896,381.334 225.010,308.590 224.895 L 242.008 224.791 183.668 283.124 M373.767 226.243 C 375.612 226.951,374.453 228.163,317.201 285.389 C 285.742 316.834,259.906 342.867,259.787 343.240 C 259.579 343.896,269.573 354.400,270.406 354.400 C 270.593 354.400,270.860 354.760,271.000 355.200 C 271.140 355.640,271.393 356.000,271.563 356.000 C 271.990 356.000,275.200 359.181,275.200 359.604 C 275.200 359.792,275.551 360.057,275.980 360.194 C 276.408 360.330,276.870 360.792,277.006 361.220 C 277.143 361.649,277.403 362.000,277.586 362.000 C 277.769 362.000,278.612 362.726,279.459 363.613 C 283.414 367.754,288.182 372.400,288.475 372.400 C 288.654 372.400,288.800 372.687,288.800 373.037 C 288.800 373.388,289.154 373.767,289.587 373.881 C 290.019 373.994,290.482 374.427,290.614 374.843 C 290.746 375.259,290.985 375.600,291.145 375.600 C 291.606 375.600,294.800 378.694,294.800 379.142 C 294.800 379.364,295.151 379.657,295.580 379.794 C 296.008 379.930,296.470 380.392,296.606 380.820 C 296.743 381.249,297.001 381.600,297.180 381.600 C 297.605 381.600,300.800 384.795,300.800 385.220 C 300.800 385.399,301.160 385.660,301.600 385.800 C 302.040 385.940,302.400 386.216,302.400 386.414 C 302.400 386.846,307.651 392.000,308.092 392.000 C 308.261 392.000,308.400 392.276,308.400 392.613 C 308.400 392.949,308.656 393.323,308.969 393.444 C 309.769 393.751,314.400 398.320,314.400 398.802 C 314.400 399.021,314.566 399.200,314.769 399.200 C 315.226 399.200,320.400 404.361,320.400 404.817 C 320.400 404.998,320.760 405.260,321.200 405.400 C 321.640 405.540,322.000 405.929,322.000 406.264 C 322.000 406.600,322.315 406.968,322.700 407.082 C 323.085 407.195,324.120 408.156,325.000 409.217 C 325.880 410.277,326.915 411.259,327.300 411.399 C 327.685 411.539,328.000 411.917,328.000 412.240 C 328.000 412.562,328.256 412.923,328.569 413.044 C 329.369 413.351,334.000 417.920,334.000 418.402 C 334.000 418.621,334.166 418.800,334.369 418.800 C 334.826 418.800,340.000 423.961,340.000 424.417 C 340.000 424.598,340.360 424.860,340.800 425.000 C 341.240 425.140,341.600 425.512,341.600 425.827 C 341.600 426.142,341.747 426.400,341.927 426.400 C 342.362 426.400,347.600 431.626,347.600 432.060 C 347.600 432.247,347.746 432.400,347.923 432.400 C 348.400 432.400,353.600 437.529,353.600 437.999 C 353.600 438.219,353.764 438.400,353.964 438.400 C 354.434 438.400,361.200 445.174,361.200 445.644 C 361.200 445.840,361.335 446.000,361.500 446.000 C 362.042 446.000,375.200 459.167,375.200 459.710 C 375.200 461.223,376.221 461.200,307.920 461.200 L 241.599 461.200 216.600 436.227 C 202.850 422.492,191.600 411.166,191.600 411.058 C 191.600 410.951,176.660 395.920,158.400 377.655 C 133.827 353.077,125.197 344.207,125.188 343.524 C 125.179 342.822,139.229 328.584,183.630 284.300 L 242.083 226.000 307.609 226.000 C 343.648 226.000,373.419 226.109,373.767 226.243 " stroke="none" fill="#dce4ec" fill-rule="evenodd"></path></g></svg>