<svg id="svg" version="1.1" xmlns="http://www.w3.org/2000/svg" xmlns:xlink="http://www.w3.org/1999/xlink" width="400" height="400" viewBox="0, 0, 400,400"><g id="svgg"><path id="path0" d="M0.000 200.000 L 0.000 400.000 200.000 400.000 L 400.000 400.000 400.000 200.000 L 400.000 0.000 200.000 0.000 L 0.000 0.000 0.000 200.000 M258.577 96.417 C 258.788 96.628,259.271 96.800,259.652 96.800 C 261.212 96.800,269.000 101.053,270.870 102.926 C 271.919 103.977,273.181 104.309,277.233 104.601 C 280.773 104.856,284.520 105.635,286.095 106.443 C 286.477 106.640,287.055 106.800,287.381 106.800 C 287.987 106.800,290.840 108.017,291.200 108.429 C 291.310 108.555,291.670 108.779,292.000 108.927 C 292.794 109.282,293.812 109.928,296.054 111.500 C 297.073 112.215,298.026 112.800,298.171 112.800 C 298.424 112.800,302.791 115.903,303.200 116.374 C 303.310 116.501,304.390 117.342,305.600 118.243 C 309.085 120.837,315.918 127.754,319.192 132.000 C 319.955 132.990,320.692 133.890,320.830 134.000 C 320.968 134.110,321.584 135.010,322.200 136.000 C 322.816 136.990,323.436 137.890,323.578 138.000 C 324.524 138.733,329.200 147.396,329.200 148.416 C 329.200 148.633,329.371 149.123,329.581 149.505 C 329.790 149.887,330.264 150.920,330.635 151.800 C 331.006 152.680,331.802 154.480,332.405 155.800 C 333.007 157.120,333.905 159.100,334.400 160.200 C 335.536 162.726,341.021 173.719,341.695 174.820 C 341.973 175.274,342.830 175.927,343.600 176.271 C 351.758 179.917,354.373 181.206,356.800 182.776 C 358.010 183.559,359.060 184.335,359.133 184.500 C 359.207 184.665,359.479 184.800,359.737 184.800 C 359.996 184.800,360.656 185.205,361.204 185.700 C 361.752 186.195,363.280 187.403,364.600 188.385 C 365.920 189.367,367.540 190.658,368.200 191.255 C 368.860 191.851,369.765 192.668,370.211 193.070 C 376.625 198.846,375.594 200.438,364.432 201.986 C 362.799 202.212,360.909 202.572,360.232 202.785 C 359.554 202.998,358.550 203.267,358.000 203.383 C 356.118 203.778,355.783 204.209,356.501 205.306 C 357.144 206.286,362.724 210.000,363.554 210.000 C 363.799 210.000,364.000 210.147,364.000 210.326 C 364.000 210.506,364.696 211.044,365.546 211.522 C 368.405 213.129,377.539 222.798,378.603 225.344 C 379.650 227.850,378.699 227.452,373.195 223.081 C 371.532 221.760,368.506 219.997,363.740 217.573 C 352.038 211.621,343.500 202.518,347.600 200.366 C 349.356 199.444,350.999 198.800,351.595 198.800 C 351.964 198.800,352.399 198.668,352.560 198.506 C 353.237 197.830,357.741 197.088,362.600 196.852 L 367.800 196.600 365.517 194.900 C 364.261 193.965,363.146 193.200,363.039 193.200 C 362.838 193.200,356.034 188.496,354.600 187.366 C 353.748 186.695,351.498 185.620,349.200 184.787 C 348.430 184.508,347.260 184.061,346.600 183.793 C 345.940 183.525,344.320 182.975,343.000 182.571 C 341.680 182.166,340.429 181.693,340.220 181.518 C 340.011 181.343,339.537 181.200,339.167 181.200 C 337.541 181.200,334.594 176.352,329.807 165.800 C 329.308 164.700,327.958 161.820,326.808 159.400 C 325.658 156.980,324.577 154.640,324.406 154.200 C 324.235 153.760,323.783 152.590,323.401 151.600 C 322.507 149.283,320.706 145.458,320.388 145.200 C 320.253 145.090,320.021 144.730,319.873 144.400 C 319.551 143.679,318.683 142.278,318.387 142.000 C 318.270 141.890,317.550 140.810,316.788 139.600 C 316.026 138.390,315.187 137.130,314.922 136.800 C 311.573 132.617,310.090 130.934,307.187 128.023 C 305.310 126.140,302.970 123.975,301.987 123.210 C 301.004 122.446,300.110 121.719,300.000 121.595 C 298.796 120.239,290.262 114.896,286.683 113.258 C 281.881 111.059,279.693 110.513,274.434 110.198 C 270.420 109.957,268.710 109.579,268.000 108.773 C 266.653 107.246,261.823 104.443,257.400 102.620 C 256.520 102.258,255.487 101.790,255.105 101.581 C 250.372 98.987,248.876 104.866,253.112 109.414 C 255.737 112.231,261.200 120.593,261.200 121.793 C 261.200 122.076,261.469 122.824,261.798 123.454 C 262.126 124.084,262.396 124.904,262.398 125.276 C 262.399 125.648,262.580 126.064,262.800 126.200 C 263.020 126.336,263.200 126.889,263.200 127.429 C 263.200 127.969,263.364 128.723,263.565 129.105 C 263.765 129.487,264.232 130.700,264.602 131.800 C 264.971 132.900,265.707 134.750,266.237 135.911 C 266.767 137.072,267.200 138.197,267.200 138.411 C 267.200 138.625,267.339 138.800,267.509 138.800 C 267.679 138.800,268.166 139.446,268.591 140.236 C 269.016 141.025,269.784 142.002,270.298 142.405 C 270.811 142.809,271.675 143.973,272.216 144.992 C 273.331 147.090,273.453 146.356,270.550 155.035 C 269.077 159.437,268.539 171.242,269.650 174.772 C 272.843 184.919,275.541 187.800,276.042 181.596 C 276.616 174.484,278.094 170.424,281.398 166.880 C 282.833 165.341,283.819 165.464,284.206 167.229 C 284.347 167.868,284.628 168.494,284.831 168.619 C 285.034 168.745,285.200 169.149,285.200 169.518 C 285.200 169.887,285.633 171.091,286.161 172.194 C 286.690 173.297,287.494 175.010,287.948 176.000 C 291.555 183.863,300.721 197.493,303.727 199.462 C 305.310 200.499,305.831 201.536,304.941 201.878 C 304.546 202.030,304.180 201.941,304.091 201.672 C 304.004 201.412,303.750 201.200,303.527 201.200 C 303.304 201.200,302.278 200.345,301.247 199.300 C 300.217 198.255,298.660 196.879,297.787 196.242 C 295.535 194.598,287.916 186.777,287.201 185.375 C 286.871 184.729,286.506 184.110,286.390 184.000 C 286.273 183.890,285.828 182.990,285.400 182.000 C 284.972 181.010,284.514 180.110,284.382 180.000 C 284.250 179.890,284.001 179.440,283.830 179.000 C 283.464 178.060,282.683 180.678,282.218 184.400 C 281.527 189.938,277.778 192.594,273.561 190.535 C 272.049 189.797,268.800 186.503,268.800 185.709 C 268.800 185.429,268.652 185.200,268.470 185.200 C 267.669 185.200,265.448 179.098,264.394 174.000 C 263.868 171.453,264.071 160.753,264.698 158.000 C 265.307 155.325,267.083 148.706,267.412 147.883 C 267.619 147.364,267.298 146.765,266.249 145.716 C 265.452 144.919,264.800 144.027,264.800 143.733 C 264.800 143.440,264.661 143.200,264.491 143.200 C 264.320 143.200,263.616 142.075,262.926 140.700 C 261.795 138.448,261.321 137.407,259.368 132.886 C 259.055 132.164,258.800 131.249,258.800 130.853 C 258.800 130.457,258.684 130.017,258.541 129.875 C 258.208 129.542,256.830 125.562,256.813 124.883 C 256.793 124.072,254.545 119.487,253.733 118.600 C 253.330 118.160,252.202 116.720,251.227 115.400 C 250.251 114.080,249.350 112.910,249.224 112.800 C 247.855 111.604,245.940 108.007,245.210 105.263 C 244.256 101.669,247.250 96.323,250.473 95.867 C 252.438 95.589,258.136 95.976,258.577 96.417 M277.448 119.009 C 279.483 120.562,280.239 122.465,279.594 124.417 C 278.629 127.343,276.813 127.994,275.986 125.710 C 275.280 123.761,274.633 122.679,273.302 121.222 C 270.557 118.216,273.999 116.379,277.448 119.009 M39.545 209.619 C 43.504 211.532,44.494 212.972,48.605 222.800 C 49.203 224.230,50.052 226.210,50.493 227.200 C 50.933 228.190,51.527 229.540,51.812 230.200 C 52.097 230.860,52.807 232.480,53.388 233.800 C 53.970 235.120,54.597 236.560,54.782 237.000 C 54.967 237.440,55.394 238.430,55.731 239.201 C 56.068 239.971,56.729 241.501,57.200 242.600 C 58.509 245.653,59.013 246.799,60.152 249.311 C 60.728 250.582,61.200 251.685,61.200 251.762 C 61.200 251.839,61.485 252.585,61.834 253.420 L 62.468 254.938 63.682 252.369 C 64.349 250.956,65.042 249.440,65.221 249.000 C 65.971 247.154,66.992 244.830,68.207 242.200 C 68.919 240.660,69.815 238.680,70.199 237.800 C 70.583 236.920,71.311 235.300,71.817 234.200 C 72.323 233.100,73.215 231.120,73.800 229.800 C 74.384 228.480,75.322 226.410,75.883 225.200 C 76.444 223.990,77.044 222.640,77.217 222.200 C 77.547 221.358,79.758 216.447,80.512 214.881 C 82.541 210.671,86.385 208.685,92.058 208.915 C 96.172 209.082,100.000 209.830,100.000 210.467 C 100.000 210.650,100.251 210.800,100.559 210.800 C 101.325 210.800,103.520 213.371,103.894 214.707 C 104.062 215.308,104.200 226.870,104.200 240.400 L 104.200 265.000 98.000 265.000 L 91.800 265.000 91.600 243.514 C 91.453 227.773,91.280 222.105,90.951 222.314 C 90.529 222.583,90.165 223.311,87.709 228.800 C 87.167 230.010,86.275 231.990,85.726 233.200 C 85.177 234.410,84.368 236.210,83.929 237.200 C 83.489 238.190,82.676 239.990,82.122 241.200 C 81.568 242.410,80.966 243.760,80.785 244.200 C 80.604 244.640,79.919 246.170,79.262 247.600 C 76.760 253.051,75.674 255.472,74.779 257.600 C 72.169 263.804,69.059 266.000,62.881 266.000 C 56.830 266.000,53.977 264.092,51.220 258.200 C 50.294 256.220,49.370 254.287,49.168 253.905 C 48.966 253.523,48.800 252.953,48.800 252.639 C 48.800 252.324,48.665 252.007,48.500 251.933 C 48.119 251.764,44.794 244.370,44.797 243.700 C 44.799 243.425,44.620 243.200,44.400 243.200 C 44.180 243.200,44.000 242.913,44.000 242.562 C 44.000 242.211,43.751 241.446,43.447 240.862 C 42.930 239.869,41.979 237.809,39.818 233.000 C 38.401 229.848,36.800 226.375,35.758 224.194 C 35.231 223.091,34.797 221.921,34.794 221.594 C 34.788 221.072,34.740 221.073,34.400 221.600 C 34.162 221.968,34.010 230.514,34.006 243.710 L 34.000 265.221 27.900 265.110 L 21.800 265.000 21.697 240.110 C 21.584 212.872,21.558 213.208,23.915 211.430 C 27.258 208.908,35.982 207.897,39.545 209.619 M232.000 214.000 L 232.000 218.000 214.300 218.032 C 190.953 218.074,191.038 218.047,191.033 225.365 C 191.028 233.033,191.534 233.296,207.000 233.634 C 218.402 233.884,221.154 234.204,223.995 235.612 C 224.328 235.776,225.290 236.246,226.134 236.656 C 230.542 238.795,232.000 241.738,232.000 248.498 C 232.000 256.622,230.385 259.640,224.600 262.330 C 219.038 264.916,218.950 264.923,193.700 264.845 L 179.200 264.800 179.200 260.800 L 179.200 256.800 196.500 256.794 C 214.021 256.788,214.901 256.724,217.496 255.276 C 219.032 254.419,219.600 252.736,219.600 249.046 C 219.600 241.684,218.600 241.166,204.000 240.950 C 190.458 240.750,186.721 239.896,182.279 235.986 C 179.526 233.563,179.200 232.499,179.200 225.945 C 179.200 217.926,180.710 214.694,185.428 212.612 C 186.293 212.231,187.389 211.735,187.864 211.511 C 190.504 210.265,193.613 210.082,212.700 210.041 L 232.000 210.000 232.000 214.000 M283.894 210.453 C 292.355 212.463,295.879 214.717,297.361 219.068 C 298.211 221.561,298.313 253.705,297.479 256.000 C 296.535 258.600,295.664 259.795,293.837 261.000 C 292.836 261.660,292.014 262.412,292.009 262.671 C 291.999 263.205,291.982 263.188,296.222 267.000 C 297.934 268.540,300.062 270.475,300.950 271.300 L 302.565 272.800 299.582 272.832 C 297.942 272.850,294.760 272.869,292.510 272.874 L 288.421 272.884 286.143 270.742 C 284.890 269.564,283.563 268.330,283.194 268.000 C 282.825 267.670,281.893 266.806,281.122 266.080 L 279.721 264.761 266.014 264.789 C 256.717 264.809,251.839 264.670,250.853 264.358 C 244.623 262.386,241.651 260.319,240.142 256.908 C 239.018 254.365,238.646 222.608,239.700 219.145 C 240.857 215.342,245.272 212.215,251.473 210.807 C 255.301 209.937,280.563 209.661,283.894 210.453 M317.209 231.200 C 317.426 252.983,317.493 253.786,319.200 255.107 C 320.917 256.436,322.144 256.533,340.200 256.769 L 357.800 257.000 357.914 260.900 L 358.029 264.800 340.514 264.793 C 321.232 264.785,315.104 264.240,313.020 262.345 C 312.811 262.155,312.380 262.000,312.061 262.000 C 310.392 262.000,306.813 257.947,305.706 254.803 C 305.166 253.269,304.948 210.786,305.477 210.256 C 305.630 210.104,308.285 210.029,311.377 210.089 L 317.000 210.200 317.209 231.200 M257.956 218.574 C 252.075 219.864,251.999 220.108,252.007 237.480 C 252.015 256.712,252.076 256.815,263.545 257.064 C 271.621 257.240,271.621 257.251,262.900 249.687 C 261.129 248.151,261.651 248.000,268.700 248.005 L 275.400 248.009 278.000 250.453 C 279.430 251.798,281.255 253.522,282.056 254.287 C 283.743 255.897,284.657 255.709,286.020 253.474 C 287.070 251.752,287.235 224.001,286.206 222.012 C 285.339 220.334,283.442 219.153,280.656 218.555 C 277.445 217.866,261.122 217.880,257.956 218.574 M170.201 227.300 C 170.332 228.015,170.385 238.410,170.319 250.400 C 170.186 274.781,170.370 273.230,167.238 276.362 C 162.406 281.194,157.706 281.954,132.508 281.981 L 114.015 282.000 113.790 281.100 C 113.666 280.605,113.618 278.580,113.682 276.600 L 113.800 273.000 133.600 272.897 C 157.189 272.774,157.600 272.681,157.600 267.452 C 157.600 264.769,157.775 264.800,142.926 264.797 C 125.005 264.793,121.363 264.080,116.226 259.569 C 113.279 256.982,113.200 256.491,113.200 240.851 L 113.200 226.893 114.100 226.652 C 115.616 226.246,124.404 226.374,125.226 226.814 C 125.967 227.211,126.000 227.789,126.000 240.560 C 126.000 254.960,126.158 256.000,128.349 256.000 C 128.729 256.000,129.222 256.182,129.445 256.405 C 129.708 256.668,134.780 256.773,143.825 256.705 L 157.800 256.600 157.901 241.800 C 157.956 233.660,158.085 226.775,158.188 226.500 C 158.326 226.132,159.900 226.000,164.169 226.000 L 169.964 226.000 170.201 227.300 M367.101 257.500 C 367.199 257.794,366.920 258.000,366.423 258.000 C 365.317 258.000,364.800 259.409,364.800 262.426 C 364.800 264.533,364.710 264.800,364.000 264.800 C 363.290 264.800,363.200 264.533,363.200 262.426 C 363.200 259.446,362.680 258.000,361.610 258.000 C 360.795 258.000,360.559 257.575,361.083 257.051 C 361.578 256.556,366.921 256.954,367.101 257.500 M371.367 257.043 C 371.715 257.176,372.000 257.504,372.000 257.771 C 372.000 258.039,372.347 258.964,372.771 259.829 L 373.542 261.400 374.578 259.074 C 375.511 256.977,375.720 256.760,376.706 256.874 L 377.800 257.000 377.915 260.930 C 378.029 264.823,378.021 264.858,377.115 264.730 C 376.409 264.630,376.171 264.303,376.075 263.300 C 375.911 261.598,375.378 261.649,374.792 263.423 C 374.187 265.259,372.802 265.226,372.200 263.363 C 371.626 261.587,371.020 261.558,370.876 263.300 C 370.779 264.475,370.584 264.800,369.976 264.800 C 369.260 264.800,369.200 264.492,369.200 260.800 C 369.200 256.546,369.358 256.272,371.367 257.043 " stroke="none" fill="#fbfbfb" fill-rule="evenodd"></path><path id="path1" d="M191.064 210.592 C 189.780 210.873,188.340 211.286,187.864 211.511 C 187.389 211.735,186.293 212.231,185.428 212.612 C 180.710 214.694,179.200 217.926,179.200 225.945 C 179.200 232.499,179.526 233.563,182.279 235.986 C 186.721 239.896,190.458 240.750,204.000 240.950 C 218.600 241.166,219.600 241.684,219.600 249.046 C 219.600 252.736,219.032 254.419,217.496 255.276 C 214.901 256.724,214.021 256.788,196.500 256.794 L 179.200 256.800 179.200 260.800 L 179.200 264.800 193.700 264.845 C 218.950 264.923,219.038 264.916,224.600 262.330 C 230.385 259.640,232.000 256.622,232.000 248.498 C 232.000 241.738,230.542 238.795,226.134 236.656 C 225.290 236.246,224.328 235.776,223.995 235.612 C 221.154 234.204,218.402 233.884,207.000 233.634 C 191.534 233.296,191.028 233.033,191.033 225.365 C 191.038 218.047,190.953 218.074,214.300 218.032 L 232.000 218.000 232.000 214.000 L 232.000 210.000 212.700 210.041 C 198.670 210.071,192.762 210.221,191.064 210.592 M251.473 210.807 C 245.272 212.215,240.857 215.342,239.700 219.145 C 238.646 222.608,239.018 254.365,240.142 256.908 C 241.651 260.319,244.623 262.386,250.853 264.358 C 251.839 264.670,256.717 264.809,266.014 264.789 L 279.721 264.761 281.122 266.080 C 281.893 266.806,282.825 267.670,283.194 268.000 C 283.563 268.330,284.890 269.564,286.143 270.742 L 288.421 272.884 292.510 272.874 C 294.760 272.869,297.942 272.850,299.582 272.832 L 302.565 272.800 300.950 271.300 C 300.062 270.475,297.934 268.540,296.222 267.000 C 291.982 263.188,291.999 263.205,292.009 262.671 C 292.014 262.412,292.836 261.660,293.837 261.000 C 295.664 259.795,296.535 258.600,297.479 256.000 C 298.313 253.705,298.211 221.561,297.361 219.068 C 295.879 214.717,292.355 212.463,283.894 210.453 C 280.563 209.661,255.301 209.937,251.473 210.807 M305.477 210.256 C 304.948 210.786,305.166 253.269,305.706 254.803 C 306.813 257.947,310.392 262.000,312.061 262.000 C 312.380 262.000,312.811 262.155,313.020 262.345 C 315.104 264.240,321.232 264.785,340.514 264.793 L 358.029 264.800 357.914 260.900 L 357.800 257.000 340.200 256.769 C 322.144 256.533,320.917 256.436,319.200 255.107 C 317.493 253.786,317.426 252.983,317.209 231.200 L 317.000 210.200 311.377 210.089 C 308.285 210.029,305.630 210.104,305.477 210.256 M280.656 218.555 C 283.442 219.153,285.339 220.334,286.206 222.012 C 287.235 224.001,287.070 251.752,286.020 253.474 C 284.657 255.709,283.743 255.897,282.056 254.287 C 281.255 253.522,279.430 251.798,278.000 250.453 L 275.400 248.009 268.700 248.005 C 261.651 248.000,261.129 248.151,262.900 249.687 C 271.621 257.251,271.621 257.240,263.545 257.064 C 252.076 256.815,252.015 256.712,252.007 237.480 C 251.999 220.108,252.075 219.864,257.956 218.574 C 261.122 217.880,277.445 217.866,280.656 218.555 M361.083 257.051 C 360.559 257.575,360.795 258.000,361.610 258.000 C 362.680 258.000,363.200 259.446,363.200 262.426 C 363.200 264.533,363.290 264.800,364.000 264.800 C 364.710 264.800,364.800 264.533,364.800 262.426 C 364.800 259.409,365.317 258.000,366.423 258.000 C 366.920 258.000,367.199 257.794,367.101 257.500 C 366.921 256.954,361.578 256.556,361.083 257.051 M369.200 260.800 C 369.200 264.492,369.260 264.800,369.976 264.800 C 370.584 264.800,370.779 264.475,370.876 263.300 C 371.020 261.558,371.626 261.587,372.200 263.363 C 372.802 265.226,374.187 265.259,374.792 263.423 C 375.378 261.649,375.911 261.598,376.075 263.300 C 376.171 264.303,376.409 264.630,377.115 264.730 C 378.021 264.858,378.029 264.823,377.915 260.930 L 377.800 257.000 376.706 256.874 C 375.720 256.760,375.511 256.977,374.578 259.074 L 373.542 261.400 372.771 259.829 C 372.347 258.964,372.000 258.039,372.000 257.771 C 372.000 257.224,371.113 256.800,369.967 256.800 C 369.262 256.800,369.200 257.124,369.200 260.800 " stroke="none" fill="#e48d1d" fill-rule="evenodd"></path><path id="path2" d="M249.670 97.486 C 248.719 98.040,247.745 98.922,247.506 99.446 C 247.267 99.971,246.920 100.400,246.736 100.400 C 246.320 100.400,246.285 106.682,246.700 106.867 C 246.865 106.940,247.360 107.720,247.799 108.600 C 248.239 109.480,249.319 111.113,250.199 112.228 C 253.777 116.762,254.206 117.326,254.341 117.680 C 254.419 117.882,254.914 118.513,255.441 119.082 C 255.969 119.651,256.400 120.451,256.400 120.858 C 256.400 121.266,256.578 121.600,256.795 121.600 C 257.013 121.600,257.306 122.324,257.448 123.209 C 257.589 124.094,257.861 124.914,258.053 125.032 C 258.244 125.151,258.406 125.732,258.413 126.324 C 258.420 126.916,258.690 127.749,259.013 128.176 C 259.336 128.604,259.600 129.358,259.600 129.853 C 259.600 130.348,259.780 130.864,260.000 131.000 C 260.220 131.136,260.400 131.777,260.400 132.424 C 260.400 133.071,260.566 133.600,260.768 133.600 C 260.971 133.600,261.255 134.140,261.400 134.800 C 261.545 135.460,261.829 136.000,262.032 136.000 C 262.234 136.000,262.400 136.435,262.400 136.967 C 262.400 137.498,262.535 137.993,262.700 138.067 C 262.865 138.140,263.621 139.415,264.379 140.900 C 265.138 142.385,265.903 143.600,266.079 143.600 C 266.256 143.600,266.400 143.799,266.400 144.042 C 266.400 144.286,266.850 144.839,267.400 145.271 C 268.453 146.100,268.872 149.261,268.000 149.800 C 267.780 149.936,267.599 150.622,267.598 151.324 C 267.596 152.026,267.326 153.116,266.998 153.746 C 266.669 154.376,266.400 155.465,266.400 156.166 C 266.400 156.867,266.175 157.665,265.900 157.940 C 265.189 158.651,265.198 175.666,265.909 175.903 C 266.188 175.996,266.400 176.757,266.400 177.662 C 266.400 178.547,266.667 179.524,267.000 179.857 C 267.330 180.187,267.600 180.804,267.600 181.229 C 267.600 181.653,267.780 182.000,268.000 182.000 C 268.220 182.000,268.400 182.255,268.400 182.568 C 268.400 183.281,269.698 185.594,270.100 185.597 C 270.265 185.599,270.400 185.780,270.400 186.000 C 270.400 186.220,271.120 187.120,272.000 188.000 C 275.261 191.261,280.776 189.693,280.794 185.500 C 280.797 184.675,280.980 184.000,281.200 184.000 C 281.426 184.000,281.606 182.824,281.613 181.300 C 281.623 179.259,281.810 178.380,282.377 177.700 C 283.314 176.577,284.400 176.523,284.400 177.600 C 284.400 178.040,284.545 178.400,284.723 178.400 C 285.077 178.400,286.400 181.188,286.400 181.934 C 286.400 182.190,286.562 182.400,286.761 182.400 C 286.959 182.400,287.298 182.895,287.514 183.500 C 287.729 184.105,288.302 185.050,288.787 185.600 C 289.272 186.150,290.058 187.113,290.534 187.740 C 291.911 189.553,296.089 193.600,296.583 193.600 C 297.001 193.600,296.795 192.465,296.351 192.317 C 295.881 192.160,294.162 189.508,293.747 188.300 C 293.615 187.915,293.348 187.600,293.153 187.600 C 292.959 187.600,292.800 187.330,292.800 187.000 C 292.800 186.670,292.623 186.400,292.408 186.400 C 292.192 186.400,291.902 185.950,291.764 185.400 C 291.626 184.850,291.353 184.400,291.157 184.400 C 290.960 184.400,290.800 184.143,290.800 183.829 C 290.800 183.514,290.575 183.019,290.300 182.729 C 290.025 182.438,289.260 181.120,288.600 179.800 C 287.940 178.480,287.265 177.340,287.100 177.267 C 286.935 177.193,286.800 176.861,286.800 176.528 C 286.800 176.196,286.504 175.356,286.143 174.662 C 284.945 172.362,284.800 172.015,284.800 171.454 C 284.800 171.148,284.530 170.674,284.200 170.400 C 283.870 170.126,283.600 169.294,283.600 168.551 C 283.600 167.617,283.415 167.200,283.000 167.200 C 282.670 167.200,282.398 167.335,282.397 167.500 C 282.395 167.665,281.765 168.463,280.997 169.273 C 280.228 170.084,279.600 170.994,279.600 171.297 C 279.600 171.599,279.336 172.196,279.013 172.624 C 278.690 173.051,278.420 173.884,278.413 174.476 C 278.406 175.068,278.247 175.647,278.060 175.763 C 277.874 175.878,277.609 177.552,277.473 179.482 C 277.337 181.412,277.040 183.053,276.813 183.129 C 276.586 183.205,276.400 183.887,276.400 184.646 C 276.400 185.506,276.173 186.112,275.797 186.257 C 274.754 186.657,271.600 184.164,271.600 182.939 C 271.600 182.642,271.420 182.400,271.200 182.400 C 270.980 182.400,270.800 181.972,270.800 181.449 C 270.800 180.926,270.530 180.274,270.200 180.000 C 269.870 179.726,269.600 178.984,269.600 178.351 C 269.600 177.718,269.457 177.200,269.282 177.200 C 268.286 177.200,267.042 161.354,267.953 160.257 C 268.170 159.995,268.473 158.840,268.626 157.690 C 268.778 156.541,269.060 155.600,269.252 155.600 C 269.443 155.600,269.606 155.105,269.613 154.500 C 269.620 153.895,269.890 153.051,270.213 152.624 C 270.536 152.196,270.800 151.442,270.800 150.947 C 270.800 150.452,270.980 149.936,271.200 149.800 C 272.489 149.003,271.586 145.420,269.587 143.400 C 268.498 142.300,267.605 141.175,267.603 140.900 C 267.602 140.625,267.440 140.400,267.243 140.400 C 267.047 140.400,266.774 139.950,266.636 139.400 C 266.498 138.850,266.208 138.400,265.992 138.400 C 265.777 138.400,265.600 138.128,265.600 137.795 C 265.600 137.186,265.464 136.855,264.257 134.538 C 263.896 133.844,263.600 132.809,263.600 132.238 C 263.600 131.667,263.420 131.200,263.200 131.200 C 262.980 131.200,262.800 130.694,262.800 130.076 C 262.800 129.459,262.536 128.604,262.213 128.176 C 261.890 127.749,261.620 126.916,261.613 126.324 C 261.606 125.732,261.420 125.136,261.200 125.000 C 260.980 124.864,260.800 124.335,260.800 123.825 C 260.800 123.315,260.530 122.674,260.200 122.400 C 259.870 122.126,259.600 121.575,259.600 121.175 C 259.600 120.775,259.420 120.336,259.200 120.200 C 258.980 120.064,258.800 119.623,258.800 119.219 C 258.800 118.816,258.530 118.382,258.200 118.255 C 257.870 118.129,257.600 117.737,257.600 117.386 C 257.600 117.034,256.972 116.084,256.203 115.273 C 255.435 114.463,254.805 113.590,254.803 113.334 C 254.802 113.077,254.080 112.095,253.200 111.151 C 252.320 110.208,251.600 109.285,251.600 109.100 C 251.600 108.916,251.150 108.280,250.600 107.687 C 250.050 107.093,249.600 106.289,249.600 105.899 C 249.600 105.508,249.390 104.852,249.133 104.441 C 248.509 103.443,249.698 100.800,250.770 100.800 C 251.173 100.800,251.715 100.543,251.976 100.229 C 252.448 99.660,254.611 100.111,256.895 101.253 C 257.277 101.444,257.932 101.600,258.352 101.600 C 258.771 101.600,259.218 101.870,259.345 102.200 C 259.471 102.530,260.031 102.800,260.587 102.800 C 261.144 102.800,261.600 102.980,261.600 103.200 C 261.600 103.420,261.938 103.600,262.351 103.600 C 262.764 103.600,263.326 103.870,263.600 104.200 C 263.874 104.530,264.346 104.800,264.649 104.800 C 264.952 104.800,265.200 104.980,265.200 105.200 C 265.200 105.420,265.455 105.600,265.767 105.600 C 266.078 105.600,266.393 105.737,266.467 105.904 C 267.066 107.272,269.916 108.800,271.868 108.800 C 273.014 108.800,274.064 108.980,274.200 109.200 C 274.336 109.420,276.012 109.606,277.924 109.613 C 280.345 109.622,281.636 109.804,282.176 110.213 C 282.604 110.536,283.269 110.800,283.655 110.800 C 284.042 110.800,285.204 111.250,286.238 111.800 C 287.273 112.350,288.362 112.800,288.660 112.800 C 288.957 112.800,289.200 112.960,289.200 113.157 C 289.200 113.353,289.609 113.616,290.108 113.741 C 290.607 113.866,291.410 114.336,291.891 114.785 C 292.373 115.233,293.035 115.600,293.363 115.600 C 293.692 115.600,294.104 115.825,294.280 116.101 C 294.456 116.376,295.139 116.871,295.797 117.201 C 296.455 117.530,297.376 118.205,297.843 118.700 C 298.310 119.195,298.869 119.600,299.085 119.600 C 299.301 119.600,299.910 119.963,300.439 120.406 C 300.967 120.849,302.093 121.794,302.939 122.506 C 305.028 124.262,311.105 130.346,312.674 132.252 C 313.375 133.104,314.497 134.430,315.168 135.200 C 315.839 135.970,316.390 136.743,316.394 136.917 C 316.397 137.092,316.850 137.720,317.400 138.313 C 317.950 138.907,318.400 139.709,318.400 140.096 C 318.400 140.483,318.557 140.800,318.748 140.800 C 319.183 140.800,322.400 146.308,322.400 147.053 C 322.400 147.354,322.545 147.600,322.723 147.600 C 323.161 147.600,324.400 150.470,324.400 151.485 C 324.400 151.935,324.670 152.526,325.000 152.800 C 325.330 153.074,325.600 153.636,325.600 154.049 C 325.600 154.462,325.780 154.800,326.000 154.800 C 326.220 154.800,326.400 155.235,326.400 155.767 C 326.400 156.298,326.535 156.793,326.700 156.867 C 326.865 156.940,327.292 157.630,327.650 158.400 C 328.007 159.170,328.772 160.762,329.350 161.937 C 329.927 163.112,330.400 164.417,330.400 164.837 C 330.400 165.257,330.545 165.600,330.723 165.600 C 330.901 165.600,331.362 166.365,331.749 167.300 C 332.136 168.235,332.742 169.540,333.097 170.200 C 333.451 170.860,333.889 171.715,334.071 172.100 C 334.465 172.937,334.964 173.923,336.063 176.030 C 337.179 178.172,339.482 180.396,340.871 180.674 C 341.501 180.800,342.114 181.060,342.232 181.252 C 342.350 181.443,342.962 181.600,343.591 181.600 C 344.220 181.600,345.335 181.900,346.068 182.268 C 348.513 183.493,348.785 183.600,349.495 183.613 C 349.883 183.620,350.549 183.890,350.976 184.213 C 351.404 184.536,352.079 184.800,352.476 184.800 C 352.874 184.800,353.200 184.980,353.200 185.200 C 353.200 185.420,353.455 185.600,353.767 185.600 C 354.078 185.600,354.393 185.735,354.467 185.900 C 354.660 186.335,358.353 188.800,358.812 188.800 C 359.025 188.800,359.200 188.980,359.200 189.200 C 359.200 189.420,359.470 189.600,359.800 189.600 C 360.130 189.600,360.400 189.739,360.400 189.909 C 360.400 190.079,361.019 190.552,361.777 190.959 C 362.534 191.367,363.248 191.948,363.364 192.250 C 363.480 192.553,363.941 192.800,364.387 192.800 C 364.834 192.800,365.200 192.980,365.200 193.200 C 365.200 193.420,365.394 193.600,365.631 193.600 C 366.397 193.600,368.463 195.976,368.325 196.699 C 368.212 197.290,367.658 197.418,364.798 197.518 C 362.931 197.583,361.232 197.808,361.022 198.018 C 360.812 198.228,359.527 198.400,358.166 198.400 C 356.749 198.400,355.202 198.655,354.546 198.998 C 353.916 199.326,353.096 199.596,352.724 199.598 C 352.352 199.599,351.936 199.780,351.800 200.000 C 351.664 200.220,351.107 200.400,350.562 200.400 C 347.255 200.400,347.235 202.466,350.503 206.600 C 351.546 207.920,352.400 209.135,352.400 209.300 C 352.400 209.465,352.627 209.600,352.904 209.600 C 353.181 209.600,353.893 210.050,354.487 210.600 C 355.080 211.150,355.753 211.600,355.983 211.600 C 356.212 211.600,356.403 211.735,356.406 211.900 C 356.409 212.065,357.487 212.830,358.800 213.600 C 360.113 214.370,361.191 215.135,361.194 215.300 C 361.197 215.465,361.515 215.606,361.900 215.613 C 362.285 215.620,362.949 215.890,363.376 216.213 C 363.804 216.536,364.479 216.800,364.876 216.800 C 365.274 216.800,365.600 216.980,365.600 217.200 C 365.600 217.420,365.855 217.600,366.168 217.600 C 366.835 217.600,369.340 218.865,369.533 219.300 C 369.607 219.465,369.879 219.600,370.137 219.600 C 370.396 219.600,371.093 220.050,371.687 220.600 C 372.280 221.150,372.910 221.600,373.087 221.600 C 373.263 221.600,373.913 222.068,374.530 222.640 C 376.229 224.215,376.212 223.548,374.505 221.646 C 371.730 218.554,367.663 214.400,367.411 214.400 C 367.274 214.400,366.745 213.950,366.235 213.400 C 365.725 212.850,365.166 212.400,364.992 212.400 C 364.818 212.400,364.086 211.950,363.364 211.400 C 362.643 210.850,361.771 210.400,361.427 210.400 C 361.082 210.400,360.800 210.232,360.800 210.027 C 360.800 209.822,360.421 209.534,359.957 209.386 C 356.186 208.190,353.235 203.270,356.000 202.791 C 356.770 202.657,357.793 202.335,358.274 202.074 C 358.754 201.813,359.789 201.600,360.574 201.600 C 361.358 201.600,362.000 201.420,362.000 201.200 C 362.000 200.975,363.178 200.792,364.700 200.782 C 366.185 200.773,368.120 200.505,369.000 200.188 C 369.880 199.871,371.018 199.609,371.529 199.606 C 372.454 199.600,373.863 198.583,373.293 198.332 C 373.129 198.259,372.365 197.390,371.597 196.401 C 369.994 194.336,368.105 192.402,367.686 192.397 C 367.529 192.395,366.770 191.806,366.000 191.089 C 365.230 190.372,363.790 189.160,362.800 188.396 C 361.810 187.631,360.940 186.870,360.867 186.703 C 360.793 186.536,360.493 186.400,360.200 186.400 C 359.907 186.400,359.607 186.262,359.533 186.093 C 359.460 185.924,358.410 185.165,357.200 184.406 C 355.990 183.647,354.910 182.929,354.800 182.809 C 354.557 182.545,350.837 180.746,348.500 179.762 C 347.565 179.368,346.800 178.901,346.800 178.723 C 346.800 178.545,346.361 178.400,345.824 178.400 C 345.287 178.400,344.736 178.220,344.600 178.000 C 344.464 177.780,344.013 177.600,343.599 177.600 C 342.078 177.600,337.600 171.128,337.600 168.930 C 337.600 168.638,337.440 168.400,337.243 168.400 C 337.047 168.400,336.774 167.950,336.636 167.400 C 336.498 166.850,336.208 166.400,335.992 166.400 C 335.777 166.400,335.600 165.950,335.600 165.400 C 335.600 164.850,335.420 164.400,335.200 164.400 C 334.980 164.400,334.800 164.062,334.800 163.649 C 334.800 163.236,334.530 162.674,334.200 162.400 C 333.870 162.126,333.600 161.564,333.600 161.151 C 333.600 160.738,333.420 160.400,333.200 160.400 C 332.980 160.400,332.800 159.950,332.800 159.400 C 332.800 158.850,332.623 158.400,332.408 158.400 C 332.192 158.400,331.892 157.905,331.741 157.300 C 331.590 156.695,331.047 155.408,330.533 154.440 C 330.020 153.473,329.600 152.348,329.600 151.940 C 329.600 151.533,329.420 151.200,329.200 151.200 C 328.980 151.200,328.800 150.874,328.800 150.476 C 328.800 150.079,328.536 149.404,328.213 148.976 C 327.890 148.549,327.620 147.795,327.613 147.300 C 327.606 146.805,327.420 146.400,327.200 146.400 C 326.980 146.400,326.800 146.062,326.800 145.649 C 326.800 145.236,326.530 144.674,326.200 144.400 C 325.870 144.126,325.600 143.579,325.600 143.184 C 325.600 142.790,325.459 142.407,325.287 142.333 C 324.974 142.200,321.600 137.261,321.600 136.937 C 321.600 136.842,321.150 136.280,320.600 135.687 C 320.050 135.093,319.600 134.458,319.600 134.276 C 319.600 134.093,319.375 133.710,319.100 133.425 C 318.825 133.140,318.166 132.387,317.635 131.753 C 314.993 128.598,314.102 127.593,311.733 125.100 C 310.322 123.615,309.040 122.399,308.884 122.398 C 308.728 122.396,307.624 121.496,306.432 120.398 C 305.240 119.299,304.192 118.400,304.104 118.400 C 304.015 118.400,303.692 118.175,303.385 117.900 C 302.174 116.814,301.623 116.400,301.388 116.400 C 301.253 116.400,300.892 116.175,300.585 115.900 C 299.344 114.787,298.820 114.400,298.555 114.400 C 298.401 114.400,297.686 113.950,296.964 113.400 C 296.243 112.850,295.461 112.400,295.227 112.400 C 294.992 112.400,294.800 112.249,294.800 112.064 C 294.800 111.880,294.082 111.385,293.205 110.964 C 292.327 110.544,291.607 110.065,291.605 109.900 C 291.602 109.735,291.352 109.600,291.049 109.600 C 290.746 109.600,290.274 109.330,290.000 109.000 C 289.726 108.670,289.085 108.400,288.575 108.400 C 288.065 108.400,287.551 108.244,287.432 108.053 C 287.314 107.861,286.494 107.589,285.609 107.448 C 284.724 107.306,284.000 107.013,284.000 106.795 C 284.000 106.578,283.100 106.400,282.000 106.400 C 280.900 106.400,280.000 106.220,280.000 106.000 C 280.000 105.762,278.476 105.600,276.229 105.600 C 273.410 105.600,272.306 105.448,271.857 105.000 C 271.527 104.670,271.138 104.400,270.992 104.400 C 270.846 104.400,270.039 103.811,269.198 103.091 C 268.357 102.371,266.078 101.004,264.134 100.054 C 262.190 99.103,260.323 98.185,259.985 98.012 C 259.646 97.840,258.611 97.571,257.685 97.414 C 256.758 97.258,256.000 96.966,256.000 96.765 C 256.000 95.944,251.425 96.466,249.670 97.486 M273.600 119.462 C 273.600 119.817,275.687 122.566,276.083 122.733 C 276.258 122.807,276.400 123.225,276.400 123.662 C 276.400 125.050,277.525 125.850,278.208 124.949 C 279.270 123.545,278.716 121.736,276.661 119.900 C 275.918 119.236,273.600 118.904,273.600 119.462 M31.821 209.966 C 31.674 210.205,30.573 210.400,29.376 210.400 C 28.179 210.400,27.200 210.568,27.200 210.773 C 27.200 210.978,26.808 211.270,26.329 211.422 C 25.307 211.747,24.015 212.962,23.072 214.486 C 22.462 215.472,22.400 217.821,22.400 239.986 L 22.400 264.400 27.600 264.400 L 32.800 264.400 32.800 241.824 C 32.800 227.842,32.946 219.157,33.184 219.010 C 33.866 218.588,35.087 219.692,35.791 221.366 C 36.595 223.280,38.124 226.604,39.456 229.337 C 39.975 230.402,40.400 231.617,40.400 232.037 C 40.400 232.457,40.545 232.800,40.723 232.800 C 40.901 232.800,41.367 233.565,41.758 234.500 C 42.150 235.435,42.905 237.072,43.435 238.137 C 43.966 239.202,44.400 240.402,44.400 240.804 C 44.400 241.205,44.535 241.593,44.700 241.667 C 44.865 241.740,45.299 242.430,45.665 243.200 C 47.511 247.085,48.400 249.206,48.400 249.726 C 48.400 250.043,48.670 250.526,49.000 250.800 C 49.330 251.074,49.600 251.636,49.600 252.049 C 49.600 252.462,49.780 252.800,50.000 252.800 C 50.220 252.800,50.400 253.250,50.400 253.800 C 50.400 254.350,50.545 254.800,50.723 254.800 C 50.901 254.800,51.363 255.565,51.751 256.500 C 52.139 257.435,52.815 258.830,53.254 259.600 C 53.693 260.370,54.151 261.315,54.272 261.700 C 54.394 262.085,54.639 262.400,54.818 262.400 C 54.997 262.400,55.381 262.625,55.671 262.900 C 57.753 264.869,65.419 265.607,68.138 264.101 C 70.715 262.674,72.311 260.571,74.284 256.000 C 74.617 255.230,75.049 254.287,75.244 253.905 C 75.440 253.523,75.600 252.933,75.600 252.593 C 75.600 252.253,75.870 251.871,76.200 251.745 C 76.530 251.618,76.800 251.084,76.800 250.557 C 76.800 250.031,76.980 249.600,77.200 249.600 C 77.420 249.600,77.606 249.195,77.613 248.700 C 77.620 248.205,77.890 247.451,78.213 247.024 C 78.536 246.596,78.800 245.921,78.800 245.524 C 78.800 245.126,78.980 244.800,79.200 244.800 C 79.420 244.800,79.600 244.462,79.600 244.049 C 79.600 243.636,79.870 243.074,80.200 242.800 C 80.530 242.526,80.800 242.052,80.800 241.746 C 80.800 241.440,80.964 240.877,81.164 240.495 C 81.674 239.524,85.112 231.981,86.313 229.200 C 86.646 228.430,87.071 227.487,87.259 227.105 C 87.446 226.723,87.600 226.160,87.600 225.854 C 87.600 225.548,87.870 225.074,88.200 224.800 C 88.530 224.526,88.800 223.964,88.800 223.551 C 88.800 223.138,88.980 222.800,89.200 222.800 C 89.420 222.800,89.600 222.372,89.600 221.849 C 89.600 221.326,89.870 220.674,90.200 220.400 C 90.530 220.126,90.800 219.641,90.800 219.322 C 90.800 218.984,91.093 218.798,91.500 218.876 C 92.155 219.002,92.207 220.457,92.303 241.705 L 92.407 264.400 98.003 264.400 L 103.600 264.400 103.600 240.800 C 103.600 225.333,103.462 217.200,103.200 217.200 C 102.980 217.200,102.800 216.643,102.800 215.962 C 102.800 213.172,99.270 210.400,95.718 210.400 C 94.799 210.400,93.936 210.220,93.800 210.000 C 93.664 209.780,92.584 209.600,91.400 209.600 C 90.216 209.600,89.136 209.780,89.000 210.000 C 88.864 210.220,88.307 210.400,87.762 210.400 C 86.723 210.400,85.307 211.180,83.558 212.714 C 82.627 213.531,81.859 214.886,79.655 219.600 C 79.295 220.370,78.865 221.060,78.700 221.133 C 78.535 221.207,78.400 221.702,78.400 222.233 C 78.400 222.765,78.220 223.200,78.000 223.200 C 77.780 223.200,77.600 223.547,77.600 223.971 C 77.600 224.396,77.330 225.013,77.000 225.343 C 76.670 225.673,76.400 226.209,76.400 226.535 C 76.400 226.860,75.929 228.088,75.352 229.263 C 74.776 230.438,74.125 231.850,73.906 232.400 C 73.687 232.950,73.347 233.670,73.151 234.000 C 72.775 234.633,72.702 234.806,71.658 237.499 C 71.296 238.433,70.865 239.198,70.700 239.199 C 70.535 239.199,70.400 239.635,70.400 240.167 C 70.400 240.698,70.265 241.193,70.100 241.267 C 69.678 241.454,68.400 243.956,68.400 244.596 C 68.400 244.887,67.966 245.998,67.435 247.063 C 66.905 248.128,66.150 249.765,65.758 250.700 C 65.367 251.635,64.901 252.400,64.723 252.400 C 64.545 252.400,64.400 252.850,64.400 253.400 C 64.400 253.950,64.249 254.400,64.064 254.400 C 63.880 254.400,63.523 254.850,63.273 255.400 C 62.655 256.756,62.310 256.662,61.447 254.900 C 61.043 254.075,60.551 253.130,60.353 252.800 C 60.156 252.470,59.890 251.930,59.761 251.600 C 59.158 250.053,58.657 248.913,58.151 247.938 C 57.848 247.354,57.600 246.499,57.600 246.038 C 57.600 245.577,57.420 245.200,57.200 245.200 C 56.980 245.200,56.800 244.862,56.800 244.449 C 56.800 244.036,56.530 243.474,56.200 243.200 C 55.870 242.926,55.600 242.452,55.600 242.146 C 55.600 241.840,55.446 241.277,55.259 240.895 C 54.920 240.204,54.172 238.492,53.207 236.200 C 52.930 235.540,52.454 234.522,52.151 233.938 C 51.848 233.354,51.600 232.589,51.600 232.238 C 51.600 231.887,51.420 231.600,51.200 231.600 C 50.980 231.600,50.800 231.172,50.800 230.649 C 50.800 230.126,50.530 229.474,50.200 229.200 C 49.870 228.926,49.600 228.452,49.600 228.146 C 49.600 227.584,49.477 227.280,48.268 224.868 C 47.900 224.135,47.600 223.280,47.600 222.968 C 47.600 222.655,47.420 222.400,47.200 222.400 C 46.980 222.400,46.800 221.972,46.800 221.449 C 46.800 220.926,46.530 220.274,46.200 220.000 C 45.870 219.726,45.600 219.074,45.600 218.551 C 45.600 218.028,45.420 217.600,45.200 217.600 C 44.980 217.600,44.800 217.144,44.800 216.587 C 44.800 216.031,44.530 215.471,44.200 215.345 C 43.870 215.218,43.600 214.898,43.600 214.633 C 43.600 213.979,41.322 211.693,40.369 211.390 C 39.946 211.256,39.600 210.997,39.600 210.815 C 39.600 210.154,32.204 209.347,31.821 209.966 M114.400 241.408 L 114.400 255.216 115.458 256.908 C 116.040 257.839,116.715 258.719,116.958 258.865 C 117.201 259.011,117.833 259.506,118.361 259.965 C 118.890 260.424,119.565 260.800,119.861 260.800 C 120.158 260.800,120.400 260.980,120.400 261.200 C 120.400 261.420,120.805 261.606,121.300 261.613 C 121.795 261.620,122.549 261.890,122.976 262.213 C 123.404 262.536,124.349 262.800,125.076 262.800 C 125.804 262.800,126.400 262.978,126.400 263.195 C 126.400 263.448,132.160 263.629,142.300 263.695 L 158.200 263.800 158.295 267.200 C 158.373 269.974,158.261 270.747,157.684 271.400 C 156.675 272.543,154.646 273.600,153.462 273.600 C 152.904 273.600,152.336 273.780,152.200 274.000 C 152.041 274.257,145.263 274.400,133.176 274.400 L 114.400 274.400 114.400 277.600 L 114.400 280.800 134.300 280.782 C 150.587 280.768,154.490 280.660,155.800 280.188 C 156.680 279.871,157.974 279.609,158.676 279.606 C 159.378 279.603,160.064 279.420,160.200 279.200 C 160.336 278.980,160.865 278.800,161.375 278.800 C 161.885 278.800,162.526 278.530,162.800 278.200 C 163.074 277.870,163.509 277.600,163.767 277.600 C 164.264 277.600,167.600 274.643,167.600 274.203 C 167.600 274.060,167.870 273.673,168.200 273.343 C 168.530 273.013,168.800 272.316,168.800 271.795 C 168.800 271.274,168.980 270.736,169.200 270.600 C 169.459 270.440,169.600 262.796,169.600 248.976 L 169.600 227.600 164.005 227.600 L 158.410 227.600 158.305 242.900 L 158.200 258.200 145.400 258.158 C 133.013 258.118,128.235 257.791,127.670 256.946 C 127.522 256.724,127.068 256.419,126.662 256.269 C 126.256 256.119,125.830 255.637,125.715 255.198 C 125.601 254.759,125.348 254.400,125.153 254.400 C 124.956 254.400,124.800 248.487,124.800 241.000 L 124.800 227.600 119.600 227.600 L 114.400 227.600 114.400 241.408 " stroke="none" fill="#046b8c" fill-rule="evenodd"></path><path id="path3" d="M252.505 96.287 C 253.114 96.379,254.014 96.377,254.505 96.282 C 254.997 96.187,254.500 96.111,253.400 96.114 C 252.300 96.117,251.897 96.195,252.505 96.287 M248.958 97.160 C 246.090 98.909,244.902 104.287,246.633 107.683 C 247.254 108.900,251.028 114.344,251.568 114.800 C 253.068 116.068,257.200 122.791,257.200 123.965 C 257.200 124.321,257.575 125.599,258.034 126.806 C 258.492 128.013,258.957 129.360,259.067 129.800 C 259.177 130.240,259.419 130.960,259.604 131.400 C 259.790 131.840,260.030 132.470,260.139 132.800 C 260.248 133.130,260.351 132.916,260.368 132.324 C 260.386 131.732,260.220 131.136,260.000 131.000 C 259.780 130.864,259.600 130.348,259.600 129.853 C 259.600 129.358,259.336 128.604,259.013 128.176 C 258.690 127.749,258.420 126.916,258.413 126.324 C 258.406 125.732,258.244 125.151,258.053 125.032 C 257.861 124.914,257.589 124.094,257.448 123.209 C 257.306 122.324,257.013 121.600,256.795 121.600 C 256.578 121.600,256.400 121.266,256.400 120.858 C 256.400 120.451,255.969 119.651,255.441 119.082 C 254.914 118.513,254.419 117.882,254.341 117.680 C 254.206 117.326,253.777 116.762,250.199 112.228 C 249.319 111.113,248.239 109.480,247.799 108.600 C 247.360 107.720,246.865 106.940,246.700 106.867 C 246.285 106.682,246.320 100.400,246.736 100.400 C 246.920 100.400,247.273 99.957,247.520 99.416 C 247.766 98.875,248.695 98.062,249.584 97.608 C 250.473 97.155,251.200 96.697,251.200 96.592 C 251.200 96.173,250.135 96.442,248.958 97.160 M256.000 96.765 C 256.000 96.966,256.758 97.258,257.685 97.414 C 258.611 97.571,259.646 97.840,259.985 98.012 C 260.323 98.185,262.190 99.103,264.134 100.054 C 266.078 101.004,268.357 102.371,269.198 103.091 C 270.039 103.811,270.846 104.400,270.992 104.400 C 271.138 104.400,271.527 104.670,271.857 105.000 C 272.306 105.448,273.410 105.600,276.229 105.600 C 278.476 105.600,280.000 105.762,280.000 106.000 C 280.000 106.220,280.855 106.379,281.900 106.354 L 283.800 106.308 282.200 105.914 C 281.320 105.697,278.785 105.403,276.566 105.260 C 272.881 105.022,272.403 104.896,271.025 103.800 C 268.374 101.691,265.830 100.000,265.307 100.000 C 265.028 100.000,264.800 99.856,264.800 99.680 C 264.800 99.505,264.125 99.124,263.300 98.834 C 262.475 98.545,261.260 98.076,260.600 97.793 C 257.683 96.543,256.000 96.167,256.000 96.765 M251.976 100.229 C 251.579 100.708,251.768 100.800,253.151 100.800 C 255.104 100.800,255.218 100.624,253.625 100.069 C 252.713 99.751,252.343 99.787,251.976 100.229 M249.351 102.246 C 248.808 103.392,248.762 103.848,249.133 104.441 C 249.390 104.852,249.600 105.508,249.600 105.899 C 249.600 106.289,250.050 107.093,250.600 107.687 C 251.150 108.280,251.603 108.908,251.608 109.083 C 251.620 109.575,254.188 112.401,254.617 112.394 C 254.828 112.391,254.807 112.256,254.572 112.094 C 254.119 111.783,251.309 107.926,250.551 106.574 C 249.674 105.011,249.515 103.252,250.138 102.003 C 250.469 101.342,250.581 100.800,250.388 100.800 C 250.195 100.800,249.729 101.451,249.351 102.246 M256.176 101.413 C 256.604 101.736,257.268 102.000,257.653 102.000 C 258.038 102.000,258.464 102.180,258.600 102.400 C 258.990 103.030,259.600 102.866,259.345 102.200 C 259.218 101.870,258.694 101.600,258.181 101.600 C 257.667 101.600,257.136 101.420,257.000 101.200 C 256.864 100.980,256.448 100.806,256.076 100.813 C 255.485 100.824,255.497 100.899,256.176 101.413 M261.204 103.532 C 263.805 104.770,266.376 106.516,268.229 108.305 C 268.933 108.984,274.764 109.984,278.076 109.993 C 279.548 109.997,280.864 110.180,281.000 110.400 C 281.136 110.620,281.631 110.800,282.100 110.800 C 282.936 110.800,282.937 110.788,282.176 110.213 C 281.636 109.804,280.345 109.622,277.924 109.613 C 276.012 109.606,274.336 109.420,274.200 109.200 C 274.064 108.980,273.014 108.800,271.868 108.800 C 269.916 108.800,267.066 107.272,266.467 105.904 C 266.393 105.737,266.078 105.600,265.767 105.600 C 265.455 105.600,265.200 105.420,265.200 105.200 C 265.200 104.980,264.952 104.800,264.649 104.800 C 264.346 104.800,263.874 104.530,263.600 104.200 C 263.326 103.870,262.764 103.600,262.351 103.600 C 261.938 103.600,261.600 103.420,261.600 103.200 C 261.600 102.980,261.195 102.815,260.700 102.832 C 259.947 102.859,260.029 102.974,261.204 103.532 M284.000 106.795 C 284.000 107.013,284.724 107.306,285.609 107.448 C 286.494 107.589,287.314 107.861,287.432 108.053 C 287.551 108.244,288.065 108.400,288.575 108.400 C 289.085 108.400,289.726 108.670,290.000 109.000 C 290.274 109.330,290.746 109.600,291.049 109.600 C 291.352 109.600,291.602 109.735,291.605 109.900 C 291.607 110.065,292.327 110.544,293.205 110.964 C 294.082 111.385,294.800 111.880,294.800 112.064 C 294.800 112.249,294.992 112.400,295.227 112.400 C 295.461 112.400,296.243 112.850,296.964 113.400 C 297.686 113.950,298.406 114.400,298.566 114.400 C 298.726 114.400,299.108 114.625,299.415 114.900 C 300.626 115.986,301.177 116.400,301.412 116.400 C 301.547 116.400,301.908 116.625,302.215 116.900 C 303.296 117.870,303.968 118.400,304.115 118.400 C 304.197 118.400,305.240 119.299,306.432 120.398 C 307.624 121.496,308.728 122.396,308.884 122.398 C 309.195 122.400,313.508 126.864,315.649 129.400 C 316.392 130.280,317.180 131.201,317.400 131.447 C 318.829 133.043,319.600 134.046,319.600 134.307 C 319.600 134.473,320.050 135.093,320.600 135.687 C 321.150 136.280,321.600 136.842,321.600 136.937 C 321.600 137.261,324.974 142.200,325.287 142.333 C 325.459 142.407,325.600 142.790,325.600 143.184 C 325.600 143.579,325.870 144.126,326.200 144.400 C 327.007 145.070,326.910 144.463,325.975 143.000 C 325.554 142.340,325.088 141.530,324.941 141.200 C 324.793 140.870,323.801 139.388,322.736 137.906 C 321.671 136.424,320.800 135.044,320.800 134.839 C 320.800 134.634,320.665 134.407,320.500 134.333 C 320.335 134.260,319.120 132.864,317.800 131.232 C 313.579 126.012,306.054 118.885,301.600 115.890 C 301.050 115.520,298.854 114.044,296.720 112.609 C 294.586 111.174,292.651 110.000,292.420 110.000 C 292.189 110.000,291.999 109.865,291.997 109.700 C 291.993 109.319,290.493 108.589,287.202 107.366 C 284.293 106.285,284.000 106.232,284.000 106.795 M284.985 111.826 C 286.077 112.367,287.157 112.746,287.385 112.667 C 287.912 112.486,284.463 110.793,283.625 110.821 C 283.281 110.833,283.893 111.285,284.985 111.826 M254.803 113.300 C 254.805 113.575,255.435 114.463,256.203 115.273 C 256.972 116.084,257.600 117.018,257.600 117.350 C 257.600 118.005,258.318 118.615,258.673 118.260 C 258.865 118.068,255.246 112.800,254.923 112.800 C 254.855 112.800,254.802 113.025,254.803 113.300 M288.147 113.114 C 288.254 113.287,289.120 113.837,290.071 114.335 C 291.022 114.834,292.402 115.598,293.138 116.034 C 293.985 116.535,294.413 116.638,294.304 116.313 C 294.211 116.031,293.806 115.737,293.406 115.659 C 293.006 115.581,292.304 115.169,291.847 114.743 C 291.390 114.318,290.607 113.866,290.108 113.741 C 289.609 113.616,289.200 113.353,289.200 113.157 C 289.200 112.960,288.919 112.800,288.576 112.800 C 288.233 112.800,288.040 112.942,288.147 113.114 M294.800 116.961 C 294.800 117.050,296.337 118.221,298.215 119.565 C 303.355 123.242,310.509 130.074,313.748 134.400 C 314.654 135.610,315.494 136.690,315.615 136.800 C 316.109 137.248,319.200 142.117,319.200 142.446 C 319.200 142.641,319.342 142.800,319.516 142.800 C 319.689 142.800,320.358 143.808,321.003 145.039 C 321.647 146.271,322.229 147.112,322.297 146.909 C 322.460 146.420,319.195 140.800,318.748 140.800 C 318.557 140.800,318.400 140.483,318.400 140.096 C 318.400 139.709,317.950 138.907,317.400 138.313 C 316.850 137.720,316.397 137.092,316.394 136.917 C 316.390 136.743,315.839 135.970,315.168 135.200 C 314.497 134.430,313.375 133.104,312.674 132.252 C 311.105 130.346,305.028 124.262,302.939 122.506 C 302.093 121.794,300.967 120.849,300.439 120.406 C 299.910 119.963,299.301 119.600,299.085 119.600 C 298.869 119.600,298.300 119.195,297.821 118.700 C 296.653 117.492,294.800 116.425,294.800 116.961 M273.476 118.846 C 272.719 119.286,273.227 120.663,274.566 121.800 C 274.824 122.020,275.425 123.010,275.901 124.000 C 277.336 126.987,277.474 127.121,278.171 126.198 C 278.503 125.759,278.775 125.130,278.775 124.800 C 278.775 124.337,278.645 124.371,278.208 124.949 C 277.525 125.850,276.400 125.050,276.400 123.662 C 276.400 123.225,276.258 122.807,276.083 122.733 C 275.687 122.566,273.600 119.817,273.600 119.462 C 273.600 117.565,278.084 120.603,278.769 122.965 C 279.080 124.034,279.133 124.072,279.164 123.247 C 279.269 120.469,275.586 117.618,273.476 118.846 M258.800 119.376 C 258.800 119.693,258.980 120.064,259.200 120.200 C 259.420 120.336,259.600 120.775,259.600 121.175 C 259.600 121.575,259.870 122.126,260.200 122.400 C 261.020 123.080,260.953 122.467,259.991 120.475 C 259.145 118.724,258.800 118.406,258.800 119.376 M260.832 123.876 C 260.815 124.358,260.980 124.864,261.200 125.000 C 261.420 125.136,261.606 125.732,261.613 126.324 C 261.620 126.916,261.890 127.749,262.213 128.176 C 262.788 128.937,262.800 128.936,262.800 128.100 C 262.800 127.631,262.620 127.136,262.400 127.000 C 262.180 126.864,261.992 126.448,261.982 126.076 C 261.950 124.887,260.872 122.823,260.832 123.876 M262.816 130.100 C 262.807 130.705,262.980 131.200,263.200 131.200 C 263.420 131.200,263.600 131.667,263.600 132.238 C 263.600 132.809,263.896 133.844,264.257 134.538 C 265.464 136.855,265.600 137.186,265.600 137.795 C 265.600 138.128,265.777 138.400,265.992 138.400 C 266.208 138.400,266.498 138.850,266.636 139.400 C 266.774 139.950,267.047 140.400,267.243 140.400 C 267.440 140.400,267.602 140.625,267.603 140.900 C 267.605 141.175,268.498 142.300,269.587 143.400 C 271.586 145.420,272.489 149.003,271.200 149.800 C 270.980 149.936,270.815 150.442,270.832 150.924 C 270.902 152.785,271.964 149.429,271.982 147.291 C 272.000 145.213,271.409 144.209,268.400 141.200 C 267.990 140.790,267.188 139.325,265.991 136.800 C 265.314 135.370,264.588 133.887,264.380 133.505 C 264.171 133.123,264.000 132.559,264.000 132.251 C 264.000 131.944,263.737 131.086,263.416 130.346 C 262.835 129.009,262.831 129.007,262.816 130.100 M260.400 133.805 C 260.400 133.918,260.560 134.323,260.755 134.705 C 262.013 137.167,263.200 139.885,263.200 140.306 C 263.200 140.578,263.339 140.800,263.509 140.800 C 263.679 140.800,264.173 141.475,264.607 142.300 C 265.040 143.125,265.980 144.430,266.694 145.200 C 267.954 146.558,268.438 148.482,267.642 148.974 C 267.445 149.095,267.192 149.871,267.078 150.697 C 266.965 151.524,266.568 153.280,266.197 154.600 C 264.202 161.685,264.093 171.347,265.931 178.000 L 266.318 179.400 266.359 177.733 C 266.383 176.740,266.202 176.001,265.909 175.903 C 265.198 175.666,265.189 158.651,265.900 157.940 C 266.175 157.665,266.400 156.867,266.400 156.166 C 266.400 155.465,266.669 154.376,266.998 153.746 C 267.326 153.116,267.596 152.026,267.598 151.324 C 267.599 150.622,267.780 149.936,268.000 149.800 C 268.872 149.261,268.453 146.100,267.400 145.271 C 266.850 144.839,266.400 144.286,266.400 144.042 C 266.400 143.799,266.256 143.600,266.079 143.600 C 265.903 143.600,265.138 142.385,264.379 140.900 C 263.621 139.415,262.865 138.140,262.700 138.067 C 262.535 137.993,262.400 137.498,262.400 136.967 C 262.400 136.435,262.234 136.000,262.032 136.000 C 261.829 136.000,261.545 135.460,261.400 134.800 C 261.186 133.824,260.400 133.043,260.400 133.805 M326.800 145.800 C 326.800 146.130,326.980 146.400,327.200 146.400 C 327.420 146.400,327.606 146.805,327.613 147.300 C 327.620 147.795,327.890 148.549,328.213 148.976 C 328.536 149.404,328.800 150.079,328.800 150.476 C 328.800 150.874,328.980 151.200,329.200 151.200 C 329.420 151.200,329.606 151.605,329.613 152.100 C 329.620 152.595,329.890 153.349,330.213 153.776 C 331.170 155.042,330.937 153.634,329.800 151.277 C 329.250 150.137,328.800 149.057,328.800 148.877 C 328.800 148.412,327.220 145.200,326.991 145.200 C 326.886 145.200,326.800 145.470,326.800 145.800 M323.337 149.810 C 323.812 151.025,324.258 151.745,324.329 151.410 C 324.477 150.715,323.194 147.600,322.760 147.600 C 322.602 147.600,322.862 148.594,323.337 149.810 M270.085 152.813 C 269.818 153.240,269.600 154.027,269.600 154.561 C 269.600 155.096,269.402 155.599,269.161 155.680 C 268.919 155.760,268.784 156.270,268.861 156.813 C 268.976 157.629,269.094 157.489,269.546 156.000 C 269.846 155.010,270.281 153.795,270.513 153.301 C 271.050 152.155,270.726 151.786,270.085 152.813 M324.400 152.556 C 324.400 152.696,324.565 153.123,324.766 153.505 C 324.968 153.887,325.446 154.920,325.829 155.800 C 327.635 159.949,330.382 165.331,330.391 164.737 C 330.396 164.372,329.927 163.112,329.350 161.937 C 328.772 160.762,328.007 159.170,327.650 158.400 C 327.292 157.630,326.865 156.940,326.700 156.867 C 326.535 156.793,326.400 156.298,326.400 155.767 C 326.400 155.235,326.220 154.800,326.000 154.800 C 325.780 154.800,325.600 154.462,325.600 154.049 C 325.600 153.636,325.330 153.074,325.000 152.800 C 324.670 152.526,324.400 152.417,324.400 152.556 M330.800 155.176 C 330.800 155.383,330.980 155.664,331.200 155.800 C 331.420 155.936,331.603 156.352,331.606 156.724 C 331.614 157.548,332.273 158.660,332.575 158.358 C 332.696 158.237,332.432 157.388,331.988 156.469 C 331.204 154.847,330.800 154.407,330.800 155.176 M268.464 158.820 C 268.429 159.381,268.210 160.030,267.978 160.262 C 267.430 160.810,267.707 171.289,268.320 173.200 L 268.770 174.600 268.582 172.800 C 268.003 167.273,267.932 163.418,268.383 162.052 C 268.648 161.249,268.789 159.963,268.696 159.196 C 268.576 158.201,268.510 158.093,268.464 158.820 M332.821 159.500 C 332.809 159.995,332.980 160.400,333.200 160.400 C 333.420 160.400,333.600 160.738,333.600 161.151 C 333.600 161.564,333.870 162.126,334.200 162.400 C 335.003 163.067,334.965 162.882,333.821 160.575 C 333.103 159.126,332.837 158.840,332.821 159.500 M334.800 163.800 C 334.800 164.130,334.980 164.400,335.200 164.400 C 335.420 164.400,335.600 164.850,335.600 165.400 C 335.600 165.950,335.777 166.400,335.992 166.400 C 336.208 166.400,336.498 166.850,336.636 167.400 C 336.774 167.950,337.047 168.400,337.243 168.400 C 337.440 168.400,337.600 168.638,337.600 168.930 C 337.600 171.128,342.078 177.600,343.599 177.600 C 344.013 177.600,344.464 177.780,344.600 178.000 C 344.736 178.220,345.287 178.400,345.824 178.400 C 346.361 178.400,346.800 178.545,346.800 178.723 C 346.800 178.901,347.565 179.368,348.500 179.762 C 350.837 180.746,354.557 182.545,354.800 182.809 C 354.910 182.929,355.990 183.647,357.200 184.406 C 358.410 185.165,359.460 185.924,359.533 186.093 C 359.607 186.262,359.907 186.400,360.200 186.400 C 360.493 186.400,360.793 186.536,360.867 186.703 C 360.940 186.870,361.810 187.631,362.800 188.396 C 363.790 189.160,365.230 190.372,366.000 191.089 C 366.770 191.806,367.529 192.395,367.686 192.397 C 368.105 192.402,369.994 194.336,371.597 196.401 C 372.365 197.390,373.129 198.259,373.293 198.332 C 373.863 198.583,372.454 199.600,371.529 199.606 C 371.018 199.609,369.880 199.884,369.000 200.217 L 367.400 200.823 368.800 200.649 C 371.116 200.360,373.298 199.688,373.623 199.163 C 374.549 197.665,368.515 191.796,359.400 185.329 C 354.708 182.000,349.879 179.447,343.329 176.834 C 341.784 176.218,340.896 174.890,337.619 168.300 C 335.046 163.124,334.800 162.731,334.800 163.800 M330.529 165.900 C 330.626 166.065,331.095 167.100,331.572 168.200 C 334.846 175.754,338.177 180.800,339.889 180.800 C 340.423 180.800,340.356 180.648,339.589 180.122 C 337.784 178.885,336.695 177.406,334.884 173.729 C 334.687 173.328,334.349 172.640,334.133 172.200 C 333.917 171.760,333.451 170.860,333.097 170.200 C 332.742 169.540,332.136 168.235,331.749 167.300 C 331.362 166.365,330.890 165.600,330.699 165.600 C 330.509 165.600,330.432 165.735,330.529 165.900 M281.281 167.900 C 278.757 171.093,277.670 173.967,276.806 179.735 C 276.377 182.595,276.445 183.688,277.016 183.117 C 277.135 182.999,277.342 181.343,277.476 179.437 C 277.611 177.532,277.874 175.878,278.060 175.763 C 278.247 175.647,278.406 175.068,278.413 174.476 C 278.420 173.884,278.690 173.051,279.013 172.624 C 279.336 172.196,279.600 171.599,279.600 171.297 C 279.600 170.994,280.228 170.084,280.997 169.273 C 281.765 168.463,282.395 167.665,282.397 167.500 C 282.398 167.335,282.670 167.200,283.000 167.200 C 283.415 167.200,283.600 167.617,283.600 168.551 C 283.600 169.294,283.870 170.126,284.200 170.400 C 284.530 170.674,284.800 171.148,284.800 171.454 C 284.800 172.015,284.945 172.362,286.143 174.662 C 286.504 175.356,286.800 176.196,286.800 176.528 C 286.800 176.861,286.935 177.193,287.100 177.267 C 287.265 177.340,287.940 178.480,288.600 179.800 C 289.260 181.120,290.025 182.438,290.300 182.729 C 290.575 183.019,290.800 183.514,290.800 183.829 C 290.800 184.143,290.960 184.400,291.157 184.400 C 291.353 184.400,291.626 184.850,291.764 185.400 C 291.902 185.950,292.192 186.400,292.408 186.400 C 292.623 186.400,292.800 186.670,292.800 187.000 C 292.800 187.330,292.959 187.600,293.153 187.600 C 293.348 187.600,293.615 187.915,293.747 188.300 C 294.162 189.508,295.881 192.160,296.351 192.317 C 296.795 192.465,297.001 193.600,296.583 193.600 C 296.089 193.600,291.911 189.553,290.534 187.740 C 290.058 187.113,289.272 186.150,288.787 185.600 C 288.302 185.050,287.729 184.105,287.514 183.500 C 287.298 182.895,286.959 182.400,286.761 182.400 C 286.562 182.400,286.400 182.190,286.400 181.934 C 286.400 181.188,285.077 178.400,284.723 178.400 C 284.545 178.400,284.400 178.040,284.400 177.600 C 284.400 176.523,283.314 176.577,282.377 177.700 C 281.810 178.380,281.623 179.259,281.613 181.300 C 281.606 182.824,281.426 184.000,281.200 184.000 C 280.980 184.000,280.819 184.675,280.842 185.500 L 280.884 187.000 281.411 185.400 C 281.701 184.520,281.963 182.990,281.992 182.000 C 282.052 179.974,282.795 177.518,283.400 177.348 C 283.620 177.286,284.598 178.892,285.574 180.918 C 288.084 186.129,295.675 194.935,298.403 195.801 C 298.841 195.940,299.200 196.222,299.200 196.427 C 299.200 196.632,299.384 196.800,299.609 196.800 C 300.071 196.800,299.229 195.367,297.377 193.000 C 295.791 190.974,290.800 182.972,290.800 182.455 C 290.800 182.241,290.665 182.007,290.500 181.933 C 290.176 181.790,286.477 174.423,285.411 171.800 C 285.054 170.920,284.590 169.887,284.381 169.505 C 284.171 169.123,284.000 168.484,284.000 168.085 C 284.000 167.359,283.291 166.400,282.754 166.400 C 282.596 166.400,281.934 167.075,281.281 167.900 M268.841 175.900 C 268.818 176.615,268.980 177.200,269.200 177.200 C 269.420 177.200,269.600 177.718,269.600 178.351 C 269.600 178.984,269.870 179.726,270.200 180.000 C 270.840 180.531,271.126 179.659,270.512 179.046 C 270.354 178.888,269.923 177.823,269.554 176.679 C 268.937 174.770,268.879 174.706,268.841 175.900 M266.400 179.805 C 266.400 179.918,266.569 180.323,266.776 180.705 C 266.983 181.087,267.468 182.165,267.853 183.100 C 268.239 184.035,268.699 184.800,268.877 184.800 C 269.055 184.800,269.207 185.025,269.216 185.300 C 269.224 185.575,270.210 186.790,271.405 188.000 L 273.579 190.200 276.224 190.200 C 278.898 190.200,280.815 189.058,280.794 187.478 C 280.790 187.215,280.271 187.585,279.641 188.300 C 277.400 190.842,270.400 189.100,270.400 186.000 C 270.400 185.780,270.265 185.599,270.100 185.597 C 269.698 185.594,268.400 183.281,268.400 182.568 C 268.400 182.255,268.243 182.000,268.050 182.000 C 267.858 182.000,267.592 181.460,267.460 180.800 C 267.267 179.833,266.400 179.020,266.400 179.805 M270.817 181.500 C 270.808 181.995,270.980 182.400,271.200 182.400 C 271.420 182.400,271.600 182.642,271.600 182.939 C 271.600 184.164,274.754 186.657,275.797 186.257 C 276.129 186.129,276.395 185.704,276.388 185.313 C 276.376 184.639,276.353 184.638,275.970 185.297 C 275.282 186.477,273.210 184.861,271.517 181.825 C 270.900 180.719,270.832 180.687,270.817 181.500 M341.600 181.400 C 342.150 181.714,342.994 181.978,343.476 181.986 C 343.958 181.994,344.464 182.180,344.600 182.400 C 344.736 182.620,345.231 182.800,345.700 182.800 C 346.536 182.800,346.537 182.788,345.776 182.213 C 345.349 181.890,344.426 181.620,343.724 181.613 C 343.022 181.606,342.336 181.420,342.200 181.200 C 342.064 180.980,341.648 180.806,341.276 180.814 C 340.784 180.824,340.872 180.984,341.600 181.400 M347.376 183.413 C 347.804 183.736,348.558 184.000,349.053 184.000 C 349.548 184.000,350.064 184.180,350.200 184.400 C 350.336 184.620,350.741 184.800,351.100 184.800 C 351.648 184.800,351.628 184.705,350.976 184.213 C 350.549 183.890,349.806 183.620,349.324 183.613 C 348.842 183.606,348.336 183.420,348.200 183.200 C 348.064 182.980,347.648 182.806,347.276 182.813 C 346.685 182.824,346.697 182.899,347.376 183.413 M352.220 185.117 C 352.429 185.291,354.215 186.506,356.190 187.817 C 358.164 189.128,360.131 190.513,360.560 190.895 C 360.990 191.278,361.669 191.695,362.071 191.822 C 362.472 191.950,362.800 192.222,362.800 192.427 C 362.800 192.632,362.974 192.800,363.187 192.800 C 363.972 192.800,363.112 191.679,361.777 190.959 C 361.019 190.552,360.400 190.079,360.400 189.909 C 360.400 189.739,360.130 189.600,359.800 189.600 C 359.470 189.600,359.200 189.420,359.200 189.200 C 359.200 188.980,359.025 188.800,358.812 188.800 C 358.353 188.800,354.660 186.335,354.467 185.900 C 354.393 185.735,354.078 185.600,353.767 185.600 C 353.455 185.600,353.200 185.420,353.200 185.200 C 353.200 184.980,352.894 184.800,352.520 184.800 C 352.132 184.800,352.003 184.936,352.220 185.117 M364.400 193.400 C 364.674 193.730,365.057 194.000,365.252 194.000 C 365.842 194.000,368.000 196.094,368.000 196.666 C 368.000 197.066,367.170 197.208,364.700 197.230 C 362.885 197.247,360.050 197.498,358.400 197.787 L 355.400 198.314 358.020 198.357 C 359.461 198.381,360.812 198.228,361.022 198.018 C 361.232 197.808,362.931 197.583,364.798 197.518 C 367.658 197.418,368.212 197.290,368.325 196.699 C 368.463 195.976,366.397 193.600,365.631 193.600 C 365.394 193.600,365.200 193.420,365.200 193.200 C 365.200 192.980,364.908 192.800,364.551 192.800 C 364.020 192.800,363.992 192.909,364.400 193.400 M353.000 198.896 C 352.340 199.122,351.440 199.450,351.000 199.624 C 350.560 199.799,349.673 200.100,349.029 200.295 C 347.361 200.797,346.905 201.688,347.606 203.074 C 349.281 206.387,351.428 208.964,354.200 210.989 C 355.080 211.632,355.890 212.275,356.000 212.419 C 356.530 213.112,363.004 216.800,363.691 216.800 C 364.438 216.800,362.668 215.627,361.900 215.613 C 361.515 215.606,361.197 215.465,361.194 215.300 C 361.191 215.135,360.113 214.370,358.800 213.600 C 357.487 212.830,356.409 212.065,356.406 211.900 C 356.403 211.735,356.212 211.600,355.983 211.600 C 355.753 211.600,355.080 211.150,354.487 210.600 C 353.893 210.050,353.181 209.600,352.904 209.600 C 352.627 209.600,352.400 209.465,352.400 209.300 C 352.400 209.135,351.546 207.920,350.503 206.600 C 347.235 202.466,347.255 200.400,350.562 200.400 C 351.107 200.400,351.651 200.240,351.772 200.045 C 351.893 199.850,352.617 199.573,353.382 199.430 C 354.146 199.286,354.879 198.996,355.010 198.785 C 355.301 198.313,354.587 198.352,353.000 198.896 M362.000 201.200 C 362.000 201.420,361.325 201.606,360.500 201.614 C 359.675 201.622,358.550 201.886,358.000 202.200 L 357.000 202.772 358.033 202.786 C 358.602 202.794,359.201 202.665,359.366 202.500 C 359.531 202.335,361.136 201.907,362.933 201.549 L 366.200 200.898 364.100 200.849 C 362.934 200.822,362.000 200.978,362.000 201.200 M354.667 203.067 C 354.520 203.213,354.400 203.608,354.400 203.943 C 354.400 204.478,354.461 204.476,354.900 203.922 C 355.175 203.576,355.670 203.196,356.000 203.078 C 356.412 202.930,356.339 202.853,355.767 202.832 C 355.308 202.814,354.813 202.920,354.667 203.067 M354.800 204.999 C 354.800 205.269,356.793 207.239,358.300 208.459 C 358.748 208.822,359.494 209.239,359.957 209.386 C 360.421 209.534,360.800 209.822,360.800 210.027 C 360.800 210.232,361.082 210.400,361.427 210.400 C 361.771 210.400,362.643 210.850,363.364 211.400 C 364.086 211.950,364.818 212.400,364.992 212.400 C 365.166 212.400,365.725 212.850,366.235 213.400 C 366.745 213.950,367.274 214.400,367.411 214.400 C 367.663 214.400,371.730 218.554,374.505 221.646 C 376.212 223.548,376.229 224.215,374.530 222.640 C 373.913 222.068,373.263 221.600,373.087 221.600 C 372.910 221.600,372.280 221.150,371.687 220.600 C 371.093 220.050,370.396 219.600,370.137 219.600 C 369.879 219.600,369.607 219.465,369.533 219.300 C 369.345 218.877,366.843 217.600,366.201 217.600 C 365.907 217.600,365.598 217.393,365.513 217.140 C 365.429 216.887,365.102 216.766,364.786 216.871 C 364.461 216.980,365.559 217.729,367.306 218.592 C 369.008 219.433,370.400 220.274,370.400 220.461 C 370.400 220.647,370.588 220.800,370.817 220.800 C 371.244 220.800,375.178 223.590,376.575 224.882 C 377.503 225.741,378.000 225.799,378.000 225.049 C 378.000 224.339,377.016 223.517,376.630 223.903 C 376.467 224.067,376.393 224.016,376.467 223.792 C 376.540 223.568,375.790 222.421,374.800 221.243 C 370.123 215.681,366.139 212.259,360.975 209.371 C 359.611 208.608,357.663 207.252,356.647 206.358 C 355.631 205.464,354.800 204.852,354.800 204.999 M31.122 209.411 C 31.006 209.528,30.121 209.778,29.155 209.968 L 27.400 210.312 29.420 210.356 C 30.531 210.380,31.639 210.201,31.881 209.959 C 32.476 209.364,39.600 210.155,39.600 210.815 C 39.600 210.997,39.946 211.256,40.369 211.390 C 41.322 211.693,43.600 213.979,43.600 214.633 C 43.600 214.898,43.870 215.218,44.200 215.345 C 45.373 215.795,44.770 214.718,42.677 212.625 C 40.000 209.947,32.634 207.899,31.122 209.411 M86.786 210.130 C 82.895 211.731,82.080 212.808,78.105 221.600 C 77.558 222.810,76.938 224.133,76.727 224.539 C 76.517 224.945,76.457 225.390,76.594 225.527 C 76.925 225.858,77.586 224.782,77.594 223.900 C 77.597 223.515,77.780 223.200,78.000 223.200 C 78.220 223.200,78.400 222.765,78.400 222.233 C 78.400 221.702,78.535 221.207,78.700 221.133 C 78.865 221.060,79.295 220.370,79.655 219.600 C 81.859 214.886,82.627 213.531,83.558 212.714 C 85.307 211.180,86.723 210.400,87.762 210.400 C 88.307 210.400,88.864 210.220,89.000 210.000 C 89.136 209.780,90.216 209.600,91.400 209.600 C 92.584 209.600,93.664 209.780,93.800 210.000 C 93.936 210.220,94.892 210.388,95.924 210.373 L 97.800 210.346 95.800 209.791 C 92.746 208.943,89.362 209.070,86.786 210.130 M25.728 211.022 C 25.029 211.329,23.949 212.245,23.328 213.058 L 22.200 214.537 22.091 239.669 L 21.983 264.800 27.788 264.800 L 33.593 264.800 33.697 242.533 C 33.804 219.460,33.900 218.259,35.371 221.693 C 35.773 222.632,36.799 224.888,37.651 226.708 C 38.503 228.527,39.200 230.099,39.200 230.200 C 39.200 230.380,41.486 235.389,43.398 239.400 C 43.922 240.500,44.362 241.102,44.376 240.737 C 44.389 240.372,43.966 239.202,43.435 238.137 C 42.905 237.072,42.150 235.435,41.758 234.500 C 41.367 233.565,40.901 232.800,40.723 232.800 C 40.545 232.800,40.400 232.457,40.400 232.037 C 40.400 231.617,39.975 230.402,39.456 229.337 C 38.124 226.604,36.595 223.280,35.791 221.366 C 35.087 219.692,33.866 218.588,33.184 219.010 C 32.946 219.157,32.800 227.842,32.800 241.824 L 32.800 264.400 27.600 264.400 L 22.400 264.400 22.400 239.986 C 22.400 217.821,22.462 215.472,23.072 214.486 C 24.015 212.962,25.307 211.747,26.329 211.422 C 26.808 211.270,27.200 210.978,27.200 210.773 C 27.200 210.568,27.155 210.415,27.100 210.433 C 27.045 210.451,26.428 210.716,25.728 211.022 M98.000 210.598 C 98.000 210.707,98.772 211.159,99.717 211.603 C 101.655 212.514,102.800 214.132,102.800 215.962 C 102.800 216.643,102.980 217.200,103.200 217.200 C 103.462 217.200,103.600 225.333,103.600 240.800 L 103.600 264.400 98.003 264.400 L 92.407 264.400 92.303 241.705 C 92.207 220.457,92.155 219.002,91.500 218.876 C 91.093 218.798,90.800 218.984,90.800 219.322 C 90.800 219.641,90.530 220.126,90.200 220.400 C 89.870 220.674,89.600 221.311,89.600 221.816 C 89.600 222.320,89.393 222.802,89.140 222.887 C 88.887 222.971,88.768 223.301,88.876 223.620 C 88.993 223.968,89.522 223.283,90.195 221.913 C 90.812 220.655,91.471 219.720,91.659 219.836 C 91.846 219.952,92.000 230.117,92.000 242.424 L 92.000 264.800 98.000 264.800 L 104.000 264.800 104.000 241.273 C 104.000 215.940,103.907 214.678,101.883 212.490 C 100.720 211.232,98.000 209.907,98.000 210.598 M44.800 217.000 C 44.800 217.330,44.980 217.600,45.200 217.600 C 45.420 217.600,45.600 218.028,45.600 218.551 C 45.600 219.074,45.870 219.726,46.200 220.000 C 47.020 220.680,46.953 220.067,45.991 218.075 C 45.139 216.312,44.800 216.006,44.800 217.000 M46.821 221.500 C 46.809 221.995,46.980 222.400,47.200 222.400 C 47.420 222.400,47.606 222.715,47.613 223.100 C 47.626 223.828,48.800 225.658,48.800 224.951 C 48.800 224.017,46.842 220.603,46.821 221.500 M88.073 224.887 C 87.813 225.147,87.600 225.596,87.600 225.885 C 87.600 226.174,87.446 226.723,87.259 227.105 C 87.071 227.487,86.601 228.520,86.215 229.400 C 85.828 230.280,85.351 231.313,85.156 231.695 C 84.634 232.714,84.720 232.964,85.400 232.400 C 85.730 232.126,86.000 231.688,86.000 231.426 C 86.000 231.164,86.336 230.241,86.747 229.375 C 88.599 225.472,88.894 224.760,88.726 224.592 C 88.627 224.494,88.334 224.626,88.073 224.887 M48.813 226.076 C 48.806 226.448,48.980 226.864,49.200 227.000 C 49.420 227.136,49.600 227.575,49.600 227.975 C 49.600 228.375,49.870 228.926,50.200 229.200 C 50.578 229.514,50.800 229.541,50.800 229.273 C 50.800 229.039,50.620 228.736,50.400 228.600 C 50.180 228.464,50.000 228.038,50.000 227.653 C 50.000 226.670,48.831 225.118,48.813 226.076 M75.231 228.063 C 74.712 229.239,73.928 231.010,73.490 232.000 C 73.052 232.990,72.202 234.880,71.601 236.200 C 69.455 240.911,68.322 243.420,67.717 244.800 C 67.379 245.570,66.689 247.100,66.183 248.200 C 65.677 249.300,64.709 251.415,64.032 252.900 C 62.600 256.041,62.717 255.973,61.646 254.300 C 60.637 252.725,60.517 253.438,61.500 255.165 C 62.350 256.658,62.680 256.702,63.273 255.400 C 63.523 254.850,63.880 254.400,64.064 254.400 C 64.249 254.400,64.400 253.950,64.400 253.400 C 64.400 252.850,64.545 252.400,64.723 252.400 C 64.901 252.400,65.367 251.635,65.758 250.700 C 66.150 249.765,66.905 248.128,67.435 247.063 C 67.966 245.998,68.400 244.887,68.400 244.596 C 68.400 243.956,69.678 241.454,70.100 241.267 C 70.265 241.193,70.400 240.698,70.400 240.167 C 70.400 239.635,70.535 239.199,70.700 239.199 C 70.865 239.198,71.328 238.343,71.728 237.299 C 72.129 236.254,72.625 235.130,72.831 234.800 C 73.037 234.470,73.310 233.930,73.439 233.600 C 74.095 231.915,74.402 231.217,75.403 229.138 C 76.002 227.894,76.421 226.663,76.334 226.402 C 76.247 226.141,75.751 226.888,75.231 228.063 M158.400 227.189 C 158.400 227.451,160.434 227.600,164.000 227.600 L 169.600 227.600 169.600 248.976 C 169.600 262.796,169.459 270.440,169.200 270.600 C 168.980 270.736,168.815 271.242,168.833 271.724 C 168.860 272.448,168.965 272.373,169.436 271.294 C 169.912 270.206,169.990 266.402,169.903 248.494 L 169.800 227.000 164.100 226.889 C 160.393 226.817,158.400 226.922,158.400 227.189 M114.000 241.163 C 114.000 249.478,114.161 255.573,114.398 256.195 C 115.242 258.414,121.104 262.829,123.176 262.806 C 124.151 262.796,122.314 261.627,121.300 261.613 C 120.805 261.606,120.400 261.420,120.400 261.200 C 120.400 260.980,120.158 260.800,119.861 260.800 C 119.565 260.800,118.890 260.424,118.361 259.965 C 117.833 259.506,117.201 259.011,116.958 258.865 C 116.715 258.719,116.040 257.839,115.458 256.908 L 114.400 255.216 114.400 241.408 L 114.400 227.600 119.600 227.600 L 124.800 227.600 124.800 241.000 C 124.800 248.370,124.937 254.400,125.105 254.400 C 125.273 254.400,125.588 254.793,125.805 255.274 C 126.022 255.755,126.447 256.227,126.749 256.324 C 127.070 256.426,126.904 255.967,126.349 255.217 C 125.406 253.943,125.399 253.852,125.200 240.667 L 125.000 227.400 119.500 227.289 L 114.000 227.177 114.000 241.163 M50.821 230.700 C 50.809 231.195,50.980 231.600,51.200 231.600 C 51.420 231.600,51.600 231.926,51.600 232.324 C 51.600 233.088,52.765 234.905,52.787 234.175 C 52.794 233.941,52.359 232.861,51.821 231.775 C 51.103 230.326,50.837 230.040,50.821 230.700 M84.119 234.101 C 83.890 234.595,83.211 236.080,82.609 237.400 C 82.007 238.720,81.323 240.205,81.090 240.699 C 80.856 241.194,80.781 241.715,80.923 241.857 C 81.065 241.998,81.298 241.774,81.440 241.357 C 81.678 240.661,83.476 236.635,84.502 234.501 C 84.740 234.006,84.845 233.511,84.735 233.401 C 84.625 233.291,84.348 233.606,84.119 234.101 M52.813 235.105 C 52.806 235.383,52.959 235.923,53.153 236.305 C 53.348 236.687,53.747 237.512,54.041 238.137 C 54.335 238.763,54.646 239.062,54.733 238.802 C 54.819 238.543,54.690 238.130,54.445 237.885 C 54.200 237.640,54.000 237.150,54.000 236.796 C 54.000 236.029,52.831 234.364,52.813 235.105 M54.800 240.176 C 54.800 240.493,54.980 240.864,55.200 241.000 C 55.420 241.136,55.600 241.575,55.600 241.975 C 55.600 242.375,55.870 242.926,56.200 243.200 C 57.020 243.880,56.953 243.267,55.991 241.275 C 55.145 239.524,54.800 239.206,54.800 240.176 M44.400 241.725 C 44.400 241.794,44.736 242.559,45.147 243.425 C 45.558 244.291,46.206 245.720,46.587 246.600 C 47.576 248.886,48.878 251.736,50.548 255.275 C 51.347 256.967,52.000 258.481,52.000 258.640 C 52.000 260.350,56.601 264.836,58.292 264.774 C 58.724 264.759,58.454 264.486,57.600 264.074 C 56.830 263.703,55.962 263.175,55.671 262.900 C 55.381 262.625,54.997 262.400,54.818 262.400 C 54.639 262.400,54.394 262.085,54.272 261.700 C 54.151 261.315,53.693 260.370,53.254 259.600 C 52.815 258.830,52.139 257.435,51.751 256.500 C 51.363 255.565,50.901 254.800,50.723 254.800 C 50.545 254.800,50.400 254.350,50.400 253.800 C 50.400 253.250,50.220 252.800,50.000 252.800 C 49.780 252.800,49.600 252.462,49.600 252.049 C 49.600 251.636,49.330 251.074,49.000 250.800 C 48.670 250.526,48.400 250.043,48.400 249.726 C 48.400 249.410,47.929 248.127,47.354 246.875 C 46.779 245.624,46.014 243.930,45.654 243.110 C 45.128 241.912,44.400 241.108,44.400 241.725 M80.073 242.887 C 79.813 243.147,79.600 243.684,79.600 244.080 C 79.600 244.476,79.420 244.800,79.200 244.800 C 78.980 244.800,78.800 245.126,78.800 245.524 C 78.800 245.921,78.536 246.596,78.213 247.024 C 77.890 247.451,77.620 248.190,77.613 248.667 C 77.606 249.143,77.393 249.602,77.140 249.687 C 76.887 249.771,76.759 250.076,76.855 250.364 C 76.951 250.652,77.400 250.103,77.853 249.144 C 80.861 242.780,81.236 241.724,80.073 242.887 M56.800 244.524 C 56.800 244.896,56.980 245.200,57.200 245.200 C 57.420 245.200,57.600 245.616,57.600 246.124 C 57.600 247.254,58.767 249.023,58.787 247.924 C 58.794 247.552,58.620 247.136,58.400 247.000 C 58.180 246.864,57.994 246.448,57.987 246.076 C 57.969 245.109,56.800 243.580,56.800 244.524 M58.800 249.376 C 58.800 249.693,58.980 250.064,59.200 250.200 C 59.420 250.336,59.600 250.775,59.600 251.175 C 59.600 251.575,59.870 252.126,60.200 252.400 C 60.980 253.048,60.958 252.835,60.014 250.633 C 59.215 248.768,58.800 248.339,58.800 249.376 M75.758 252.300 C 75.639 252.685,75.375 253.313,75.171 253.695 C 74.686 254.603,74.681 255.485,75.163 254.980 C 75.808 254.304,76.772 251.600,76.367 251.600 C 76.151 251.600,75.877 251.915,75.758 252.300 M73.963 256.648 C 72.454 260.367,70.526 262.864,68.301 263.982 C 66.709 264.782,67.311 265.028,68.953 264.249 C 71.089 263.235,75.544 256.610,74.674 255.740 C 74.540 255.606,74.220 256.015,73.963 256.648 M127.600 256.778 C 127.600 257.187,128.048 257.327,131.000 257.839 C 135.328 258.589,158.182 258.233,158.341 257.413 C 158.472 256.731,158.406 256.697,157.851 257.158 C 156.965 257.893,129.869 257.627,128.500 256.870 C 127.950 256.566,127.600 256.530,127.600 256.778 M125.400 263.414 C 126.348 263.848,129.769 263.968,141.667 263.982 C 159.483 264.003,158.004 263.699,157.987 267.343 C 157.958 273.421,158.210 273.355,134.000 273.600 L 114.200 273.800 114.200 277.400 L 114.200 281.000 132.800 281.006 L 151.400 281.012 132.900 280.902 L 114.400 280.792 114.400 277.596 L 114.400 274.400 133.176 274.400 C 145.263 274.400,152.041 274.257,152.200 274.000 C 152.336 273.780,152.904 273.600,153.462 273.600 C 154.646 273.600,156.675 272.543,157.684 271.400 C 158.261 270.747,158.373 269.974,158.295 267.200 L 158.200 263.800 142.300 263.695 C 132.160 263.629,126.400 263.448,126.400 263.195 C 126.400 262.978,125.905 262.815,125.300 262.832 L 124.200 262.865 125.400 263.414 M61.100 265.093 C 62.035 265.177,63.565 265.177,64.500 265.093 C 65.435 265.009,64.670 264.940,62.800 264.940 C 60.930 264.940,60.165 265.009,61.100 265.093 M168.100 273.423 C 167.825 273.722,167.600 274.078,167.600 274.214 C 167.600 274.647,164.256 277.600,163.767 277.600 C 163.509 277.600,163.074 277.870,162.800 278.200 C 162.193 278.931,162.520 278.968,163.675 278.300 C 165.289 277.366,166.796 276.041,168.329 274.205 C 168.992 273.411,168.780 272.683,168.100 273.423 M160.200 279.200 C 160.064 279.420,159.378 279.603,158.676 279.606 C 157.974 279.609,156.680 279.884,155.800 280.215 L 154.200 280.819 155.800 280.650 C 158.967 280.316,163.313 278.800,161.104 278.800 C 160.743 278.800,160.336 278.980,160.200 279.200 " stroke="none" fill="#16749b" fill-rule="evenodd"></path><path id="path4" d="M250.473 95.867 C 247.250 96.323,244.256 101.669,245.210 105.263 C 245.940 108.007,247.855 111.604,249.224 112.800 C 249.350 112.910,250.251 114.080,251.227 115.400 C 252.202 116.720,253.330 118.160,253.733 118.600 C 254.545 119.487,256.793 124.072,256.813 124.883 C 256.830 125.562,258.208 129.542,258.541 129.875 C 258.684 130.017,258.800 130.457,258.800 130.853 C 258.800 131.249,259.055 132.164,259.368 132.886 C 261.321 137.407,261.795 138.448,262.926 140.700 C 263.616 142.075,264.320 143.200,264.491 143.200 C 264.661 143.200,264.800 143.440,264.800 143.733 C 264.800 144.027,265.452 144.919,266.249 145.716 C 267.298 146.765,267.619 147.364,267.412 147.883 C 267.083 148.706,265.307 155.325,264.698 158.000 C 264.071 160.753,263.868 171.453,264.394 174.000 C 265.448 179.098,267.669 185.200,268.470 185.200 C 268.652 185.200,268.800 185.429,268.800 185.709 C 268.800 186.503,272.049 189.797,273.561 190.535 C 277.778 192.594,281.527 189.938,282.218 184.400 C 282.683 180.678,283.464 178.060,283.830 179.000 C 284.001 179.440,284.250 179.890,284.382 180.000 C 284.514 180.110,284.972 181.010,285.400 182.000 C 285.828 182.990,286.273 183.890,286.390 184.000 C 286.506 184.110,286.871 184.729,287.201 185.375 C 287.916 186.777,295.535 194.598,297.787 196.242 C 298.660 196.879,300.217 198.255,301.247 199.300 C 302.278 200.345,303.304 201.200,303.527 201.200 C 303.750 201.200,304.004 201.412,304.091 201.672 C 304.180 201.941,304.546 202.030,304.941 201.878 C 305.831 201.536,305.310 200.499,303.727 199.462 C 300.721 197.493,291.555 183.863,287.948 176.000 C 287.494 175.010,286.690 173.297,286.161 172.194 C 285.633 171.091,285.200 169.887,285.200 169.518 C 285.200 169.149,285.034 168.745,284.831 168.619 C 284.628 168.494,284.347 167.868,284.206 167.229 C 283.819 165.464,282.833 165.341,281.398 166.880 C 278.094 170.424,276.616 174.484,276.042 181.596 C 275.541 187.800,272.843 184.919,269.650 174.772 C 268.539 171.242,269.077 159.437,270.550 155.035 C 273.453 146.356,273.331 147.090,272.216 144.992 C 271.675 143.973,270.811 142.809,270.298 142.405 C 269.784 142.002,269.016 141.025,268.591 140.236 C 268.166 139.446,267.679 138.800,267.509 138.800 C 267.339 138.800,267.200 138.625,267.200 138.411 C 267.200 138.197,266.767 137.072,266.237 135.911 C 265.707 134.750,264.971 132.900,264.602 131.800 C 264.232 130.700,263.765 129.487,263.565 129.105 C 263.364 128.723,263.200 127.969,263.200 127.429 C 263.200 126.889,263.020 126.336,262.800 126.200 C 262.580 126.064,262.399 125.648,262.398 125.276 C 262.396 124.904,262.126 124.084,261.798 123.454 C 261.469 122.824,261.200 122.076,261.200 121.793 C 261.200 120.593,255.737 112.231,253.112 109.414 C 248.876 104.866,250.372 98.987,255.105 101.581 C 255.487 101.790,256.520 102.258,257.400 102.620 C 261.823 104.443,266.653 107.246,268.000 108.773 C 268.710 109.579,270.420 109.957,274.434 110.198 C 279.693 110.513,281.881 111.059,286.683 113.258 C 290.262 114.896,298.796 120.239,300.000 121.595 C 300.110 121.719,301.004 122.446,301.987 123.210 C 302.970 123.975,305.310 126.140,307.187 128.023 C 310.090 130.934,311.573 132.617,314.922 136.800 C 315.187 137.130,316.026 138.390,316.788 139.600 C 317.550 140.810,318.270 141.890,318.387 142.000 C 318.683 142.278,319.551 143.679,319.873 144.400 C 320.021 144.730,320.253 145.090,320.388 145.200 C 320.706 145.458,322.507 149.283,323.401 151.600 C 323.783 152.590,324.235 153.760,324.406 154.200 C 324.577 154.640,325.658 156.980,326.808 159.400 C 327.958 161.820,329.308 164.700,329.807 165.800 C 334.594 176.352,337.541 181.200,339.167 181.200 C 339.537 181.200,340.011 181.343,340.220 181.518 C 340.429 181.693,341.680 182.166,343.000 182.571 C 344.320 182.975,345.940 183.525,346.600 183.793 C 347.260 184.061,348.430 184.508,349.200 184.787 C 351.498 185.620,353.748 186.695,354.600 187.366 C 356.034 188.496,362.838 193.200,363.039 193.200 C 363.146 193.200,364.261 193.965,365.517 194.900 L 367.800 196.600 362.600 196.852 C 357.741 197.088,353.237 197.830,352.560 198.506 C 352.399 198.668,351.964 198.800,351.595 198.800 C 350.999 198.800,349.356 199.444,347.600 200.366 C 343.500 202.518,352.038 211.621,363.740 217.573 C 368.506 219.997,371.532 221.760,373.195 223.081 C 378.699 227.452,379.650 227.850,378.603 225.344 C 377.539 222.798,368.405 213.129,365.546 211.522 C 364.696 211.044,364.000 210.506,364.000 210.326 C 364.000 210.147,363.799 210.000,363.554 210.000 C 362.724 210.000,357.144 206.286,356.501 205.306 C 355.783 204.209,356.118 203.778,358.000 203.383 C 358.550 203.267,359.554 202.998,360.232 202.785 C 360.909 202.572,362.799 202.212,364.432 201.986 C 375.594 200.438,376.625 198.846,370.211 193.070 C 369.765 192.668,368.860 191.851,368.200 191.255 C 367.540 190.658,365.920 189.367,364.600 188.385 C 363.280 187.403,361.752 186.195,361.204 185.700 C 360.656 185.205,359.996 184.800,359.737 184.800 C 359.479 184.800,359.207 184.665,359.133 184.500 C 359.060 184.335,358.010 183.559,356.800 182.776 C 354.373 181.206,351.758 179.917,343.600 176.271 C 342.830 175.927,341.973 175.274,341.695 174.820 C 341.021 173.719,335.536 162.726,334.400 160.200 C 333.905 159.100,333.007 157.120,332.405 155.800 C 331.802 154.480,331.006 152.680,330.635 151.800 C 330.264 150.920,329.790 149.887,329.581 149.505 C 329.371 149.123,329.200 148.633,329.200 148.416 C 329.200 147.396,324.524 138.733,323.578 138.000 C 323.436 137.890,322.816 136.990,322.200 136.000 C 321.584 135.010,320.968 134.110,320.830 134.000 C 320.692 133.890,319.955 132.990,319.192 132.000 C 315.918 127.754,309.085 120.837,305.600 118.243 C 304.390 117.342,303.310 116.501,303.200 116.374 C 302.791 115.903,298.424 112.800,298.171 112.800 C 298.026 112.800,297.073 112.215,296.054 111.500 C 293.812 109.928,292.794 109.282,292.000 108.927 C 291.670 108.779,291.310 108.555,291.200 108.429 C 290.840 108.017,287.987 106.800,287.381 106.800 C 287.055 106.800,286.477 106.640,286.095 106.443 C 284.520 105.635,280.773 104.856,277.233 104.601 C 273.181 104.309,271.919 103.977,270.870 102.926 C 269.000 101.053,261.212 96.800,259.652 96.800 C 259.271 96.800,258.788 96.628,258.577 96.417 C 258.136 95.976,252.438 95.589,250.473 95.867 M257.174 96.649 C 258.618 97.006,259.980 97.429,260.200 97.590 C 260.420 97.750,261.545 98.214,262.700 98.620 C 263.855 99.026,264.800 99.502,264.800 99.679 C 264.800 99.856,265.028 100.000,265.307 100.000 C 265.830 100.000,268.374 101.691,271.025 103.800 C 272.405 104.898,272.876 105.021,276.566 105.253 C 280.772 105.516,283.164 105.950,286.325 107.020 C 288.994 107.924,292.000 109.342,292.000 109.698 C 292.000 109.864,292.189 110.000,292.420 110.000 C 292.651 110.000,294.586 111.174,296.720 112.609 C 298.854 114.044,301.050 115.520,301.600 115.890 C 306.054 118.885,313.579 126.012,317.800 131.232 C 319.120 132.864,320.335 134.260,320.500 134.333 C 320.665 134.407,320.800 134.634,320.800 134.839 C 320.800 135.044,321.655 136.424,322.700 137.906 C 325.214 141.471,328.800 147.914,328.800 148.867 C 328.800 149.052,329.250 150.137,329.800 151.277 C 330.350 152.417,330.800 153.527,330.800 153.743 C 330.800 154.488,339.673 172.680,341.101 174.863 C 341.627 175.668,342.630 176.555,343.329 176.834 C 349.879 179.447,354.708 182.000,359.400 185.329 C 366.661 190.481,370.030 193.392,372.324 196.497 C 374.413 199.325,373.930 199.928,369.000 200.639 C 364.183 201.334,359.739 202.180,359.420 202.463 C 359.211 202.648,358.548 202.800,357.946 202.800 C 353.186 202.800,354.562 205.785,360.975 209.371 C 364.584 211.390,368.289 214.208,370.800 216.845 C 374.955 221.208,378.000 224.727,378.000 225.163 C 378.000 225.804,377.456 225.697,376.575 224.882 C 375.178 223.590,371.244 220.800,370.817 220.800 C 370.588 220.800,370.400 220.653,370.400 220.474 C 370.400 220.199,365.997 217.881,362.400 216.262 C 361.100 215.677,356.259 212.776,356.000 212.427 C 355.890 212.279,355.080 211.632,354.200 210.989 C 351.428 208.964,349.281 206.387,347.606 203.074 C 346.905 201.688,347.361 200.797,349.029 200.295 C 349.673 200.100,350.560 199.800,351.000 199.626 C 354.485 198.253,360.435 197.217,364.900 197.207 C 367.215 197.202,368.000 197.065,368.000 196.666 C 368.000 195.886,365.087 193.475,363.500 192.942 C 363.115 192.812,362.800 192.560,362.800 192.380 C 362.800 192.201,362.472 191.950,362.071 191.822 C 361.669 191.695,360.994 191.278,360.569 190.895 C 359.035 189.512,351.700 184.800,351.081 184.800 C 350.732 184.800,350.336 184.620,350.200 184.400 C 350.064 184.180,349.548 184.000,349.053 184.000 C 348.558 184.000,347.804 183.736,347.376 183.413 C 346.949 183.090,346.283 182.820,345.895 182.813 C 345.507 182.806,344.877 182.644,344.495 182.454 C 343.549 181.982,341.209 181.166,340.044 180.902 C 337.986 180.435,334.610 175.374,331.574 168.200 C 331.387 167.760,330.176 165.150,328.882 162.400 C 326.788 157.949,325.992 156.207,324.770 153.400 C 324.579 152.960,324.042 151.610,323.578 150.400 C 322.583 147.809,320.040 143.058,319.545 142.867 C 319.355 142.793,319.200 142.589,319.200 142.412 C 319.200 142.107,316.080 137.222,315.615 136.800 C 315.494 136.690,314.654 135.610,313.748 134.400 C 309.523 128.756,297.195 117.846,292.800 115.861 C 292.470 115.711,291.300 115.046,290.200 114.382 C 289.100 113.718,287.930 113.071,287.600 112.945 C 287.270 112.819,286.050 112.285,284.889 111.758 C 283.728 111.231,282.434 110.800,282.013 110.800 C 281.592 110.800,281.136 110.620,281.000 110.400 C 280.864 110.180,279.548 109.997,278.076 109.993 C 274.764 109.984,268.933 108.984,268.229 108.305 C 266.731 106.858,262.740 104.000,262.220 104.000 C 261.981 104.000,257.848 102.177,256.268 101.375 C 251.882 99.148,248.295 102.134,250.403 106.256 C 250.970 107.365,253.901 111.596,254.382 112.000 C 256.183 113.512,260.110 120.329,261.412 124.200 C 261.782 125.300,262.220 126.560,262.386 127.000 C 262.552 127.440,263.004 128.880,263.390 130.200 C 264.221 133.038,264.367 133.410,265.984 136.800 C 267.192 139.333,267.994 140.794,268.400 141.200 C 271.344 144.144,272.000 145.234,272.000 147.183 C 272.000 148.942,271.743 149.952,270.418 153.400 C 267.414 161.218,267.396 171.794,270.374 179.000 C 272.231 183.496,272.627 184.102,274.486 185.300 C 275.735 186.105,276.400 185.457,276.400 183.434 C 276.400 177.983,278.590 171.080,281.356 167.810 C 282.781 166.127,284.000 166.240,284.000 168.054 C 284.000 168.470,284.171 169.123,284.381 169.505 C 284.590 169.887,285.054 170.920,285.411 171.800 C 286.477 174.423,290.176 181.790,290.500 181.933 C 290.665 182.007,290.800 182.241,290.800 182.455 C 290.800 182.972,295.791 190.974,297.377 193.000 C 299.229 195.367,300.071 196.800,299.609 196.800 C 299.384 196.800,299.200 196.632,299.200 196.427 C 299.200 196.222,298.841 195.940,298.403 195.801 C 295.675 194.935,288.084 186.129,285.574 180.918 C 284.598 178.892,283.620 177.286,283.400 177.348 C 282.800 177.516,282.048 179.979,282.023 181.858 C 281.949 187.255,279.875 190.200,276.148 190.200 L 273.579 190.200 271.405 188.000 C 270.210 186.790,269.224 185.575,269.216 185.300 C 269.207 185.025,269.055 184.800,268.877 184.800 C 268.699 184.800,268.239 184.035,267.853 183.100 C 267.468 182.165,266.986 181.091,266.781 180.714 C 264.243 176.021,263.943 162.605,266.197 154.600 C 266.568 153.280,266.965 151.524,267.078 150.697 C 267.192 149.871,267.445 149.095,267.642 148.974 C 268.438 148.482,267.954 146.558,266.694 145.200 C 265.980 144.430,265.040 143.125,264.607 142.300 C 264.173 141.475,263.679 140.800,263.509 140.800 C 263.339 140.800,263.200 140.578,263.200 140.306 C 263.200 140.034,262.768 138.909,262.240 137.806 C 260.588 134.356,260.000 132.900,260.000 132.263 C 260.000 131.924,259.841 131.549,259.646 131.429 C 259.451 131.308,259.202 130.713,259.091 130.105 C 258.981 129.497,258.510 128.013,258.045 126.806 C 257.580 125.599,257.200 124.321,257.200 123.965 C 257.200 122.791,253.068 116.068,251.568 114.800 C 251.028 114.344,247.254 108.900,246.633 107.683 C 245.626 105.707,245.705 101.172,246.777 99.437 C 248.775 96.204,251.940 95.355,257.174 96.649 M272.267 118.267 C 271.698 118.835,272.056 119.858,273.302 121.222 C 274.633 122.679,275.280 123.761,275.986 125.710 C 276.813 127.994,278.629 127.343,279.594 124.417 C 280.596 121.382,277.821 118.000,274.329 118.000 C 273.341 118.000,272.413 118.120,272.267 118.267 M276.381 118.990 C 278.915 120.301,279.803 123.606,278.276 126.049 C 277.586 127.154,277.407 127.024,276.149 124.500 C 275.518 123.235,274.798 122.020,274.548 121.800 C 271.944 119.503,273.314 117.404,276.381 118.990 M27.362 209.782 C 21.232 212.013,21.573 210.189,21.697 240.110 L 21.800 265.000 27.900 265.110 L 34.000 265.221 34.006 243.710 C 34.010 230.514,34.162 221.968,34.400 221.600 C 34.740 221.073,34.788 221.072,34.794 221.594 C 34.797 221.921,35.231 223.091,35.758 224.194 C 36.800 226.375,38.401 229.848,39.818 233.000 C 41.979 237.809,42.930 239.869,43.447 240.862 C 43.751 241.446,44.000 242.211,44.000 242.562 C 44.000 242.913,44.180 243.200,44.400 243.200 C 44.620 243.200,44.799 243.425,44.797 243.700 C 44.794 244.370,48.119 251.764,48.500 251.933 C 48.665 252.007,48.800 252.324,48.800 252.639 C 48.800 252.953,48.966 253.523,49.168 253.905 C 49.370 254.287,50.294 256.220,51.220 258.200 C 53.977 264.092,56.830 266.000,62.881 266.000 C 69.059 266.000,72.169 263.804,74.779 257.600 C 75.674 255.472,76.760 253.051,79.262 247.600 C 79.919 246.170,80.604 244.640,80.785 244.200 C 80.966 243.760,81.568 242.410,82.122 241.200 C 82.676 239.990,83.489 238.190,83.929 237.200 C 84.368 236.210,85.177 234.410,85.726 233.200 C 86.275 231.990,87.167 230.010,87.709 228.800 C 90.165 223.311,90.529 222.583,90.951 222.314 C 91.280 222.105,91.453 227.773,91.600 243.514 L 91.800 265.000 98.000 265.000 L 104.200 265.000 104.200 240.400 C 104.200 226.870,104.062 215.308,103.894 214.707 C 103.520 213.371,101.325 210.800,100.559 210.800 C 100.251 210.800,100.000 210.650,100.000 210.467 C 100.000 209.830,96.172 209.082,92.058 208.915 C 86.385 208.685,82.541 210.671,80.512 214.881 C 79.758 216.447,77.547 221.358,77.217 222.200 C 77.044 222.640,76.444 223.990,75.883 225.200 C 75.322 226.410,74.384 228.480,73.800 229.800 C 73.215 231.120,72.323 233.100,71.817 234.200 C 71.311 235.300,70.583 236.920,70.199 237.800 C 69.815 238.680,68.919 240.660,68.207 242.200 C 66.992 244.830,65.971 247.154,65.221 249.000 C 65.042 249.440,64.349 250.956,63.682 252.369 L 62.468 254.938 61.834 253.420 C 61.485 252.585,61.200 251.839,61.200 251.762 C 61.200 251.685,60.728 250.582,60.152 249.311 C 59.013 246.799,58.509 245.653,57.200 242.600 C 56.729 241.501,56.068 239.971,55.731 239.201 C 55.394 238.430,54.967 237.440,54.782 237.000 C 54.597 236.560,53.970 235.120,53.388 233.800 C 52.807 232.480,52.097 230.860,51.812 230.200 C 51.527 229.540,50.933 228.190,50.493 227.200 C 50.052 226.210,49.203 224.230,48.605 222.800 C 44.494 212.972,43.504 211.532,39.545 209.619 C 37.110 208.443,30.808 208.527,27.362 209.782 M38.315 209.851 C 40.626 210.522,44.800 214.039,44.800 215.314 C 44.800 215.626,45.250 216.727,45.800 217.762 C 46.350 218.796,46.800 219.808,46.800 220.010 C 46.800 220.213,47.270 221.418,47.844 222.689 C 49.101 225.472,49.747 226.942,50.531 228.800 C 50.856 229.570,51.519 231.100,52.003 232.200 C 53.203 234.922,53.842 236.414,54.315 237.600 C 54.535 238.150,55.202 239.680,55.798 241.000 C 56.393 242.320,57.107 243.940,57.384 244.600 C 57.661 245.260,58.077 246.250,58.308 246.800 C 58.539 247.350,59.090 248.610,59.534 249.600 C 59.977 250.590,60.604 252.030,60.927 252.800 C 62.294 256.056,62.582 256.074,63.990 252.988 C 64.690 251.455,65.677 249.300,66.183 248.200 C 66.689 247.100,67.379 245.570,67.717 244.800 C 68.301 243.467,69.010 241.898,71.689 236.000 C 72.339 234.570,73.111 232.860,73.405 232.200 C 74.708 229.279,76.116 226.090,76.674 224.800 C 77.007 224.030,77.694 222.500,78.200 221.400 C 78.706 220.300,79.696 218.147,80.400 216.614 C 83.281 210.344,88.690 208.000,96.068 209.827 C 104.235 211.849,104.000 210.917,104.000 241.273 L 104.000 264.800 98.000 264.800 L 92.000 264.800 92.000 242.424 C 92.000 230.117,91.852 219.956,91.671 219.844 C 91.371 219.658,89.800 222.515,88.286 226.000 C 87.951 226.770,87.320 228.210,86.882 229.200 C 86.445 230.190,85.978 231.270,85.846 231.600 C 85.713 231.930,85.445 232.470,85.249 232.800 C 85.053 233.130,84.711 233.850,84.489 234.400 C 84.267 234.950,83.630 236.390,83.073 237.600 C 82.516 238.810,81.327 241.393,80.430 243.339 C 79.534 245.286,78.800 246.993,78.800 247.133 C 78.800 247.272,78.280 248.470,77.644 249.793 C 77.008 251.117,76.090 253.100,75.605 254.200 C 71.114 264.369,70.347 265.005,62.600 264.992 C 58.098 264.985,57.699 264.919,56.165 263.928 C 54.760 263.020,52.000 259.517,52.000 258.640 C 52.000 258.481,51.347 256.967,50.548 255.275 C 48.913 251.811,47.569 248.870,46.675 246.800 C 46.342 246.030,45.538 244.230,44.888 242.800 C 44.238 241.370,43.301 239.300,42.806 238.200 C 42.311 237.100,41.297 234.891,40.553 233.291 C 39.809 231.691,39.200 230.300,39.200 230.199 C 39.200 230.098,38.503 228.527,37.651 226.708 C 36.799 224.888,35.773 222.632,35.371 221.693 C 33.900 218.259,33.804 219.460,33.697 242.533 L 33.593 264.800 27.788 264.800 L 21.983 264.800 22.091 239.637 L 22.200 214.474 23.400 213.003 C 25.951 209.876,33.162 208.352,38.315 209.851 M158.188 226.500 C 158.085 226.775,157.956 233.660,157.901 241.800 L 157.800 256.600 143.825 256.705 C 134.780 256.773,129.708 256.668,129.445 256.405 C 129.222 256.182,128.729 256.000,128.349 256.000 C 126.158 256.000,126.000 254.960,126.000 240.560 C 126.000 227.789,125.967 227.211,125.226 226.814 C 124.404 226.374,115.616 226.246,114.100 226.652 L 113.200 226.893 113.200 240.851 C 113.200 256.491,113.279 256.982,116.226 259.569 C 121.363 264.080,125.005 264.793,142.926 264.797 C 157.775 264.800,157.600 264.769,157.600 267.452 C 157.600 272.681,157.189 272.774,133.600 272.897 L 113.800 273.000 113.682 276.600 C 113.618 278.580,113.666 280.605,113.790 281.100 L 114.015 282.000 132.508 281.981 C 157.706 281.954,162.406 281.194,167.238 276.362 C 170.370 273.230,170.186 274.781,170.319 250.400 C 170.385 238.410,170.332 228.015,170.201 227.300 L 169.964 226.000 164.169 226.000 C 159.900 226.000,158.326 226.132,158.188 226.500 M169.904 248.400 C 170.022 272.812,170.056 272.500,166.950 275.719 C 165.690 277.025,164.728 277.736,163.394 278.347 C 162.737 278.647,161.891 279.050,161.514 279.242 C 158.404 280.819,151.895 281.225,131.649 281.104 L 114.200 281.000 114.200 277.400 L 114.200 273.800 134.000 273.600 C 158.210 273.355,157.958 273.421,157.987 267.343 C 158.004 263.698,159.470 264.000,141.754 264.000 C 129.344 264.000,126.528 263.897,125.338 263.400 C 124.549 263.070,123.609 262.803,123.251 262.806 C 121.109 262.827,115.259 258.458,114.398 256.195 C 114.161 255.573,114.000 249.478,114.000 241.163 L 114.000 227.177 119.500 227.289 L 125.000 227.400 125.200 240.619 C 125.421 255.251,125.420 255.246,128.104 256.673 C 129.794 257.572,156.779 258.048,157.804 257.196 C 158.312 256.775,158.400 254.502,158.400 241.740 L 158.400 226.778 164.100 226.889 L 169.800 227.000 169.904 248.400 " stroke="none" fill="#81b4c6" fill-rule="evenodd"></path></g></svg>