<svg id="svg" version="1.1" xmlns="http://www.w3.org/2000/svg" xmlns:xlink="http://www.w3.org/1999/xlink" width="400" height="400" viewBox="0, 0, 400,400"><g id="svgg"><path id="path0" d="M198.819 87.928 C 198.586 88.797,198.126 89.730,197.797 90.002 C 197.469 90.275,197.200 90.845,197.200 91.270 C 197.200 91.694,196.862 92.707,196.449 93.521 C 196.035 94.334,195.294 95.900,194.800 97.000 C 194.306 98.100,193.565 99.666,193.151 100.479 C 192.738 101.293,192.400 102.214,192.400 102.525 C 192.400 102.837,192.040 103.550,191.600 104.109 C 191.160 104.669,190.800 105.422,190.800 105.784 C 190.800 106.146,190.462 107.107,190.049 107.921 C 189.635 108.734,188.894 110.300,188.400 111.400 C 187.906 112.500,187.165 114.066,186.751 114.879 C 186.338 115.693,186.000 116.614,186.000 116.925 C 186.000 117.237,185.640 117.950,185.200 118.509 C 184.760 119.069,184.400 119.822,184.400 120.184 C 184.400 120.546,184.040 121.552,183.600 122.421 C 183.160 123.289,182.440 124.711,182.000 125.579 C 181.560 126.448,181.200 127.414,181.200 127.725 C 181.200 128.037,180.840 128.750,180.400 129.309 C 179.960 129.869,179.600 130.679,179.600 131.109 C 179.600 131.540,179.240 132.350,178.800 132.909 C 178.360 133.469,178.000 134.222,178.000 134.584 C 178.000 134.946,177.640 135.952,177.200 136.821 C 176.760 137.689,176.040 139.111,175.600 139.979 C 175.160 140.848,174.800 141.814,174.800 142.125 C 174.800 142.437,174.440 143.150,174.000 143.709 C 173.560 144.269,173.200 145.079,173.200 145.509 C 173.200 145.940,172.840 146.750,172.400 147.309 C 171.960 147.869,171.600 148.622,171.600 148.984 C 171.600 149.346,171.240 150.352,170.800 151.221 C 170.360 152.089,169.640 153.511,169.200 154.379 C 168.760 155.248,168.400 156.214,168.400 156.525 C 168.400 156.837,168.040 157.550,167.600 158.109 C 167.160 158.669,166.800 159.479,166.800 159.909 C 166.800 160.340,166.440 161.150,166.000 161.709 C 165.560 162.269,165.200 162.948,165.200 163.219 C 165.200 163.687,164.739 164.762,162.547 169.406 C 162.026 170.509,161.600 171.612,161.600 171.857 C 161.600 172.102,161.330 172.526,161.000 172.800 C 160.670 173.074,160.400 173.702,160.400 174.195 C 160.400 174.688,160.040 175.550,159.600 176.109 C 159.160 176.669,158.800 177.348,158.800 177.619 C 158.800 178.087,158.339 179.162,156.147 183.806 C 155.626 184.909,155.200 186.012,155.200 186.257 C 155.200 186.502,154.930 186.926,154.600 187.200 C 154.270 187.474,154.000 188.102,154.000 188.595 C 154.000 189.088,153.640 189.950,153.200 190.509 C 152.760 191.069,152.400 191.734,152.400 191.988 C 152.400 192.468,150.634 196.551,149.973 197.600 C 149.765 197.930,149.494 198.470,149.372 198.800 C 149.249 199.130,148.826 200.120,148.433 201.000 C 148.039 201.880,147.317 203.500,146.828 204.600 C 146.339 205.700,145.616 207.230,145.220 208.000 C 144.824 208.770,144.376 209.973,144.224 210.672 C 144.073 211.372,143.690 212.159,143.374 212.421 C 143.058 212.683,142.800 213.155,142.800 213.470 C 142.800 213.784,142.464 214.707,142.052 215.521 C 141.641 216.334,140.908 217.900,140.422 219.000 C 139.937 220.100,139.216 221.630,138.820 222.400 C 138.424 223.170,137.976 224.373,137.824 225.072 C 137.673 225.772,137.290 226.559,136.974 226.821 C 136.658 227.083,136.400 227.555,136.400 227.870 C 136.400 228.184,136.040 229.152,135.600 230.021 C 135.160 230.889,134.440 232.311,134.000 233.179 C 133.560 234.048,133.200 235.014,133.200 235.325 C 133.200 235.637,132.840 236.350,132.400 236.909 C 131.960 237.469,131.600 238.222,131.600 238.584 C 131.600 238.946,131.262 239.907,130.849 240.721 C 130.435 241.534,129.694 243.100,129.200 244.200 C 128.706 245.300,127.965 246.866,127.551 247.679 C 127.138 248.493,126.800 249.414,126.800 249.725 C 126.800 250.037,126.440 250.750,126.000 251.309 C 125.560 251.869,125.200 252.622,125.200 252.984 C 125.200 253.346,124.862 254.307,124.449 255.121 C 124.035 255.934,123.294 257.500,122.800 258.600 C 122.306 259.700,121.565 261.266,121.151 262.079 C 120.738 262.893,120.400 263.814,120.400 264.125 C 120.400 264.437,120.040 265.150,119.600 265.709 C 119.160 266.269,118.800 267.022,118.800 267.384 C 118.800 267.746,118.440 268.752,118.000 269.621 C 117.560 270.489,116.840 271.911,116.400 272.779 C 115.960 273.648,115.600 274.614,115.600 274.925 C 115.600 275.237,115.240 275.950,114.800 276.509 C 114.360 277.069,114.000 277.879,114.000 278.309 C 114.000 278.740,113.640 279.550,113.200 280.109 C 112.760 280.669,112.400 281.422,112.400 281.784 C 112.400 282.146,112.040 283.152,111.600 284.021 C 111.160 284.889,110.440 286.311,110.000 287.179 C 109.560 288.048,109.200 289.014,109.200 289.325 C 109.200 289.637,108.828 290.365,108.374 290.942 C 106.929 292.779,107.113 292.800,124.524 292.794 C 141.914 292.787,141.784 292.800,142.208 291.112 C 142.357 290.519,142.731 289.823,143.039 289.567 C 143.348 289.311,143.600 288.716,143.600 288.245 C 143.600 287.774,143.936 286.761,144.347 285.994 C 144.757 285.227,145.219 284.027,145.372 283.328 C 145.526 282.628,145.910 281.841,146.226 281.579 C 146.542 281.317,146.800 280.716,146.800 280.245 C 146.800 279.774,147.136 278.761,147.547 277.994 C 147.957 277.227,148.419 276.027,148.572 275.328 C 148.726 274.628,149.110 273.841,149.426 273.579 C 149.742 273.317,150.000 272.716,150.000 272.245 C 150.000 271.774,150.336 270.761,150.747 269.994 C 151.157 269.227,151.619 268.027,151.772 267.328 C 151.926 266.628,152.310 265.841,152.626 265.579 C 152.942 265.317,153.200 264.716,153.200 264.245 C 153.200 263.774,153.536 262.761,153.947 261.994 C 154.357 261.227,154.819 260.027,154.972 259.328 C 155.126 258.628,155.510 257.841,155.826 257.579 C 156.142 257.317,156.400 256.716,156.400 256.245 C 156.400 255.774,156.732 254.761,157.139 253.994 C 157.545 253.227,158.009 252.060,158.170 251.400 C 158.331 250.740,158.694 249.930,158.977 249.600 C 159.261 249.270,159.612 248.499,159.757 247.886 C 160.208 245.991,160.016 246.000,200.000 246.000 C 239.984 246.000,239.792 245.991,240.243 247.886 C 240.388 248.499,240.739 249.270,241.023 249.600 C 241.306 249.930,241.669 250.740,241.830 251.400 C 241.991 252.060,242.455 253.227,242.861 253.994 C 243.268 254.761,243.600 255.774,243.600 256.245 C 243.600 256.716,243.858 257.317,244.174 257.579 C 244.490 257.841,244.874 258.628,245.028 259.328 C 245.181 260.027,245.643 261.227,246.053 261.994 C 246.464 262.761,246.800 263.774,246.800 264.245 C 246.800 264.716,247.058 265.317,247.374 265.579 C 247.690 265.841,248.074 266.628,248.228 267.328 C 248.381 268.027,248.843 269.227,249.253 269.994 C 249.664 270.761,250.000 271.774,250.000 272.245 C 250.000 272.716,250.258 273.317,250.574 273.579 C 250.890 273.841,251.274 274.628,251.428 275.328 C 251.581 276.027,252.043 277.227,252.453 277.994 C 252.864 278.761,253.200 279.774,253.200 280.245 C 253.200 280.716,253.458 281.317,253.774 281.579 C 254.090 281.841,254.474 282.628,254.628 283.328 C 254.781 284.027,255.243 285.227,255.653 285.994 C 256.064 286.761,256.400 287.774,256.400 288.245 C 256.400 288.716,256.652 289.311,256.961 289.567 C 257.269 289.823,257.643 290.519,257.792 291.112 C 258.216 292.800,258.086 292.787,275.476 292.794 C 292.887 292.800,293.071 292.779,291.626 290.942 C 291.172 290.365,290.800 289.637,290.800 289.325 C 290.800 289.014,290.440 288.048,290.000 287.179 C 289.560 286.311,288.840 284.889,288.400 284.021 C 287.960 283.152,287.600 282.146,287.600 281.784 C 287.600 281.422,287.240 280.669,286.800 280.109 C 286.360 279.550,286.000 278.740,286.000 278.309 C 286.000 277.879,285.640 277.069,285.200 276.509 C 284.760 275.950,284.400 275.237,284.400 274.925 C 284.400 274.614,284.040 273.648,283.600 272.779 C 283.160 271.911,282.440 270.489,282.000 269.621 C 281.560 268.752,281.200 267.746,281.200 267.384 C 281.200 267.022,280.840 266.269,280.400 265.709 C 279.960 265.150,279.600 264.340,279.600 263.909 C 279.600 263.479,279.240 262.669,278.800 262.109 C 278.360 261.550,278.000 260.837,278.000 260.525 C 278.000 260.214,277.640 259.248,277.200 258.379 C 276.760 257.511,276.040 256.089,275.600 255.221 C 275.160 254.352,274.800 253.346,274.800 252.984 C 274.800 252.622,274.440 251.869,274.000 251.309 C 273.560 250.750,273.200 249.940,273.200 249.509 C 273.200 249.079,272.840 248.269,272.400 247.709 C 271.960 247.150,271.600 246.437,271.600 246.125 C 271.600 245.814,271.240 244.848,270.800 243.979 C 270.360 243.111,269.640 241.689,269.200 240.821 C 268.760 239.952,268.400 238.946,268.400 238.584 C 268.400 238.222,268.040 237.469,267.600 236.909 C 267.160 236.350,266.800 235.540,266.800 235.109 C 266.800 234.679,266.440 233.869,266.000 233.309 C 265.560 232.750,265.199 232.001,265.197 231.646 C 265.196 231.291,264.837 230.460,264.400 229.800 C 263.963 229.140,263.604 228.307,263.603 227.949 C 263.601 227.591,263.342 227.083,263.026 226.821 C 262.710 226.559,262.327 225.772,262.176 225.072 C 262.024 224.373,261.576 223.170,261.180 222.400 C 260.784 221.630,260.063 220.100,259.578 219.000 C 259.092 217.900,258.359 216.334,257.948 215.521 C 257.536 214.707,257.200 213.784,257.200 213.470 C 257.200 213.155,256.942 212.683,256.626 212.421 C 256.310 212.159,255.927 211.372,255.776 210.672 C 255.624 209.973,255.176 208.770,254.780 208.000 C 254.384 207.230,253.661 205.700,253.172 204.600 C 252.683 203.500,251.923 201.790,251.483 200.800 C 251.042 199.810,250.527 198.730,250.338 198.400 C 250.149 198.070,249.883 197.530,249.747 197.200 C 249.610 196.870,249.071 195.666,248.549 194.525 C 248.027 193.383,247.600 192.242,247.600 191.988 C 247.600 191.734,247.240 191.069,246.800 190.509 C 246.360 189.950,246.000 189.088,246.000 188.595 C 246.000 188.102,245.730 187.474,245.400 187.200 C 245.070 186.926,244.800 186.502,244.800 186.257 C 244.800 186.012,244.374 184.909,243.853 183.806 C 241.661 179.162,241.200 178.087,241.200 177.619 C 241.200 177.348,240.840 176.669,240.400 176.109 C 239.960 175.550,239.600 174.688,239.600 174.195 C 239.600 173.702,239.330 173.074,239.000 172.800 C 238.670 172.526,238.400 172.102,238.400 171.857 C 238.400 171.612,237.974 170.509,237.453 169.406 C 235.261 164.762,234.800 163.687,234.800 163.219 C 234.800 162.948,234.440 162.269,234.000 161.709 C 233.560 161.150,233.200 160.340,233.200 159.909 C 233.200 159.479,232.840 158.669,232.400 158.109 C 231.960 157.550,231.600 156.837,231.600 156.525 C 231.600 156.214,231.240 155.248,230.800 154.379 C 230.360 153.511,229.640 152.089,229.200 151.221 C 228.760 150.352,228.400 149.346,228.400 148.984 C 228.400 148.622,228.040 147.869,227.600 147.309 C 227.160 146.750,226.800 145.940,226.800 145.509 C 226.800 145.079,226.440 144.269,226.000 143.709 C 225.560 143.150,225.200 142.437,225.200 142.125 C 225.200 141.814,224.840 140.848,224.400 139.979 C 223.960 139.111,223.240 137.689,222.800 136.821 C 222.360 135.952,222.000 134.946,222.000 134.584 C 222.000 134.222,221.640 133.469,221.200 132.909 C 220.760 132.350,220.400 131.540,220.400 131.109 C 220.400 130.679,220.040 129.869,219.600 129.309 C 219.160 128.750,218.800 128.037,218.800 127.725 C 218.800 127.414,218.440 126.448,218.000 125.579 C 217.560 124.711,216.840 123.289,216.400 122.421 C 215.960 121.552,215.600 120.546,215.600 120.184 C 215.600 119.822,215.240 119.069,214.800 118.509 C 214.360 117.950,214.000 117.140,214.000 116.709 C 214.000 116.279,213.640 115.469,213.200 114.909 C 212.760 114.350,212.400 113.637,212.400 113.325 C 212.400 113.014,212.040 112.048,211.600 111.179 C 211.160 110.311,210.440 108.889,210.000 108.021 C 209.560 107.152,209.200 106.146,209.200 105.784 C 209.200 105.422,208.840 104.669,208.400 104.109 C 207.960 103.550,207.600 102.740,207.600 102.309 C 207.600 101.879,207.240 101.069,206.800 100.509 C 206.360 99.950,206.000 99.237,206.000 98.925 C 206.000 98.389,205.693 97.706,203.658 93.721 C 203.186 92.797,202.800 91.731,202.800 91.352 C 202.800 90.973,202.509 90.341,202.153 89.948 C 201.797 89.555,201.385 88.640,201.238 87.916 C 200.820 85.858,199.375 85.866,198.819 87.928 M201.377 154.489 C 201.720 154.978,202.001 155.743,202.003 156.189 C 202.004 156.635,202.363 157.540,202.800 158.200 C 203.237 158.860,203.596 159.783,203.597 160.251 C 203.599 160.719,203.858 161.317,204.174 161.579 C 204.490 161.841,204.870 162.628,205.017 163.328 C 205.165 164.027,205.627 165.161,206.043 165.847 C 206.459 166.533,206.800 167.343,206.799 167.647 C 206.798 168.172,207.588 169.986,209.252 173.279 C 209.664 174.093,210.001 175.083,210.003 175.479 C 210.004 175.876,210.363 176.740,210.800 177.400 C 211.237 178.060,211.596 178.924,211.597 179.321 C 211.599 179.717,211.943 180.707,212.363 181.521 C 213.564 183.851,214.800 186.654,214.799 187.044 C 214.798 187.393,215.766 189.539,217.252 192.479 C 217.664 193.293,218.000 194.344,218.000 194.816 C 218.000 195.288,218.360 196.131,218.800 196.691 C 219.240 197.250,219.600 198.053,219.600 198.475 C 219.600 198.896,219.943 199.907,220.363 200.721 C 221.564 203.051,222.800 205.854,222.799 206.244 C 222.798 206.593,223.766 208.739,225.252 211.679 C 225.664 212.493,226.000 213.596,226.000 214.130 C 226.000 214.665,226.270 215.326,226.600 215.600 C 227.386 216.252,227.368 217.450,226.567 217.757 C 226.219 217.891,214.264 218.000,200.000 218.000 C 185.736 218.000,173.781 217.891,173.433 217.757 C 172.632 217.450,172.614 216.252,173.400 215.600 C 173.730 215.326,174.000 214.665,174.000 214.130 C 174.000 213.596,174.336 212.493,174.748 211.679 C 176.234 208.739,177.202 206.593,177.201 206.244 C 177.200 205.854,178.436 203.051,179.637 200.721 C 180.057 199.907,180.400 198.896,180.400 198.475 C 180.400 198.053,180.760 197.250,181.200 196.691 C 181.640 196.131,182.000 195.288,182.000 194.816 C 182.000 194.344,182.336 193.293,182.748 192.479 C 184.234 189.539,185.202 187.393,185.201 187.044 C 185.200 186.654,186.436 183.851,187.637 181.521 C 188.057 180.707,188.401 179.717,188.403 179.321 C 188.404 178.924,188.763 178.060,189.200 177.400 C 189.637 176.740,189.996 175.876,189.997 175.479 C 189.999 175.083,190.336 174.093,190.748 173.279 C 192.412 169.986,193.202 168.172,193.201 167.647 C 193.200 167.343,193.541 166.533,193.957 165.847 C 194.373 165.161,194.835 164.027,194.983 163.328 C 195.130 162.628,195.510 161.841,195.826 161.579 C 196.142 161.317,196.401 160.719,196.403 160.251 C 196.404 159.783,196.763 158.860,197.200 158.200 C 197.637 157.540,197.996 156.635,197.997 156.189 C 198.001 155.035,199.111 153.600,200.000 153.600 C 200.415 153.600,201.035 154.000,201.377 154.489 " stroke="none" fill="#fbfafa" fill-rule="evenodd"></path><path id="path1" d="M197.600 48.000 C 197.600 48.711,197.333 48.800,195.200 48.800 C 193.067 48.800,192.800 48.889,192.800 49.600 C 192.800 50.305,192.533 50.400,190.563 50.400 C 188.662 50.400,188.294 50.520,188.116 51.200 C 187.939 51.877,187.570 52.000,185.716 52.000 C 183.862 52.000,183.493 52.123,183.316 52.800 C 183.152 53.427,182.770 53.600,181.553 53.600 C 180.267 53.600,180.000 53.737,180.000 54.400 C 180.000 55.111,179.733 55.200,177.600 55.200 C 175.467 55.200,175.200 55.289,175.200 56.000 C 175.200 56.711,174.933 56.800,172.800 56.800 C 170.667 56.800,170.400 56.889,170.400 57.600 C 170.400 58.305,170.133 58.400,168.163 58.400 C 166.262 58.400,165.894 58.520,165.716 59.200 C 165.539 59.877,165.170 60.000,163.316 60.000 C 161.462 60.000,161.093 60.123,160.916 60.800 C 160.752 61.427,160.370 61.600,159.153 61.600 C 157.867 61.600,157.600 61.737,157.600 62.400 C 157.600 63.111,157.333 63.200,155.200 63.200 C 153.067 63.200,152.800 63.289,152.800 64.000 C 152.800 64.711,152.533 64.800,150.400 64.800 C 148.267 64.800,148.000 64.889,148.000 65.600 C 148.000 66.305,147.733 66.400,145.763 66.400 C 143.862 66.400,143.494 66.520,143.316 67.200 C 143.139 67.877,142.770 68.000,140.916 68.000 C 139.062 68.000,138.693 68.123,138.516 68.800 C 138.339 69.477,137.970 69.600,136.116 69.600 C 134.262 69.600,133.893 69.723,133.716 70.400 C 133.552 71.027,133.170 71.200,131.953 71.200 C 130.667 71.200,130.400 71.337,130.400 72.000 C 130.400 72.711,130.133 72.800,128.000 72.800 C 125.867 72.800,125.600 72.889,125.600 73.600 C 125.600 74.305,125.333 74.400,123.363 74.400 C 121.462 74.400,121.094 74.520,120.916 75.200 C 120.739 75.877,120.370 76.000,118.516 76.000 C 116.662 76.000,116.293 76.123,116.116 76.800 C 115.939 77.477,115.570 77.600,113.716 77.600 C 111.862 77.600,111.493 77.723,111.316 78.400 C 111.152 79.027,110.770 79.200,109.553 79.200 C 108.267 79.200,108.000 79.337,108.000 80.000 C 108.000 80.711,107.733 80.800,105.600 80.800 C 103.467 80.800,103.200 80.889,103.200 81.600 C 103.200 82.305,102.933 82.400,100.963 82.400 C 99.062 82.400,98.694 82.520,98.516 83.200 C 98.339 83.877,97.970 84.000,96.116 84.000 C 94.262 84.000,93.893 84.123,93.716 84.800 C 93.539 85.477,93.170 85.600,91.316 85.600 C 89.462 85.600,89.093 85.723,88.916 86.400 C 88.752 87.027,88.370 87.200,87.153 87.200 C 85.867 87.200,85.600 87.337,85.600 88.000 C 85.600 88.711,85.333 88.800,83.200 88.800 C 81.067 88.800,80.800 88.889,80.800 89.600 C 80.800 90.305,80.533 90.400,78.563 90.400 C 76.662 90.400,76.294 90.520,76.116 91.200 C 75.939 91.877,75.570 92.000,73.716 92.000 C 71.862 92.000,71.493 92.123,71.316 92.800 C 71.139 93.477,70.770 93.600,68.916 93.600 C 67.062 93.600,66.693 93.723,66.516 94.400 C 66.352 95.027,65.970 95.200,64.753 95.200 C 63.467 95.200,63.200 95.337,63.200 96.000 C 63.200 96.711,62.933 96.800,60.800 96.800 C 58.667 96.800,58.400 96.889,58.400 97.600 C 58.400 98.311,58.133 98.400,56.000 98.400 C 53.887 98.400,53.600 98.493,53.600 99.180 C 53.600 99.849,53.273 99.977,51.300 100.080 L 49.000 100.200 48.880 102.500 C 48.771 104.591,48.835 104.800,49.580 104.800 C 50.376 104.800,50.400 105.010,50.400 111.837 C 50.400 118.538,50.438 118.885,51.200 119.084 C 51.958 119.282,52.000 119.630,52.000 125.647 C 52.000 131.733,52.034 132.000,52.800 132.000 C 53.570 132.000,53.600 132.267,53.600 139.200 C 53.600 146.133,53.630 146.400,54.400 146.400 C 55.170 146.400,55.200 146.667,55.200 153.437 C 55.200 160.138,55.238 160.485,56.000 160.684 C 56.758 160.882,56.800 161.230,56.800 167.247 C 56.800 173.333,56.834 173.600,57.600 173.600 C 58.370 173.600,58.400 173.867,58.400 180.800 C 58.400 187.733,58.430 188.000,59.200 188.000 C 59.970 188.000,60.000 188.267,60.000 195.037 C 60.000 201.738,60.038 202.085,60.800 202.284 C 61.558 202.482,61.600 202.830,61.600 208.847 C 61.600 214.933,61.634 215.200,62.400 215.200 C 63.170 215.200,63.200 215.467,63.200 222.400 C 63.200 229.333,63.230 229.600,64.000 229.600 C 64.770 229.600,64.800 229.867,64.800 236.637 C 64.800 243.338,64.838 243.685,65.600 243.884 C 66.358 244.082,66.400 244.430,66.400 250.447 C 66.400 256.533,66.434 256.800,67.200 256.800 C 67.970 256.800,68.000 257.067,68.000 264.000 C 68.000 270.933,68.030 271.200,68.800 271.200 C 69.570 271.200,69.600 271.467,69.600 278.237 C 69.600 284.938,69.638 285.285,70.400 285.484 C 71.158 285.682,71.200 286.030,71.200 292.047 C 71.200 298.133,71.234 298.400,72.000 298.400 C 72.667 298.400,72.800 298.667,72.800 300.000 C 72.800 301.300,72.941 301.600,73.553 301.600 C 73.970 301.600,74.400 301.957,74.516 302.400 C 74.675 303.006,75.062 303.200,76.116 303.200 C 77.170 303.200,77.557 303.394,77.716 304.000 C 77.876 304.613,78.262 304.800,79.363 304.800 C 80.533 304.800,80.800 304.948,80.800 305.600 C 80.800 306.267,81.067 306.400,82.400 306.400 C 83.733 306.400,84.000 306.533,84.000 307.200 C 84.000 307.867,84.267 308.000,85.600 308.000 C 86.933 308.000,87.200 308.133,87.200 308.800 C 87.200 309.317,87.467 309.600,87.953 309.600 C 88.370 309.600,88.800 309.957,88.916 310.400 C 89.075 311.006,89.462 311.200,90.516 311.200 C 91.570 311.200,91.957 311.394,92.116 312.000 C 92.276 312.613,92.662 312.800,93.763 312.800 C 94.933 312.800,95.200 312.948,95.200 313.600 C 95.200 314.267,95.467 314.400,96.800 314.400 C 98.133 314.400,98.400 314.533,98.400 315.200 C 98.400 315.867,98.667 316.000,100.000 316.000 C 101.333 316.000,101.600 316.133,101.600 316.800 C 101.600 317.317,101.867 317.600,102.353 317.600 C 102.770 317.600,103.200 317.957,103.316 318.400 C 103.475 319.006,103.862 319.200,104.916 319.200 C 105.970 319.200,106.357 319.394,106.516 320.000 C 106.676 320.613,107.062 320.800,108.163 320.800 C 109.333 320.800,109.600 320.948,109.600 321.600 C 109.600 322.267,109.867 322.400,111.200 322.400 C 112.533 322.400,112.800 322.533,112.800 323.200 C 112.800 323.867,113.067 324.000,114.400 324.000 C 115.733 324.000,116.000 324.133,116.000 324.800 C 116.000 325.317,116.267 325.600,116.753 325.600 C 117.170 325.600,117.600 325.957,117.716 326.400 C 117.875 327.006,118.262 327.200,119.316 327.200 C 120.370 327.200,120.757 327.394,120.916 328.000 C 121.076 328.613,121.462 328.800,122.563 328.800 C 123.733 328.800,124.000 328.948,124.000 329.600 C 124.000 330.267,124.267 330.400,125.600 330.400 C 126.933 330.400,127.200 330.533,127.200 331.200 C 127.200 331.867,127.467 332.000,128.800 332.000 C 130.133 332.000,130.400 332.133,130.400 332.800 C 130.400 333.317,130.667 333.600,131.153 333.600 C 131.570 333.600,132.000 333.957,132.116 334.400 C 132.275 335.006,132.662 335.200,133.716 335.200 C 134.770 335.200,135.157 335.394,135.316 336.000 C 135.476 336.613,135.862 336.800,136.963 336.800 C 138.133 336.800,138.400 336.948,138.400 337.600 C 138.400 338.267,138.667 338.400,140.000 338.400 C 141.333 338.400,141.600 338.533,141.600 339.200 C 141.600 339.867,141.867 340.000,143.200 340.000 C 144.533 340.000,144.800 340.133,144.800 340.800 C 144.800 341.317,145.067 341.600,145.553 341.600 C 145.970 341.600,146.400 341.957,146.516 342.400 C 146.675 343.006,147.062 343.200,148.116 343.200 C 149.170 343.200,149.557 343.394,149.716 344.000 C 149.875 344.606,150.262 344.800,151.316 344.800 C 152.370 344.800,152.757 344.994,152.916 345.600 C 153.076 346.213,153.462 346.400,154.563 346.400 C 155.733 346.400,156.000 346.548,156.000 347.200 C 156.000 347.867,156.267 348.000,157.600 348.000 C 158.933 348.000,159.200 348.133,159.200 348.800 C 159.200 349.317,159.467 349.600,159.953 349.600 C 160.370 349.600,160.800 349.957,160.916 350.400 C 161.075 351.006,161.462 351.200,162.516 351.200 C 163.570 351.200,163.957 351.394,164.116 352.000 C 164.275 352.606,164.662 352.800,165.716 352.800 C 166.770 352.800,167.157 352.994,167.316 353.600 C 167.476 354.213,167.862 354.400,168.963 354.400 C 170.133 354.400,170.400 354.548,170.400 355.200 C 170.400 355.867,170.667 356.000,172.000 356.000 C 173.333 356.000,173.600 356.133,173.600 356.800 C 173.600 357.317,173.867 357.600,174.353 357.600 C 174.770 357.600,175.200 357.957,175.316 358.400 C 175.475 359.006,175.862 359.200,176.916 359.200 C 177.970 359.200,178.357 359.394,178.516 360.000 C 178.675 360.606,179.062 360.800,180.116 360.800 C 181.170 360.800,181.557 360.994,181.716 361.600 C 181.876 362.213,182.262 362.400,183.363 362.400 C 184.533 362.400,184.800 362.548,184.800 363.200 C 184.800 363.867,185.067 364.000,186.400 364.000 C 187.733 364.000,188.000 364.133,188.000 364.800 C 188.000 365.467,188.267 365.600,189.600 365.600 C 190.933 365.600,191.200 365.733,191.200 366.400 C 191.200 366.917,191.467 367.200,191.953 367.200 C 192.370 367.200,192.800 367.557,192.916 368.000 C 193.075 368.606,193.462 368.800,194.516 368.800 C 195.570 368.800,195.957 368.994,196.116 369.600 C 196.306 370.327,196.662 370.400,200.000 370.400 C 203.338 370.400,203.694 370.327,203.884 369.600 C 204.043 368.994,204.430 368.800,205.484 368.800 C 206.538 368.800,206.925 368.606,207.084 368.000 C 207.200 367.557,207.630 367.200,208.047 367.200 C 208.533 367.200,208.800 366.917,208.800 366.400 C 208.800 365.733,209.067 365.600,210.400 365.600 C 211.733 365.600,212.000 365.467,212.000 364.800 C 212.000 364.133,212.267 364.000,213.600 364.000 C 214.933 364.000,215.200 363.867,215.200 363.200 C 215.200 362.548,215.467 362.400,216.637 362.400 C 217.738 362.400,218.124 362.213,218.284 361.600 C 218.443 360.994,218.830 360.800,219.884 360.800 C 220.938 360.800,221.325 360.606,221.484 360.000 C 221.643 359.394,222.030 359.200,223.084 359.200 C 224.138 359.200,224.525 359.006,224.684 358.400 C 224.800 357.957,225.230 357.600,225.647 357.600 C 226.133 357.600,226.400 357.317,226.400 356.800 C 226.400 356.133,226.667 356.000,228.000 356.000 C 229.333 356.000,229.600 355.867,229.600 355.200 C 229.600 354.548,229.867 354.400,231.037 354.400 C 232.138 354.400,232.524 354.213,232.684 353.600 C 232.843 352.994,233.230 352.800,234.284 352.800 C 235.338 352.800,235.725 352.606,235.884 352.000 C 236.043 351.394,236.430 351.200,237.484 351.200 C 238.538 351.200,238.925 351.006,239.084 350.400 C 239.200 349.957,239.630 349.600,240.047 349.600 C 240.533 349.600,240.800 349.317,240.800 348.800 C 240.800 348.133,241.067 348.000,242.400 348.000 C 243.733 348.000,244.000 347.867,244.000 347.200 C 244.000 346.548,244.267 346.400,245.437 346.400 C 246.538 346.400,246.924 346.213,247.084 345.600 C 247.243 344.994,247.630 344.800,248.684 344.800 C 249.738 344.800,250.125 344.606,250.284 344.000 C 250.443 343.394,250.830 343.200,251.884 343.200 C 252.938 343.200,253.325 343.006,253.484 342.400 C 253.600 341.957,254.030 341.600,254.447 341.600 C 254.933 341.600,255.200 341.317,255.200 340.800 C 255.200 340.133,255.467 340.000,256.800 340.000 C 258.133 340.000,258.400 339.867,258.400 339.200 C 258.400 338.533,258.667 338.400,260.000 338.400 C 261.333 338.400,261.600 338.267,261.600 337.600 C 261.600 336.948,261.867 336.800,263.037 336.800 C 264.138 336.800,264.524 336.613,264.684 336.000 C 264.843 335.394,265.230 335.200,266.284 335.200 C 267.338 335.200,267.725 335.006,267.884 334.400 C 268.000 333.957,268.430 333.600,268.847 333.600 C 269.333 333.600,269.600 333.317,269.600 332.800 C 269.600 332.133,269.867 332.000,271.200 332.000 C 272.533 332.000,272.800 331.867,272.800 331.200 C 272.800 330.533,273.067 330.400,274.400 330.400 C 275.733 330.400,276.000 330.267,276.000 329.600 C 276.000 328.948,276.267 328.800,277.437 328.800 C 278.538 328.800,278.924 328.613,279.084 328.000 C 279.243 327.394,279.630 327.200,280.684 327.200 C 281.738 327.200,282.125 327.006,282.284 326.400 C 282.400 325.957,282.830 325.600,283.247 325.600 C 283.733 325.600,284.000 325.317,284.000 324.800 C 284.000 324.133,284.267 324.000,285.600 324.000 C 286.933 324.000,287.200 323.867,287.200 323.200 C 287.200 322.533,287.467 322.400,288.800 322.400 C 290.133 322.400,290.400 322.267,290.400 321.600 C 290.400 320.948,290.667 320.800,291.837 320.800 C 292.938 320.800,293.324 320.613,293.484 320.000 C 293.643 319.394,294.030 319.200,295.084 319.200 C 296.138 319.200,296.525 319.006,296.684 318.400 C 296.800 317.957,297.230 317.600,297.647 317.600 C 298.133 317.600,298.400 317.317,298.400 316.800 C 298.400 316.133,298.667 316.000,300.000 316.000 C 301.333 316.000,301.600 315.867,301.600 315.200 C 301.600 314.533,301.867 314.400,303.200 314.400 C 304.533 314.400,304.800 314.267,304.800 313.600 C 304.800 312.948,305.067 312.800,306.237 312.800 C 307.338 312.800,307.724 312.613,307.884 312.000 C 308.043 311.394,308.430 311.200,309.484 311.200 C 310.538 311.200,310.925 311.006,311.084 310.400 C 311.200 309.957,311.630 309.600,312.047 309.600 C 312.533 309.600,312.800 309.317,312.800 308.800 C 312.800 308.133,313.067 308.000,314.400 308.000 C 315.733 308.000,316.000 307.867,316.000 307.200 C 316.000 306.533,316.267 306.400,317.600 306.400 C 318.933 306.400,319.200 306.267,319.200 305.600 C 319.200 304.948,319.467 304.800,320.637 304.800 C 321.738 304.800,322.124 304.613,322.284 304.000 C 322.443 303.394,322.830 303.200,323.884 303.200 C 324.938 303.200,325.325 303.006,325.484 302.400 C 325.600 301.957,326.030 301.600,326.447 301.600 C 327.059 301.600,327.200 301.300,327.200 300.000 C 327.200 298.667,327.333 298.400,328.000 298.400 C 328.766 298.400,328.800 298.133,328.800 292.047 C 328.800 286.030,328.842 285.682,329.600 285.484 C 330.362 285.285,330.400 284.938,330.400 278.237 C 330.400 271.467,330.430 271.200,331.200 271.200 C 331.970 271.200,332.000 270.933,332.000 264.000 C 332.000 257.067,332.030 256.800,332.800 256.800 C 333.566 256.800,333.600 256.533,333.600 250.447 C 333.600 244.430,333.642 244.082,334.400 243.884 C 335.162 243.685,335.200 243.338,335.200 236.637 C 335.200 229.867,335.230 229.600,336.000 229.600 C 336.770 229.600,336.800 229.333,336.800 222.400 C 336.800 215.467,336.830 215.200,337.600 215.200 C 338.366 215.200,338.400 214.933,338.400 208.847 C 338.400 202.830,338.442 202.482,339.200 202.284 C 339.962 202.085,340.000 201.738,340.000 195.037 C 340.000 188.267,340.030 188.000,340.800 188.000 C 341.570 188.000,341.600 187.733,341.600 180.800 C 341.600 173.867,341.630 173.600,342.400 173.600 C 343.166 173.600,343.200 173.333,343.200 167.247 C 343.200 161.230,343.242 160.882,344.000 160.684 C 344.762 160.485,344.800 160.138,344.800 153.437 C 344.800 146.667,344.830 146.400,345.600 146.400 C 346.370 146.400,346.400 146.133,346.400 139.200 C 346.400 132.267,346.430 132.000,347.200 132.000 C 347.966 132.000,348.000 131.733,348.000 125.647 C 348.000 119.630,348.042 119.282,348.800 119.084 C 349.562 118.885,349.600 118.538,349.600 111.837 C 349.600 105.010,349.624 104.800,350.420 104.800 C 351.165 104.800,351.229 104.591,351.120 102.500 L 351.000 100.200 348.700 100.080 C 346.727 99.977,346.400 99.849,346.400 99.180 C 346.400 98.493,346.113 98.400,344.000 98.400 C 341.867 98.400,341.600 98.311,341.600 97.600 C 341.600 96.889,341.333 96.800,339.200 96.800 C 337.067 96.800,336.800 96.711,336.800 96.000 C 336.800 95.337,336.533 95.200,335.247 95.200 C 334.030 95.200,333.648 95.027,333.484 94.400 C 333.307 93.723,332.938 93.600,331.084 93.600 C 329.230 93.600,328.861 93.477,328.684 92.800 C 328.507 92.123,328.138 92.000,326.284 92.000 C 324.430 92.000,324.061 91.877,323.884 91.200 C 323.706 90.520,323.338 90.400,321.437 90.400 C 319.467 90.400,319.200 90.305,319.200 89.600 C 319.200 88.889,318.933 88.800,316.800 88.800 C 314.667 88.800,314.400 88.711,314.400 88.000 C 314.400 87.337,314.133 87.200,312.847 87.200 C 311.630 87.200,311.248 87.027,311.084 86.400 C 310.907 85.723,310.538 85.600,308.684 85.600 C 306.830 85.600,306.461 85.477,306.284 84.800 C 306.107 84.123,305.738 84.000,303.884 84.000 C 302.030 84.000,301.661 83.877,301.484 83.200 C 301.306 82.520,300.938 82.400,299.037 82.400 C 297.067 82.400,296.800 82.305,296.800 81.600 C 296.800 80.889,296.533 80.800,294.400 80.800 C 292.267 80.800,292.000 80.711,292.000 80.000 C 292.000 79.337,291.733 79.200,290.447 79.200 C 289.230 79.200,288.848 79.027,288.684 78.400 C 288.507 77.723,288.138 77.600,286.284 77.600 C 284.430 77.600,284.061 77.477,283.884 76.800 C 283.707 76.123,283.338 76.000,281.484 76.000 C 279.630 76.000,279.261 75.877,279.084 75.200 C 278.906 74.520,278.538 74.400,276.637 74.400 C 274.667 74.400,274.400 74.305,274.400 73.600 C 274.400 72.889,274.133 72.800,272.000 72.800 C 269.867 72.800,269.600 72.711,269.600 72.000 C 269.600 71.337,269.333 71.200,268.047 71.200 C 266.830 71.200,266.448 71.027,266.284 70.400 C 266.107 69.723,265.738 69.600,263.884 69.600 C 262.030 69.600,261.661 69.477,261.484 68.800 C 261.307 68.123,260.938 68.000,259.084 68.000 C 257.230 68.000,256.861 67.877,256.684 67.200 C 256.506 66.520,256.138 66.400,254.237 66.400 C 252.267 66.400,252.000 66.305,252.000 65.600 C 252.000 64.889,251.733 64.800,249.600 64.800 C 247.467 64.800,247.200 64.711,247.200 64.000 C 247.200 63.289,246.933 63.200,244.800 63.200 C 242.667 63.200,242.400 63.111,242.400 62.400 C 242.400 61.737,242.133 61.600,240.847 61.600 C 239.630 61.600,239.248 61.427,239.084 60.800 C 238.907 60.123,238.538 60.000,236.684 60.000 C 234.830 60.000,234.461 59.877,234.284 59.200 C 234.106 58.520,233.738 58.400,231.837 58.400 C 229.867 58.400,229.600 58.305,229.600 57.600 C 229.600 56.889,229.333 56.800,227.200 56.800 C 225.067 56.800,224.800 56.711,224.800 56.000 C 224.800 55.289,224.533 55.200,222.400 55.200 C 220.267 55.200,220.000 55.111,220.000 54.400 C 220.000 53.737,219.733 53.600,218.447 53.600 C 217.230 53.600,216.848 53.427,216.684 52.800 C 216.507 52.123,216.138 52.000,214.284 52.000 C 212.430 52.000,212.061 51.877,211.884 51.200 C 211.706 50.520,211.338 50.400,209.437 50.400 C 207.467 50.400,207.200 50.305,207.200 49.600 C 207.200 48.889,206.933 48.800,204.800 48.800 C 202.667 48.800,202.400 48.711,202.400 48.000 C 202.400 47.289,202.133 47.200,200.000 47.200 C 197.867 47.200,197.600 47.289,197.600 48.000 M201.740 85.800 C 201.934 86.460,202.254 87.270,202.450 87.600 C 202.646 87.930,202.999 88.650,203.236 89.200 C 203.473 89.750,203.985 90.830,204.375 91.600 C 204.765 92.370,205.208 93.517,205.361 94.148 C 205.514 94.780,205.901 95.558,206.220 95.877 C 206.539 96.196,206.800 96.821,206.800 97.265 C 206.800 97.710,207.160 98.531,207.600 99.091 C 208.040 99.650,208.400 100.460,208.400 100.891 C 208.400 101.321,208.760 102.131,209.200 102.691 C 209.640 103.250,210.000 104.009,210.000 104.377 C 210.000 104.746,210.267 105.396,210.594 105.824 C 210.920 106.251,211.384 107.302,211.625 108.160 C 211.866 109.018,212.319 109.976,212.632 110.289 C 212.944 110.601,213.200 111.221,213.200 111.665 C 213.200 112.110,213.560 112.931,214.000 113.491 C 214.440 114.050,214.800 114.860,214.800 115.291 C 214.800 115.721,215.160 116.531,215.600 117.091 C 216.040 117.650,216.400 118.363,216.400 118.675 C 216.400 118.986,216.744 119.907,217.165 120.721 C 217.906 122.152,219.453 125.520,220.694 128.400 C 221.025 129.170,221.635 130.466,222.048 131.279 C 222.462 132.093,222.800 133.014,222.800 133.325 C 222.800 133.637,223.160 134.350,223.600 134.909 C 224.040 135.469,224.400 136.222,224.400 136.584 C 224.400 136.946,224.753 137.907,225.185 138.721 C 225.616 139.534,226.353 141.100,226.822 142.200 C 227.291 143.300,228.018 144.866,228.437 145.679 C 228.857 146.493,229.200 147.414,229.200 147.725 C 229.200 148.037,229.560 148.750,230.000 149.309 C 230.440 149.869,230.800 150.622,230.800 150.984 C 230.800 151.346,231.150 152.307,231.578 153.121 C 233.014 155.852,234.000 158.021,234.000 158.449 C 234.000 158.683,234.360 159.331,234.800 159.891 C 235.240 160.450,235.600 161.260,235.600 161.691 C 235.600 162.121,235.960 162.931,236.400 163.491 C 236.840 164.050,237.200 164.809,237.200 165.177 C 237.200 165.546,237.467 166.196,237.794 166.624 C 238.120 167.051,238.584 168.102,238.825 168.960 C 239.066 169.818,239.519 170.776,239.832 171.089 C 240.144 171.401,240.400 172.021,240.400 172.465 C 240.400 172.910,240.760 173.731,241.200 174.291 C 241.640 174.850,242.000 175.660,242.000 176.091 C 242.000 176.521,242.360 177.331,242.800 177.891 C 243.240 178.450,243.600 179.209,243.600 179.577 C 243.600 179.946,243.867 180.596,244.194 181.024 C 244.520 181.451,244.984 182.502,245.225 183.360 C 245.466 184.218,245.919 185.176,246.232 185.489 C 246.544 185.801,246.800 186.421,246.800 186.865 C 246.800 187.310,247.160 188.131,247.600 188.691 C 248.040 189.250,248.400 190.060,248.400 190.491 C 248.400 190.921,248.760 191.731,249.200 192.291 C 249.640 192.850,250.000 193.609,250.000 193.977 C 250.000 194.346,250.267 194.996,250.594 195.424 C 250.920 195.851,251.384 196.902,251.625 197.760 C 251.866 198.618,252.319 199.576,252.632 199.889 C 252.944 200.201,253.200 200.821,253.200 201.265 C 253.200 201.710,253.560 202.531,254.000 203.091 C 254.440 203.650,254.800 204.460,254.800 204.891 C 254.800 205.321,255.160 206.131,255.600 206.691 C 256.040 207.250,256.400 208.009,256.400 208.377 C 256.400 208.746,256.667 209.396,256.994 209.824 C 257.320 210.251,257.784 211.302,258.025 212.160 C 258.266 213.018,258.719 213.976,259.032 214.289 C 259.344 214.601,259.600 215.221,259.600 215.665 C 259.600 216.110,259.960 216.931,260.400 217.491 C 260.840 218.050,261.200 218.860,261.200 219.291 C 261.200 219.721,261.560 220.531,262.000 221.091 C 262.440 221.650,262.800 222.409,262.800 222.777 C 262.800 223.146,263.067 223.796,263.394 224.224 C 263.720 224.651,264.184 225.702,264.425 226.560 C 264.666 227.418,265.119 228.376,265.432 228.689 C 265.744 229.001,266.000 229.621,266.000 230.065 C 266.000 230.510,266.360 231.331,266.800 231.891 C 267.240 232.450,267.600 233.260,267.600 233.691 C 267.600 234.121,267.960 234.931,268.400 235.491 C 268.840 236.050,269.200 236.809,269.200 237.177 C 269.200 237.546,269.467 238.196,269.794 238.624 C 270.120 239.051,270.584 240.102,270.825 240.960 C 271.066 241.818,271.519 242.776,271.832 243.089 C 272.144 243.401,272.400 244.021,272.400 244.465 C 272.400 244.910,272.760 245.731,273.200 246.291 C 273.640 246.850,274.000 247.660,274.000 248.091 C 274.000 248.521,274.360 249.331,274.800 249.891 C 275.240 250.450,275.600 251.209,275.600 251.577 C 275.600 251.946,275.867 252.596,276.194 253.024 C 276.520 253.451,276.984 254.502,277.225 255.360 C 277.466 256.218,277.919 257.176,278.232 257.489 C 278.544 257.801,278.800 258.421,278.800 258.865 C 278.800 259.310,279.160 260.131,279.600 260.691 C 280.040 261.250,280.400 262.060,280.400 262.491 C 280.400 262.921,280.760 263.731,281.200 264.291 C 281.640 264.850,282.000 265.619,282.000 266.000 C 282.000 266.381,282.360 267.150,282.800 267.709 C 283.240 268.269,283.600 269.022,283.600 269.384 C 283.600 269.746,283.953 270.707,284.385 271.521 C 284.816 272.334,285.553 273.900,286.022 275.000 C 286.491 276.100,287.218 277.666,287.637 278.479 C 288.057 279.293,288.400 280.214,288.400 280.525 C 288.400 280.837,288.760 281.550,289.200 282.109 C 289.640 282.669,290.000 283.422,290.000 283.784 C 290.000 284.146,290.350 285.107,290.778 285.921 C 293.454 291.011,293.952 293.569,292.426 294.386 C 291.554 294.853,260.469 294.906,258.800 294.443 C 258.250 294.291,257.544 293.635,257.232 292.986 C 256.919 292.337,256.424 291.567,256.132 291.275 C 255.839 290.982,255.600 290.275,255.600 289.703 C 255.600 289.131,255.314 288.347,254.964 287.960 C 254.614 287.574,254.159 286.507,253.953 285.589 C 253.747 284.672,253.313 283.656,252.989 283.332 C 252.665 283.008,252.400 282.275,252.400 281.703 C 252.400 281.131,252.114 280.347,251.764 279.960 C 251.414 279.574,250.959 278.507,250.753 277.589 C 250.547 276.672,250.113 275.656,249.789 275.332 C 249.465 275.008,249.200 274.275,249.200 273.703 C 249.200 273.131,248.914 272.347,248.564 271.960 C 248.214 271.574,247.759 270.507,247.553 269.589 C 247.347 268.672,246.913 267.656,246.589 267.332 C 246.265 267.008,246.000 266.275,246.000 265.703 C 246.000 265.131,245.714 264.347,245.364 263.960 C 245.014 263.574,244.559 262.507,244.353 261.589 C 244.147 260.672,243.713 259.656,243.389 259.332 C 243.065 259.008,242.800 258.275,242.800 257.703 C 242.800 257.131,242.514 256.347,242.164 255.960 C 241.814 255.574,241.359 254.507,241.153 253.589 C 240.947 252.672,240.513 251.656,240.189 251.332 C 239.865 251.008,239.600 250.233,239.600 249.611 C 239.600 247.582,239.949 247.600,199.766 247.600 C 160.473 247.600,160.400 247.603,160.400 249.427 C 160.400 250.003,160.040 250.931,159.600 251.491 C 159.160 252.050,158.800 252.999,158.800 253.600 C 158.800 254.201,158.440 255.150,158.000 255.709 C 157.560 256.269,157.200 257.119,157.200 257.600 C 157.200 258.081,156.840 258.931,156.400 259.491 C 155.960 260.050,155.600 260.999,155.600 261.600 C 155.600 262.201,155.240 263.150,154.800 263.709 C 154.360 264.269,154.000 265.119,154.000 265.600 C 154.000 266.081,153.640 266.931,153.200 267.491 C 152.760 268.050,152.400 268.999,152.400 269.600 C 152.400 270.201,152.040 271.150,151.600 271.709 C 151.160 272.269,150.800 273.119,150.800 273.600 C 150.800 274.081,150.440 274.931,150.000 275.491 C 149.560 276.050,149.200 276.999,149.200 277.600 C 149.200 278.201,148.840 279.150,148.400 279.709 C 147.960 280.269,147.600 281.119,147.600 281.600 C 147.600 282.081,147.240 282.931,146.800 283.491 C 146.360 284.050,146.000 284.999,146.000 285.600 C 146.000 286.201,145.640 287.150,145.200 287.709 C 144.760 288.269,144.400 289.095,144.400 289.545 C 144.400 289.996,143.995 290.980,143.500 291.733 C 143.005 292.485,142.401 293.438,142.157 293.850 C 141.625 294.749,109.227 295.271,107.612 294.406 C 106.548 293.837,106.518 291.314,107.551 289.279 C 108.299 287.808,109.432 285.345,110.855 282.100 C 111.265 281.165,111.985 279.545,112.455 278.500 C 112.925 277.455,113.645 275.835,114.055 274.900 C 115.679 271.196,116.530 269.336,117.249 267.921 C 117.662 267.107,118.000 266.186,118.000 265.875 C 118.000 265.563,118.360 264.850,118.800 264.291 C 119.240 263.731,119.600 262.921,119.600 262.491 C 119.600 262.060,119.960 261.250,120.400 260.691 C 120.840 260.131,121.200 259.325,121.200 258.898 C 121.200 258.471,121.560 257.707,122.000 257.200 C 122.440 256.693,122.801 255.900,122.803 255.439 C 122.804 254.977,123.163 254.060,123.600 253.400 C 124.037 252.740,124.396 251.909,124.397 251.554 C 124.399 251.199,124.760 250.450,125.200 249.891 C 125.640 249.331,126.000 248.521,126.000 248.091 C 126.000 247.660,126.360 246.850,126.800 246.291 C 127.240 245.731,127.600 244.925,127.600 244.498 C 127.600 244.071,127.960 243.307,128.400 242.800 C 128.840 242.293,129.201 241.500,129.203 241.039 C 129.204 240.577,129.563 239.660,130.000 239.000 C 130.437 238.340,130.796 237.509,130.797 237.154 C 130.799 236.799,131.160 236.050,131.600 235.491 C 132.040 234.931,132.400 234.121,132.400 233.691 C 132.400 233.260,132.760 232.450,133.200 231.891 C 133.640 231.331,134.000 230.525,134.000 230.098 C 134.000 229.671,134.360 228.907,134.800 228.400 C 135.240 227.893,135.601 227.100,135.603 226.639 C 135.604 226.177,135.963 225.260,136.400 224.600 C 136.837 223.940,137.196 223.109,137.197 222.754 C 137.199 222.399,137.560 221.650,138.000 221.091 C 138.440 220.531,138.800 219.721,138.800 219.291 C 138.800 218.860,139.160 218.050,139.600 217.491 C 140.040 216.931,140.400 216.125,140.400 215.698 C 140.400 215.271,140.760 214.507,141.200 214.000 C 141.640 213.493,142.001 212.700,142.003 212.239 C 142.004 211.777,142.363 210.860,142.800 210.200 C 143.237 209.540,143.596 208.709,143.597 208.354 C 143.599 207.999,143.960 207.250,144.400 206.691 C 144.840 206.131,145.200 205.321,145.200 204.891 C 145.200 204.460,145.560 203.650,146.000 203.091 C 146.440 202.531,146.800 201.725,146.800 201.298 C 146.800 200.871,147.160 200.107,147.600 199.600 C 148.040 199.093,148.400 198.336,148.400 197.918 C 148.400 197.500,148.745 196.493,149.167 195.679 C 149.589 194.866,150.127 193.750,150.364 193.200 C 150.601 192.650,150.945 191.930,151.129 191.600 C 152.436 189.257,153.200 187.542,153.200 186.952 C 153.200 186.573,153.456 185.979,153.769 185.631 C 154.082 185.284,154.638 184.190,155.003 183.200 C 155.369 182.210,155.937 180.680,156.265 179.800 C 156.594 178.920,157.118 177.916,157.431 177.569 C 157.744 177.221,158.001 176.681,158.003 176.369 C 158.004 176.056,158.363 175.260,158.800 174.600 C 159.237 173.940,159.596 173.054,159.597 172.631 C 159.599 172.209,159.856 171.579,160.169 171.231 C 160.482 170.884,161.022 169.835,161.369 168.900 C 161.716 167.965,162.284 166.435,162.631 165.500 C 162.978 164.565,163.518 163.516,163.831 163.169 C 164.144 162.821,164.400 162.317,164.400 162.048 C 164.400 161.779,164.738 160.893,165.151 160.079 C 165.565 159.266,166.260 157.790,166.697 156.800 C 167.133 155.810,167.875 154.145,168.345 153.100 C 168.815 152.055,169.585 150.345,170.055 149.300 C 170.525 148.255,171.220 146.680,171.600 145.800 C 171.980 144.920,172.700 143.300,173.200 142.200 C 174.358 139.654,175.521 137.037,176.400 135.000 C 176.780 134.120,177.475 132.545,177.945 131.500 C 178.415 130.455,179.160 128.790,179.600 127.800 C 181.674 123.133,182.149 122.098,182.849 120.721 C 183.262 119.907,183.600 118.986,183.600 118.675 C 183.600 118.363,183.960 117.650,184.400 117.091 C 184.840 116.531,185.200 115.721,185.200 115.291 C 185.200 114.860,185.560 114.050,186.000 113.491 C 186.440 112.931,186.800 112.125,186.800 111.698 C 186.800 111.271,187.160 110.507,187.600 110.000 C 188.040 109.493,188.401 108.700,188.403 108.239 C 188.404 107.777,188.763 106.860,189.200 106.200 C 189.637 105.540,189.996 104.709,189.997 104.354 C 189.999 103.999,190.360 103.250,190.800 102.691 C 191.240 102.131,191.600 101.321,191.600 100.891 C 191.600 100.460,191.960 99.650,192.400 99.091 C 192.840 98.531,193.200 97.725,193.200 97.298 C 193.200 96.871,193.560 96.107,194.000 95.600 C 194.440 95.093,194.801 94.300,194.803 93.839 C 194.804 93.377,195.163 92.460,195.600 91.800 C 196.037 91.140,196.396 90.309,196.397 89.954 C 196.399 89.599,196.760 88.850,197.200 88.291 C 197.640 87.731,198.000 86.975,198.000 86.611 C 198.000 84.157,201.059 83.494,201.740 85.800 M198.809 157.900 C 198.577 158.725,198.120 159.749,197.794 160.176 C 197.467 160.604,197.200 161.295,197.200 161.713 C 197.200 162.132,196.840 162.931,196.400 163.491 C 195.960 164.050,195.599 164.889,195.597 165.354 C 195.596 165.819,195.237 166.740,194.800 167.400 C 194.363 168.060,194.004 168.981,194.003 169.446 C 194.001 169.911,193.640 170.750,193.200 171.309 C 192.760 171.869,192.400 172.608,192.400 172.952 C 192.400 173.594,191.306 176.250,189.958 178.879 C 189.541 179.693,189.200 180.700,189.200 181.118 C 189.200 181.536,188.840 182.293,188.400 182.800 C 187.960 183.307,187.600 184.211,187.600 184.807 C 187.600 185.404,187.240 186.350,186.800 186.909 C 186.360 187.469,186.000 188.222,186.000 188.584 C 186.000 188.946,185.656 189.907,185.236 190.721 C 184.815 191.534,184.079 193.190,183.600 194.400 C 183.121 195.610,182.385 197.266,181.964 198.079 C 181.544 198.893,181.200 199.900,181.200 200.318 C 181.200 200.736,180.840 201.493,180.400 202.000 C 179.960 202.507,179.600 203.411,179.600 204.007 C 179.600 204.604,179.240 205.550,178.800 206.109 C 178.360 206.669,178.000 207.422,178.000 207.784 C 178.000 208.146,177.656 209.107,177.236 209.921 C 176.136 212.048,174.842 215.269,174.712 216.200 C 174.601 216.993,174.829 217.000,200.000 217.000 L 225.400 217.000 225.263 216.000 C 225.188 215.450,224.783 214.439,224.363 213.753 C 223.944 213.067,223.600 212.254,223.600 211.947 C 223.600 211.640,223.240 210.716,222.800 209.896 C 222.360 209.075,222.000 208.101,222.000 207.733 C 222.000 207.364,221.714 206.747,221.364 206.360 C 221.014 205.974,220.559 204.907,220.353 203.989 C 220.147 203.072,219.713 202.056,219.389 201.732 C 219.065 201.408,218.800 200.786,218.800 200.351 C 218.800 199.915,218.440 198.848,218.000 197.979 C 217.560 197.111,216.840 195.689,216.400 194.821 C 215.960 193.952,215.600 193.005,215.600 192.715 C 215.600 192.425,215.240 191.516,214.800 190.696 C 214.360 189.875,214.000 188.901,214.000 188.533 C 214.000 188.164,213.714 187.547,213.364 187.160 C 213.014 186.774,212.559 185.707,212.353 184.789 C 212.147 183.872,211.713 182.856,211.389 182.532 C 211.065 182.208,210.800 181.586,210.800 181.151 C 210.800 180.715,210.440 179.648,210.000 178.779 C 209.560 177.911,208.840 176.489,208.400 175.621 C 207.960 174.752,207.600 173.656,207.600 173.184 C 207.600 172.712,207.240 171.869,206.800 171.309 C 206.360 170.750,206.000 169.891,206.000 169.400 C 206.000 168.909,205.668 168.079,205.262 167.554 C 204.856 167.029,204.409 166.005,204.267 165.277 C 204.126 164.549,203.738 163.681,203.405 163.348 C 203.072 163.015,202.800 162.340,202.800 161.848 C 202.800 161.356,202.533 160.604,202.206 160.176 C 201.880 159.749,201.423 158.725,201.191 157.900 C 200.891 156.833,200.547 156.400,200.000 156.400 C 199.453 156.400,199.109 156.833,198.809 157.900 " stroke="none" fill="#d00730" fill-rule="evenodd"></path><path id="path2" d="M198.427 85.150 C 198.192 85.589,198.000 86.246,198.000 86.611 C 198.000 86.975,197.640 87.731,197.200 88.291 C 196.760 88.850,196.399 89.599,196.397 89.954 C 196.396 90.309,196.037 91.140,195.600 91.800 C 195.163 92.460,194.804 93.377,194.803 93.839 C 194.801 94.300,194.440 95.093,194.000 95.600 C 193.560 96.107,193.200 96.871,193.200 97.298 C 193.200 97.725,192.840 98.531,192.400 99.091 C 191.960 99.650,191.600 100.460,191.600 100.891 C 191.600 101.321,191.240 102.131,190.800 102.691 C 190.360 103.250,189.999 103.999,189.997 104.354 C 189.996 104.709,189.637 105.540,189.200 106.200 C 188.763 106.860,188.404 107.777,188.403 108.239 C 188.401 108.700,188.040 109.493,187.600 110.000 C 187.160 110.507,186.800 111.271,186.800 111.698 C 186.800 112.125,186.440 112.931,186.000 113.491 C 185.560 114.050,185.200 114.860,185.200 115.291 C 185.200 115.721,184.840 116.531,184.400 117.091 C 183.960 117.650,183.600 118.363,183.600 118.675 C 183.600 118.986,183.262 119.907,182.849 120.721 C 182.149 122.098,181.674 123.133,179.600 127.800 C 179.160 128.790,178.415 130.455,177.945 131.500 C 177.475 132.545,176.780 134.120,176.400 135.000 C 175.521 137.037,174.358 139.654,173.200 142.200 C 172.700 143.300,171.980 144.920,171.600 145.800 C 171.220 146.680,170.525 148.255,170.055 149.300 C 169.585 150.345,168.815 152.055,168.345 153.100 C 167.875 154.145,167.133 155.810,166.697 156.800 C 166.260 157.790,165.565 159.266,165.151 160.079 C 164.738 160.893,164.400 161.779,164.400 162.048 C 164.400 162.317,164.144 162.821,163.831 163.169 C 163.518 163.516,162.978 164.565,162.631 165.500 C 162.284 166.435,161.716 167.965,161.369 168.900 C 161.022 169.835,160.482 170.884,160.169 171.231 C 159.856 171.579,159.599 172.209,159.597 172.631 C 159.596 173.054,159.237 173.940,158.800 174.600 C 158.363 175.260,158.004 176.056,158.003 176.369 C 158.001 176.681,157.744 177.221,157.431 177.569 C 157.118 177.916,156.594 178.920,156.265 179.800 C 155.937 180.680,155.369 182.210,155.003 183.200 C 154.638 184.190,154.082 185.284,153.769 185.631 C 153.456 185.979,153.200 186.573,153.200 186.952 C 153.200 187.542,152.436 189.257,151.129 191.600 C 150.945 191.930,150.601 192.650,150.364 193.200 C 150.127 193.750,149.589 194.866,149.167 195.679 C 148.745 196.493,148.400 197.500,148.400 197.918 C 148.400 198.336,148.040 199.093,147.600 199.600 C 147.160 200.107,146.800 200.871,146.800 201.298 C 146.800 201.725,146.440 202.531,146.000 203.091 C 145.560 203.650,145.200 204.460,145.200 204.891 C 145.200 205.321,144.840 206.131,144.400 206.691 C 143.960 207.250,143.599 207.999,143.597 208.354 C 143.596 208.709,143.237 209.540,142.800 210.200 C 142.363 210.860,142.004 211.777,142.003 212.239 C 142.001 212.700,141.640 213.493,141.200 214.000 C 140.760 214.507,140.400 215.271,140.400 215.698 C 140.400 216.125,140.040 216.931,139.600 217.491 C 139.160 218.050,138.800 218.860,138.800 219.291 C 138.800 219.721,138.440 220.531,138.000 221.091 C 137.560 221.650,137.199 222.399,137.197 222.754 C 137.196 223.109,136.837 223.940,136.400 224.600 C 135.963 225.260,135.604 226.177,135.603 226.639 C 135.601 227.100,135.240 227.893,134.800 228.400 C 134.360 228.907,134.000 229.671,134.000 230.098 C 134.000 230.525,133.640 231.331,133.200 231.891 C 132.760 232.450,132.400 233.260,132.400 233.691 C 132.400 234.121,132.040 234.931,131.600 235.491 C 131.160 236.050,130.799 236.799,130.797 237.154 C 130.796 237.509,130.437 238.340,130.000 239.000 C 129.563 239.660,129.204 240.577,129.203 241.039 C 129.201 241.500,128.840 242.293,128.400 242.800 C 127.960 243.307,127.600 244.071,127.600 244.498 C 127.600 244.925,127.240 245.731,126.800 246.291 C 126.360 246.850,126.000 247.660,126.000 248.091 C 126.000 248.521,125.640 249.331,125.200 249.891 C 124.760 250.450,124.399 251.199,124.397 251.554 C 124.396 251.909,124.037 252.740,123.600 253.400 C 123.163 254.060,122.804 254.977,122.803 255.439 C 122.801 255.900,122.440 256.693,122.000 257.200 C 121.560 257.707,121.200 258.471,121.200 258.898 C 121.200 259.325,120.840 260.131,120.400 260.691 C 119.960 261.250,119.600 262.060,119.600 262.491 C 119.600 262.921,119.240 263.731,118.800 264.291 C 118.360 264.850,118.000 265.563,118.000 265.875 C 118.000 266.186,117.662 267.107,117.249 267.921 C 116.530 269.336,115.679 271.196,114.055 274.900 C 113.645 275.835,112.925 277.455,112.455 278.500 C 111.985 279.545,111.265 281.165,110.855 282.100 C 109.432 285.345,108.299 287.808,107.551 289.279 C 106.518 291.314,106.548 293.837,107.612 294.406 C 109.227 295.271,141.625 294.749,142.157 293.850 C 142.401 293.438,143.005 292.485,143.500 291.733 C 143.995 290.980,144.400 289.996,144.400 289.545 C 144.400 289.095,144.760 288.269,145.200 287.709 C 145.640 287.150,146.000 286.201,146.000 285.600 C 146.000 284.999,146.360 284.050,146.800 283.491 C 147.240 282.931,147.600 282.081,147.600 281.600 C 147.600 281.119,147.960 280.269,148.400 279.709 C 148.840 279.150,149.200 278.201,149.200 277.600 C 149.200 276.999,149.560 276.050,150.000 275.491 C 150.440 274.931,150.800 274.081,150.800 273.600 C 150.800 273.119,151.160 272.269,151.600 271.709 C 152.040 271.150,152.400 270.201,152.400 269.600 C 152.400 268.999,152.760 268.050,153.200 267.491 C 153.640 266.931,154.000 266.081,154.000 265.600 C 154.000 265.119,154.360 264.269,154.800 263.709 C 155.240 263.150,155.600 262.201,155.600 261.600 C 155.600 260.999,155.960 260.050,156.400 259.491 C 156.840 258.931,157.200 258.081,157.200 257.600 C 157.200 257.119,157.560 256.269,158.000 255.709 C 158.440 255.150,158.800 254.201,158.800 253.600 C 158.800 252.999,159.160 252.050,159.600 251.491 C 160.040 250.931,160.400 250.003,160.400 249.427 C 160.400 247.603,160.473 247.600,199.766 247.600 C 239.949 247.600,239.600 247.582,239.600 249.611 C 239.600 250.233,239.865 251.008,240.189 251.332 C 240.513 251.656,240.947 252.672,241.153 253.589 C 241.359 254.507,241.814 255.574,242.164 255.960 C 242.514 256.347,242.800 257.131,242.800 257.703 C 242.800 258.275,243.065 259.008,243.389 259.332 C 243.713 259.656,244.147 260.672,244.353 261.589 C 244.559 262.507,245.014 263.574,245.364 263.960 C 245.714 264.347,246.000 265.131,246.000 265.703 C 246.000 266.275,246.265 267.008,246.589 267.332 C 246.913 267.656,247.347 268.672,247.553 269.589 C 247.759 270.507,248.214 271.574,248.564 271.960 C 248.914 272.347,249.200 273.131,249.200 273.703 C 249.200 274.275,249.465 275.008,249.789 275.332 C 250.113 275.656,250.547 276.672,250.753 277.589 C 250.959 278.507,251.414 279.574,251.764 279.960 C 252.114 280.347,252.400 281.131,252.400 281.703 C 252.400 282.275,252.665 283.008,252.989 283.332 C 253.313 283.656,253.747 284.672,253.953 285.589 C 254.159 286.507,254.614 287.574,254.964 287.960 C 255.314 288.347,255.600 289.131,255.600 289.703 C 255.600 290.275,255.839 290.982,256.132 291.275 C 256.424 291.567,256.919 292.337,257.232 292.986 C 257.544 293.635,258.250 294.291,258.800 294.443 C 260.469 294.906,291.554 294.853,292.426 294.386 C 293.952 293.569,293.454 291.011,290.778 285.921 C 290.350 285.107,290.000 284.146,290.000 283.784 C 290.000 283.422,289.640 282.669,289.200 282.109 C 288.760 281.550,288.400 280.837,288.400 280.525 C 288.400 280.214,288.057 279.293,287.637 278.479 C 287.218 277.666,286.491 276.100,286.022 275.000 C 285.553 273.900,284.816 272.334,284.385 271.521 C 283.953 270.707,283.600 269.746,283.600 269.384 C 283.600 269.022,283.240 268.269,282.800 267.709 C 282.360 267.150,282.000 266.381,282.000 266.000 C 282.000 265.619,281.640 264.850,281.200 264.291 C 280.760 263.731,280.400 262.921,280.400 262.491 C 280.400 262.060,280.040 261.250,279.600 260.691 C 279.160 260.131,278.800 259.310,278.800 258.865 C 278.800 258.421,278.544 257.801,278.232 257.489 C 277.919 257.176,277.466 256.218,277.225 255.360 C 276.984 254.502,276.520 253.451,276.194 253.024 C 275.867 252.596,275.600 251.946,275.600 251.577 C 275.600 251.209,275.240 250.450,274.800 249.891 C 274.360 249.331,274.000 248.521,274.000 248.091 C 274.000 247.660,273.640 246.850,273.200 246.291 C 272.760 245.731,272.400 244.910,272.400 244.465 C 272.400 244.021,272.144 243.401,271.832 243.089 C 271.519 242.776,271.066 241.818,270.825 240.960 C 270.584 240.102,270.120 239.051,269.794 238.624 C 269.467 238.196,269.200 237.546,269.200 237.177 C 269.200 236.809,268.840 236.050,268.400 235.491 C 267.960 234.931,267.600 234.121,267.600 233.691 C 267.600 233.260,267.240 232.450,266.800 231.891 C 266.360 231.331,266.000 230.510,266.000 230.065 C 266.000 229.621,265.744 229.001,265.432 228.689 C 265.119 228.376,264.666 227.418,264.425 226.560 C 264.184 225.702,263.720 224.651,263.394 224.224 C 263.067 223.796,262.800 223.146,262.800 222.777 C 262.800 222.409,262.440 221.650,262.000 221.091 C 261.560 220.531,261.200 219.721,261.200 219.291 C 261.200 218.860,260.840 218.050,260.400 217.491 C 259.960 216.931,259.600 216.110,259.600 215.665 C 259.600 215.221,259.344 214.601,259.032 214.289 C 258.719 213.976,258.266 213.018,258.025 212.160 C 257.784 211.302,257.320 210.251,256.994 209.824 C 256.667 209.396,256.400 208.746,256.400 208.377 C 256.400 208.009,256.040 207.250,255.600 206.691 C 255.160 206.131,254.800 205.321,254.800 204.891 C 254.800 204.460,254.440 203.650,254.000 203.091 C 253.560 202.531,253.200 201.710,253.200 201.265 C 253.200 200.821,252.944 200.201,252.632 199.889 C 252.319 199.576,251.866 198.618,251.625 197.760 C 251.384 196.902,250.920 195.851,250.594 195.424 C 250.267 194.996,250.000 194.346,250.000 193.977 C 250.000 193.609,249.640 192.850,249.200 192.291 C 248.760 191.731,248.400 190.921,248.400 190.491 C 248.400 190.060,248.040 189.250,247.600 188.691 C 247.160 188.131,246.800 187.310,246.800 186.865 C 246.800 186.421,246.544 185.801,246.232 185.489 C 245.919 185.176,245.466 184.218,245.225 183.360 C 244.984 182.502,244.520 181.451,244.194 181.024 C 243.867 180.596,243.600 179.946,243.600 179.577 C 243.600 179.209,243.240 178.450,242.800 177.891 C 242.360 177.331,242.000 176.521,242.000 176.091 C 242.000 175.660,241.640 174.850,241.200 174.291 C 240.760 173.731,240.400 172.910,240.400 172.465 C 240.400 172.021,240.144 171.401,239.832 171.089 C 239.519 170.776,239.066 169.818,238.825 168.960 C 238.584 168.102,238.120 167.051,237.794 166.624 C 237.467 166.196,237.200 165.546,237.200 165.177 C 237.200 164.809,236.840 164.050,236.400 163.491 C 235.960 162.931,235.600 162.121,235.600 161.691 C 235.600 161.260,235.240 160.450,234.800 159.891 C 234.360 159.331,234.000 158.683,234.000 158.449 C 234.000 158.021,233.014 155.852,231.578 153.121 C 231.150 152.307,230.800 151.346,230.800 150.984 C 230.800 150.622,230.440 149.869,230.000 149.309 C 229.560 148.750,229.200 148.037,229.200 147.725 C 229.200 147.414,228.857 146.493,228.437 145.679 C 228.018 144.866,227.291 143.300,226.822 142.200 C 226.353 141.100,225.616 139.534,225.185 138.721 C 224.753 137.907,224.400 136.946,224.400 136.584 C 224.400 136.222,224.040 135.469,223.600 134.909 C 223.160 134.350,222.800 133.637,222.800 133.325 C 222.800 133.014,222.462 132.093,222.048 131.279 C 221.635 130.466,221.025 129.170,220.694 128.400 C 219.453 125.520,217.906 122.152,217.165 120.721 C 216.744 119.907,216.400 118.986,216.400 118.675 C 216.400 118.363,216.040 117.650,215.600 117.091 C 215.160 116.531,214.800 115.721,214.800 115.291 C 214.800 114.860,214.440 114.050,214.000 113.491 C 213.560 112.931,213.200 112.110,213.200 111.665 C 213.200 111.221,212.944 110.601,212.632 110.289 C 212.319 109.976,211.866 109.018,211.625 108.160 C 211.384 107.302,210.920 106.251,210.594 105.824 C 210.267 105.396,210.000 104.746,210.000 104.377 C 210.000 104.009,209.640 103.250,209.200 102.691 C 208.760 102.131,208.400 101.321,208.400 100.891 C 208.400 100.460,208.040 99.650,207.600 99.091 C 207.160 98.531,206.800 97.710,206.800 97.265 C 206.800 96.821,206.539 96.196,206.220 95.877 C 205.901 95.558,205.514 94.780,205.361 94.148 C 205.208 93.517,204.765 92.370,204.375 91.600 C 203.985 90.830,203.473 89.750,203.236 89.200 C 202.999 88.650,202.646 87.930,202.450 87.600 C 202.254 87.270,201.934 86.460,201.740 85.800 C 201.288 84.270,199.125 83.846,198.427 85.150 M201.451 86.700 C 201.786 87.525,202.424 89.010,202.869 90.000 C 203.313 90.990,203.911 92.340,204.198 93.000 C 204.485 93.660,205.168 95.190,205.716 96.400 C 207.066 99.380,209.372 104.576,210.598 107.400 C 210.885 108.060,211.568 109.590,212.116 110.800 C 212.664 112.010,213.492 113.855,213.956 114.900 C 214.420 115.945,215.160 117.610,215.600 118.600 C 216.040 119.590,216.739 121.165,217.154 122.100 C 217.569 123.035,218.559 125.202,219.354 126.915 C 220.149 128.629,220.800 130.125,220.800 130.240 C 220.800 130.355,221.520 131.978,222.400 133.848 C 223.280 135.718,224.000 137.338,224.000 137.448 C 224.000 137.558,224.720 139.178,225.600 141.048 C 226.480 142.918,227.200 144.538,227.200 144.648 C 227.200 144.758,227.920 146.378,228.800 148.248 C 229.680 150.118,230.400 151.734,230.400 151.840 C 230.400 151.946,230.958 153.241,231.641 154.717 C 232.324 156.193,233.408 158.570,234.052 160.000 C 234.695 161.430,235.577 163.266,236.011 164.079 C 236.445 164.893,236.800 165.752,236.800 165.987 C 236.800 166.223,237.532 167.988,238.427 169.908 C 239.322 171.829,240.416 174.210,240.858 175.200 C 241.299 176.190,242.007 177.666,242.430 178.479 C 242.854 179.293,243.200 180.152,243.200 180.387 C 243.200 180.623,243.932 182.388,244.827 184.308 C 246.420 187.725,247.354 189.778,248.782 193.000 C 249.172 193.880,249.900 195.500,250.400 196.600 C 250.900 197.700,251.645 199.365,252.055 200.300 C 253.005 202.468,254.034 204.772,255.405 207.800 C 256.460 210.132,256.961 211.271,258.400 214.600 C 258.780 215.480,259.457 217.010,259.905 218.000 C 260.352 218.990,261.207 220.880,261.805 222.200 C 262.402 223.520,263.122 225.140,263.405 225.800 C 263.688 226.460,264.368 227.990,264.916 229.200 C 266.266 232.180,268.572 237.376,269.798 240.200 C 270.085 240.860,270.768 242.390,271.316 243.600 C 272.666 246.580,274.972 251.776,276.198 254.600 C 276.485 255.260,277.168 256.790,277.716 258.000 C 278.264 259.210,279.071 261.010,279.510 262.000 C 279.949 262.990,280.959 265.202,281.754 266.915 C 282.549 268.629,283.200 270.125,283.200 270.240 C 283.200 270.355,283.920 271.978,284.800 273.848 C 285.680 275.718,286.400 277.338,286.400 277.448 C 286.400 277.558,287.120 279.178,288.000 281.048 C 288.880 282.918,289.600 284.538,289.600 284.648 C 289.600 284.758,290.329 286.397,291.219 288.289 C 293.864 293.909,295.450 293.383,275.503 293.504 L 258.407 293.609 257.211 291.704 C 256.553 290.657,256.012 289.527,256.008 289.194 C 256.003 288.861,255.640 287.916,255.200 287.096 C 254.760 286.275,254.399 285.287,254.397 284.901 C 254.396 284.516,254.037 283.660,253.600 283.000 C 253.163 282.340,252.804 281.527,252.803 281.194 C 252.801 280.861,252.440 279.916,252.000 279.096 C 251.560 278.275,251.199 277.287,251.197 276.901 C 251.196 276.516,250.837 275.660,250.400 275.000 C 249.963 274.340,249.604 273.527,249.603 273.194 C 249.601 272.861,249.240 271.916,248.800 271.096 C 248.360 270.275,247.999 269.287,247.997 268.901 C 247.996 268.516,247.637 267.660,247.200 267.000 C 246.763 266.340,246.404 265.527,246.403 265.194 C 246.401 264.861,246.040 263.916,245.600 263.096 C 245.160 262.275,244.799 261.287,244.797 260.901 C 244.796 260.516,244.437 259.660,244.000 259.000 C 243.563 258.340,243.204 257.527,243.203 257.194 C 243.201 256.861,242.840 255.916,242.400 255.096 C 241.960 254.275,241.599 253.287,241.597 252.901 C 241.596 252.516,241.237 251.660,240.800 251.000 C 240.363 250.340,240.004 249.485,240.003 249.100 C 239.993 246.668,242.290 246.800,200.000 246.800 C 157.710 246.800,160.007 246.668,159.997 249.100 C 159.996 249.485,159.637 250.340,159.200 251.000 C 158.763 251.660,158.404 252.516,158.403 252.901 C 158.401 253.287,158.040 254.275,157.600 255.096 C 157.160 255.916,156.799 256.861,156.797 257.194 C 156.796 257.527,156.437 258.340,156.000 259.000 C 155.563 259.660,155.204 260.516,155.203 260.901 C 155.201 261.287,154.840 262.275,154.400 263.096 C 153.960 263.916,153.599 264.861,153.597 265.194 C 153.596 265.527,153.237 266.340,152.800 267.000 C 152.363 267.660,152.004 268.516,152.003 268.901 C 152.001 269.287,151.640 270.275,151.200 271.096 C 150.760 271.916,150.399 272.861,150.397 273.194 C 150.396 273.527,150.037 274.340,149.600 275.000 C 149.163 275.660,148.804 276.516,148.803 276.901 C 148.801 277.287,148.440 278.275,148.000 279.096 C 147.560 279.916,147.199 280.861,147.197 281.194 C 147.196 281.527,146.837 282.340,146.400 283.000 C 145.963 283.660,145.604 284.516,145.603 284.901 C 145.601 285.287,145.240 286.275,144.800 287.096 C 144.360 287.916,143.997 288.861,143.992 289.194 C 143.975 290.599,141.688 293.482,140.385 293.743 C 137.888 294.242,108.200 294.040,107.680 293.520 C 106.911 292.751,107.101 291.857,108.800 288.248 C 109.680 286.378,110.400 284.758,110.400 284.648 C 110.400 284.538,111.120 282.918,112.000 281.048 C 112.880 279.178,113.600 277.558,113.600 277.448 C 113.600 277.338,114.320 275.718,115.200 273.848 C 116.080 271.978,116.800 270.355,116.800 270.240 C 116.800 270.125,117.451 268.629,118.246 266.915 C 119.041 265.202,120.051 262.990,120.490 262.000 C 120.929 261.010,121.736 259.210,122.284 258.000 C 122.832 256.790,123.515 255.260,123.802 254.600 C 125.028 251.776,127.334 246.580,128.684 243.600 C 129.232 242.390,129.915 240.860,130.202 240.200 C 131.428 237.376,133.734 232.180,135.084 229.200 C 135.632 227.990,136.312 226.460,136.595 225.800 C 136.878 225.140,137.598 223.520,138.195 222.200 C 138.793 220.880,139.648 218.990,140.095 218.000 C 140.543 217.010,141.220 215.480,141.600 214.600 C 143.039 211.271,143.540 210.132,144.595 207.800 C 145.193 206.480,145.999 204.680,146.386 203.800 C 146.774 202.920,147.451 201.390,147.891 200.400 C 148.331 199.410,148.966 197.970,149.301 197.200 C 149.635 196.430,150.406 194.720,151.012 193.400 C 151.618 192.080,152.436 190.280,152.829 189.400 C 153.223 188.520,154.187 186.416,154.972 184.725 C 155.757 183.033,156.400 181.506,156.400 181.330 C 156.400 181.155,156.876 180.019,157.457 178.806 C 158.039 177.593,158.836 175.880,159.229 175.000 C 159.623 174.120,160.587 172.016,161.372 170.325 C 162.157 168.633,162.800 167.106,162.800 166.930 C 162.800 166.755,163.238 165.709,163.773 164.606 C 164.308 163.503,165.279 161.430,165.932 160.000 C 166.584 158.570,167.676 156.193,168.359 154.717 C 169.042 153.241,169.600 151.946,169.600 151.840 C 169.600 151.734,170.320 150.118,171.200 148.248 C 172.080 146.378,172.800 144.758,172.800 144.648 C 172.800 144.538,173.520 142.918,174.400 141.048 C 175.280 139.178,176.000 137.558,176.000 137.448 C 176.000 137.338,176.720 135.718,177.600 133.848 C 178.480 131.978,179.200 130.355,179.200 130.240 C 179.200 130.125,179.851 128.629,180.646 126.915 C 181.441 125.202,182.431 123.035,182.846 122.100 C 183.261 121.165,183.960 119.590,184.400 118.600 C 184.840 117.610,185.580 115.945,186.044 114.900 C 186.508 113.855,187.336 112.010,187.884 110.800 C 188.432 109.590,189.115 108.060,189.402 107.400 C 190.628 104.576,192.934 99.380,194.284 96.400 C 194.832 95.190,195.515 93.660,195.802 93.000 C 196.089 92.340,196.687 90.990,197.131 90.000 C 197.576 89.010,198.214 87.525,198.549 86.700 C 198.982 85.636,199.403 85.200,200.000 85.200 C 200.597 85.200,201.018 85.636,201.451 86.700 M198.937 155.900 C 198.806 156.285,198.271 157.534,197.749 158.675 C 197.227 159.817,196.800 160.951,196.800 161.196 C 196.800 161.441,196.456 162.307,196.036 163.121 C 195.615 163.934,194.874 165.590,194.388 166.800 C 193.902 168.010,193.186 169.720,192.798 170.600 C 192.409 171.480,191.632 173.373,191.070 174.807 C 190.508 176.241,189.769 177.951,189.427 178.607 C 189.085 179.263,188.803 180.070,188.800 180.400 C 188.797 180.730,188.437 181.540,188.000 182.200 C 187.563 182.860,187.204 183.724,187.203 184.121 C 187.201 184.517,186.850 185.507,186.422 186.321 C 185.994 187.134,184.903 189.600,183.998 191.800 C 183.093 194.000,182.003 196.540,181.576 197.444 C 181.149 198.348,180.799 199.338,180.797 199.644 C 180.796 199.950,180.437 200.740,180.000 201.400 C 179.563 202.060,179.204 202.965,179.203 203.411 C 179.201 203.857,178.938 204.596,178.618 205.053 C 178.298 205.510,177.778 206.585,177.463 207.442 C 177.148 208.299,176.145 210.781,175.235 212.957 C 174.325 215.134,173.690 217.024,173.824 217.157 C 173.957 217.291,185.737 217.400,200.000 217.400 C 214.263 217.400,226.043 217.291,226.176 217.157 C 226.310 217.024,225.675 215.134,224.765 212.957 C 223.855 210.781,222.852 208.299,222.537 207.442 C 222.222 206.585,221.702 205.510,221.382 205.053 C 221.062 204.596,220.799 203.857,220.797 203.411 C 220.796 202.965,220.437 202.060,220.000 201.400 C 219.563 200.740,219.204 199.950,219.203 199.644 C 219.201 199.338,218.851 198.348,218.424 197.444 C 217.997 196.540,216.907 194.000,216.002 191.800 C 215.097 189.600,214.006 187.134,213.578 186.321 C 213.150 185.507,212.799 184.517,212.797 184.121 C 212.796 183.724,212.437 182.860,212.000 182.200 C 211.563 181.540,211.203 180.730,211.200 180.400 C 211.197 180.070,210.915 179.263,210.573 178.607 C 210.231 177.951,209.492 176.241,208.930 174.807 C 208.368 173.373,207.591 171.480,207.202 170.600 C 206.814 169.720,206.098 168.010,205.612 166.800 C 205.126 165.590,204.385 163.934,203.964 163.121 C 203.544 162.307,203.200 161.441,203.200 161.196 C 203.200 160.951,202.773 159.817,202.251 158.675 C 201.729 157.534,201.194 156.285,201.063 155.900 C 200.932 155.515,200.454 155.200,200.000 155.200 C 199.546 155.200,199.068 155.515,198.937 155.900 M201.191 157.900 C 201.423 158.725,201.880 159.749,202.206 160.176 C 202.533 160.604,202.800 161.356,202.800 161.848 C 202.800 162.340,203.072 163.015,203.405 163.348 C 203.738 163.681,204.126 164.549,204.267 165.277 C 204.409 166.005,204.856 167.029,205.262 167.554 C 205.668 168.079,206.000 168.909,206.000 169.400 C 206.000 169.891,206.360 170.750,206.800 171.309 C 207.240 171.869,207.600 172.712,207.600 173.184 C 207.600 173.656,207.960 174.752,208.400 175.621 C 208.840 176.489,209.560 177.911,210.000 178.779 C 210.440 179.648,210.800 180.715,210.800 181.151 C 210.800 181.586,211.065 182.208,211.389 182.532 C 211.713 182.856,212.147 183.872,212.353 184.789 C 212.559 185.707,213.014 186.774,213.364 187.160 C 213.714 187.547,214.000 188.164,214.000 188.533 C 214.000 188.901,214.360 189.875,214.800 190.696 C 215.240 191.516,215.600 192.425,215.600 192.715 C 215.600 193.005,215.960 193.952,216.400 194.821 C 216.840 195.689,217.560 197.111,218.000 197.979 C 218.440 198.848,218.800 199.915,218.800 200.351 C 218.800 200.786,219.065 201.408,219.389 201.732 C 219.713 202.056,220.147 203.072,220.353 203.989 C 220.559 204.907,221.014 205.974,221.364 206.360 C 221.714 206.747,222.000 207.364,222.000 207.733 C 222.000 208.101,222.360 209.075,222.800 209.896 C 223.240 210.716,223.600 211.640,223.600 211.947 C 223.600 212.254,223.944 213.067,224.363 213.753 C 224.783 214.439,225.188 215.450,225.263 216.000 L 225.400 217.000 200.000 217.000 C 174.829 217.000,174.601 216.993,174.712 216.200 C 174.842 215.269,176.136 212.048,177.236 209.921 C 177.656 209.107,178.000 208.146,178.000 207.784 C 178.000 207.422,178.360 206.669,178.800 206.109 C 179.240 205.550,179.600 204.604,179.600 204.007 C 179.600 203.411,179.960 202.507,180.400 202.000 C 180.840 201.493,181.200 200.736,181.200 200.318 C 181.200 199.900,181.544 198.893,181.964 198.079 C 182.385 197.266,183.121 195.610,183.600 194.400 C 184.079 193.190,184.815 191.534,185.236 190.721 C 185.656 189.907,186.000 188.946,186.000 188.584 C 186.000 188.222,186.360 187.469,186.800 186.909 C 187.240 186.350,187.600 185.404,187.600 184.807 C 187.600 184.211,187.960 183.307,188.400 182.800 C 188.840 182.293,189.200 181.536,189.200 181.118 C 189.200 180.700,189.541 179.693,189.958 178.879 C 191.306 176.250,192.400 173.594,192.400 172.952 C 192.400 172.608,192.760 171.869,193.200 171.309 C 193.640 170.750,194.001 169.911,194.003 169.446 C 194.004 168.981,194.363 168.060,194.800 167.400 C 195.237 166.740,195.596 165.819,195.597 165.354 C 195.599 164.889,195.960 164.050,196.400 163.491 C 196.840 162.931,197.200 162.132,197.200 161.713 C 197.200 161.295,197.467 160.604,197.794 160.176 C 198.120 159.749,198.577 158.725,198.809 157.900 C 199.109 156.833,199.453 156.400,200.000 156.400 C 200.547 156.400,200.891 156.833,201.191 157.900 " stroke="none" fill="#de6278" fill-rule="evenodd"></path><path id="path3" d="M199.062 85.500 C 198.960 85.665,199.382 85.800,200.000 85.800 C 200.618 85.800,201.040 85.665,200.938 85.500 C 200.836 85.335,200.414 85.200,200.000 85.200 C 199.586 85.200,199.164 85.335,199.062 85.500 M199.062 155.100 C 198.960 155.265,199.382 155.400,200.000 155.400 C 200.618 155.400,201.040 155.265,200.938 155.100 C 200.836 154.935,200.414 154.800,200.000 154.800 C 199.586 154.800,199.164 154.935,199.062 155.100 M186.500 185.300 C 186.070 186.475,186.080 186.526,186.612 185.824 C 187.121 185.152,187.421 184.000,187.088 184.000 C 187.026 184.000,186.761 184.585,186.500 185.300 M178.500 204.500 C 178.070 205.675,178.080 205.726,178.612 205.024 C 179.121 204.352,179.421 203.200,179.088 203.200 C 179.026 203.200,178.761 203.785,178.500 204.500 M171.900 246.700 C 177.235 246.763,185.965 246.763,191.300 246.700 C 196.635 246.637,192.270 246.585,181.600 246.585 C 170.930 246.585,166.565 246.637,171.900 246.700 M157.700 254.100 C 157.270 255.275,157.280 255.326,157.812 254.624 C 158.321 253.952,158.621 252.800,158.288 252.800 C 158.226 252.800,157.961 253.385,157.700 254.100 M154.500 262.100 C 154.070 263.275,154.080 263.326,154.612 262.624 C 155.121 261.952,155.421 260.800,155.088 260.800 C 155.026 260.800,154.761 261.385,154.500 262.100 M151.300 270.100 C 150.870 271.275,150.880 271.326,151.412 270.624 C 151.921 269.952,152.221 268.800,151.888 268.800 C 151.826 268.800,151.561 269.385,151.300 270.100 M148.100 278.100 C 147.670 279.275,147.680 279.326,148.212 278.624 C 148.721 277.952,149.021 276.800,148.688 276.800 C 148.626 276.800,148.361 277.385,148.100 278.100 M144.900 286.100 C 144.470 287.275,144.480 287.326,145.012 286.624 C 145.521 285.952,145.821 284.800,145.488 284.800 C 145.426 284.800,145.161 285.385,144.900 286.100 M107.212 292.651 C 107.178 293.928,108.286 294.009,124.247 293.900 L 140.200 293.791 124.120 293.695 C 109.287 293.607,108.008 293.546,107.632 292.900 C 107.408 292.515,107.219 292.403,107.212 292.651 " stroke="none" fill="#ec849c" fill-rule="evenodd"></path><path id="path4" d="M198.752 86.700 C 198.516 87.305,198.004 88.520,197.615 89.400 C 197.226 90.280,196.634 91.630,196.299 92.400 C 195.965 93.170,195.202 94.880,194.605 96.200 C 194.007 97.520,193.152 99.410,192.705 100.400 C 192.257 101.390,191.580 102.920,191.200 103.800 C 189.761 107.129,189.260 108.268,188.205 110.600 C 185.872 115.755,185.464 116.661,184.691 118.400 C 184.251 119.390,183.580 120.920,183.200 121.800 C 182.820 122.680,182.125 124.255,181.655 125.300 C 181.185 126.345,180.440 128.010,180.000 129.000 C 179.560 129.990,178.815 131.655,178.345 132.700 C 177.875 133.745,177.180 135.320,176.800 136.200 C 175.921 138.237,174.758 140.854,173.600 143.400 C 173.100 144.500,172.380 146.120,172.000 147.000 C 171.620 147.880,170.925 149.455,170.455 150.500 C 169.985 151.545,169.256 153.165,168.835 154.100 C 168.414 155.035,167.530 156.970,166.869 158.400 C 166.208 159.830,162.394 168.380,158.394 177.400 C 154.394 186.420,150.669 194.790,150.116 196.000 C 149.563 197.210,148.771 198.965,148.355 199.900 C 147.940 200.835,147.240 202.410,146.800 203.400 C 146.360 204.390,145.640 206.010,145.200 207.000 C 144.760 207.990,144.040 209.610,143.600 210.600 C 143.160 211.590,142.440 213.210,142.000 214.200 C 141.560 215.190,140.840 216.810,140.400 217.800 C 139.960 218.790,139.240 220.410,138.800 221.400 C 138.360 222.390,137.620 224.055,137.156 225.100 C 136.692 226.145,135.864 227.990,135.315 229.200 C 134.767 230.410,134.001 232.120,133.614 233.000 C 133.226 233.880,132.549 235.410,132.109 236.400 C 131.669 237.390,131.034 238.830,130.699 239.600 C 130.365 240.370,129.602 242.080,129.005 243.400 C 127.179 247.435,125.997 250.097,124.299 254.000 C 123.965 254.770,123.202 256.480,122.605 257.800 C 122.007 259.120,121.201 260.920,120.814 261.800 C 120.426 262.680,119.700 264.300,119.200 265.400 C 118.201 267.597,117.092 270.085,115.945 272.700 C 115.535 273.635,114.865 275.165,114.455 276.100 C 114.045 277.035,113.325 278.655,112.855 279.700 C 112.385 280.745,111.665 282.365,111.255 283.300 C 109.819 286.574,108.696 289.013,107.938 290.502 C 106.312 293.697,105.812 293.600,123.988 293.600 C 143.706 293.600,141.779 294.313,145.027 285.819 C 145.612 284.289,146.330 282.489,146.623 281.819 C 146.916 281.148,147.636 279.348,148.223 277.819 C 148.810 276.289,149.530 274.489,149.823 273.819 C 150.116 273.148,150.836 271.348,151.423 269.819 C 152.010 268.289,152.730 266.489,153.023 265.819 C 153.316 265.148,154.036 263.348,154.623 261.819 C 155.210 260.289,155.930 258.489,156.223 257.819 C 156.516 257.148,157.205 255.430,157.753 254.000 C 160.287 247.393,160.597 246.905,162.454 246.591 C 164.260 246.286,237.730 246.725,238.875 247.048 C 239.247 247.153,239.767 247.905,240.032 248.719 C 240.297 249.534,240.758 250.555,241.057 250.989 C 241.356 251.423,241.600 252.056,241.600 252.395 C 241.600 252.734,241.960 253.684,242.400 254.504 C 242.840 255.325,243.200 256.225,243.200 256.504 C 243.200 256.784,243.560 257.684,244.000 258.504 C 244.440 259.325,244.800 260.225,244.800 260.504 C 244.800 260.784,245.160 261.684,245.600 262.504 C 246.040 263.325,246.400 264.225,246.400 264.504 C 246.400 264.784,246.760 265.684,247.200 266.504 C 247.640 267.325,248.000 268.225,248.000 268.504 C 248.000 268.784,248.360 269.684,248.800 270.504 C 249.240 271.325,249.600 272.225,249.600 272.504 C 249.600 272.784,249.960 273.684,250.400 274.504 C 250.840 275.325,251.200 276.225,251.200 276.504 C 251.200 276.784,251.560 277.684,252.000 278.504 C 252.440 279.325,252.800 280.225,252.800 280.504 C 252.800 280.784,253.160 281.684,253.600 282.504 C 254.040 283.325,254.400 284.225,254.400 284.504 C 254.400 284.784,254.760 285.684,255.200 286.504 C 255.640 287.325,256.000 288.205,256.000 288.459 C 256.000 288.712,256.479 289.866,257.065 291.023 C 258.440 293.739,257.408 293.600,276.236 293.600 C 293.847 293.600,293.708 293.623,292.255 290.892 C 291.334 289.161,289.600 285.347,289.600 285.052 C 289.600 284.904,288.866 283.212,287.968 281.292 C 287.070 279.371,286.100 277.260,285.812 276.600 C 285.524 275.940,284.819 274.392,284.244 273.160 C 283.670 271.928,283.200 270.800,283.200 270.652 C 283.200 270.504,282.465 268.812,281.568 266.892 C 280.670 264.971,279.590 262.635,279.168 261.700 C 277.356 257.689,276.650 256.106,276.000 254.600 C 275.241 252.842,274.169 250.422,272.855 247.500 C 272.385 246.455,271.640 244.790,271.200 243.800 C 270.760 242.810,270.040 241.190,269.600 240.200 C 269.160 239.210,268.415 237.545,267.945 236.500 C 267.475 235.455,266.774 233.880,266.386 233.000 C 265.999 232.120,265.193 230.320,264.595 229.000 C 263.998 227.680,263.278 226.060,262.995 225.400 C 262.712 224.740,261.992 223.120,261.395 221.800 C 260.798 220.480,260.078 218.860,259.795 218.200 C 259.512 217.540,258.792 215.920,258.195 214.600 C 257.598 213.280,256.878 211.660,256.595 211.000 C 256.312 210.340,255.592 208.720,254.995 207.400 C 254.398 206.080,253.678 204.460,253.395 203.800 C 253.112 203.140,252.432 201.610,251.884 200.400 C 251.336 199.190,250.529 197.390,250.090 196.400 C 249.651 195.410,248.641 193.198,247.846 191.485 C 247.051 189.771,246.400 188.275,246.400 188.160 C 246.400 188.045,245.680 186.422,244.800 184.552 C 243.920 182.682,243.200 181.062,243.200 180.952 C 243.200 180.842,242.480 179.222,241.600 177.352 C 240.720 175.482,240.000 173.862,240.000 173.752 C 240.000 173.642,239.280 172.022,238.400 170.152 C 237.520 168.282,236.800 166.666,236.800 166.560 C 236.800 166.454,236.240 165.159,235.555 163.683 C 234.870 162.207,233.862 160.010,233.316 158.800 C 232.769 157.590,231.889 155.682,231.361 154.560 C 230.832 153.438,230.400 152.400,230.400 152.252 C 230.400 152.104,229.666 150.412,228.768 148.492 C 227.870 146.571,226.900 144.460,226.612 143.800 C 226.324 143.140,225.619 141.592,225.044 140.360 C 224.470 139.128,224.000 138.000,224.000 137.852 C 224.000 137.704,223.266 136.012,222.368 134.092 C 221.470 132.171,220.500 130.060,220.212 129.400 C 219.155 126.977,217.534 123.353,216.723 121.600 C 216.265 120.610,215.580 119.080,215.200 118.200 C 214.820 117.320,214.125 115.745,213.655 114.700 C 213.185 113.655,212.440 111.990,212.000 111.000 C 211.560 110.010,210.815 108.345,210.345 107.300 C 209.875 106.255,209.180 104.680,208.800 103.800 C 208.420 102.920,207.700 101.300,207.200 100.200 C 206.700 99.100,205.955 97.435,205.545 96.500 C 204.720 94.617,203.597 92.086,202.439 89.500 C 202.021 88.565,201.484 87.305,201.248 86.700 C 200.973 85.999,200.520 85.600,200.000 85.600 C 199.480 85.600,199.027 85.999,198.752 86.700 M201.238 87.916 C 201.385 88.640,201.797 89.555,202.153 89.948 C 202.509 90.341,202.800 90.973,202.800 91.352 C 202.800 91.731,203.186 92.797,203.658 93.721 C 205.693 97.706,206.000 98.389,206.000 98.925 C 206.000 99.237,206.360 99.950,206.800 100.509 C 207.240 101.069,207.600 101.879,207.600 102.309 C 207.600 102.740,207.960 103.550,208.400 104.109 C 208.840 104.669,209.200 105.422,209.200 105.784 C 209.200 106.146,209.560 107.152,210.000 108.021 C 210.440 108.889,211.160 110.311,211.600 111.179 C 212.040 112.048,212.400 113.014,212.400 113.325 C 212.400 113.637,212.760 114.350,213.200 114.909 C 213.640 115.469,214.000 116.279,214.000 116.709 C 214.000 117.140,214.360 117.950,214.800 118.509 C 215.240 119.069,215.600 119.822,215.600 120.184 C 215.600 120.546,215.960 121.552,216.400 122.421 C 216.840 123.289,217.560 124.711,218.000 125.579 C 218.440 126.448,218.800 127.414,218.800 127.725 C 218.800 128.037,219.160 128.750,219.600 129.309 C 220.040 129.869,220.400 130.679,220.400 131.109 C 220.400 131.540,220.760 132.350,221.200 132.909 C 221.640 133.469,222.000 134.222,222.000 134.584 C 222.000 134.946,222.360 135.952,222.800 136.821 C 223.240 137.689,223.960 139.111,224.400 139.979 C 224.840 140.848,225.200 141.814,225.200 142.125 C 225.200 142.437,225.560 143.150,226.000 143.709 C 226.440 144.269,226.800 145.079,226.800 145.509 C 226.800 145.940,227.160 146.750,227.600 147.309 C 228.040 147.869,228.400 148.622,228.400 148.984 C 228.400 149.346,228.760 150.352,229.200 151.221 C 229.640 152.089,230.360 153.511,230.800 154.379 C 231.240 155.248,231.600 156.214,231.600 156.525 C 231.600 156.837,231.960 157.550,232.400 158.109 C 232.840 158.669,233.200 159.479,233.200 159.909 C 233.200 160.340,233.560 161.150,234.000 161.709 C 234.440 162.269,234.800 162.948,234.800 163.219 C 234.800 163.687,235.261 164.762,237.453 169.406 C 237.974 170.509,238.400 171.612,238.400 171.857 C 238.400 172.102,238.670 172.526,239.000 172.800 C 239.330 173.074,239.600 173.702,239.600 174.195 C 239.600 174.688,239.960 175.550,240.400 176.109 C 240.840 176.669,241.200 177.348,241.200 177.619 C 241.200 178.087,241.661 179.162,243.853 183.806 C 244.374 184.909,244.800 186.012,244.800 186.257 C 244.800 186.502,245.070 186.926,245.400 187.200 C 245.730 187.474,246.000 188.102,246.000 188.595 C 246.000 189.088,246.360 189.950,246.800 190.509 C 247.240 191.069,247.600 191.734,247.600 191.988 C 247.600 192.242,248.027 193.383,248.549 194.525 C 249.071 195.666,249.610 196.870,249.747 197.200 C 249.883 197.530,250.149 198.070,250.338 198.400 C 250.527 198.730,251.042 199.810,251.483 200.800 C 251.923 201.790,252.683 203.500,253.172 204.600 C 253.661 205.700,254.384 207.230,254.780 208.000 C 255.176 208.770,255.624 209.973,255.776 210.672 C 255.927 211.372,256.310 212.159,256.626 212.421 C 256.942 212.683,257.200 213.155,257.200 213.470 C 257.200 213.784,257.536 214.707,257.948 215.521 C 258.359 216.334,259.092 217.900,259.578 219.000 C 260.063 220.100,260.784 221.630,261.180 222.400 C 261.576 223.170,262.024 224.373,262.176 225.072 C 262.327 225.772,262.710 226.559,263.026 226.821 C 263.342 227.083,263.601 227.591,263.603 227.949 C 263.604 228.307,263.963 229.140,264.400 229.800 C 264.837 230.460,265.196 231.291,265.197 231.646 C 265.199 232.001,265.560 232.750,266.000 233.309 C 266.440 233.869,266.800 234.679,266.800 235.109 C 266.800 235.540,267.160 236.350,267.600 236.909 C 268.040 237.469,268.400 238.222,268.400 238.584 C 268.400 238.946,268.760 239.952,269.200 240.821 C 269.640 241.689,270.360 243.111,270.800 243.979 C 271.240 244.848,271.600 245.814,271.600 246.125 C 271.600 246.437,271.960 247.150,272.400 247.709 C 272.840 248.269,273.200 249.079,273.200 249.509 C 273.200 249.940,273.560 250.750,274.000 251.309 C 274.440 251.869,274.800 252.622,274.800 252.984 C 274.800 253.346,275.160 254.352,275.600 255.221 C 276.040 256.089,276.760 257.511,277.200 258.379 C 277.640 259.248,278.000 260.214,278.000 260.525 C 278.000 260.837,278.360 261.550,278.800 262.109 C 279.240 262.669,279.600 263.479,279.600 263.909 C 279.600 264.340,279.960 265.150,280.400 265.709 C 280.840 266.269,281.200 267.022,281.200 267.384 C 281.200 267.746,281.560 268.752,282.000 269.621 C 282.440 270.489,283.160 271.911,283.600 272.779 C 284.040 273.648,284.400 274.614,284.400 274.925 C 284.400 275.237,284.760 275.950,285.200 276.509 C 285.640 277.069,286.000 277.879,286.000 278.309 C 286.000 278.740,286.360 279.550,286.800 280.109 C 287.240 280.669,287.600 281.422,287.600 281.784 C 287.600 282.146,287.960 283.152,288.400 284.021 C 288.840 284.889,289.560 286.311,290.000 287.179 C 290.440 288.048,290.800 289.014,290.800 289.325 C 290.800 289.637,291.172 290.365,291.626 290.942 C 293.071 292.779,292.887 292.800,275.476 292.794 C 258.086 292.787,258.216 292.800,257.792 291.112 C 257.643 290.519,257.269 289.823,256.961 289.567 C 256.652 289.311,256.400 288.716,256.400 288.245 C 256.400 287.774,256.064 286.761,255.653 285.994 C 255.243 285.227,254.781 284.027,254.628 283.328 C 254.474 282.628,254.090 281.841,253.774 281.579 C 253.458 281.317,253.200 280.716,253.200 280.245 C 253.200 279.774,252.864 278.761,252.453 277.994 C 252.043 277.227,251.581 276.027,251.428 275.328 C 251.274 274.628,250.890 273.841,250.574 273.579 C 250.258 273.317,250.000 272.716,250.000 272.245 C 250.000 271.774,249.664 270.761,249.253 269.994 C 248.843 269.227,248.381 268.027,248.228 267.328 C 248.074 266.628,247.690 265.841,247.374 265.579 C 247.058 265.317,246.800 264.716,246.800 264.245 C 246.800 263.774,246.464 262.761,246.053 261.994 C 245.643 261.227,245.181 260.027,245.028 259.328 C 244.874 258.628,244.490 257.841,244.174 257.579 C 243.858 257.317,243.600 256.716,243.600 256.245 C 243.600 255.774,243.268 254.761,242.861 253.994 C 242.455 253.227,241.991 252.060,241.830 251.400 C 241.669 250.740,241.306 249.930,241.023 249.600 C 240.739 249.270,240.388 248.499,240.243 247.886 C 239.792 245.991,239.984 246.000,200.000 246.000 C 160.016 246.000,160.208 245.991,159.757 247.886 C 159.612 248.499,159.261 249.270,158.977 249.600 C 158.694 249.930,158.331 250.740,158.170 251.400 C 158.009 252.060,157.545 253.227,157.139 253.994 C 156.732 254.761,156.400 255.774,156.400 256.245 C 156.400 256.716,156.142 257.317,155.826 257.579 C 155.510 257.841,155.126 258.628,154.972 259.328 C 154.819 260.027,154.357 261.227,153.947 261.994 C 153.536 262.761,153.200 263.774,153.200 264.245 C 153.200 264.716,152.942 265.317,152.626 265.579 C 152.310 265.841,151.926 266.628,151.772 267.328 C 151.619 268.027,151.157 269.227,150.747 269.994 C 150.336 270.761,150.000 271.774,150.000 272.245 C 150.000 272.716,149.742 273.317,149.426 273.579 C 149.110 273.841,148.726 274.628,148.572 275.328 C 148.419 276.027,147.957 277.227,147.547 277.994 C 147.136 278.761,146.800 279.774,146.800 280.245 C 146.800 280.716,146.542 281.317,146.226 281.579 C 145.910 281.841,145.526 282.628,145.372 283.328 C 145.219 284.027,144.757 285.227,144.347 285.994 C 143.936 286.761,143.600 287.774,143.600 288.245 C 143.600 288.716,143.348 289.311,143.039 289.567 C 142.731 289.823,142.357 290.519,142.208 291.112 C 141.784 292.800,141.914 292.787,124.524 292.794 C 107.113 292.800,106.929 292.779,108.374 290.942 C 108.828 290.365,109.200 289.637,109.200 289.325 C 109.200 289.014,109.560 288.048,110.000 287.179 C 110.440 286.311,111.160 284.889,111.600 284.021 C 112.040 283.152,112.400 282.146,112.400 281.784 C 112.400 281.422,112.760 280.669,113.200 280.109 C 113.640 279.550,114.000 278.740,114.000 278.309 C 114.000 277.879,114.360 277.069,114.800 276.509 C 115.240 275.950,115.600 275.237,115.600 274.925 C 115.600 274.614,115.960 273.648,116.400 272.779 C 116.840 271.911,117.560 270.489,118.000 269.621 C 118.440 268.752,118.800 267.746,118.800 267.384 C 118.800 267.022,119.160 266.269,119.600 265.709 C 120.040 265.150,120.400 264.437,120.400 264.125 C 120.400 263.814,120.738 262.893,121.151 262.079 C 121.565 261.266,122.306 259.700,122.800 258.600 C 123.294 257.500,124.035 255.934,124.449 255.121 C 124.862 254.307,125.200 253.346,125.200 252.984 C 125.200 252.622,125.560 251.869,126.000 251.309 C 126.440 250.750,126.800 250.037,126.800 249.725 C 126.800 249.414,127.138 248.493,127.551 247.679 C 127.965 246.866,128.706 245.300,129.200 244.200 C 129.694 243.100,130.435 241.534,130.849 240.721 C 131.262 239.907,131.600 238.946,131.600 238.584 C 131.600 238.222,131.960 237.469,132.400 236.909 C 132.840 236.350,133.200 235.637,133.200 235.325 C 133.200 235.014,133.560 234.048,134.000 233.179 C 134.440 232.311,135.160 230.889,135.600 230.021 C 136.040 229.152,136.400 228.184,136.400 227.870 C 136.400 227.555,136.658 227.083,136.974 226.821 C 137.290 226.559,137.673 225.772,137.824 225.072 C 137.976 224.373,138.424 223.170,138.820 222.400 C 139.216 221.630,139.937 220.100,140.422 219.000 C 140.908 217.900,141.641 216.334,142.052 215.521 C 142.464 214.707,142.800 213.784,142.800 213.470 C 142.800 213.155,143.058 212.683,143.374 212.421 C 143.690 212.159,144.073 211.372,144.224 210.672 C 144.376 209.973,144.824 208.770,145.220 208.000 C 145.616 207.230,146.339 205.700,146.828 204.600 C 147.317 203.500,148.039 201.880,148.433 201.000 C 148.826 200.120,149.249 199.130,149.372 198.800 C 149.494 198.470,149.765 197.930,149.973 197.600 C 150.634 196.551,152.400 192.468,152.400 191.988 C 152.400 191.734,152.760 191.069,153.200 190.509 C 153.640 189.950,154.000 189.088,154.000 188.595 C 154.000 188.102,154.270 187.474,154.600 187.200 C 154.930 186.926,155.200 186.502,155.200 186.257 C 155.200 186.012,155.626 184.909,156.147 183.806 C 158.339 179.162,158.800 178.087,158.800 177.619 C 158.800 177.348,159.160 176.669,159.600 176.109 C 160.040 175.550,160.400 174.688,160.400 174.195 C 160.400 173.702,160.670 173.074,161.000 172.800 C 161.330 172.526,161.600 172.102,161.600 171.857 C 161.600 171.612,162.026 170.509,162.547 169.406 C 164.739 164.762,165.200 163.687,165.200 163.219 C 165.200 162.948,165.560 162.269,166.000 161.709 C 166.440 161.150,166.800 160.340,166.800 159.909 C 166.800 159.479,167.160 158.669,167.600 158.109 C 168.040 157.550,168.400 156.837,168.400 156.525 C 168.400 156.214,168.760 155.248,169.200 154.379 C 169.640 153.511,170.360 152.089,170.800 151.221 C 171.240 150.352,171.600 149.346,171.600 148.984 C 171.600 148.622,171.960 147.869,172.400 147.309 C 172.840 146.750,173.200 145.940,173.200 145.509 C 173.200 145.079,173.560 144.269,174.000 143.709 C 174.440 143.150,174.800 142.437,174.800 142.125 C 174.800 141.814,175.160 140.848,175.600 139.979 C 176.040 139.111,176.760 137.689,177.200 136.821 C 177.640 135.952,178.000 134.946,178.000 134.584 C 178.000 134.222,178.360 133.469,178.800 132.909 C 179.240 132.350,179.600 131.540,179.600 131.109 C 179.600 130.679,179.960 129.869,180.400 129.309 C 180.840 128.750,181.200 128.037,181.200 127.725 C 181.200 127.414,181.560 126.448,182.000 125.579 C 182.440 124.711,183.160 123.289,183.600 122.421 C 184.040 121.552,184.400 120.546,184.400 120.184 C 184.400 119.822,184.760 119.069,185.200 118.509 C 185.640 117.950,186.000 117.237,186.000 116.925 C 186.000 116.614,186.338 115.693,186.751 114.879 C 187.165 114.066,187.906 112.500,188.400 111.400 C 188.894 110.300,189.635 108.734,190.049 107.921 C 190.462 107.107,190.800 106.146,190.800 105.784 C 190.800 105.422,191.160 104.669,191.600 104.109 C 192.040 103.550,192.400 102.837,192.400 102.525 C 192.400 102.214,192.738 101.293,193.151 100.479 C 193.565 99.666,194.306 98.100,194.800 97.000 C 195.294 95.900,196.035 94.334,196.449 93.521 C 196.862 92.707,197.200 91.694,197.200 91.270 C 197.200 90.845,197.469 90.275,197.797 90.002 C 198.126 89.730,198.586 88.797,198.819 87.928 C 199.375 85.866,200.820 85.858,201.238 87.916 M198.623 154.489 C 198.280 154.978,197.999 155.743,197.997 156.189 C 197.996 156.635,197.637 157.540,197.200 158.200 C 196.763 158.860,196.404 159.783,196.403 160.251 C 196.401 160.719,196.142 161.317,195.826 161.579 C 195.510 161.841,195.130 162.628,194.983 163.328 C 194.835 164.027,194.373 165.161,193.957 165.847 C 193.541 166.533,193.200 167.343,193.201 167.647 C 193.202 168.172,192.412 169.986,190.748 173.279 C 190.336 174.093,189.999 175.083,189.997 175.479 C 189.996 175.876,189.637 176.740,189.200 177.400 C 188.763 178.060,188.404 178.924,188.403 179.321 C 188.401 179.717,188.057 180.707,187.637 181.521 C 186.436 183.851,185.200 186.654,185.201 187.044 C 185.202 187.393,184.234 189.539,182.748 192.479 C 182.336 193.293,182.000 194.344,182.000 194.816 C 182.000 195.288,181.640 196.131,181.200 196.691 C 180.760 197.250,180.400 198.053,180.400 198.475 C 180.400 198.896,180.057 199.907,179.637 200.721 C 178.436 203.051,177.200 205.854,177.201 206.244 C 177.202 206.593,176.234 208.739,174.748 211.679 C 174.336 212.493,174.000 213.596,174.000 214.130 C 174.000 214.665,173.730 215.326,173.400 215.600 C 172.614 216.252,172.632 217.450,173.433 217.757 C 173.781 217.891,185.736 218.000,200.000 218.000 C 214.264 218.000,226.219 217.891,226.567 217.757 C 227.368 217.450,227.386 216.252,226.600 215.600 C 226.270 215.326,226.000 214.665,226.000 214.130 C 226.000 213.596,225.664 212.493,225.252 211.679 C 223.766 208.739,222.798 206.593,222.799 206.244 C 222.800 205.854,221.564 203.051,220.363 200.721 C 219.943 199.907,219.600 198.896,219.600 198.475 C 219.600 198.053,219.240 197.250,218.800 196.691 C 218.360 196.131,218.000 195.288,218.000 194.816 C 218.000 194.344,217.664 193.293,217.252 192.479 C 215.766 189.539,214.798 187.393,214.799 187.044 C 214.800 186.654,213.564 183.851,212.363 181.521 C 211.943 180.707,211.599 179.717,211.597 179.321 C 211.596 178.924,211.237 178.060,210.800 177.400 C 210.363 176.740,210.004 175.876,210.003 175.479 C 210.001 175.083,209.664 174.093,209.252 173.279 C 207.588 169.986,206.798 168.172,206.799 167.647 C 206.800 167.343,206.459 166.533,206.043 165.847 C 205.627 165.161,205.165 164.027,205.017 163.328 C 204.870 162.628,204.490 161.841,204.174 161.579 C 203.858 161.317,203.599 160.719,203.597 160.251 C 203.596 159.783,203.237 158.860,202.800 158.200 C 202.363 157.540,202.004 156.635,202.003 156.189 C 201.999 155.035,200.889 153.600,200.000 153.600 C 199.585 153.600,198.965 154.000,198.623 154.489 M201.242 155.900 C 201.475 156.505,202.011 157.666,202.433 158.479 C 202.855 159.293,203.200 160.173,203.200 160.435 C 203.200 160.698,203.542 161.652,203.960 162.556 C 204.377 163.460,205.201 165.370,205.790 166.800 C 206.379 168.230,207.099 169.940,207.389 170.600 C 207.680 171.260,208.312 172.790,208.794 174.000 C 209.277 175.210,210.015 176.866,210.436 177.679 C 210.856 178.493,211.201 179.483,211.203 179.879 C 211.204 180.276,211.563 181.140,212.000 181.800 C 212.437 182.460,212.796 183.236,212.797 183.525 C 212.799 183.813,213.265 185.073,213.832 186.325 C 215.065 189.042,215.238 189.446,216.600 192.800 C 217.181 194.230,218.003 196.066,218.428 196.879 C 218.853 197.693,219.201 198.683,219.203 199.079 C 219.204 199.476,219.563 200.340,220.000 201.000 C 220.437 201.660,220.796 202.436,220.797 202.725 C 220.799 203.013,221.265 204.273,221.832 205.525 C 223.063 208.238,223.235 208.640,224.601 212.000 C 225.182 213.430,225.923 215.124,226.247 215.765 C 227.177 217.601,227.368 217.588,200.000 217.588 C 172.633 217.588,172.827 217.601,173.745 215.765 C 174.065 215.124,174.725 213.610,175.212 212.400 C 175.698 211.190,176.414 209.480,176.802 208.600 C 177.191 207.720,177.968 205.827,178.530 204.393 C 179.092 202.959,179.831 201.249,180.173 200.593 C 180.515 199.937,180.796 199.166,180.798 198.879 C 180.799 198.593,181.144 197.693,181.564 196.879 C 181.985 196.066,182.726 194.410,183.212 193.200 C 183.698 191.990,184.414 190.280,184.802 189.400 C 185.191 188.520,185.968 186.627,186.530 185.193 C 187.092 183.759,187.831 182.049,188.173 181.393 C 188.515 180.737,188.796 179.958,188.798 179.662 C 188.799 179.366,189.060 178.646,189.377 178.062 C 189.695 177.478,190.433 175.830,191.018 174.400 C 191.602 172.970,192.423 171.060,192.840 170.156 C 193.258 169.252,193.600 168.290,193.600 168.018 C 193.600 167.746,193.860 167.046,194.177 166.462 C 194.495 165.878,195.230 164.230,195.811 162.800 C 196.392 161.370,197.113 159.660,197.413 159.000 C 197.714 158.340,198.229 157.125,198.559 156.300 C 199.304 154.437,200.602 154.244,201.242 155.900 " stroke="none" fill="#e994a4" fill-rule="evenodd"></path></g></svg>