<svg id="svg" version="1.1" xmlns="http://www.w3.org/2000/svg" xmlns:xlink="http://www.w3.org/1999/xlink" width="400" height="400" viewBox="0, 0, 400,400"><g id="svgg"><path id="path0" d="M195.498 2.034 C 193.245 2.565,190.755 3.891,176.400 12.199 C 173.430 13.917,169.830 15.988,168.400 16.800 C 166.970 17.612,161.840 20.580,157.000 23.396 C 152.160 26.211,143.970 30.942,138.800 33.908 C 129.718 39.118,119.492 45.033,99.200 56.812 C 96.450 58.408,92.130 60.890,89.600 62.327 C 87.070 63.764,81.760 66.818,77.800 69.114 C 73.840 71.409,68.710 74.379,66.400 75.712 C 64.090 77.045,60.760 78.979,59.000 80.010 C 57.240 81.040,51.300 84.453,45.800 87.593 C 30.540 96.306,29.608 97.007,27.152 101.614 L 26.200 103.400 26.200 199.000 L 26.200 294.600 27.298 296.835 C 29.170 300.647,31.467 302.562,39.971 307.400 C 46.946 311.368,49.804 313.004,56.200 316.691 C 57.300 317.325,60.540 319.205,63.400 320.869 C 66.260 322.533,71.570 325.602,75.200 327.688 C 78.830 329.774,84.230 332.890,87.200 334.613 C 90.170 336.337,94.400 338.769,96.600 340.019 C 98.800 341.268,103.930 344.235,108.000 346.611 C 114.963 350.676,118.201 352.544,135.000 362.186 C 138.740 364.333,141.980 366.229,142.200 366.400 C 142.420 366.571,144.040 367.509,145.800 368.485 C 147.560 369.460,150.800 371.304,153.000 372.583 C 155.200 373.862,161.140 377.295,166.200 380.213 C 171.260 383.130,177.470 386.733,180.000 388.219 C 182.530 389.705,185.950 391.666,187.600 392.577 C 189.250 393.488,191.050 394.527,191.600 394.887 C 194.412 396.726,200.095 397.190,203.871 395.889 C 205.369 395.373,215.387 389.758,230.400 381.018 C 234.470 378.649,240.770 375.001,244.400 372.911 C 248.030 370.821,252.620 368.169,254.600 367.017 C 256.580 365.865,259.460 364.202,261.000 363.321 C 262.540 362.441,266.230 360.316,269.200 358.600 C 272.170 356.884,275.860 354.762,277.400 353.885 C 278.940 353.008,281.100 351.750,282.200 351.089 C 283.300 350.428,287.800 347.816,292.200 345.283 C 296.600 342.751,302.900 339.120,306.200 337.214 C 309.500 335.309,318.860 329.921,327.000 325.240 C 341.629 316.828,347.696 313.310,351.200 311.208 C 352.190 310.614,355.681 308.614,358.958 306.764 C 365.874 302.859,368.534 300.624,370.433 297.121 L 371.800 294.600 371.800 199.200 L 371.800 103.800 370.685 101.529 C 370.005 100.144,368.665 98.426,367.253 97.129 C 365.081 95.132,363.289 94.000,352.200 87.617 C 349.780 86.225,345.640 83.826,343.000 82.288 C 340.360 80.749,335.500 77.971,332.200 76.114 C 328.900 74.257,325.548 72.314,324.752 71.797 C 323.956 71.281,321.256 69.706,318.752 68.299 C 316.248 66.892,310.240 63.431,305.400 60.608 C 300.560 57.785,294.170 54.089,291.200 52.394 C 282.561 47.464,274.127 42.612,269.600 39.968 C 261.808 35.416,253.427 30.570,248.800 27.941 C 246.270 26.504,240.870 23.389,236.800 21.019 C 232.730 18.650,228.230 16.070,226.800 15.288 C 225.370 14.505,223.480 13.414,222.600 12.864 C 207.033 3.128,201.032 0.730,195.498 2.034 M260.719 140.613 C 265.273 143.149,269.405 145.679,269.900 146.235 L 270.800 147.245 270.791 187.522 C 270.783 225.067,270.735 227.860,270.091 228.688 C 269.127 229.928,241.219 245.999,240.031 246.000 C 239.497 246.000,234.187 243.182,228.231 239.737 C 222.274 236.292,215.798 232.557,213.840 231.437 C 208.833 228.571,209.143 230.010,209.283 210.338 L 209.400 193.930 210.413 193.059 C 212.936 190.889,238.745 176.400,240.065 176.412 C 240.933 176.420,242.713 177.178,245.154 178.579 C 249.555 181.105,249.994 181.076,250.016 178.257 C 250.025 177.126,250.070 167.328,250.116 156.486 C 250.205 135.708,250.176 136.027,251.919 136.006 C 252.204 136.003,256.164 138.076,260.719 140.613 M83.600 179.134 C 100.730 188.888,105.459 191.688,106.100 192.453 C 106.990 193.515,107.201 237.039,106.320 237.920 C 105.427 238.813,104.455 238.409,96.319 233.767 C 85.323 227.491,86.401 229.369,86.394 216.478 C 86.387 203.724,86.670 204.572,81.397 201.527 C 76.458 198.675,76.031 198.665,71.447 201.285 C 65.499 204.686,66.000 203.318,66.000 216.160 C 66.000 229.418,67.093 227.473,56.102 233.765 C 48.012 238.395,46.982 238.822,46.080 237.920 C 45.199 237.039,45.410 193.512,46.300 192.467 C 46.967 191.683,49.287 190.302,67.159 180.050 C 76.688 174.584,75.705 174.639,83.600 179.134 M326.284 177.922 C 354.703 194.179,352.093 192.083,352.026 198.600 C 351.959 205.078,352.719 204.161,342.487 210.100 C 331.216 216.642,331.600 216.658,331.600 209.648 C 331.600 204.484,331.817 204.808,326.260 201.659 C 321.028 198.694,321.838 198.712,316.988 201.456 C 310.865 204.920,311.200 204.387,311.200 210.654 C 311.200 217.186,309.468 215.526,326.364 225.189 C 339.840 232.897,340.630 233.446,340.196 234.814 C 339.924 235.671,322.915 245.200,321.658 245.200 C 320.514 245.200,319.630 244.740,307.080 237.608 C 294.089 230.225,291.935 228.860,291.294 227.600 C 290.326 225.699,290.790 193.828,291.800 192.833 C 292.805 191.843,319.442 176.382,320.800 176.001 C 322.022 175.657,322.806 175.932,326.284 177.922 M165.218 179.171 C 167.958 180.777,171.190 182.674,172.400 183.387 C 173.610 184.101,176.940 185.996,179.800 187.598 C 186.120 191.140,187.933 192.327,188.424 193.245 C 189.253 194.794,188.889 226.979,188.030 228.072 C 187.256 229.056,186.376 229.601,174.600 236.404 C 171.080 238.437,166.580 241.045,164.600 242.200 C 159.658 245.083,159.405 245.200,158.126 245.198 C 157.419 245.196,153.803 243.357,148.400 240.249 C 143.670 237.529,137.222 233.818,134.072 232.004 C 130.057 229.691,128.233 228.412,127.972 227.726 C 127.764 227.180,127.600 219.409,127.600 210.143 L 127.600 193.538 128.700 192.449 C 129.305 191.850,131.420 190.480,133.400 189.405 C 135.380 188.331,138.835 186.360,141.077 185.026 C 143.319 183.691,146.896 181.610,149.026 180.400 C 151.155 179.190,153.640 177.708,154.549 177.107 C 157.310 175.280,159.201 175.646,165.218 179.171 M154.400 199.835 C 152.970 200.630,150.855 201.902,149.700 202.662 L 147.600 204.043 147.600 209.240 C 147.600 215.441,147.432 215.173,153.321 218.357 C 157.856 220.809,157.606 220.819,162.600 217.985 C 167.707 215.087,167.600 215.272,167.600 209.333 L 167.600 204.355 166.311 203.177 C 165.602 202.530,164.868 202.000,164.681 202.000 C 164.493 202.000,163.127 201.292,161.646 200.427 C 157.796 198.178,157.433 198.149,154.400 199.835 M235.006 202.194 C 229.370 205.498,229.600 205.115,229.600 211.200 C 229.600 217.219,229.316 216.754,234.940 219.941 C 240.266 222.959,239.755 222.970,245.368 219.708 L 250.000 217.015 250.000 211.123 L 250.000 205.231 245.226 202.415 C 239.487 199.031,240.369 199.050,235.006 202.194 M324.284 205.432 C 327.375 207.161,327.794 207.999,327.331 211.530 L 327.000 214.059 324.291 215.530 L 321.581 217.000 318.891 215.546 L 316.200 214.091 316.200 210.567 L 316.200 207.043 318.800 205.529 C 321.931 203.707,321.221 203.719,324.284 205.432 " stroke="none" fill="#93c33d" fill-rule="evenodd"></path><path id="path1" d="M0.000 200.000 L 0.000 400.000 200.000 400.000 L 400.000 400.000 400.000 200.000 L 400.000 0.000 200.000 0.000 L 0.000 0.000 0.000 200.000 M202.927 2.198 C 204.882 2.707,215.984 8.726,222.600 12.864 C 223.480 13.414,225.370 14.505,226.800 15.288 C 228.230 16.070,232.730 18.650,236.800 21.019 C 240.870 23.389,246.270 26.504,248.800 27.941 C 253.427 30.570,261.808 35.416,269.600 39.968 C 274.127 42.612,282.561 47.464,291.200 52.394 C 294.170 54.089,300.560 57.785,305.400 60.608 C 310.240 63.431,316.248 66.892,318.752 68.299 C 321.256 69.706,323.956 71.281,324.752 71.797 C 325.548 72.314,328.900 74.257,332.200 76.114 C 335.500 77.971,340.360 80.749,343.000 82.288 C 345.640 83.826,349.780 86.225,352.200 87.617 C 363.289 94.000,365.081 95.132,367.253 97.129 C 368.665 98.426,370.005 100.144,370.685 101.529 L 371.800 103.800 371.800 199.200 L 371.800 294.600 370.433 297.121 C 368.534 300.624,365.874 302.859,358.958 306.764 C 355.681 308.614,352.190 310.614,351.200 311.208 C 347.696 313.310,341.629 316.828,327.000 325.240 C 318.860 329.921,309.500 335.309,306.200 337.214 C 302.900 339.120,296.600 342.751,292.200 345.283 C 287.800 347.816,283.300 350.428,282.200 351.089 C 281.100 351.750,278.940 353.008,277.400 353.885 C 275.860 354.762,272.170 356.884,269.200 358.600 C 266.230 360.316,262.540 362.441,261.000 363.321 C 259.460 364.202,256.580 365.865,254.600 367.017 C 252.620 368.169,248.030 370.821,244.400 372.911 C 240.770 375.001,234.470 378.649,230.400 381.018 C 215.387 389.758,205.369 395.373,203.871 395.889 C 200.095 397.190,194.412 396.726,191.600 394.887 C 191.050 394.527,189.250 393.488,187.600 392.577 C 185.950 391.666,182.530 389.705,180.000 388.219 C 177.470 386.733,171.260 383.130,166.200 380.213 C 161.140 377.295,155.200 373.862,153.000 372.583 C 150.800 371.304,147.560 369.460,145.800 368.485 C 144.040 367.509,142.420 366.571,142.200 366.400 C 141.980 366.229,138.740 364.333,135.000 362.186 C 118.201 352.544,114.963 350.676,108.000 346.611 C 103.930 344.235,98.800 341.268,96.600 340.019 C 94.400 338.769,90.170 336.337,87.200 334.613 C 84.230 332.890,78.830 329.774,75.200 327.688 C 71.570 325.602,66.260 322.533,63.400 320.869 C 60.540 319.205,57.300 317.325,56.200 316.691 C 49.804 313.004,46.946 311.368,39.971 307.400 C 31.467 302.562,29.170 300.647,27.298 296.835 L 26.200 294.600 26.200 199.000 L 26.200 103.400 27.152 101.614 C 29.608 97.007,30.540 96.306,45.800 87.593 C 51.300 84.453,57.240 81.040,59.000 80.010 C 60.760 78.979,64.090 77.045,66.400 75.712 C 68.710 74.379,73.840 71.409,77.800 69.114 C 81.760 66.818,87.070 63.764,89.600 62.327 C 92.130 60.890,96.450 58.408,99.200 56.812 C 119.492 45.033,129.718 39.118,138.800 33.908 C 143.970 30.942,152.160 26.211,157.000 23.396 C 161.840 20.580,166.970 17.612,168.400 16.800 C 169.830 15.988,173.430 13.917,176.400 12.199 C 195.945 0.887,196.741 0.587,202.927 2.198 M154.549 177.107 C 153.640 177.708,151.155 179.190,149.026 180.400 C 146.896 181.610,143.319 183.691,141.077 185.026 C 138.835 186.360,135.380 188.331,133.400 189.405 C 131.420 190.480,129.305 191.850,128.700 192.449 L 127.600 193.538 127.600 210.143 C 127.600 219.409,127.764 227.180,127.972 227.726 C 128.233 228.412,130.057 229.691,134.072 232.004 C 159.184 246.468,157.956 245.867,160.126 244.750 C 160.607 244.503,162.620 243.355,164.600 242.200 C 166.580 241.045,171.080 238.437,174.600 236.404 C 186.376 229.601,187.256 229.056,188.030 228.072 C 188.889 226.979,189.253 194.794,188.424 193.245 C 187.933 192.327,186.120 191.140,179.800 187.598 C 176.940 185.996,173.610 184.101,172.400 183.387 C 158.347 175.102,157.846 174.925,154.549 177.107 M161.646 200.427 C 163.127 201.292,164.493 202.000,164.681 202.000 C 164.868 202.000,165.602 202.530,166.311 203.177 L 167.600 204.355 167.600 209.333 C 167.600 215.272,167.707 215.087,162.600 217.985 C 157.606 220.819,157.856 220.809,153.321 218.357 C 147.432 215.173,147.600 215.441,147.600 209.240 L 147.600 204.043 149.700 202.662 C 156.789 197.999,157.319 197.900,161.646 200.427 " stroke="none" fill="#fbfbfb" fill-rule="evenodd"></path><path id="path2" d="M250.800 136.392 C 250.282 136.719,250.189 139.459,250.116 156.486 C 250.070 167.328,250.025 177.126,250.016 178.257 C 249.994 181.076,249.555 181.105,245.154 178.579 C 242.713 177.178,240.933 176.420,240.065 176.412 C 238.745 176.400,212.936 190.889,210.413 193.059 L 209.400 193.930 209.283 210.338 C 209.143 230.010,208.833 228.571,213.840 231.437 C 215.798 232.557,222.274 236.292,228.231 239.737 C 234.187 243.182,239.497 246.000,240.031 246.000 C 241.219 245.999,269.127 229.928,270.091 228.688 C 270.735 227.860,270.783 225.067,270.791 187.522 L 270.800 147.245 269.900 146.235 C 268.956 145.176,252.818 135.996,251.919 136.006 C 251.633 136.009,251.130 136.183,250.800 136.392 M67.159 180.050 C 49.287 190.302,46.967 191.683,46.300 192.467 C 45.410 193.512,45.199 237.039,46.080 237.920 C 46.982 238.822,48.012 238.395,56.102 233.765 C 67.093 227.473,66.000 229.418,66.000 216.160 C 66.000 203.318,65.499 204.686,71.447 201.285 C 76.031 198.665,76.458 198.675,81.397 201.527 C 86.670 204.572,86.387 203.724,86.394 216.478 C 86.401 229.369,85.323 227.491,96.319 233.767 C 104.455 238.409,105.427 238.813,106.320 237.920 C 107.201 237.039,106.990 193.515,106.100 192.453 C 105.459 191.688,100.730 188.888,83.600 179.134 C 75.705 174.639,76.688 174.584,67.159 180.050 M320.800 176.001 C 319.442 176.382,292.805 191.843,291.800 192.833 C 290.790 193.828,290.326 225.699,291.294 227.600 C 291.935 228.860,294.089 230.225,307.080 237.608 C 319.630 244.740,320.514 245.200,321.658 245.200 C 322.915 245.200,339.924 235.671,340.196 234.814 C 340.630 233.446,339.840 232.897,326.364 225.189 C 309.468 215.526,311.200 217.186,311.200 210.654 C 311.200 204.387,310.865 204.920,316.988 201.456 C 321.838 198.712,321.028 198.694,326.260 201.659 C 331.817 204.808,331.600 204.484,331.600 209.648 C 331.600 216.658,331.216 216.642,342.487 210.100 C 352.719 204.161,351.959 205.078,352.026 198.600 C 352.091 192.285,353.214 193.460,339.600 185.597 C 321.005 174.858,322.376 175.558,320.800 176.001 M245.226 202.415 L 250.000 205.231 250.000 211.123 L 250.000 217.015 245.368 219.708 C 239.755 222.970,240.266 222.959,234.940 219.941 C 229.316 216.754,229.600 217.219,229.600 211.200 C 229.600 205.115,229.370 205.498,235.006 202.194 C 240.369 199.050,239.487 199.031,245.226 202.415 M318.800 205.529 L 316.200 207.043 316.200 210.567 L 316.200 214.091 318.891 215.546 L 321.581 217.000 324.291 215.530 L 327.000 214.059 327.331 211.530 C 327.794 207.999,327.375 207.161,324.284 205.432 C 321.221 203.719,321.931 203.707,318.800 205.529 " stroke="none" fill="#434a39" fill-rule="evenodd"></path></g></svg>