<svg id="svg" version="1.1" xmlns="http://www.w3.org/2000/svg" xmlns:xlink="http://www.w3.org/1999/xlink" width="400" height="400" viewBox="0, 0, 400,400"><g id="svgg"><path id="path0" d="M241.645 57.480 C 241.094 60.537,241.223 340.767,241.777 343.848 C 242.055 345.392,242.152 345.489,243.311 345.391 C 244.545 345.286,245.763 344.188,245.364 343.541 C 245.248 343.353,246.027 343.200,247.096 343.200 C 249.135 343.200,250.082 342.678,249.726 341.751 C 249.526 341.231,250.441 341.053,253.284 341.059 C 253.706 341.059,254.060 340.636,254.211 339.951 C 254.428 338.960,254.650 338.829,256.286 338.721 C 257.958 338.611,258.491 338.257,259.045 336.888 C 259.070 336.826,259.650 336.705,260.334 336.618 C 262.457 336.350,263.200 335.975,263.200 335.173 C 263.200 334.626,263.478 334.400,264.150 334.400 C 265.619 334.400,267.606 333.933,267.420 333.632 C 267.047 333.028,267.913 332.428,269.393 332.265 C 270.472 332.146,271.222 331.766,271.796 331.046 C 272.355 330.345,273.021 329.998,273.815 329.995 C 276.026 329.984,276.694 329.628,276.492 328.569 C 276.319 327.664,276.422 327.600,278.053 327.594 C 279.985 327.587,280.533 327.340,280.917 326.300 C 281.059 325.915,281.586 325.586,282.087 325.569 C 284.296 325.495,285.942 324.477,285.364 323.541 C 285.248 323.353,286.027 323.200,287.096 323.200 C 289.135 323.200,290.082 322.678,289.726 321.751 C 289.526 321.231,290.441 321.053,293.284 321.059 C 293.706 321.059,294.060 320.636,294.211 319.951 C 294.428 318.960,294.650 318.829,296.286 318.721 C 298.820 318.554,299.054 318.037,298.446 313.943 C 297.889 310.189,298.030 87.926,298.592 84.228 C 298.948 81.886,298.351 81.200,295.955 81.200 C 294.618 81.200,294.436 81.074,294.196 79.981 C 294.019 79.175,293.703 78.784,293.264 78.827 C 290.791 79.070,289.510 78.787,289.705 78.040 C 289.916 77.234,288.751 76.800,286.378 76.800 C 285.519 76.800,285.226 76.589,285.128 75.901 C 285.025 75.180,284.612 74.921,283.028 74.586 C 281.944 74.357,280.972 73.906,280.868 73.585 C 280.576 72.677,279.945 72.413,278.057 72.406 C 276.726 72.401,276.365 72.267,276.530 71.838 C 276.862 70.973,275.574 70.073,273.800 69.930 C 272.577 69.831,272.213 69.638,272.254 69.112 C 272.319 68.272,270.950 67.760,268.300 67.633 C 267.915 67.615,267.600 67.326,267.600 66.990 C 267.600 66.281,266.042 65.600,264.421 65.600 C 263.404 65.600,262.626 64.654,262.739 63.554 C 262.752 63.419,262.277 63.304,261.682 63.298 C 259.209 63.272,258.800 63.175,258.800 62.614 C 258.800 61.810,257.531 61.200,255.858 61.200 C 254.629 61.200,254.432 61.055,254.196 59.981 C 254.019 59.175,253.703 58.784,253.264 58.827 C 250.791 59.070,249.510 58.787,249.705 58.040 C 249.916 57.234,248.751 56.800,246.378 56.800 C 245.519 56.800,245.226 56.589,245.128 55.900 C 245.026 55.186,244.704 54.975,243.568 54.880 L 242.136 54.760 241.645 57.480 " stroke="none" fill="#5494cc" fill-rule="evenodd"></path><path id="path1" d="M160.095 54.733 C 159.573 55.064,159.298 344.387,159.819 345.230 C 159.956 345.453,176.388 345.600,201.066 345.600 L 242.084 345.600 241.782 343.900 C 241.225 340.756,241.090 60.555,241.645 57.480 L 242.136 54.760 243.552 54.880 C 244.673 54.975,245.026 55.209,245.244 56.000 C 245.475 56.837,245.527 56.866,245.560 56.180 C 245.582 55.729,245.384 55.144,245.120 54.880 C 244.561 54.321,160.971 54.176,160.095 54.733 M283.985 74.754 C 284.560 74.915,285.085 75.440,285.246 76.015 C 285.479 76.852,285.526 76.877,285.560 76.180 C 285.611 75.132,284.868 74.389,283.820 74.440 C 283.123 74.474,283.148 74.521,283.985 74.754 M298.576 84.728 C 298.408 85.538,298.201 136.780,298.115 198.600 C 297.952 315.688,297.968 316.925,299.555 316.678 C 300.532 316.525,301.240 315.988,300.992 315.587 C 300.690 315.098,302.332 313.511,302.825 313.815 C 303.042 313.950,303.194 313.911,303.163 313.730 C 303.005 312.822,303.245 311.981,303.600 312.200 C 303.820 312.336,304.000 312.246,304.000 312.000 C 304.000 311.754,304.135 311.635,304.300 311.734 C 304.465 311.834,304.832 311.665,305.116 311.358 C 305.399 311.051,305.512 310.800,305.367 310.800 C 305.221 310.800,305.303 310.558,305.548 310.263 C 305.793 309.968,305.860 309.593,305.697 309.430 C 305.533 309.267,305.655 309.193,305.967 309.267 C 306.279 309.340,306.774 308.950,307.067 308.400 C 307.359 307.850,307.768 307.441,307.975 307.492 C 308.182 307.542,308.466 307.222,308.607 306.779 C 308.747 306.336,309.298 305.538,309.831 305.005 C 310.364 304.472,310.800 303.848,310.800 303.618 C 310.800 303.388,311.070 303.200,311.400 303.200 C 311.730 303.200,312.021 302.975,312.046 302.700 C 312.072 302.425,312.117 301.931,312.146 301.602 C 312.176 301.272,312.470 300.985,312.800 300.962 C 314.110 300.874,314.398 300.788,314.353 300.500 C 314.207 299.580,314.464 298.800,314.911 298.800 C 315.545 298.800,316.699 297.498,316.526 296.979 C 316.456 296.768,316.939 296.357,317.599 296.064 C 318.331 295.741,318.800 295.234,318.800 294.766 C 318.800 294.345,319.019 294.045,319.287 294.100 C 319.554 294.155,320.094 293.570,320.486 292.800 C 320.878 292.030,321.200 291.580,321.202 291.800 C 321.204 292.020,321.533 291.704,321.933 291.097 C 322.333 290.490,322.782 290.115,322.930 290.263 C 323.079 290.412,323.200 289.927,323.200 289.187 C 323.200 288.139,323.307 287.947,323.680 288.320 C 323.944 288.584,324.349 288.797,324.580 288.794 C 324.811 288.791,324.730 288.616,324.400 288.405 C 323.891 288.080,323.936 287.927,324.700 287.389 C 325.195 287.040,325.600 286.495,325.600 286.177 C 325.600 285.644,326.020 285.456,326.664 285.700 C 326.810 285.755,327.145 285.170,327.410 284.400 C 327.748 283.416,328.113 283.021,328.640 283.071 C 329.981 283.199,329.983 283.065,329.991 199.933 L 329.998 117.666 328.799 117.135 C 328.140 116.844,327.600 116.392,327.600 116.131 C 327.600 115.455,326.405 114.349,325.968 114.620 C 325.765 114.745,325.600 114.504,325.600 114.086 C 325.600 113.667,325.244 113.002,324.809 112.609 C 324.375 112.215,324.114 111.739,324.230 111.551 C 324.346 111.363,324.162 111.316,323.821 111.447 C 323.412 111.604,323.200 111.457,323.200 111.014 C 323.200 110.645,322.928 110.071,322.596 109.739 C 322.264 109.407,322.095 108.970,322.220 108.768 C 322.345 108.565,322.077 108.400,321.624 108.400 C 321.158 108.400,320.800 108.139,320.800 107.800 C 320.800 107.470,320.609 107.200,320.376 107.200 C 320.143 107.200,320.072 107.008,320.217 106.773 C 320.362 106.538,320.103 106.247,319.640 106.126 C 319.178 106.006,318.800 105.649,318.800 105.335 C 318.800 105.020,318.290 104.470,317.667 104.113 C 317.044 103.755,316.309 102.953,316.034 102.331 C 315.758 101.709,315.292 101.200,314.998 101.200 C 314.704 101.200,314.347 100.671,314.205 100.024 C 314.030 99.228,313.665 98.806,313.074 98.715 C 312.593 98.641,312.251 98.341,312.314 98.048 C 312.460 97.366,311.620 96.340,311.152 96.630 C 310.955 96.751,310.674 96.524,310.526 96.125 C 310.379 95.726,310.098 95.292,309.903 95.160 C 309.707 95.028,309.509 94.668,309.462 94.360 C 309.311 93.363,308.788 92.830,308.187 93.060 C 307.821 93.201,307.600 93.044,307.600 92.643 C 307.600 92.289,307.375 91.997,307.100 91.994 C 306.756 91.990,306.780 91.874,307.179 91.621 C 307.633 91.334,307.526 91.197,306.682 90.985 C 306.090 90.836,305.705 90.554,305.826 90.357 C 305.948 90.161,305.876 90.000,305.667 90.000 C 305.458 90.000,305.174 89.550,305.036 89.000 C 304.875 88.358,304.503 88.000,304.000 88.000 C 303.497 88.000,303.125 87.642,302.964 87.000 C 302.826 86.450,302.454 86.000,302.136 86.000 C 301.819 86.000,301.312 85.409,301.011 84.687 C 300.218 82.789,298.973 82.810,298.576 84.728 " stroke="none" fill="#2c74bc" fill-rule="evenodd"></path><path id="path2" d="M154.667 54.667 C 154.520 54.813,154.418 55.398,154.440 55.967 L 154.480 57.000 154.754 56.015 C 154.915 55.440,155.440 54.915,156.015 54.754 L 157.000 54.480 155.967 54.440 C 155.398 54.418,154.813 54.520,154.667 54.667 M128.229 68.229 C 127.883 68.574,127.605 69.069,127.612 69.329 C 127.619 69.588,127.805 69.491,128.025 69.113 C 128.245 68.735,128.735 68.245,129.113 68.025 C 129.491 67.805,129.588 67.619,129.329 67.612 C 129.069 67.605,128.574 67.883,128.229 68.229 M114.667 74.667 C 114.520 74.813,114.418 75.398,114.440 75.967 L 114.480 77.000 114.754 76.015 C 114.915 75.440,115.440 74.915,116.015 74.754 L 117.000 74.480 115.967 74.440 C 115.398 74.418,114.813 74.520,114.667 74.667 M100.300 83.265 C 99.695 83.486,99.178 83.832,99.150 84.033 C 99.123 84.235,99.078 84.625,99.050 84.900 C 99.023 85.175,98.505 85.457,97.900 85.527 C 97.047 85.625,96.800 85.865,96.800 86.595 C 96.800 87.316,96.519 87.598,95.600 87.800 C 94.670 88.004,94.400 88.281,94.400 89.032 C 94.400 89.798,94.191 90.000,93.400 90.000 C 92.556 90.000,92.400 90.187,92.400 91.200 C 92.400 92.267,92.267 92.400,91.200 92.400 C 90.201 92.400,90.000 92.560,90.000 93.357 C 90.000 94.043,89.718 94.384,89.000 94.564 C 88.004 94.814,87.852 95.266,87.878 97.900 C 87.886 98.724,87.200 99.053,85.900 98.847 C 85.735 98.821,85.600 99.340,85.600 100.000 C 85.600 101.072,85.469 101.200,84.376 101.200 C 83.680 101.200,83.257 101.369,83.395 101.592 C 83.786 102.224,82.819 103.636,82.079 103.513 C 81.606 103.434,81.363 103.720,81.278 104.454 C 81.184 105.266,80.878 105.564,79.952 105.750 C 78.984 105.943,78.773 106.168,78.874 106.895 C 78.975 107.623,78.785 107.825,77.900 107.927 C 76.982 108.032,76.800 108.245,76.800 109.214 C 76.800 110.086,76.649 110.317,76.195 110.143 C 75.148 109.741,74.400 110.785,74.400 112.649 C 74.400 114.250,74.314 114.400,73.400 114.400 C 72.561 114.400,72.400 114.588,72.400 115.573 C 72.400 116.556,72.221 116.767,71.300 116.873 L 70.200 117.000 70.099 200.100 L 69.998 283.200 71.199 283.200 C 72.267 283.200,72.400 283.333,72.400 284.400 C 72.400 285.413,72.556 285.600,73.400 285.600 C 74.312 285.600,74.400 285.752,74.400 287.320 C 74.400 289.163,74.925 290.000,76.080 290.000 C 76.583 290.000,76.800 290.304,76.800 291.010 C 76.800 291.798,77.048 292.070,77.928 292.246 C 78.761 292.412,79.049 292.697,79.028 293.336 C 79.007 293.985,79.267 294.231,80.076 294.324 C 80.902 294.420,81.180 294.694,81.276 295.508 C 81.364 296.258,81.692 296.637,82.399 296.802 C 83.043 296.953,83.398 297.313,83.399 297.818 C 83.400 298.373,83.719 298.637,84.500 298.727 C 85.421 298.833,85.600 299.044,85.600 300.027 C 85.600 301.052,85.745 301.200,86.748 301.200 C 87.575 301.200,87.895 301.395,87.893 301.900 C 87.882 304.784,88.008 305.187,89.000 305.436 C 89.718 305.616,90.000 305.957,90.000 306.643 C 90.000 307.440,90.201 307.600,91.200 307.600 C 92.267 307.600,92.400 307.733,92.400 308.800 C 92.400 309.805,92.559 310.000,93.373 310.000 C 94.138 310.000,94.374 310.236,94.473 311.100 C 94.573 311.964,94.836 312.227,95.700 312.327 C 96.555 312.425,96.800 312.664,96.800 313.400 C 96.800 314.136,97.045 314.375,97.900 314.473 C 98.505 314.543,99.023 314.825,99.050 315.100 C 99.078 315.375,99.123 315.870,99.150 316.200 C 99.295 317.941,101.143 316.799,101.577 314.700 C 101.981 312.749,101.950 86.193,101.546 83.700 C 101.466 83.205,101.400 82.814,101.400 82.832 C 101.400 82.849,100.905 83.044,100.300 83.265 M324.295 110.238 C 324.154 110.380,324.308 110.765,324.638 111.095 C 324.968 111.425,325.354 111.580,325.495 111.438 C 325.637 111.297,325.482 110.911,325.152 110.581 C 324.822 110.251,324.437 110.097,324.295 110.238 M324.400 289.400 C 324.122 289.735,324.079 290.000,324.302 290.000 C 324.522 290.000,324.926 289.730,325.200 289.400 C 325.478 289.065,325.521 288.800,325.298 288.800 C 325.078 288.800,324.674 289.070,324.400 289.400 M101.206 317.900 C 101.203 318.395,101.380 318.800,101.600 318.800 C 102.101 318.800,102.101 318.376,101.600 317.600 C 101.286 317.115,101.211 317.172,101.206 317.900 M114.528 324.197 C 114.579 325.048,114.831 325.433,115.400 325.533 C 116.130 325.660,116.142 325.625,115.534 325.136 C 115.167 324.841,114.775 324.240,114.662 323.800 C 114.542 323.334,114.486 323.499,114.528 324.197 M136.800 335.912 C 136.800 336.456,138.514 336.979,139.283 336.671 C 139.567 336.557,139.341 336.449,138.780 336.432 C 138.219 336.414,137.544 336.184,137.280 335.920 C 136.915 335.555,136.800 335.553,136.800 335.912 M141.206 337.900 C 141.203 338.395,141.380 338.800,141.600 338.800 C 142.101 338.800,142.101 338.376,141.600 337.600 C 141.286 337.115,141.211 337.172,141.206 337.900 M154.528 344.197 C 154.579 345.048,154.831 345.433,155.400 345.533 C 156.130 345.660,156.142 345.625,155.534 345.136 C 155.167 344.841,154.775 344.240,154.662 343.800 C 154.542 343.334,154.486 343.499,154.528 344.197 " stroke="none" fill="#1c446c" fill-rule="evenodd"></path><path id="path3" d="M156.000 54.756 C 155.386 54.926,154.951 55.374,154.872 55.916 C 154.767 56.646,154.470 56.809,153.172 56.850 C 150.669 56.930,150.607 56.954,150.472 57.900 C 150.354 58.731,148.866 59.143,147.079 58.840 C 146.556 58.752,145.529 59.961,145.781 60.369 C 146.112 60.905,145.558 61.152,143.766 61.266 C 142.123 61.370,140.975 62.113,141.398 62.797 C 141.637 63.184,140.410 63.367,138.551 63.222 C 137.780 63.162,137.127 63.927,137.035 65.000 C 137.016 65.220,136.280 65.498,135.400 65.618 C 133.630 65.860,132.310 66.476,132.363 67.036 C 132.382 67.236,131.543 67.580,130.499 67.800 C 129.140 68.086,128.488 68.456,128.205 69.100 C 127.920 69.749,127.447 70.014,126.505 70.050 C 125.787 70.078,125.052 70.123,124.871 70.150 C 124.361 70.228,123.200 71.493,123.200 71.971 C 123.200 72.207,122.615 72.402,121.900 72.405 C 119.838 72.414,118.747 72.829,118.889 73.552 C 118.985 74.042,118.526 74.298,117.008 74.600 C 115.378 74.925,114.976 75.170,114.872 75.900 C 114.766 76.648,114.480 76.808,113.172 76.850 C 110.669 76.930,110.607 76.954,110.472 77.900 C 110.354 78.731,108.866 79.143,107.079 78.840 C 106.556 78.752,105.529 79.961,105.781 80.369 C 106.112 80.905,105.558 81.152,103.766 81.266 C 101.735 81.395,101.216 81.938,101.497 83.636 C 101.949 86.371,102.057 312.091,101.607 314.456 C 100.986 317.715,101.521 318.722,103.955 318.880 C 105.402 318.974,105.777 319.141,105.693 319.654 C 105.546 320.555,106.639 321.025,109.143 321.139 C 110.145 321.185,110.428 321.349,110.260 321.787 C 109.901 322.723,110.651 323.070,113.200 323.150 C 114.507 323.191,114.800 323.344,114.800 323.986 C 114.800 324.616,116.297 325.940,116.700 325.668 C 117.334 325.239,119.136 325.702,118.929 326.240 C 118.592 327.119,119.480 327.587,121.500 327.594 C 122.435 327.597,123.200 327.778,123.200 327.995 C 123.200 329.070,124.634 330.000,126.289 330.000 C 127.713 330.000,128.000 330.129,128.000 330.773 C 128.000 331.518,129.280 332.255,130.255 332.071 C 131.202 331.893,132.882 332.809,132.661 333.384 C 132.497 333.813,132.914 334.020,134.321 334.208 C 136.775 334.537,137.298 334.719,137.030 335.152 C 136.679 335.720,137.658 336.286,139.527 336.594 C 140.793 336.803,141.368 337.130,141.682 337.820 C 142.027 338.578,142.469 338.784,143.955 338.880 C 145.402 338.974,145.777 339.141,145.693 339.654 C 145.546 340.555,146.639 341.025,149.143 341.139 C 150.145 341.185,150.428 341.349,150.260 341.787 C 149.901 342.723,150.651 343.070,153.200 343.150 C 154.507 343.191,154.800 343.344,154.800 343.986 C 154.800 344.418,155.115 344.929,155.500 345.120 C 156.532 345.633,160.141 345.752,159.839 345.263 C 159.305 344.399,159.560 55.073,160.095 54.733 C 160.708 54.343,157.425 54.362,156.000 54.756 M302.075 85.848 C 302.447 85.958,302.842 86.353,302.952 86.725 C 303.099 87.214,303.132 87.181,303.072 86.605 C 303.025 86.138,302.662 85.775,302.195 85.728 C 301.619 85.668,301.586 85.701,302.075 85.848 M304.828 88.300 C 304.938 89.473,305.546 90.126,305.572 89.100 C 305.587 88.495,305.420 88.000,305.200 88.000 C 304.980 88.000,304.813 88.135,304.828 88.300 M306.200 90.800 C 307.301 91.273,307.692 91.273,307.400 90.800 C 307.264 90.580,306.758 90.413,306.276 90.428 C 305.431 90.455,305.429 90.469,306.200 90.800 M307.600 92.843 C 307.600 93.086,307.864 93.184,308.187 93.060 C 308.788 92.830,309.311 93.363,309.462 94.360 C 309.509 94.668,309.707 95.028,309.903 95.160 C 310.098 95.292,310.384 95.741,310.539 96.157 C 310.693 96.574,310.933 96.800,311.073 96.661 C 311.212 96.521,311.597 96.630,311.929 96.903 C 312.454 97.337,312.469 97.284,312.047 96.492 C 311.781 95.992,311.211 95.364,310.782 95.096 C 310.352 94.827,310.000 94.327,310.000 93.984 C 310.000 93.641,309.784 93.144,309.520 92.880 C 308.917 92.277,307.600 92.252,307.600 92.843 M315.600 101.551 C 315.600 101.744,315.856 102.114,316.169 102.374 C 316.635 102.761,316.698 102.698,316.522 102.023 C 316.312 101.219,315.600 100.855,315.600 101.551 M317.400 103.903 C 318.060 104.329,318.664 104.514,318.742 104.314 C 318.936 103.814,318.778 103.705,317.399 103.396 L 316.200 103.127 317.400 103.903 M320.800 108.037 C 320.800 108.237,321.160 108.400,321.600 108.400 C 322.040 108.400,322.379 108.535,322.353 108.700 C 322.240 109.412,322.427 110.000,322.765 110.000 C 323.168 110.000,323.132 109.247,322.695 108.548 C 322.334 107.971,320.800 107.558,320.800 108.037 M323.200 111.043 C 323.200 111.459,323.418 111.602,323.821 111.447 C 324.162 111.316,324.346 111.363,324.230 111.551 C 324.114 111.739,324.375 112.215,324.809 112.609 C 325.702 113.416,325.817 113.160,325.140 111.874 C 324.369 110.409,323.200 109.908,323.200 111.043 M324.601 287.448 C 323.918 287.948,323.889 288.086,324.402 288.410 C 324.731 288.618,324.811 288.791,324.580 288.794 C 324.349 288.797,323.944 288.584,323.680 288.320 C 323.307 287.947,323.200 288.028,323.200 288.685 C 323.200 289.893,324.470 289.599,325.136 288.236 C 325.792 286.896,325.647 286.684,324.601 287.448 M322.062 290.849 C 321.392 291.922,321.821 292.350,322.692 291.479 C 323.133 291.038,323.230 290.670,322.973 290.413 C 322.716 290.156,322.401 290.306,322.062 290.849 M320.081 293.618 C 319.772 294.113,319.746 294.400,320.009 294.400 C 320.238 294.400,320.532 294.122,320.662 293.783 C 321.022 292.845,320.633 292.734,320.081 293.618 M317.867 295.867 C 317.381 296.353,317.590 296.779,318.200 296.545 C 318.530 296.418,318.800 296.154,318.800 295.957 C 318.800 295.538,318.249 295.484,317.867 295.867 M312.000 302.800 C 312.000 303.020,311.730 303.200,311.400 303.200 C 311.070 303.200,310.800 303.388,310.800 303.618 C 310.800 303.848,310.376 304.460,309.858 304.978 C 308.716 306.120,308.301 307.092,308.818 307.411 C 309.029 307.542,309.365 307.217,309.566 306.690 C 309.766 306.163,310.486 305.176,311.165 304.496 C 312.265 303.397,312.757 302.400,312.200 302.400 C 312.090 302.400,312.000 302.580,312.000 302.800 M307.095 308.300 C 306.793 308.905,306.289 309.342,305.973 309.271 C 305.524 309.171,305.505 309.249,305.883 309.634 C 306.521 310.284,307.439 309.552,307.700 308.188 C 307.945 306.907,307.774 306.939,307.095 308.300 M304.800 311.624 C 304.800 311.857,304.620 311.936,304.400 311.800 C 304.180 311.664,304.000 311.743,304.000 311.976 C 304.000 312.467,304.107 312.487,304.967 312.157 C 305.665 311.889,305.833 311.200,305.200 311.200 C 304.980 311.200,304.800 311.391,304.800 311.624 " stroke="none" fill="#245c9c" fill-rule="evenodd"></path><path id="path4" d="" stroke="none" fill="#4050b0" fill-rule="evenodd"></path></g></svg>