<svg id="svg" version="1.1" xmlns="http://www.w3.org/2000/svg" xmlns:xlink="http://www.w3.org/1999/xlink" width="400" height="400" viewBox="0, 0, 400,400"><g id="svgg"><path id="path0" d="M101.299 221.130 C 100.900 221.384,100.818 236.948,100.899 297.624 L 101.000 373.800 120.000 373.800 L 139.000 373.800 139.200 352.600 L 139.400 331.400 154.524 331.295 C 166.715 331.211,169.751 331.294,170.182 331.725 C 170.476 332.019,171.693 334.136,172.888 336.429 C 175.643 341.721,176.040 342.412,176.920 343.447 C 178.322 345.097,181.976 352.874,181.994 354.247 C 181.997 354.493,182.767 355.843,183.705 357.247 C 184.643 358.651,186.274 361.522,187.329 363.626 C 188.384 365.730,189.669 367.943,190.185 368.543 C 190.701 369.144,191.604 370.617,192.191 371.818 L 193.259 374.000 214.629 374.000 C 231.620 374.000,236.000 373.896,236.000 373.493 C 236.000 372.917,234.326 370.295,233.004 368.800 C 232.518 368.250,231.839 367.080,231.496 366.200 C 230.363 363.294,226.784 357.656,225.040 356.030 C 224.468 355.497,224.000 354.837,224.000 354.564 C 224.000 354.290,223.859 354.007,223.687 353.933 C 223.127 353.695,218.909 346.642,218.433 345.148 C 218.178 344.350,217.622 343.382,217.198 342.998 C 216.773 342.614,215.122 340.207,213.528 337.650 C 211.935 335.092,210.287 332.640,209.867 332.200 C 208.502 330.772,206.800 328.294,206.800 327.736 C 206.800 327.436,206.413 326.369,205.941 325.364 L 205.082 323.536 206.129 322.490 C 207.190 321.428,209.934 319.713,212.300 318.634 C 214.916 317.440,217.379 315.296,218.573 313.174 C 219.355 311.783,220.411 310.391,223.514 306.661 C 225.986 303.689,226.000 303.670,226.000 303.254 C 226.000 303.045,226.430 302.002,226.955 300.937 C 228.432 297.942,229.200 296.123,229.200 295.620 C 229.200 295.368,229.573 294.405,230.030 293.481 C 232.585 288.305,232.555 261.807,229.988 256.231 C 229.575 255.334,228.854 253.610,228.385 252.400 C 227.111 249.110,224.851 245.158,223.446 243.763 C 221.584 241.914,219.001 238.743,218.363 237.522 C 217.476 235.825,212.597 232.172,210.219 231.424 C 209.058 231.058,207.768 230.444,207.354 230.060 C 205.925 228.733,201.630 226.788,197.000 225.371 C 195.680 224.966,194.429 224.493,194.220 224.318 C 194.011 224.143,193.372 224.000,192.800 224.000 C 192.228 224.000,191.589 223.832,191.380 223.627 C 190.664 222.923,182.415 221.814,173.600 221.236 C 166.578 220.775,102.007 220.681,101.299 221.130 M259.299 221.130 C 258.900 221.384,258.818 236.948,258.899 297.624 L 259.000 373.800 320.000 373.800 L 381.000 373.800 381.112 359.600 C 381.173 351.790,381.125 344.996,381.004 344.502 L 380.786 343.604 339.093 343.502 L 297.400 343.400 297.295 328.100 C 297.238 319.685,297.238 312.757,297.295 312.705 C 297.353 312.653,313.690 312.518,333.600 312.405 L 369.800 312.200 369.905 297.102 L 370.010 282.004 333.705 281.902 L 297.400 281.800 297.295 266.900 L 297.190 252.000 337.315 252.000 C 367.990 252.000,377.553 251.887,377.920 251.520 C 378.743 250.697,378.596 221.361,377.767 221.043 C 376.813 220.677,259.877 220.763,259.299 221.130 M178.000 252.758 C 179.430 253.149,182.171 254.219,184.091 255.135 C 186.012 256.051,187.737 256.800,187.926 256.800 C 189.800 256.800,193.982 263.980,193.996 267.220 C 193.998 267.781,194.196 268.436,194.436 268.676 C 195.093 269.333,195.375 278.204,194.821 280.800 C 194.563 282.010,194.264 283.540,194.157 284.200 C 193.305 289.438,190.648 294.000,188.450 294.000 C 188.239 294.000,188.007 294.138,187.933 294.307 C 187.792 294.632,184.783 296.584,182.342 297.933 C 178.386 300.120,175.418 300.432,156.471 300.658 C 144.389 300.801,140.198 300.731,139.771 300.376 C 139.166 299.874,138.869 252.864,139.467 252.267 C 140.153 251.580,175.336 252.029,178.000 252.758 " stroke="none" fill="#fbfbfb" fill-rule="evenodd"></path><path id="path1" d="M0.000 200.000 L 0.000 400.000 200.000 400.000 L 400.000 400.000 400.000 200.000 L 400.000 0.000 200.000 0.000 L 0.000 0.000 0.000 200.000 M173.600 221.236 C 182.415 221.814,190.664 222.923,191.380 223.627 C 191.589 223.832,192.228 224.000,192.800 224.000 C 193.372 224.000,194.011 224.143,194.220 224.318 C 194.429 224.493,195.680 224.966,197.000 225.371 C 201.630 226.788,205.925 228.733,207.354 230.060 C 207.768 230.444,209.058 231.058,210.219 231.424 C 212.597 232.172,217.476 235.825,218.363 237.522 C 219.001 238.743,221.584 241.914,223.446 243.763 C 224.851 245.158,227.111 249.110,228.385 252.400 C 228.854 253.610,229.575 255.334,229.988 256.231 C 232.555 261.807,232.585 288.305,230.030 293.481 C 229.573 294.405,229.200 295.368,229.200 295.620 C 229.200 296.123,228.432 297.942,226.955 300.937 C 226.430 302.002,226.000 303.045,226.000 303.254 C 226.000 303.670,225.986 303.689,223.514 306.661 C 220.411 310.391,219.355 311.783,218.573 313.174 C 217.379 315.296,214.916 317.440,212.300 318.634 C 209.934 319.713,207.190 321.428,206.129 322.490 L 205.082 323.536 205.941 325.364 C 206.413 326.369,206.800 327.436,206.800 327.736 C 206.800 328.294,208.502 330.772,209.867 332.200 C 210.287 332.640,211.935 335.092,213.528 337.650 C 215.122 340.207,216.773 342.614,217.198 342.998 C 217.622 343.382,218.178 344.350,218.433 345.148 C 218.909 346.642,223.127 353.695,223.687 353.933 C 223.859 354.007,224.000 354.290,224.000 354.564 C 224.000 354.837,224.468 355.497,225.040 356.030 C 226.784 357.656,230.363 363.294,231.496 366.200 C 231.839 367.080,232.518 368.250,233.004 368.800 C 234.326 370.295,236.000 372.917,236.000 373.493 C 236.000 373.896,231.620 374.000,214.629 374.000 L 193.259 374.000 192.191 371.818 C 191.604 370.617,190.701 369.144,190.185 368.543 C 189.669 367.943,188.384 365.730,187.329 363.626 C 186.274 361.522,184.643 358.651,183.705 357.247 C 182.767 355.843,181.997 354.493,181.994 354.247 C 181.976 352.874,178.322 345.097,176.920 343.447 C 176.040 342.412,175.643 341.721,172.888 336.429 C 171.693 334.136,170.476 332.019,170.182 331.725 C 169.751 331.294,166.715 331.211,154.524 331.295 L 139.400 331.400 139.200 352.600 L 139.000 373.800 120.000 373.800 L 101.000 373.800 100.899 297.624 C 100.818 236.948,100.900 221.384,101.299 221.130 C 102.007 220.681,166.578 220.775,173.600 221.236 M377.767 221.043 C 378.596 221.361,378.743 250.697,377.920 251.520 C 377.553 251.887,367.990 252.000,337.315 252.000 L 297.190 252.000 297.295 266.900 L 297.400 281.800 333.705 281.902 L 370.010 282.004 369.905 297.102 L 369.800 312.200 333.600 312.405 C 313.690 312.518,297.353 312.653,297.295 312.705 C 297.238 312.757,297.238 319.685,297.295 328.100 L 297.400 343.400 339.093 343.502 L 380.786 343.604 381.004 344.502 C 381.125 344.996,381.173 351.790,381.112 359.600 L 381.000 373.800 320.000 373.800 L 259.000 373.800 258.899 297.624 C 258.818 236.948,258.900 221.384,259.299 221.130 C 259.877 220.763,376.813 220.677,377.767 221.043 M139.467 252.267 C 138.869 252.864,139.166 299.874,139.771 300.376 C 140.198 300.731,144.389 300.801,156.471 300.658 C 175.418 300.432,178.386 300.120,182.342 297.933 C 184.783 296.584,187.792 294.632,187.933 294.307 C 188.007 294.138,188.239 294.000,188.450 294.000 C 190.648 294.000,193.305 289.438,194.157 284.200 C 194.264 283.540,194.563 282.010,194.821 280.800 C 195.375 278.204,195.093 269.333,194.436 268.676 C 194.196 268.436,193.998 267.781,193.996 267.220 C 193.982 263.980,189.800 256.800,187.926 256.800 C 187.737 256.800,186.012 256.051,184.091 255.135 C 177.613 252.044,177.653 252.049,157.567 252.023 C 147.758 252.010,139.613 252.120,139.467 252.267 " stroke="none" fill="#db4c3b" fill-rule="evenodd"></path></g></svg>