<svg id="svg" version="1.1" xmlns="http://www.w3.org/2000/svg" xmlns:xlink="http://www.w3.org/1999/xlink" width="400" height="361.51162790697674" viewBox="0, 0, 400,361.51162790697674"><g id="svgg"><path id="path0" d="M194.000 0.176 C 193.404 0.248,192.579 0.321,192.167 0.339 C 191.487 0.370,190.356 0.516,186.917 1.017 C 185.016 1.295,183.812 1.505,182.750 1.745 C 182.200 1.869,181.300 2.063,180.750 2.176 C 179.761 2.379,177.686 2.897,175.750 3.423 C 175.200 3.573,174.523 3.752,174.246 3.822 C 173.969 3.891,173.575 4.037,173.371 4.146 C 173.167 4.256,173.000 4.312,173.000 4.273 C 173.000 4.164,166.650 6.383,166.124 6.675 C 165.962 6.765,165.250 7.066,164.540 7.344 C 163.033 7.935,162.602 8.135,158.500 10.149 C 155.170 11.784,153.647 12.604,151.612 13.861 C 150.894 14.304,150.244 14.667,150.167 14.667 C 150.091 14.667,150.003 14.723,149.972 14.792 C 149.903 14.947,148.102 16.167,147.942 16.167 C 147.795 16.167,143.607 19.084,143.271 19.420 C 143.135 19.555,142.950 19.667,142.859 19.667 C 142.769 19.667,142.669 19.723,142.639 19.792 C 142.608 19.860,141.946 20.403,141.167 20.996 C 137.564 23.743,133.963 26.899,130.420 30.417 C 127.432 33.384,125.380 35.643,122.072 39.605 C 120.981 40.912,117.782 45.163,117.071 46.250 C 116.712 46.800,116.376 47.288,116.325 47.333 C 116.274 47.379,115.932 47.867,115.564 48.417 C 114.944 49.344,114.609 49.860,113.107 52.208 C 112.268 53.520,111.167 55.343,111.167 55.421 C 111.167 55.459,110.829 56.061,110.417 56.759 C 110.004 57.457,109.667 58.134,109.667 58.264 C 109.667 58.394,109.609 58.500,109.540 58.500 C 109.470 58.500,109.338 58.649,109.248 58.831 C 109.157 59.013,108.433 60.457,107.638 62.039 C 105.835 65.630,104.901 67.639,104.090 69.667 C 103.743 70.537,103.291 71.625,103.086 72.083 C 102.882 72.542,102.617 73.217,102.498 73.583 C 102.379 73.950,102.153 74.550,101.996 74.917 C 101.838 75.283,101.464 76.296,101.163 77.167 C 100.862 78.037,100.322 79.575,99.962 80.583 C 99.602 81.592,99.291 82.530,99.271 82.670 C 99.251 82.809,99.172 83.024,99.095 83.148 C 99.019 83.271,98.897 83.608,98.825 83.895 C 98.527 85.086,97.982 86.939,97.837 87.250 C 97.752 87.433,97.528 88.146,97.340 88.833 C 97.152 89.521,96.912 90.346,96.806 90.667 C 96.700 90.987,96.589 91.400,96.560 91.583 C 96.531 91.767,96.385 92.329,96.237 92.833 C 96.089 93.337,95.910 94.013,95.839 94.333 C 95.767 94.654,95.560 95.479,95.378 96.167 C 95.196 96.854,94.953 97.867,94.838 98.417 C 94.723 98.967,94.532 99.754,94.414 100.167 C 94.228 100.818,93.947 102.164,93.771 103.250 C 93.741 103.433,93.676 103.696,93.626 103.833 C 93.576 103.971,93.446 104.646,93.337 105.333 C 93.228 106.021,93.037 107.033,92.914 107.583 C 92.707 108.501,92.579 109.266,92.160 112.083 C 91.888 113.907,91.520 116.406,91.410 117.167 C 91.302 117.918,91.168 119.255,90.843 122.833 C 90.747 123.888,90.627 125.087,90.575 125.500 C 90.523 125.912,90.451 126.850,90.414 127.583 C 90.377 128.317,90.260 130.379,90.153 132.167 C 89.829 137.577,90.103 150.391,90.659 155.833 C 90.758 156.796,90.916 158.408,91.010 159.417 C 91.285 162.334,91.618 164.927,92.168 168.417 C 92.255 168.967,92.368 169.717,92.419 170.083 C 92.735 172.345,92.834 172.977,92.905 173.184 C 92.948 173.312,93.026 173.705,93.077 174.058 C 93.128 174.410,93.239 175.010,93.324 175.391 C 93.408 175.772,93.562 176.571,93.666 177.167 C 93.882 178.401,94.033 179.128,94.395 180.667 C 94.536 181.262,94.810 182.500,95.006 183.417 C 95.202 184.333,95.475 185.496,95.613 186.000 C 95.751 186.504,95.929 187.179,96.009 187.500 C 96.498 189.476,97.101 191.743,97.669 193.750 C 98.632 197.147,101.186 205.127,101.445 205.547 C 101.513 205.655,101.583 205.858,101.602 205.997 C 101.647 206.318,103.177 210.488,103.958 212.417 C 104.143 212.875,104.727 214.338,105.256 215.667 C 106.303 218.302,106.888 219.668,107.268 220.371 C 107.403 220.621,107.513 220.864,107.512 220.911 C 107.505 221.159,107.726 221.677,109.064 224.540 C 109.395 225.249,109.667 225.884,109.667 225.950 C 109.667 226.175,116.471 239.656,116.674 239.833 C 116.727 239.879,117.058 240.479,117.410 241.167 C 117.762 241.854,118.227 242.696,118.442 243.038 C 118.657 243.380,118.833 243.693,118.833 243.733 C 118.833 243.773,119.169 244.373,119.579 245.067 L 120.324 246.327 119.680 247.622 C 117.907 251.182,117.293 253.202,116.728 257.333 C 116.319 260.318,116.597 263.860,117.516 267.373 C 117.606 267.716,117.675 268.016,117.671 268.040 C 117.650 268.148,118.291 269.846,118.389 269.945 C 118.450 270.006,118.500 270.165,118.500 270.299 C 118.500 270.841,120.529 274.651,121.333 275.618 C 121.425 275.729,121.501 275.879,121.503 275.951 C 121.504 276.024,121.710 276.319,121.961 276.607 C 122.212 276.895,122.717 277.494,123.083 277.938 C 124.751 279.959,127.239 282.042,130.083 283.798 C 130.473 284.039,133.096 285.314,133.583 285.500 C 133.767 285.570,134.217 285.744,134.583 285.887 C 135.584 286.276,136.715 286.583,138.917 287.061 C 141.183 287.553,146.454 287.566,148.500 287.084 C 148.729 287.030,149.292 286.918,149.750 286.834 C 150.683 286.665,152.490 286.147,153.250 285.832 C 153.525 285.718,153.900 285.571,154.083 285.504 C 157.704 284.188,163.439 279.839,165.417 276.908 C 165.692 276.501,165.973 276.167,166.042 276.167 C 166.110 276.167,166.167 276.054,166.167 275.917 C 166.167 275.779,166.228 275.667,166.302 275.667 C 166.377 275.667,166.568 275.423,166.727 275.125 C 166.886 274.827,167.184 274.283,167.389 273.917 C 168.239 272.397,168.400 272.078,168.373 271.974 C 168.357 271.914,168.454 271.774,168.589 271.662 C 168.723 271.551,168.833 271.323,168.833 271.156 C 168.833 270.989,168.908 270.807,169.000 270.750 C 169.092 270.693,169.167 270.468,169.167 270.250 C 169.167 270.032,169.233 269.812,169.313 269.762 C 169.535 269.625,170.114 267.695,170.568 265.583 C 171.441 261.513,171.105 255.219,169.847 252.083 C 169.773 251.900,169.619 251.450,169.504 251.083 C 168.931 249.257,166.812 245.156,166.026 244.354 C 165.874 244.199,165.537 243.761,165.277 243.381 C 164.785 242.661,162.590 240.385,161.318 239.275 C 159.699 237.862,155.700 235.513,153.750 234.830 C 153.567 234.765,153.133 234.590,152.786 234.440 C 152.439 234.290,151.985 234.167,151.778 234.167 C 151.570 234.167,151.329 234.102,151.242 234.024 C 151.155 233.945,150.633 233.795,150.083 233.690 C 149.533 233.585,148.483 233.385,147.750 233.246 C 146.385 232.986,141.313 232.981,139.983 233.238 C 139.423 233.346,139.368 233.319,139.165 232.829 C 139.046 232.541,138.866 232.217,138.766 232.109 C 138.665 232.002,138.323 231.408,138.005 230.790 C 137.687 230.172,137.356 229.667,137.269 229.667 C 137.182 229.667,137.160 229.617,137.221 229.557 C 137.281 229.497,137.266 229.365,137.187 229.265 C 136.911 228.914,134.870 225.108,133.514 222.417 C 133.006 221.408,132.533 220.558,132.462 220.528 C 132.391 220.497,132.333 220.386,132.333 220.281 C 132.333 220.175,132.116 219.638,131.851 219.086 C 131.585 218.535,130.985 217.289,130.517 216.318 C 130.049 215.347,129.667 214.508,129.667 214.455 C 129.667 214.401,129.401 213.771,129.075 213.054 C 128.229 211.187,128.057 210.802,127.860 210.333 C 127.642 209.812,126.512 207.033,126.336 206.583 C 125.251 203.811,124.840 202.693,123.895 199.956 C 123.586 199.060,123.267 198.198,123.187 198.039 C 123.107 197.880,122.963 197.487,122.869 197.167 C 122.546 196.073,121.481 192.585,121.343 192.167 C 121.267 191.938,121.113 191.412,121.000 191.000 C 120.887 190.588,120.727 190.063,120.645 189.833 C 120.562 189.604,120.279 188.554,120.015 187.500 C 119.751 186.446,119.388 185.021,119.208 184.333 C 119.028 183.646,118.787 182.633,118.672 182.083 C 118.558 181.533,118.394 180.858,118.308 180.583 C 118.116 179.968,116.613 172.368,116.355 170.708 C 116.251 170.044,116.086 168.956,115.987 168.292 C 115.888 167.627,115.705 166.408,115.579 165.583 C 113.873 154.345,113.340 137.234,114.348 126.000 C 114.442 124.946,114.589 123.258,114.673 122.250 C 114.758 121.242,114.867 120.079,114.915 119.667 C 114.963 119.254,115.081 118.242,115.176 117.417 C 115.272 116.592,115.420 115.504,115.506 115.000 C 115.591 114.496,115.735 113.558,115.825 112.917 C 116.194 110.272,116.184 110.330,116.861 107.000 C 117.057 106.037,117.232 105.100,117.251 104.917 C 117.269 104.733,117.366 104.283,117.465 103.917 C 117.564 103.550,117.682 103.025,117.728 102.750 C 117.773 102.475,117.937 101.800,118.091 101.250 C 118.246 100.700,118.439 99.969,118.520 99.625 C 118.600 99.281,118.742 98.700,118.833 98.333 C 118.925 97.967,119.070 97.385,119.156 97.042 C 120.007 93.619,123.313 84.015,124.602 81.219 C 124.821 80.743,125.000 80.309,125.000 80.253 C 125.000 80.198,125.229 79.664,125.508 79.066 C 126.016 77.979,126.374 77.157,126.406 77.000 C 126.446 76.805,129.384 70.977,130.018 69.833 C 130.399 69.146,130.977 68.058,131.301 67.417 C 131.625 66.775,131.942 66.212,132.006 66.167 C 132.069 66.121,132.360 65.671,132.652 65.167 C 133.369 63.926,133.392 63.890,134.958 61.488 C 135.715 60.328,136.333 59.298,136.333 59.198 C 136.333 59.098,136.427 58.957,136.542 58.883 C 136.656 58.810,137.082 58.262,137.489 57.667 C 137.895 57.071,138.669 55.983,139.209 55.250 C 139.749 54.517,140.317 53.742,140.470 53.528 C 140.624 53.314,140.862 53.002,141.000 52.834 C 141.137 52.666,141.362 52.390,141.500 52.222 C 141.637 52.053,142.009 51.578,142.325 51.166 C 143.112 50.141,143.805 49.338,145.392 47.613 C 146.136 46.805,146.783 46.093,146.831 46.030 C 146.878 45.968,147.554 45.358,148.333 44.675 C 149.112 43.991,149.870 43.316,150.017 43.175 C 150.163 43.033,150.571 42.692,150.921 42.417 C 151.272 42.142,151.639 41.840,151.738 41.747 C 151.836 41.653,152.329 41.280,152.833 40.917 C 153.337 40.554,153.842 40.168,153.955 40.060 C 155.089 38.973,161.502 35.117,165.250 33.269 C 168.878 31.480,173.050 29.705,175.667 28.837 C 176.446 28.579,177.271 28.293,177.500 28.201 C 177.729 28.110,178.254 27.938,178.667 27.821 C 179.079 27.703,179.492 27.552,179.583 27.486 C 179.675 27.419,179.975 27.325,180.250 27.277 C 180.525 27.229,181.162 27.070,181.667 26.924 C 182.171 26.778,183.333 26.471,184.250 26.241 C 185.167 26.011,186.329 25.719,186.833 25.593 C 187.889 25.327,188.994 25.100,190.417 24.855 C 190.967 24.760,192.054 24.570,192.833 24.433 C 194.298 24.175,195.880 23.970,198.750 23.669 C 200.901 23.443,206.918 23.438,208.794 23.661 C 213.269 24.192,213.537 24.239,217.625 25.183 C 219.656 25.652,225.326 27.628,226.625 28.319 C 226.786 28.405,227.817 28.919,228.917 29.464 C 231.752 30.866,235.158 32.916,236.451 33.998 C 236.562 34.091,236.699 34.167,236.755 34.167 C 236.811 34.167,236.962 34.260,237.089 34.375 C 237.580 34.815,237.822 35.000,237.908 35.000 C 237.957 35.000,238.167 35.143,238.374 35.319 C 238.581 35.494,239.275 36.057,239.917 36.569 C 240.558 37.082,241.373 37.745,241.727 38.042 C 242.815 38.956,248.206 44.348,249.257 45.573 C 249.803 46.210,250.438 46.941,250.667 47.199 C 251.271 47.879,251.356 47.984,252.174 49.067 C 252.582 49.609,253.158 50.359,253.453 50.734 C 253.748 51.109,254.554 52.220,255.245 53.202 C 256.360 54.786,256.790 55.414,257.545 56.562 C 257.658 56.734,257.849 56.977,257.970 57.104 C 258.091 57.230,258.152 57.333,258.105 57.333 C 258.016 57.333,259.014 58.925,259.332 59.292 C 259.432 59.406,259.464 59.500,259.403 59.500 C 259.343 59.500,259.490 59.757,259.730 60.072 C 259.970 60.387,260.167 60.689,260.167 60.743 C 260.167 60.902,261.738 63.578,261.865 63.636 C 261.929 63.665,262.071 63.965,262.180 64.302 C 262.290 64.640,262.508 65.104,262.664 65.333 C 263.029 65.868,265.613 71.194,266.626 73.500 C 266.808 73.912,267.072 74.512,267.213 74.833 C 267.845 76.266,268.833 78.719,268.833 78.854 C 268.833 78.935,269.021 79.390,269.250 79.865 C 269.479 80.340,269.667 80.861,269.667 81.021 C 269.667 81.182,269.742 81.360,269.833 81.417 C 269.925 81.473,270.000 81.634,270.000 81.773 C 270.000 81.912,270.178 82.489,270.397 83.055 C 270.833 84.186,271.780 86.963,271.998 87.750 C 272.074 88.025,272.336 88.888,272.580 89.667 C 272.824 90.446,273.088 91.346,273.167 91.667 C 273.246 91.987,273.584 93.300,273.918 94.583 C 274.575 97.108,275.342 100.431,275.359 100.833 C 275.365 100.971,275.468 101.533,275.587 102.083 C 275.935 103.688,276.325 106.315,276.665 109.333 C 276.987 112.196,276.934 112.086,278.083 112.273 C 278.267 112.303,279.242 112.556,280.250 112.836 C 281.258 113.115,282.646 113.496,283.333 113.683 C 285.571 114.292,285.658 114.318,288.262 115.166 C 288.543 115.258,288.922 115.333,289.103 115.333 C 289.285 115.333,289.505 115.399,289.592 115.479 C 289.679 115.558,290.200 115.757,290.750 115.919 C 293.302 116.672,293.951 116.873,294.417 117.053 C 294.692 117.159,294.954 117.248,295.000 117.250 C 295.046 117.252,295.308 117.338,295.583 117.441 C 295.858 117.544,296.421 117.719,296.833 117.830 C 297.246 117.941,297.713 118.100,297.872 118.183 C 298.031 118.265,298.912 118.584,299.831 118.892 L 301.500 119.451 301.500 118.528 C 301.500 118.021,301.428 116.963,301.341 116.178 C 301.254 115.393,301.098 113.850,300.996 112.750 C 300.893 111.650,300.709 110.037,300.586 109.167 C 300.463 108.296,300.277 106.946,300.173 106.167 C 300.069 105.388,299.898 104.263,299.792 103.667 C 299.686 103.071,299.615 102.525,299.634 102.455 C 299.653 102.384,299.564 101.822,299.435 101.205 C 299.307 100.588,299.114 99.558,299.008 98.917 C 298.688 97.000,298.171 94.463,297.785 92.917 C 297.693 92.550,297.601 92.100,297.580 91.917 C 297.499 91.211,295.844 84.586,295.519 83.667 C 295.438 83.438,295.280 82.912,295.167 82.500 C 295.054 82.087,294.903 81.563,294.832 81.333 C 294.761 81.104,294.497 80.242,294.245 79.417 C 293.993 78.592,293.645 77.504,293.470 77.000 C 293.296 76.496,292.892 75.296,292.572 74.333 C 291.946 72.449,291.849 72.196,289.914 67.417 C 288.217 63.226,284.904 56.244,283.192 53.250 C 282.929 52.792,282.558 52.140,282.366 51.803 C 282.175 51.465,281.826 50.885,281.592 50.514 C 281.358 50.143,281.167 49.799,281.167 49.750 C 281.167 49.605,280.263 48.256,280.125 48.194 C 280.056 48.164,280.000 48.058,280.000 47.960 C 280.000 47.862,279.813 47.536,279.583 47.235 C 279.354 46.935,279.167 46.645,279.167 46.591 C 279.167 46.505,278.473 45.388,278.128 44.917 C 278.061 44.825,277.579 44.112,277.058 43.333 C 276.537 42.554,276.049 41.892,275.972 41.861 C 275.896 41.831,275.833 41.740,275.833 41.660 C 275.833 41.480,273.850 38.786,273.166 38.036 C 272.891 37.736,272.667 37.442,272.667 37.384 C 272.667 37.326,272.198 36.710,271.625 36.015 C 271.052 35.319,270.471 34.612,270.333 34.444 C 268.686 32.430,267.575 31.241,263.917 27.581 C 261.808 25.471,259.639 23.371,259.096 22.914 C 258.552 22.457,257.988 21.971,257.842 21.833 C 257.544 21.554,255.888 20.184,254.920 19.417 C 254.573 19.142,254.112 18.821,253.895 18.703 C 253.678 18.585,253.500 18.417,253.500 18.328 C 253.500 18.239,253.415 18.167,253.310 18.167 C 253.206 18.167,253.037 18.065,252.935 17.941 C 252.721 17.680,248.431 14.667,248.274 14.667 C 248.217 14.667,248.000 14.519,247.793 14.340 C 247.294 13.906,245.232 12.667,245.009 12.667 C 244.912 12.667,244.833 12.606,244.833 12.531 C 244.833 12.456,244.590 12.267,244.292 12.111 C 243.994 11.954,243.225 11.528,242.583 11.164 C 241.942 10.800,240.851 10.212,240.159 9.857 C 239.467 9.502,238.755 9.130,238.576 9.030 C 237.326 8.331,233.219 6.503,233.120 6.602 C 233.080 6.642,232.953 6.560,232.837 6.421 C 232.721 6.281,232.499 6.167,232.344 6.167 C 232.189 6.167,231.692 5.990,231.240 5.773 C 230.474 5.407,225.917 3.838,223.833 3.223 C 223.329 3.075,222.729 2.894,222.500 2.822 C 222.271 2.750,221.671 2.604,221.167 2.497 C 220.662 2.390,219.987 2.239,219.667 2.160 C 217.972 1.746,216.864 1.496,216.417 1.427 C 216.142 1.385,215.767 1.315,215.583 1.272 C 214.675 1.058,209.651 0.368,207.583 0.173 C 205.501 -0.024,195.642 -0.022,194.000 0.176 M173.667 112.199 C 172.612 112.354,171.338 112.598,170.833 112.742 C 170.329 112.887,169.775 113.039,169.603 113.080 C 169.076 113.208,167.806 113.693,166.706 114.188 C 166.132 114.446,165.645 114.651,165.623 114.642 C 165.497 114.593,163.667 115.717,162.090 116.814 C 148.589 126.198,146.541 145.738,157.800 157.733 C 159.001 159.012,161.047 160.824,161.190 160.735 C 161.269 160.687,161.333 160.720,161.333 160.809 C 161.333 160.970,162.101 161.503,164.066 162.706 C 165.789 163.761,167.979 164.722,169.714 165.185 C 170.335 165.351,170.899 165.521,170.967 165.563 C 171.035 165.605,171.396 165.685,171.769 165.740 C 172.142 165.796,172.703 165.916,173.016 166.006 C 173.942 166.275,178.911 166.393,180.833 166.191 C 186.988 165.545,192.612 162.805,197.000 158.313 C 199.580 155.672,200.598 154.280,202.106 151.333 C 202.411 150.737,202.662 150.165,202.664 150.061 C 202.671 149.610,217.246 149.438,222.917 149.822 C 227.089 150.104,229.787 150.331,231.417 150.536 C 232.242 150.640,233.220 150.740,233.591 150.758 C 233.962 150.777,234.487 150.838,234.758 150.895 C 235.029 150.952,235.625 151.036,236.083 151.083 C 236.542 151.129,237.367 151.238,237.917 151.324 C 238.467 151.410,239.517 151.566,240.250 151.670 C 240.983 151.774,241.958 151.934,242.417 152.024 C 242.875 152.115,244.075 152.329,245.083 152.502 C 247.810 152.967,247.990 153.001,249.167 153.274 C 249.762 153.413,250.588 153.601,251.000 153.691 C 251.412 153.782,252.050 153.923,252.417 154.005 C 253.227 154.185,256.620 154.985,257.083 155.106 C 257.267 155.154,257.679 155.256,258.000 155.333 C 258.321 155.410,258.996 155.597,259.500 155.747 C 260.694 156.103,262.804 156.671,263.333 156.779 C 263.563 156.826,264.000 156.976,264.305 157.113 C 264.611 157.250,264.904 157.319,264.957 157.266 C 265.009 157.213,265.135 157.232,265.235 157.308 C 265.335 157.384,266.654 157.840,268.167 158.321 C 269.679 158.802,271.282 159.345,271.729 159.528 C 272.176 159.711,272.963 160.000,273.479 160.170 C 273.995 160.340,274.923 160.671,275.542 160.906 C 276.160 161.141,277.135 161.509,277.708 161.724 C 279.079 162.239,283.182 163.926,284.296 164.432 C 284.779 164.652,285.624 165.022,286.174 165.253 C 288.259 166.130,296.834 170.321,297.248 170.665 C 297.358 170.756,297.497 170.781,297.557 170.721 C 297.617 170.660,297.667 170.694,297.667 170.794 C 297.667 170.895,297.823 171.027,298.013 171.088 C 298.204 171.148,299.076 171.603,299.951 172.099 C 300.827 172.594,301.564 173.000,301.591 173.000 C 301.630 173.000,304.624 174.762,305.694 175.414 C 305.846 175.507,306.521 175.906,307.194 176.301 C 308.631 177.144,310.035 178.000,310.453 178.288 C 310.616 178.401,311.387 178.904,312.167 179.407 C 316.437 182.161,323.026 186.866,324.725 188.375 C 325.009 188.627,325.288 188.833,325.346 188.833 C 325.403 188.833,325.675 189.040,325.949 189.292 C 326.223 189.544,326.591 189.862,326.767 190.000 C 327.630 190.675,329.106 191.945,329.286 192.167 C 329.398 192.304,329.492 192.366,329.495 192.304 C 329.498 192.243,329.708 192.393,329.962 192.638 C 330.216 192.883,330.972 193.571,331.641 194.167 C 332.310 194.762,333.173 195.550,333.559 195.917 C 333.945 196.283,334.558 196.853,334.922 197.182 C 335.890 198.060,340.715 203.043,342.167 204.664 C 342.854 205.432,343.567 206.229,343.750 206.434 C 344.144 206.875,344.222 206.968,345.837 208.936 C 348.160 211.767,351.237 215.857,352.721 218.083 C 353.149 218.725,353.574 219.341,353.666 219.451 C 353.758 219.562,353.833 219.705,353.833 219.769 C 353.833 219.834,354.136 220.287,354.505 220.777 C 354.875 221.266,355.119 221.668,355.047 221.669 C 354.975 221.671,354.992 221.727,355.083 221.794 C 355.175 221.862,355.340 222.067,355.451 222.250 C 356.535 224.050,357.064 224.897,357.167 225.000 C 357.286 225.119,357.934 226.306,358.283 227.042 C 358.445 227.385,358.636 227.667,358.706 227.667 C 358.776 227.667,358.833 227.774,358.833 227.905 C 358.833 228.036,358.951 228.261,359.095 228.405 C 359.239 228.549,359.308 228.667,359.248 228.667 C 359.188 228.667,359.289 228.910,359.472 229.208 C 359.655 229.506,360.527 231.213,361.410 233.000 C 362.292 234.787,363.124 236.462,363.257 236.722 C 363.391 236.981,363.500 237.300,363.500 237.430 C 363.500 237.560,363.575 237.667,363.667 237.667 C 363.758 237.667,363.833 237.786,363.833 237.933 C 363.833 238.079,363.937 238.398,364.063 238.641 C 364.189 238.884,364.377 239.290,364.480 239.542 C 364.583 239.794,364.736 240.169,364.822 240.375 C 366.976 245.581,368.811 251.171,369.651 255.083 C 370.383 258.492,370.797 260.794,370.987 262.500 C 371.084 263.371,371.238 264.758,371.330 265.583 C 371.494 267.054,371.586 275.724,371.441 275.962 C 371.400 276.029,371.318 276.721,371.259 277.500 C 371.199 278.279,371.081 279.329,370.996 279.833 C 370.910 280.337,370.806 281.050,370.764 281.417 C 370.722 281.783,370.614 282.383,370.524 282.750 C 370.434 283.117,370.269 283.867,370.157 284.417 C 370.045 284.967,369.807 285.979,369.628 286.667 C 369.450 287.354,369.280 288.029,369.252 288.167 C 369.223 288.304,368.961 289.129,368.669 290.000 C 368.377 290.871,368.124 291.658,368.107 291.750 C 368.078 291.898,367.535 293.340,367.165 294.250 C 366.826 295.086,365.276 298.516,365.019 299.000 C 364.946 299.137,364.678 299.625,364.422 300.083 C 364.167 300.542,363.658 301.479,363.292 302.167 C 362.926 302.854,362.504 303.604,362.355 303.834 C 362.029 304.335,361.817 304.677,361.218 305.667 C 360.540 306.788,357.290 311.408,357.135 311.472 C 357.061 311.503,357.000 311.600,357.000 311.688 C 357.000 311.850,356.851 312.055,356.250 312.717 C 356.067 312.919,355.583 313.497,355.175 314.001 C 354.767 314.504,354.261 315.104,354.051 315.333 C 352.825 316.670,352.273 317.254,350.741 318.833 C 349.807 319.796,348.865 320.726,348.647 320.900 C 348.429 321.075,347.911 321.525,347.497 321.900 C 346.426 322.873,345.063 324.002,344.267 324.578 C 343.891 324.850,343.546 325.119,343.500 325.175 C 343.393 325.307,340.769 327.147,340.066 327.583 C 339.771 327.767,338.980 328.249,338.308 328.656 C 337.637 329.062,337.011 329.457,336.919 329.534 C 336.527 329.857,331.584 332.333,331.330 332.333 C 331.240 332.333,331.167 332.392,331.167 332.464 C 331.167 332.535,330.829 332.694,330.417 332.815 C 330.004 332.937,329.667 333.104,329.667 333.185 C 329.667 333.267,329.610 333.321,329.542 333.307 C 329.379 333.272,328.867 333.463,328.292 333.772 C 328.040 333.908,327.833 333.974,327.833 333.920 C 327.833 333.866,327.665 333.914,327.458 334.028 C 327.252 334.141,327.008 334.251,326.917 334.271 C 326.825 334.292,325.887 334.604,324.833 334.966 C 321.769 336.016,320.409 336.416,317.583 337.098 C 316.745 337.300,315.632 337.519,314.250 337.753 C 313.425 337.893,312.150 338.115,311.417 338.246 C 310.040 338.492,308.211 338.699,304.750 339.002 C 302.671 339.183,293.396 339.249,292.454 339.089 C 292.159 339.038,290.904 338.925,289.667 338.836 C 287.122 338.653,284.454 338.385,283.833 338.249 C 283.604 338.199,282.929 338.088,282.333 338.003 C 281.737 337.917,280.762 337.767,280.167 337.668 C 279.571 337.569,278.669 337.424,278.163 337.345 C 277.656 337.267,276.944 337.125,276.579 337.030 C 276.215 336.935,275.467 336.770,274.917 336.665 C 272.602 336.221,269.282 335.398,266.500 334.580 C 265.996 334.432,265.358 334.249,265.083 334.174 C 264.808 334.100,264.471 334.002,264.333 333.957 C 264.196 333.912,263.408 333.668,262.583 333.415 C 261.758 333.161,260.933 332.894,260.750 332.821 C 260.567 332.748,260.117 332.598,259.750 332.487 C 259.383 332.376,258.858 332.189,258.583 332.071 C 258.308 331.953,257.633 331.695,257.083 331.496 C 255.823 331.042,252.125 329.532,251.349 329.154 C 250.765 328.870,249.872 329.150,250.110 329.542 C 250.152 329.610,250.100 329.667,249.993 329.667 C 249.887 329.667,249.590 329.892,249.333 330.167 C 249.076 330.442,248.821 330.667,248.767 330.667 C 248.712 330.667,248.368 330.948,248.002 331.292 C 247.636 331.635,247.242 331.993,247.127 332.086 C 246.908 332.262,243.169 335.326,242.583 335.809 C 242.206 336.120,240.725 337.313,240.338 337.617 C 237.820 339.598,237.001 340.244,236.583 340.580 C 235.881 341.144,234.879 341.900,234.000 342.529 C 233.588 342.824,233.175 343.152,233.083 343.257 C 232.992 343.362,232.654 343.622,232.333 343.833 C 232.012 344.045,231.675 344.304,231.583 344.410 C 231.492 344.515,231.042 344.857,230.583 345.169 C 230.125 345.481,229.605 345.871,229.427 346.035 C 229.249 346.199,229.043 346.333,228.969 346.333 C 228.894 346.333,228.835 346.427,228.838 346.542 C 228.842 346.741,229.028 346.843,230.917 347.673 C 231.375 347.875,232.162 348.228,232.667 348.458 C 233.171 348.688,233.733 348.934,233.917 349.005 C 234.100 349.076,234.588 349.282,235.000 349.463 C 235.412 349.644,236.725 350.184,237.917 350.662 C 239.108 351.140,240.233 351.592,240.417 351.665 C 240.600 351.739,241.125 351.950,241.583 352.134 C 242.522 352.512,245.487 353.553,246.750 353.948 C 247.208 354.091,247.996 354.355,248.500 354.534 C 249.004 354.714,249.642 354.922,249.917 354.999 C 250.192 355.075,251.054 355.335,251.833 355.577 C 252.612 355.819,253.813 356.169,254.500 356.354 C 255.188 356.538,255.975 356.751,256.250 356.825 C 258.037 357.310,259.381 357.647,260.250 357.828 C 260.800 357.942,261.475 358.106,261.750 358.191 C 262.223 358.338,265.230 358.951,267.417 359.346 C 267.967 359.445,268.979 359.630,269.667 359.755 C 272.296 360.236,279.100 361.074,282.083 361.283 C 287.105 361.636,300.724 361.414,304.500 360.917 C 305.462 360.790,306.925 360.604,307.750 360.503 C 308.575 360.403,309.700 360.248,310.250 360.160 C 310.800 360.072,311.438 359.970,311.667 359.933 C 312.637 359.779,314.292 359.459,314.833 359.321 C 315.154 359.239,315.679 359.134,316.000 359.087 C 316.549 359.007,319.387 358.391,319.750 358.273 C 319.842 358.243,320.142 358.164,320.417 358.097 C 320.692 358.030,321.367 357.863,321.917 357.725 C 322.467 357.586,323.217 357.400,323.583 357.310 C 323.950 357.221,324.321 357.077,324.408 356.990 C 324.495 356.904,324.715 356.833,324.897 356.833 C 325.207 356.833,325.829 356.663,326.868 356.293 C 327.116 356.204,327.341 356.138,327.368 356.146 C 327.395 356.153,328.392 355.819,329.583 355.403 C 330.775 354.987,332.171 354.507,332.687 354.337 C 333.862 353.949,336.187 352.998,336.441 352.802 C 336.547 352.721,336.798 352.622,337.001 352.583 C 337.204 352.544,337.680 352.369,338.060 352.195 C 338.439 352.020,339.050 351.746,339.417 351.585 C 340.859 350.954,345.004 348.898,346.583 348.031 C 347.500 347.528,348.662 346.897,349.167 346.629 C 349.671 346.361,350.196 346.053,350.333 345.946 C 350.578 345.754,351.078 345.454,351.752 345.095 C 351.937 344.997,352.324 344.748,352.611 344.542 C 352.899 344.335,353.217 344.167,353.317 344.167 C 353.418 344.167,353.500 344.092,353.500 344.000 C 353.500 343.908,353.615 343.833,353.755 343.833 C 353.896 343.833,354.054 343.721,354.106 343.583 C 354.159 343.446,354.270 343.333,354.354 343.333 C 354.542 343.333,356.396 342.130,356.472 341.958 C 356.503 341.890,356.608 341.833,356.705 341.833 C 356.803 341.833,357.190 341.588,357.566 341.288 C 357.942 340.988,358.556 340.537,358.931 340.285 C 359.305 340.033,359.771 339.678,359.965 339.497 C 360.160 339.315,360.364 339.167,360.419 339.167 C 360.508 339.167,362.796 337.402,363.000 337.176 C 363.046 337.125,363.438 336.799,363.871 336.451 C 364.304 336.103,364.754 335.728,364.871 335.617 C 364.988 335.507,365.571 335.005,366.167 334.501 C 368.629 332.421,372.603 328.449,375.167 325.505 C 375.671 324.926,376.160 324.370,376.253 324.268 C 376.347 324.166,376.722 323.708,377.087 323.250 C 377.452 322.792,377.806 322.392,377.875 322.361 C 377.944 322.331,378.000 322.203,378.000 322.078 C 378.000 321.952,378.098 321.790,378.217 321.717 C 378.336 321.643,378.614 321.321,378.834 321.000 C 379.054 320.679,379.284 320.379,379.344 320.333 C 379.532 320.191,382.028 316.634,382.619 315.667 C 382.926 315.162,383.522 314.188,383.942 313.500 C 384.905 311.924,387.065 307.771,387.512 306.637 C 387.698 306.164,388.001 305.433,388.184 305.013 C 388.755 303.707,388.789 303.624,389.386 302.000 C 390.048 300.201,390.972 297.275,391.099 296.576 C 391.146 296.318,391.232 296.029,391.291 295.934 C 391.349 295.840,391.454 295.459,391.524 295.089 C 391.593 294.719,391.802 293.817,391.988 293.083 C 392.412 291.413,392.593 290.559,392.838 289.083 C 392.945 288.442,393.141 287.377,393.275 286.717 C 393.409 286.058,393.499 285.420,393.474 285.301 C 393.449 285.181,393.517 284.521,393.625 283.833 C 394.256 279.798,394.500 267.540,394.033 263.250 C 393.924 262.242,393.754 260.667,393.657 259.750 C 393.559 258.833,393.368 257.408,393.232 256.583 C 392.537 252.367,392.331 251.171,392.228 250.750 C 392.183 250.567,392.109 250.154,392.063 249.833 C 392.017 249.512,391.880 248.912,391.759 248.500 C 391.637 248.088,391.445 247.300,391.331 246.750 C 391.217 246.200,390.975 245.225,390.792 244.583 C 390.610 243.942,390.356 243.004,390.227 242.500 C 389.957 241.437,388.945 238.168,388.473 236.833 C 388.295 236.329,387.936 235.279,387.675 234.500 C 387.209 233.108,385.175 228.053,384.422 226.417 C 384.211 225.958,383.871 225.208,383.667 224.750 C 382.396 221.898,380.222 217.753,378.115 214.167 C 377.388 212.929,376.645 211.654,376.463 211.333 C 376.282 211.012,375.953 210.511,375.733 210.219 C 375.513 209.928,375.333 209.641,375.333 209.582 C 375.333 209.523,374.921 208.880,374.417 208.152 C 373.912 207.424,373.500 206.794,373.500 206.752 C 373.500 206.709,373.031 206.029,372.458 205.240 C 371.115 203.391,370.895 203.083,370.034 201.852 C 369.639 201.289,368.889 200.304,368.367 199.665 C 367.844 199.026,367.079 198.071,366.667 197.544 C 365.514 196.069,363.485 193.664,362.806 192.964 C 362.470 192.619,362.170 192.268,362.139 192.185 C 362.092 192.058,361.417 191.285,359.417 189.067 C 355.698 184.943,349.364 178.648,345.583 175.317 C 345.125 174.914,344.712 174.536,344.667 174.479 C 344.596 174.391,342.943 172.990,340.112 170.618 C 339.761 170.324,339.386 170.008,339.278 169.917 C 339.171 169.825,338.708 169.451,338.250 169.086 C 337.792 168.721,337.267 168.284,337.083 168.115 C 336.900 167.946,336.544 167.685,336.292 167.535 C 336.040 167.384,335.833 167.203,335.833 167.131 C 335.833 167.059,335.721 167.000,335.583 167.000 C 335.446 167.000,335.333 166.931,335.333 166.847 C 335.333 166.763,335.069 166.530,334.746 166.331 C 334.422 166.131,334.066 165.876,333.954 165.765 C 333.842 165.653,333.188 165.157,332.500 164.662 C 331.813 164.167,331.212 163.720,331.167 163.667 C 330.934 163.402,329.347 162.333,329.186 162.333 C 329.084 162.333,329.000 162.269,329.000 162.191 C 329.000 162.074,323.567 158.376,321.500 157.087 C 321.179 156.887,320.600 156.523,320.212 156.278 C 319.824 156.034,319.437 155.833,319.351 155.833 C 319.265 155.833,319.169 155.772,319.139 155.697 C 319.092 155.582,316.281 153.852,315.500 153.457 C 315.362 153.388,314.950 153.144,314.583 152.916 C 314.217 152.687,313.617 152.347,313.250 152.159 C 312.883 151.970,312.208 151.606,311.750 151.349 C 307.297 148.852,300.360 145.411,296.167 143.619 C 295.204 143.208,294.117 142.740,293.750 142.579 C 293.383 142.419,292.896 142.212,292.667 142.120 C 292.438 142.028,292.025 141.859,291.750 141.744 C 291.475 141.629,291.063 141.460,290.833 141.369 C 290.604 141.278,289.742 140.931,288.917 140.599 C 288.092 140.267,287.285 139.996,287.125 139.998 C 286.965 139.999,286.833 139.943,286.833 139.874 C 286.833 139.765,286.175 139.494,285.333 139.256 C 285.196 139.217,284.558 138.988,283.917 138.746 C 282.344 138.155,280.475 137.498,280.158 137.425 C 280.015 137.392,279.616 137.247,279.271 137.103 C 278.926 136.959,278.593 136.852,278.530 136.866 C 278.468 136.880,278.229 136.812,278.000 136.714 C 277.771 136.616,277.021 136.367,276.333 136.159 C 275.646 135.951,274.558 135.616,273.917 135.413 C 273.275 135.211,272.412 134.951,272.000 134.835 C 271.587 134.720,270.912 134.524,270.500 134.400 C 269.860 134.208,266.081 133.210,265.583 133.101 C 265.492 133.081,265.144 132.973,264.811 132.859 C 264.478 132.746,264.141 132.670,264.061 132.690 C 263.982 132.711,263.579 132.633,263.167 132.518 C 261.770 132.127,260.067 131.721,258.167 131.325 C 257.662 131.220,256.950 131.071,256.583 130.993 C 253.506 130.341,252.537 130.151,250.667 129.829 C 250.071 129.726,249.058 129.543,248.417 129.421 C 247.141 129.178,245.684 128.954,243.500 128.664 C 242.721 128.561,241.633 128.398,241.083 128.302 C 240.533 128.206,239.771 128.105,239.389 128.078 C 239.007 128.051,238.144 127.951,237.472 127.856 C 236.033 127.652,233.426 127.382,231.667 127.254 C 230.979 127.203,230.229 127.129,230.000 127.089 C 229.771 127.049,228.946 126.980,228.167 126.937 C 227.387 126.893,225.813 126.781,224.667 126.687 C 220.555 126.352,211.344 126.120,206.529 126.231 L 201.726 126.341 200.847 124.857 C 199.921 123.293,199.305 122.479,197.617 120.598 C 196.339 119.174,193.844 117.007,193.042 116.625 C 192.835 116.527,192.667 116.384,192.667 116.307 C 192.667 116.230,192.593 116.167,192.503 116.167 C 192.413 116.167,191.929 115.904,191.428 115.583 C 190.926 115.263,190.406 115.000,190.272 115.000 C 190.138 115.000,190.003 114.944,189.972 114.875 C 189.860 114.622,186.778 113.302,185.791 113.083 C 185.630 113.048,185.429 112.976,185.344 112.923 C 185.178 112.821,184.424 112.659,182.167 112.240 C 180.155 111.867,176.059 111.847,173.667 112.199 M69.000 170.006 C 68.496 170.369,67.969 170.761,67.830 170.875 C 67.691 170.990,67.278 171.306,66.913 171.577 C 66.549 171.849,66.158 172.160,66.046 172.269 C 65.934 172.378,65.578 172.631,65.254 172.831 C 64.931 173.030,64.667 173.247,64.667 173.311 C 64.667 173.375,64.460 173.553,64.208 173.706 C 63.956 173.858,63.552 174.156,63.310 174.367 C 63.069 174.578,62.583 174.975,62.232 175.250 C 61.531 175.799,58.633 178.190,58.500 178.330 C 58.454 178.378,57.404 179.312,56.167 180.405 C 54.165 182.172,45.181 191.000,45.384 191.000 C 45.428 191.000,45.116 191.357,44.690 191.792 C 43.943 192.558,42.921 193.710,42.268 194.524 C 42.095 194.740,41.508 195.423,40.964 196.042 C 40.420 196.660,40.026 197.167,40.089 197.167 C 40.152 197.167,40.053 197.298,39.870 197.458 C 39.686 197.619,39.080 198.350,38.523 199.083 C 37.966 199.817,37.414 200.532,37.297 200.672 C 36.714 201.369,36.167 202.162,36.167 202.308 C 36.167 202.398,36.106 202.497,36.032 202.528 C 35.840 202.607,34.000 205.133,34.000 205.318 C 34.000 205.403,33.937 205.497,33.860 205.528 C 33.707 205.589,30.940 209.774,29.912 211.500 C 29.557 212.096,29.169 212.702,29.050 212.846 C 28.931 212.991,28.833 213.235,28.833 213.388 C 28.833 213.541,28.767 213.667,28.685 213.667 C 28.603 213.667,28.381 213.985,28.190 214.375 C 27.999 214.765,27.569 215.571,27.236 216.167 C 25.979 218.410,25.355 219.633,25.431 219.708 C 25.473 219.751,25.394 219.881,25.254 219.997 C 25.114 220.113,25.000 220.348,25.000 220.520 C 25.000 220.693,24.943 220.833,24.874 220.833 C 24.805 220.833,24.642 221.077,24.513 221.375 C 24.384 221.673,23.944 222.628,23.536 223.497 C 23.127 224.367,22.780 225.165,22.764 225.272 C 22.748 225.379,22.661 225.568,22.569 225.692 C 22.478 225.815,22.304 226.217,22.184 226.583 C 22.064 226.950,21.794 227.625,21.584 228.083 C 21.375 228.542,21.072 229.254,20.912 229.667 C 20.175 231.566,19.789 232.623,19.663 233.083 C 19.587 233.358,19.328 234.133,19.086 234.805 C 18.167 237.357,16.681 242.761,16.009 246.000 C 15.305 249.385,15.121 250.382,14.843 252.292 C 14.746 252.956,14.592 254.006,14.500 254.625 C 14.409 255.244,14.302 256.162,14.262 256.667 C 14.223 257.171,14.113 258.221,14.018 259.000 C 13.419 263.907,13.413 273.093,14.005 278.583 C 14.094 279.408,14.205 280.491,14.251 280.989 C 14.298 281.487,14.415 282.387,14.510 282.989 C 14.606 283.591,14.764 284.608,14.860 285.250 C 15.040 286.443,15.398 288.420,15.569 289.167 C 15.621 289.396,15.748 289.996,15.850 290.500 C 16.141 291.940,16.303 292.697,16.473 293.417 C 16.660 294.203,17.433 297.140,17.549 297.500 C 17.593 297.637,17.836 298.425,18.088 299.250 C 18.340 300.075,18.691 301.162,18.867 301.667 C 19.043 302.171,19.204 302.658,19.223 302.750 C 19.288 303.052,20.760 306.832,21.186 307.790 C 21.359 308.178,21.500 308.534,21.500 308.581 C 21.500 308.772,24.218 314.458,24.649 315.167 C 24.732 315.304,25.303 316.309,25.918 317.399 C 27.073 319.447,28.929 322.392,29.346 322.839 C 29.476 322.979,29.696 323.290,29.833 323.530 C 30.705 325.052,35.398 330.613,37.500 332.614 C 37.637 332.745,38.313 333.395,39.000 334.059 C 40.421 335.431,42.520 337.287,43.750 338.259 C 44.208 338.621,44.621 338.955,44.667 339.001 C 44.712 339.047,45.050 339.306,45.417 339.575 C 45.783 339.845,46.121 340.115,46.167 340.176 C 46.212 340.237,46.782 340.653,47.433 341.102 C 48.083 341.550,49.321 342.412,50.183 343.018 C 51.045 343.624,51.975 344.244,52.250 344.395 C 52.880 344.743,53.392 345.059,53.500 345.167 C 53.546 345.213,53.808 345.363,54.083 345.500 C 54.358 345.637,54.621 345.795,54.667 345.850 C 54.712 345.905,55.191 346.194,55.729 346.492 C 56.267 346.789,57.055 347.234,57.479 347.479 C 58.806 348.247,63.756 350.654,66.083 351.662 C 66.267 351.741,66.843 352.000,67.365 352.237 C 67.886 352.473,68.393 352.667,68.492 352.667 C 68.591 352.667,68.801 352.734,68.961 352.817 C 69.641 353.169,71.421 353.826,75.083 355.074 C 76.046 355.402,79.634 356.485,80.417 356.684 C 80.783 356.777,81.458 356.961,81.917 357.093 C 82.739 357.329,84.391 357.716,86.833 358.244 C 87.521 358.393,88.372 358.592,88.725 358.686 C 89.077 358.780,89.402 358.821,89.445 358.777 C 89.489 358.733,89.763 358.767,90.054 358.853 C 90.345 358.938,90.846 359.045,91.167 359.091 C 91.822 359.184,93.039 359.377,95.250 359.739 C 99.257 360.394,106.964 360.950,112.583 360.990 C 117.837 361.028,126.315 360.449,131.000 359.733 C 131.871 359.600,133.108 359.415,133.750 359.320 C 134.392 359.226,135.313 359.072,135.798 358.978 C 136.282 358.884,136.949 358.773,137.279 358.732 C 137.609 358.691,137.938 358.621,138.010 358.577 C 138.082 358.533,138.501 358.454,138.940 358.402 C 139.379 358.351,139.798 358.272,139.870 358.227 C 139.942 358.183,140.357 358.084,140.792 358.009 C 142.102 357.780,145.049 357.170,145.583 357.016 C 145.858 356.936,146.533 356.777,147.083 356.662 C 147.633 356.547,148.608 356.314,149.250 356.145 C 149.892 355.976,150.942 355.715,151.583 355.565 C 152.225 355.415,153.350 355.124,154.083 354.918 C 154.817 354.711,156.054 354.374,156.833 354.168 C 157.612 353.962,158.775 353.626,159.417 353.422 C 160.058 353.217,160.883 352.965,161.250 352.860 C 162.373 352.540,165.697 351.485,166.667 351.141 C 167.171 350.962,168.221 350.598,169.000 350.331 C 171.132 349.602,171.649 349.406,171.775 349.281 C 171.837 349.218,172.006 349.167,172.149 349.167 C 172.292 349.167,173.086 348.898,173.913 348.569 C 174.740 348.241,176.467 347.559,177.750 347.055 C 179.033 346.550,180.215 346.068,180.376 345.983 C 180.538 345.898,181.213 345.610,181.876 345.343 C 182.540 345.076,183.553 344.627,184.128 344.346 C 184.702 344.064,185.239 343.833,185.321 343.833 C 185.402 343.833,185.832 343.654,186.276 343.434 C 186.720 343.214,187.871 342.659,188.833 342.200 C 192.438 340.482,196.255 338.544,198.417 337.334 C 198.692 337.180,199.357 336.810,199.896 336.511 C 201.078 335.854,202.491 335.050,202.833 334.840 C 202.971 334.755,203.758 334.291,204.583 333.809 C 206.347 332.777,208.709 331.326,209.417 330.838 C 209.692 330.649,211.304 329.581,213.000 328.465 C 214.696 327.349,216.174 326.357,216.286 326.260 C 216.844 325.774,216.999 325.667,217.146 325.667 C 217.234 325.667,217.331 325.605,217.361 325.529 C 217.392 325.453,218.054 324.947,218.833 324.405 C 219.612 323.863,220.362 323.330,220.500 323.220 C 221.261 322.615,225.444 319.366,225.825 319.083 C 226.271 318.753,229.006 316.504,229.167 316.335 C 229.213 316.287,229.737 315.838,230.333 315.337 C 230.929 314.836,231.606 314.236,231.837 314.004 C 232.068 313.773,232.481 313.409,232.754 313.196 C 234.357 311.945,243.850 302.660,246.087 300.154 C 246.543 299.642,247.292 298.798,247.750 298.278 C 248.208 297.757,248.846 297.046,249.167 296.696 C 250.376 295.378,250.833 294.839,250.833 294.732 C 250.833 294.672,250.969 294.501,251.135 294.353 C 251.458 294.065,255.191 289.529,255.750 288.745 C 255.933 288.488,256.158 288.197,256.250 288.097 C 256.342 287.998,256.638 287.617,256.908 287.250 C 257.178 286.883,257.444 286.546,257.499 286.500 C 257.554 286.454,257.782 286.154,258.004 285.833 C 258.227 285.512,258.764 284.807,259.198 284.266 C 259.633 283.725,259.949 283.218,259.901 283.141 C 259.853 283.063,259.895 283.000,259.995 283.000 C 260.095 283.000,260.226 282.869,260.287 282.708 C 260.347 282.548,260.484 282.342,260.592 282.250 C 260.829 282.049,265.000 276.022,265.000 275.881 C 265.000 275.826,265.187 275.536,265.417 275.235 C 265.646 274.935,265.833 274.609,265.833 274.511 C 265.833 274.413,265.896 274.333,265.974 274.333 C 266.051 274.333,266.316 273.977,266.562 273.542 C 266.809 273.106,267.301 272.300,267.655 271.750 C 268.208 270.892,269.741 268.340,271.149 265.932 C 271.368 265.557,271.682 265.025,271.847 264.750 C 272.011 264.475,272.328 263.912,272.551 263.500 C 272.773 263.087,273.280 262.150,273.678 261.417 C 274.844 259.264,275.566 257.886,276.740 255.574 L 277.845 253.398 279.131 253.183 C 279.838 253.065,280.649 252.898,280.934 252.813 C 281.218 252.727,281.603 252.628,281.788 252.592 C 285.456 251.886,290.737 248.813,293.833 245.584 C 294.429 244.962,295.110 244.258,295.346 244.019 C 295.976 243.379,297.167 241.750,297.167 241.527 C 297.167 241.420,297.244 241.333,297.339 241.333 C 297.433 241.333,297.560 241.202,297.620 241.042 C 297.680 240.881,297.964 240.375,298.251 239.917 C 299.085 238.584,300.545 235.161,300.738 234.083 C 300.755 233.992,300.849 233.654,300.948 233.333 C 301.647 231.071,302.089 226.076,301.774 224.000 C 301.740 223.771,301.654 223.133,301.583 222.583 C 301.512 222.033,301.439 221.508,301.421 221.417 C 301.402 221.325,301.328 220.950,301.257 220.583 C 298.484 206.349,283.818 196.694,269.370 199.592 C 267.279 200.011,264.900 200.720,264.592 201.015 C 264.505 201.099,264.316 201.167,264.174 201.167 C 263.944 201.167,261.789 202.202,260.676 202.847 C 258.041 204.375,252.333 209.706,252.333 210.639 C 252.333 210.731,252.277 210.831,252.208 210.861 C 251.745 211.067,249.326 215.722,248.801 217.417 C 248.521 218.321,248.141 219.742,248.065 220.167 C 248.024 220.396,247.949 220.696,247.898 220.833 C 247.227 222.640,247.254 230.761,247.934 231.862 C 247.988 231.949,248.068 232.260,248.111 232.552 C 248.218 233.284,248.837 235.379,249.008 235.589 C 249.084 235.683,249.183 235.946,249.226 236.172 C 249.270 236.398,249.416 236.808,249.551 237.083 C 249.686 237.358,249.934 237.883,250.101 238.250 C 250.828 239.846,253.049 243.209,253.906 244.011 C 254.144 244.234,254.527 244.657,254.756 244.951 L 255.172 245.485 254.359 247.034 C 253.911 247.886,253.202 249.202,252.784 249.958 C 252.365 250.715,251.975 251.483,251.917 251.667 C 251.858 251.850,251.741 252.000,251.655 252.000 C 251.570 252.000,251.500 252.071,251.500 252.157 C 251.500 252.584,245.896 261.687,245.417 262.039 C 245.325 262.106,245.312 262.163,245.387 262.164 C 245.462 262.166,245.425 262.277,245.304 262.411 C 244.898 262.860,244.734 263.082,244.619 263.333 C 244.556 263.471,244.125 264.108,243.661 264.750 C 243.198 265.392,242.616 266.217,242.368 266.583 C 242.120 266.950,241.835 267.325,241.734 267.417 C 241.634 267.508,241.374 267.846,241.156 268.167 C 240.939 268.487,240.664 268.850,240.546 268.971 C 240.428 269.093,240.251 269.343,240.153 269.526 C 239.971 269.865,239.777 270.115,238.961 271.057 C 238.710 271.347,238.504 271.642,238.503 271.713 C 238.501 271.784,238.280 272.084,238.011 272.380 C 237.246 273.221,236.131 274.534,235.583 275.240 C 235.308 275.594,234.915 276.057,234.708 276.268 C 234.502 276.479,234.333 276.687,234.333 276.730 C 234.333 276.773,234.127 277.023,233.875 277.286 C 233.348 277.835,231.131 280.297,230.471 281.065 C 230.226 281.350,229.158 282.476,228.096 283.568 C 227.035 284.659,226.167 285.628,226.167 285.721 C 226.167 285.813,226.125 285.847,226.074 285.796 C 226.023 285.745,225.230 286.435,224.312 287.330 C 223.394 288.225,222.113 289.435,221.466 290.020 C 220.818 290.605,220.129 291.233,219.934 291.417 C 219.739 291.600,219.093 292.162,218.498 292.665 C 217.903 293.168,217.304 293.695,217.167 293.837 C 217.029 293.979,216.392 294.528,215.750 295.058 C 215.108 295.588,214.252 296.298,213.847 296.636 C 213.442 296.974,212.955 297.359,212.764 297.493 C 212.573 297.627,212.329 297.821,212.222 297.926 C 212.116 298.030,211.309 298.662,210.431 299.331 C 209.552 300.000,208.833 300.625,208.833 300.718 C 208.833 300.812,208.785 300.841,208.727 300.782 C 208.644 300.699,206.757 302.050,206.333 302.496 C 206.287 302.544,206.047 302.689,205.798 302.817 C 205.549 302.945,205.118 303.272,204.840 303.545 C 204.561 303.817,204.333 303.988,204.333 303.925 C 204.333 303.861,204.229 303.909,204.102 304.030 C 203.974 304.151,203.693 304.377,203.477 304.532 C 203.260 304.687,202.821 305.002,202.500 305.233 C 202.179 305.464,201.695 305.778,201.425 305.931 C 201.154 306.084,200.830 306.313,200.703 306.439 C 200.577 306.566,200.316 306.754,200.123 306.857 C 199.929 306.960,199.691 307.110,199.594 307.189 C 199.496 307.268,199.042 307.579,198.583 307.879 C 198.125 308.179,197.525 308.582,197.250 308.773 C 196.975 308.965,195.813 309.706,194.667 310.419 C 193.521 311.133,192.321 311.883,192.000 312.085 C 191.679 312.288,191.117 312.629,190.750 312.843 C 190.383 313.057,190.046 313.274,190.000 313.325 C 189.954 313.375,189.579 313.597,189.167 313.816 C 188.754 314.036,188.298 314.318,188.154 314.441 C 188.009 314.565,187.844 314.667,187.788 314.667 C 187.732 314.667,186.852 315.154,185.833 315.750 C 184.814 316.346,183.910 316.833,183.824 316.833 C 183.737 316.833,183.667 316.903,183.667 316.989 C 183.667 317.074,183.512 317.193,183.322 317.254 C 183.133 317.314,182.476 317.646,181.864 317.992 C 178.789 319.730,172.496 323.000,172.226 323.000 C 172.162 323.000,171.991 323.099,171.846 323.219 C 171.702 323.339,171.021 323.690,170.333 323.997 C 169.646 324.305,168.558 324.797,167.917 325.091 C 165.608 326.146,163.963 326.877,163.833 326.904 C 163.695 326.933,161.789 327.688,161.218 327.939 C 159.910 328.515,152.675 331.050,150.319 331.758 C 148.859 332.197,148.148 332.398,145.917 333.004 C 143.055 333.780,142.737 333.862,142.333 333.923 C 142.104 333.958,141.673 334.059,141.375 334.148 C 141.077 334.237,140.833 334.280,140.833 334.242 C 140.833 334.205,140.636 334.250,140.394 334.342 C 140.152 334.434,139.683 334.548,139.352 334.595 C 139.021 334.643,138.563 334.747,138.333 334.828 C 138.104 334.908,137.617 335.011,137.250 335.057 C 136.883 335.104,135.908 335.268,135.083 335.423 C 134.258 335.578,133.396 335.721,133.167 335.741 C 132.938 335.761,132.262 335.862,131.667 335.966 C 129.998 336.256,128.423 336.464,126.417 336.657 C 125.408 336.755,123.871 336.920,123.000 337.024 C 120.210 337.360,107.229 337.407,103.840 337.094 C 97.544 336.513,94.861 336.166,91.417 335.487 C 90.958 335.397,90.171 335.242,89.667 335.143 C 89.162 335.043,88.525 334.898,88.250 334.820 C 87.975 334.742,87.563 334.645,87.333 334.603 C 87.104 334.562,86.467 334.404,85.917 334.253 C 85.367 334.103,84.752 333.946,84.551 333.905 C 83.277 333.645,77.280 331.504,75.250 330.584 C 74.700 330.335,73.987 330.016,73.667 329.876 C 72.861 329.524,70.471 328.352,70.167 328.159 C 70.029 328.072,69.429 327.729,68.833 327.397 C 67.175 326.472,66.826 326.266,65.800 325.609 C 65.277 325.274,64.777 325.000,64.689 325.000 C 64.600 325.000,64.503 324.937,64.472 324.860 C 64.442 324.783,63.667 324.184,62.750 323.530 C 61.833 322.875,60.896 322.170,60.667 321.962 C 60.438 321.754,59.987 321.387,59.667 321.146 C 58.686 320.411,56.846 318.699,54.833 316.648 C 52.762 314.537,52.831 314.613,51.125 312.510 C 50.489 311.725,49.844 310.933,49.693 310.750 C 49.335 310.318,46.296 305.736,45.934 305.083 C 45.416 304.148,44.797 303.085,44.529 302.667 C 43.688 301.358,41.098 296.116,40.762 295.042 C 40.697 294.835,40.574 294.667,40.489 294.667 C 40.403 294.667,40.333 294.516,40.333 294.331 C 40.333 294.146,40.266 293.865,40.183 293.706 C 40.101 293.547,39.831 292.892,39.584 292.250 C 39.337 291.608,39.072 290.933,38.995 290.750 C 38.918 290.567,38.766 290.117,38.656 289.750 C 38.546 289.383,38.354 288.821,38.230 288.500 C 38.105 288.179,37.885 287.467,37.741 286.917 C 37.596 286.367,37.287 285.204,37.054 284.333 C 36.821 283.462,36.597 282.563,36.556 282.333 C 36.515 282.104,36.416 281.617,36.335 281.250 C 36.193 280.603,36.135 280.275,35.598 277.083 C 34.768 272.148,34.767 263.903,35.597 258.667 C 35.735 257.796,35.924 256.596,36.017 256.000 C 36.249 254.524,36.469 253.423,36.751 252.333 C 36.881 251.829,37.098 250.967,37.232 250.417 C 37.748 248.307,38.937 244.447,39.465 243.167 C 39.560 242.938,39.802 242.300,40.004 241.750 C 40.206 241.200,40.550 240.354,40.769 239.870 C 40.988 239.387,41.167 238.930,41.167 238.856 C 41.167 238.782,41.429 238.182,41.750 237.523 C 42.071 236.864,42.333 236.283,42.333 236.233 C 42.333 236.017,44.978 230.901,45.685 229.750 C 45.910 229.383,46.272 228.726,46.491 228.289 C 46.709 227.853,46.988 227.412,47.111 227.311 C 47.233 227.209,47.333 227.061,47.333 226.981 C 47.333 226.902,47.671 226.310,48.083 225.667 C 48.496 225.023,48.833 224.429,48.833 224.346 C 48.833 224.262,48.891 224.169,48.962 224.139 C 49.032 224.108,49.644 223.258,50.322 222.250 C 51.335 220.742,53.779 217.372,54.612 216.333 C 54.723 216.196,55.085 215.746,55.417 215.333 C 55.749 214.921,56.110 214.471,56.219 214.333 C 57.001 213.347,57.763 212.403,57.834 212.333 C 57.879 212.287,58.404 211.688,59.000 211.000 C 60.376 209.413,60.243 209.561,61.417 208.304 C 61.967 207.715,62.610 207.012,62.846 206.742 C 63.530 205.960,68.997 200.684,70.263 199.583 C 70.896 199.033,71.627 198.377,71.887 198.125 C 72.146 197.873,72.422 197.667,72.499 197.667 C 72.576 197.667,72.664 197.609,72.694 197.539 C 72.725 197.468,73.125 197.115,73.583 196.752 C 74.042 196.390,74.535 195.979,74.679 195.839 C 74.824 195.698,75.152 195.433,75.410 195.250 C 76.716 194.320,76.715 194.323,76.448 193.499 C 75.372 190.170,74.528 187.338,73.992 185.250 C 73.827 184.608,73.576 183.671,73.433 183.167 C 73.291 182.662,73.047 181.725,72.892 181.083 C 72.737 180.442,72.279 178.604,71.875 177.000 C 71.471 175.396,71.110 173.877,71.073 173.624 C 71.036 173.372,70.887 172.697,70.742 172.124 C 70.596 171.552,70.441 170.858,70.396 170.583 C 70.155 169.089,70.228 169.120,69.000 170.006 " stroke="none" fill="#744cbc" fill-rule="evenodd"></path><path id="path1" d="M177.295 111.954 C 177.594 111.991,178.044 111.990,178.295 111.952 C 178.545 111.914,178.300 111.884,177.750 111.885 C 177.200 111.886,176.995 111.917,177.295 111.954 " stroke="none" fill="#7c4cbc" fill-rule="evenodd"></path></g></svg>