<svg id="svg" version="1.1" xmlns="http://www.w3.org/2000/svg" xmlns:xlink="http://www.w3.org/1999/xlink" width="400" height="374.7826086956522" viewBox="0, 0, 400,374.7826086956522"><g id="svgg"><path id="path0" d="M232.802 18.221 C 224.620 20.411,219.093 28.209,219.927 36.387 L 220.097 38.051 216.984 40.366 C 212.494 43.706,208.057 47.398,203.595 51.511 C 201.449 53.489,199.584 55.108,199.451 55.108 C 199.319 55.108,196.826 53.294,193.914 51.078 C 179.599 40.186,176.844 38.142,173.196 35.713 C 131.070 7.663,97.571 16.695,92.228 57.545 C 91.985 59.400,91.631 62.047,91.441 63.427 C 90.510 70.205,91.417 88.912,93.157 98.782 C 94.223 104.826,94.894 108.228,95.661 111.459 C 96.561 115.254,96.646 115.093,93.158 116.217 C 73.789 122.459,55.841 131.828,44.049 141.852 C 19.994 162.299,20.644 187.944,45.717 207.693 L 48.650 210.004 48.796 213.629 C 49.347 227.340,65.168 234.838,76.044 226.543 C 77.217 225.648,77.445 225.600,78.500 226.021 C 82.347 227.555,90.715 230.589,94.002 231.641 C 98.405 233.051,98.182 232.610,97.067 237.693 C 95.737 243.760,94.895 249.473,93.699 260.544 C 92.701 269.777,93.623 287.028,95.545 295.084 C 104.601 333.049,139.118 338.340,179.812 308.001 C 180.668 307.363,181.836 306.504,182.410 306.092 C 184.550 304.552,191.884 298.535,195.626 295.248 C 200.265 291.174,199.501 291.235,203.068 294.663 C 218.701 309.689,240.190 322.576,256.163 326.506 C 282.478 332.979,299.455 321.382,305.702 292.665 C 305.843 292.014,306.372 291.366,307.080 290.978 C 318.642 284.627,319.095 267.608,307.878 261.034 C 306.653 260.317,306.279 259.872,306.279 259.133 C 306.279 255.988,303.778 241.496,302.197 235.487 L 301.474 232.735 302.740 232.207 C 303.436 231.916,304.183 231.678,304.399 231.678 C 306.221 231.678,323.549 224.722,332.146 220.540 C 397.138 188.922,384.761 140.384,305.248 115.057 C 302.252 114.103,302.315 114.211,303.055 111.325 C 304.107 107.222,305.792 97.237,306.912 88.472 C 307.837 81.233,307.834 62.981,306.907 57.170 C 301.692 24.487,282.517 11.468,252.897 20.498 C 249.409 21.562,248.307 21.765,247.837 21.432 C 242.971 17.983,237.809 16.881,232.802 18.221 M269.606 37.826 C 287.747 42.551,296.629 63.882,293.894 96.157 C 293.509 100.706,292.153 110.469,291.835 110.983 C 291.740 111.137,290.101 110.859,288.193 110.366 C 286.285 109.872,281.012 108.715,276.476 107.794 C 269.035 106.284,266.159 105.787,254.733 104.037 C 252.877 103.753,248.913 103.321,245.923 103.077 C 242.933 102.834,240.307 102.586,240.086 102.526 C 239.864 102.467,237.680 99.744,235.231 96.476 C 232.782 93.208,230.162 89.775,229.410 88.847 C 228.657 87.919,226.429 85.122,224.458 82.631 C 222.487 80.139,220.227 77.343,219.435 76.415 C 218.643 75.488,217.235 73.823,216.307 72.715 C 215.380 71.606,212.960 68.855,210.930 66.602 L 207.240 62.503 208.121 61.711 C 210.953 59.160,216.048 55.318,222.234 51.069 L 226.098 48.414 228.982 49.898 C 238.861 54.980,250.884 49.683,253.582 39.058 C 254.014 37.358,254.082 37.293,255.693 37.051 C 258.743 36.593,266.541 37.027,269.606 37.826 M145.829 39.228 C 155.574 41.220,165.453 45.586,176.007 52.566 C 180.774 55.718,190.441 63.063,190.436 63.528 C 190.430 63.993,187.608 67.288,182.032 73.341 C 179.779 75.787,177.249 78.643,176.409 79.689 C 167.253 91.089,164.070 95.192,161.012 99.536 C 160.187 100.707,159.344 101.906,159.137 102.199 C 158.884 102.559,157.158 102.911,153.821 103.281 C 141.176 104.684,123.560 107.868,112.497 110.749 C 106.582 112.290,107.058 112.428,106.513 109.008 C 103.633 90.960,104.112 74.018,107.828 62.494 C 113.784 44.023,127.678 35.517,145.829 39.228 M206.095 77.694 C 218.896 90.655,229.997 103.611,226.394 101.384 C 225.046 100.551,189.103 100.598,174.713 101.452 L 170.420 101.707 171.872 99.682 C 173.453 97.475,179.378 90.283,182.334 86.981 C 186.157 82.709,198.125 70.103,198.357 70.103 C 198.489 70.103,201.972 73.519,206.095 77.694 M220.056 109.464 C 223.252 109.651,227.445 109.922,229.374 110.068 L 232.881 110.332 235.637 113.794 C 247.628 128.855,261.259 151.494,269.883 170.670 L 271.529 174.330 270.101 177.418 C 262.138 194.637,252.805 211.141,240.786 229.263 L 236.544 235.658 231.768 236.110 C 213.459 237.844,185.143 238.037,167.573 236.546 C 162.553 236.120,163.253 236.644,158.065 229.428 C 151.597 220.432,144.956 209.671,137.588 196.251 C 133.024 187.940,127.085 175.775,127.086 174.742 C 127.089 171.759,143.496 141.150,153.132 126.148 C 163.344 110.251,162.899 110.702,168.885 110.173 C 180.483 109.148,208.086 108.766,220.056 109.464 M253.046 112.850 C 262.998 114.508,264.178 114.717,266.542 115.236 C 267.882 115.531,270.244 116.045,271.790 116.379 C 276.030 117.294,287.560 120.341,288.907 120.902 L 290.092 121.396 289.415 123.772 C 289.043 125.079,287.944 129.016,286.972 132.521 C 284.878 140.075,282.325 147.858,279.653 154.827 C 278.586 157.610,277.532 160.436,277.313 161.106 C 276.813 162.626,276.428 162.640,275.615 161.167 C 275.264 160.530,274.283 158.801,273.435 157.324 C 272.587 155.847,269.903 151.097,267.470 146.767 C 263.217 139.196,260.538 134.688,251.300 119.560 C 246.916 112.380,246.589 111.686,247.704 111.928 C 248.065 112.006,250.469 112.421,253.046 112.850 M151.982 112.559 C 151.836 112.816,151.349 113.533,150.899 114.152 C 145.998 120.893,132.662 144.050,125.702 157.905 L 122.366 164.544 121.366 162.216 C 116.311 150.451,108.335 122.398,109.679 121.114 C 110.063 120.748,123.003 117.167,125.398 116.765 C 126.223 116.626,128.247 116.174,129.897 115.760 C 137.710 113.799,152.492 111.656,151.982 112.559 M100.470 128.960 C 102.259 136.318,108.855 155.162,112.478 163.261 C 112.663 163.674,113.902 166.416,115.233 169.354 L 117.651 174.697 115.015 180.976 C 109.062 195.151,104.723 207.693,100.617 222.596 C 100.403 223.372,95.759 221.781,86.879 217.889 L 82.849 216.122 82.849 213.284 C 82.849 200.636,70.022 191.960,58.977 197.138 L 56.285 198.400 55.041 196.988 C 54.356 196.211,53.477 195.221,53.087 194.789 C 52.697 194.356,51.473 192.624,50.366 190.940 C 35.331 168.070,51.848 143.290,93.158 126.739 C 99.715 124.112,99.258 123.973,100.470 128.960 M308.716 128.024 C 364.800 151.958,367.044 191.092,313.745 215.708 C 311.185 216.890,308.754 218.014,308.341 218.206 C 306.664 218.984,299.004 221.903,298.903 221.802 C 298.843 221.743,297.956 218.921,296.930 215.533 C 292.865 202.097,288.639 190.612,282.881 177.350 L 281.511 174.194 284.502 167.228 C 290.669 152.868,295.465 139.715,298.601 128.559 C 299.145 126.627,299.665 124.923,299.757 124.774 C 299.949 124.463,302.773 125.488,308.716 128.024 M194.665 145.520 C 175.308 147.693,163.808 167.293,171.691 184.678 C 181.129 205.494,209.390 206.905,221.305 187.156 C 232.664 168.328,216.503 143.069,194.665 145.520 M126.077 191.958 C 134.037 207.610,143.021 222.715,149.339 231.070 C 150.724 232.900,151.766 234.488,151.657 234.598 C 150.907 235.347,129.340 231.439,118.088 228.515 C 110.887 226.644,109.667 226.230,109.546 225.617 C 109.269 224.215,114.592 205.818,117.855 196.902 C 120.749 188.994,122.352 184.833,122.463 184.944 C 122.516 184.997,124.143 188.153,126.077 191.958 M278.170 188.287 C 283.396 201.793,290.627 224.172,289.984 224.850 C 289.777 225.067,280.084 227.878,275.726 228.983 C 267.106 231.170,248.710 234.493,248.360 233.927 C 248.283 233.803,249.698 231.432,251.504 228.659 C 259.228 216.800,266.069 204.881,274.028 189.418 C 276.731 184.165,276.590 184.204,278.170 188.287 M293.077 240.956 C 294.007 247.021,295.033 255.799,295.033 257.700 C 295.033 258.847,294.885 258.973,292.158 260.172 C 279.662 265.663,278.436 282.374,289.942 290.372 L 291.037 291.133 289.430 294.301 C 276.551 319.697,246.302 317.290,210.015 287.984 L 206.535 285.173 209.641 281.943 C 215.650 275.692,223.060 267.449,225.679 264.103 C 226.195 263.443,228.224 260.897,230.189 258.443 C 233.246 254.626,235.587 251.543,240.194 245.267 C 240.951 244.235,241.323 244.049,242.631 244.049 C 243.480 244.049,245.201 243.886,246.455 243.687 C 247.709 243.488,250.759 243.061,253.233 242.738 C 264.521 241.265,277.171 238.923,286.410 236.595 C 292.804 234.985,292.089 234.517,293.077 240.956 M113.687 237.093 C 118.576 238.275,126.421 239.881,134.021 241.254 C 137.711 241.921,152.162 243.902,155.831 244.244 C 158.475 244.490,158.541 244.522,159.549 246.052 C 164.533 253.619,178.767 270.589,187.500 279.377 L 192.620 284.529 189.750 286.899 C 186.615 289.486,182.763 292.455,180.697 293.876 C 169.673 301.460,162.566 305.286,154.264 308.105 C 117.865 320.468,97.928 291.683,106.716 239.456 C 107.141 236.930,107.488 235.801,107.840 235.801 C 108.120 235.801,110.751 236.382,113.687 237.093 M229.051 245.455 C 229.049 245.704,227.829 247.296,223.680 252.462 C 219.496 257.673,212.232 265.745,206.353 271.719 L 199.517 278.664 198.072 277.514 C 192.560 273.131,169.068 246.552,169.937 245.683 C 170.031 245.589,175.231 245.711,181.493 245.954 C 194.533 246.459,222.772 246.030,228.585 245.237 C 228.843 245.202,229.052 245.300,229.051 245.455 " stroke="none" fill="#04b4fc" fill-rule="evenodd"></path><path id="path1" d="M0.000 187.441 L 0.000 374.883 200.000 374.883 L 400.000 374.883 400.000 187.441 L 400.000 0.000 200.000 0.000 L 0.000 0.000 0.000 187.441 M241.479 18.306 C 243.635 18.904,245.708 19.923,247.837 21.432 C 248.307 21.765,249.409 21.562,252.897 20.498 C 293.699 8.059,314.839 38.813,305.678 97.282 C 304.826 102.724,303.659 108.971,303.055 111.325 C 302.315 114.211,302.252 114.103,305.248 115.057 C 384.761 140.384,397.138 188.922,332.146 220.540 C 323.549 224.722,306.221 231.678,304.399 231.678 C 304.183 231.678,303.436 231.916,302.740 232.207 L 301.474 232.735 302.197 235.487 C 303.778 241.496,306.279 255.988,306.279 259.133 C 306.279 259.872,306.653 260.317,307.878 261.034 C 319.095 267.608,318.642 284.627,307.080 290.978 C 306.372 291.366,305.843 292.014,305.702 292.665 C 299.455 321.382,282.478 332.979,256.163 326.506 C 240.190 322.576,218.701 309.689,203.068 294.663 C 199.501 291.235,200.265 291.174,195.626 295.248 C 191.884 298.535,184.550 304.552,182.410 306.092 C 181.836 306.504,180.668 307.363,179.812 308.001 C 139.118 338.340,104.601 333.049,95.545 295.084 C 93.623 287.028,92.701 269.777,93.699 260.544 C 94.895 249.473,95.737 243.760,97.067 237.693 C 98.182 232.610,98.405 233.051,94.002 231.641 C 90.715 230.589,82.347 227.555,78.500 226.021 C 77.445 225.600,77.217 225.648,76.044 226.543 C 65.168 234.838,49.347 227.340,48.796 213.629 L 48.650 210.004 45.717 207.693 C 10.499 179.953,24.903 142.908,79.288 121.353 C 84.567 119.260,90.290 117.141,93.158 116.217 C 96.646 115.093,96.561 115.254,95.661 111.459 C 94.894 108.228,94.223 104.826,93.157 98.782 C 91.417 88.912,90.510 70.205,91.441 63.427 C 91.631 62.047,91.985 59.400,92.228 57.545 C 97.571 16.695,131.070 7.663,173.196 35.713 C 176.844 38.142,179.599 40.186,193.914 51.078 C 196.826 53.294,199.319 55.108,199.451 55.108 C 199.584 55.108,201.449 53.489,203.595 51.511 C 208.057 47.398,212.494 43.706,216.984 40.366 L 220.097 38.051 219.927 36.387 C 218.735 24.698,230.111 15.153,241.479 18.306 M255.693 37.051 C 254.082 37.293,254.014 37.358,253.582 39.058 C 250.884 49.683,238.861 54.980,228.982 49.898 L 226.098 48.414 222.234 51.069 C 216.048 55.318,210.953 59.160,208.121 61.711 L 207.240 62.503 210.930 66.602 C 212.960 68.855,215.380 71.606,216.307 72.715 C 217.235 73.823,218.643 75.488,219.435 76.415 C 220.227 77.343,222.487 80.139,224.458 82.631 C 226.429 85.122,228.657 87.919,229.410 88.847 C 230.162 89.775,232.782 93.208,235.231 96.476 C 237.680 99.744,239.864 102.467,240.086 102.526 C 240.307 102.586,242.933 102.834,245.923 103.077 C 248.913 103.321,252.877 103.753,254.733 104.037 C 266.159 105.787,269.035 106.284,276.476 107.794 C 281.012 108.715,286.285 109.872,288.193 110.366 C 290.101 110.859,291.740 111.137,291.835 110.983 C 292.796 109.429,294.274 93.625,294.279 84.857 C 294.298 51.701,279.579 33.464,255.693 37.051 M134.021 38.680 C 115.056 40.233,103.909 59.164,104.702 88.472 C 104.950 97.676,106.420 111.410,107.209 111.898 C 107.352 111.986,109.732 111.469,112.497 110.749 C 123.560 107.868,141.176 104.684,153.821 103.281 C 157.158 102.911,158.884 102.559,159.137 102.199 C 159.344 101.906,160.187 100.707,161.012 99.536 C 164.070 95.192,167.253 91.089,176.409 79.689 C 177.249 78.643,179.779 75.787,182.032 73.341 C 187.608 67.288,190.430 63.993,190.436 63.528 C 190.447 62.615,175.680 52.050,169.634 48.646 C 155.520 40.699,145.070 37.775,134.021 38.680 M191.151 77.507 C 181.253 88.030,175.394 94.769,171.872 99.682 L 170.420 101.707 174.713 101.452 C 189.103 100.598,225.046 100.551,226.394 101.384 C 228.555 102.720,224.806 97.818,216.947 89.035 C 213.158 84.800,198.726 70.103,198.357 70.103 C 198.224 70.103,194.982 73.435,191.151 77.507 M178.632 109.478 C 162.669 110.345,164.087 109.769,158.830 117.526 C 146.647 135.503,127.090 170.753,127.086 174.742 C 127.085 175.775,133.024 187.940,137.588 196.251 C 144.956 209.671,151.597 220.432,158.065 229.428 C 163.253 236.644,162.553 236.120,167.573 236.546 C 185.143 238.037,213.459 237.844,231.768 236.110 L 236.544 235.658 240.786 229.263 C 252.805 211.141,262.138 194.637,270.101 177.418 L 271.529 174.330 269.883 170.670 C 261.259 151.494,247.628 128.855,235.637 113.794 L 232.881 110.332 229.374 110.068 C 219.488 109.323,212.899 109.129,198.875 109.169 C 190.422 109.193,181.312 109.332,178.632 109.478 M247.048 112.191 C 247.048 112.414,248.961 115.730,251.300 119.560 C 260.538 134.688,263.217 139.196,267.470 146.767 C 269.903 151.097,272.587 155.847,273.435 157.324 C 274.283 158.801,275.264 160.530,275.615 161.167 C 276.428 162.640,276.813 162.626,277.313 161.106 C 277.532 160.436,278.586 157.610,279.653 154.827 C 282.325 147.858,284.878 140.075,286.972 132.521 C 287.944 129.016,289.043 125.079,289.415 123.772 L 290.092 121.396 288.907 120.902 C 287.560 120.341,276.030 117.294,271.790 116.379 C 270.244 116.045,267.882 115.531,266.542 115.236 C 264.178 114.717,262.998 114.508,253.046 112.850 C 250.469 112.421,248.065 112.006,247.704 111.928 C 247.343 111.849,247.048 111.968,247.048 112.191 M141.143 113.594 C 136.607 114.372,131.546 115.346,129.897 115.760 C 128.247 116.174,126.223 116.626,125.398 116.765 C 123.003 117.167,110.063 120.748,109.679 121.114 C 108.335 122.398,116.311 150.451,121.366 162.216 L 122.366 164.544 125.702 157.905 C 132.662 144.050,145.998 120.893,150.899 114.152 C 152.366 112.134,152.364 112.086,150.819 112.136 C 150.033 112.161,145.679 112.817,141.143 113.594 M93.158 126.739 C 51.848 143.290,35.331 168.070,50.366 190.940 C 51.473 192.624,52.697 194.356,53.087 194.789 C 53.477 195.221,54.356 196.211,55.041 196.988 L 56.285 198.400 58.977 197.138 C 70.022 191.960,82.849 200.636,82.849 213.284 L 82.849 216.122 86.879 217.889 C 95.759 221.781,100.403 223.372,100.617 222.596 C 104.723 207.693,109.062 195.151,115.015 180.976 L 117.651 174.697 115.233 169.354 C 113.902 166.416,112.663 163.674,112.478 163.261 C 108.855 155.162,102.259 136.318,100.470 128.960 C 99.258 123.973,99.715 124.112,93.158 126.739 M299.757 124.774 C 299.665 124.923,299.145 126.627,298.601 128.559 C 295.465 139.715,290.669 152.868,284.502 167.228 L 281.511 174.194 282.881 177.350 C 288.639 190.612,292.865 202.097,296.930 215.533 C 297.956 218.921,298.843 221.743,298.903 221.802 C 299.004 221.903,306.664 218.984,308.341 218.206 C 308.754 218.014,311.185 216.890,313.745 215.708 C 363.874 192.557,365.274 156.066,316.963 131.851 C 309.986 128.353,300.067 124.273,299.757 124.774 M205.638 146.736 C 222.340 152.040,230.222 172.375,221.305 187.156 C 209.390 206.905,181.129 205.494,171.691 184.678 C 161.815 162.898,182.772 139.475,205.638 146.736 M121.122 188.112 C 115.570 202.669,109.133 223.526,109.546 225.617 C 109.667 226.230,110.887 226.644,118.088 228.515 C 129.340 231.439,150.907 235.347,151.657 234.598 C 151.766 234.488,150.724 232.900,149.339 231.070 C 143.021 222.715,134.037 207.610,126.077 191.958 C 124.143 188.153,122.516 184.997,122.463 184.944 C 122.410 184.891,121.806 186.317,121.122 188.112 M274.028 189.418 C 266.069 204.881,259.228 216.800,251.504 228.659 C 249.698 231.432,248.283 233.803,248.360 233.927 C 248.710 234.493,267.106 231.170,275.726 228.983 C 280.084 227.878,289.777 225.067,289.984 224.850 C 290.627 224.172,283.396 201.793,278.170 188.287 C 276.590 184.204,276.731 184.165,274.028 189.418 M286.410 236.595 C 277.171 238.923,264.521 241.265,253.233 242.738 C 250.759 243.061,247.709 243.488,246.455 243.687 C 245.201 243.886,243.480 244.049,242.631 244.049 C 241.323 244.049,240.951 244.235,240.194 245.267 C 235.587 251.543,233.246 254.626,230.189 258.443 C 228.224 260.897,226.195 263.443,225.679 264.103 C 223.060 267.449,215.650 275.692,209.641 281.943 L 206.535 285.173 210.015 287.984 C 246.302 317.290,276.551 319.697,289.430 294.301 L 291.037 291.133 289.942 290.372 C 278.436 282.374,279.662 265.663,292.158 260.172 C 294.885 258.973,295.033 258.847,295.033 257.700 C 295.033 255.799,294.007 247.021,293.077 240.956 C 292.089 234.517,292.804 234.985,286.410 236.595 M106.716 239.456 C 103.382 259.268,104.405 278.279,109.464 290.534 C 118.179 311.646,137.913 316.727,163.261 304.387 C 169.059 301.565,172.788 299.317,180.697 293.876 C 182.763 292.455,186.615 289.486,189.750 286.899 L 192.620 284.529 187.500 279.377 C 178.767 270.589,164.533 253.619,159.549 246.052 C 158.541 244.522,158.475 244.490,155.831 244.244 C 152.162 243.902,137.711 241.921,134.021 241.254 C 126.421 239.881,118.576 238.275,113.687 237.093 C 110.751 236.382,108.120 235.801,107.840 235.801 C 107.488 235.801,107.141 236.930,106.716 239.456 M223.993 245.562 C 214.171 246.183,192.543 246.382,181.493 245.954 C 175.231 245.711,170.031 245.589,169.937 245.683 C 169.068 246.552,192.560 273.131,198.072 277.514 L 199.517 278.664 206.353 271.719 C 212.232 265.745,219.496 257.673,223.680 252.462 C 229.369 245.378,229.554 245.105,228.585 245.237 C 228.327 245.272,226.261 245.418,223.993 245.562 " stroke="none" fill="#f4f4f4" fill-rule="evenodd"></path></g></svg>