<svg id="svg" version="1.1" xmlns="http://www.w3.org/2000/svg" xmlns:xlink="http://www.w3.org/1999/xlink" width="400" height="400" viewBox="0, 0, 400,400"><g id="svgg"><path id="path0" d="M296.546 182.629 C 276.971 184.283,260.021 196.278,253.427 213.143 C 248.658 225.342,249.232 243.071,254.772 254.628 C 262.003 269.713,272.204 277.498,301.769 290.489 C 324.538 300.494,329.803 304.722,330.723 313.732 C 331.943 325.680,322.777 333.667,307.236 334.196 C 292.108 334.712,280.313 328.456,271.306 315.141 C 269.691 312.755,269.048 312.052,268.626 312.214 C 268.079 312.425,261.761 316.056,247.126 324.573 C 237.934 329.922,238.547 329.177,240.573 332.547 C 253.867 354.667,274.355 366.032,302.949 367.146 C 347.564 368.886,374.714 341.720,366.942 303.117 C 362.690 281.996,351.180 271.430,314.917 255.360 C 292.619 245.478,288.414 242.165,287.052 233.401 C 285.338 222.379,292.807 214.729,305.139 214.875 C 314.267 214.984,319.247 217.724,325.548 226.105 C 328.887 230.545,328.626 230.427,331.289 228.710 C 347.012 218.574,356.866 211.801,356.866 211.130 C 356.866 210.024,351.010 202.410,346.778 198.013 C 335.247 186.035,318.163 180.802,296.546 182.629 M88.760 184.562 C 87.767 184.757,87.620 187.206,87.618 203.623 L 87.616 217.018 113.564 217.018 L 139.511 217.018 139.511 290.986 L 139.511 364.954 158.045 364.954 L 176.580 364.954 176.580 290.986 L 176.580 217.018 202.527 217.018 L 228.475 217.018 228.473 203.960 C 228.472 196.778,228.374 189.423,228.254 187.616 L 228.037 184.330 158.753 184.376 C 120.647 184.401,89.150 184.485,88.760 184.562 " stroke="none" fill="#fbfbfb" fill-rule="evenodd"></path><path id="path1" d="M0.000 200.000 L 0.000 400.000 200.000 400.000 L 400.000 400.000 400.000 200.000 L 400.000 0.000 200.000 0.000 L 0.000 0.000 0.000 200.000 M316.594 183.161 C 332.374 185.021,344.709 193.043,355.146 208.232 C 356.092 209.609,356.866 210.913,356.866 211.130 C 356.866 211.801,347.012 218.574,331.289 228.710 C 328.626 230.427,328.887 230.545,325.548 226.105 C 319.247 217.724,314.267 214.984,305.139 214.875 C 292.807 214.729,285.338 222.379,287.052 233.401 C 288.414 242.165,292.619 245.478,314.917 255.360 C 351.180 271.430,362.690 281.996,366.942 303.117 C 374.714 341.720,347.564 368.886,302.949 367.146 C 274.355 366.032,253.867 354.667,240.573 332.547 C 238.547 329.177,237.934 329.922,247.126 324.573 C 261.761 316.056,268.079 312.425,268.626 312.214 C 269.048 312.052,269.691 312.755,271.306 315.141 C 280.313 328.456,292.108 334.712,307.236 334.196 C 322.777 333.667,331.943 325.680,330.723 313.732 C 329.803 304.722,324.538 300.494,301.769 290.489 C 272.204 277.498,262.003 269.713,254.772 254.628 C 248.040 240.583,248.786 219.652,256.476 206.856 C 267.893 187.858,288.278 179.823,316.594 183.161 M228.254 187.616 C 228.374 189.423,228.472 196.778,228.473 203.960 L 228.475 217.018 202.527 217.018 L 176.580 217.018 176.580 290.986 L 176.580 364.954 158.045 364.954 L 139.511 364.954 139.511 290.986 L 139.511 217.018 113.564 217.018 L 87.616 217.018 87.618 203.623 C 87.620 187.206,87.767 184.757,88.760 184.562 C 89.150 184.485,120.647 184.401,158.753 184.376 L 228.037 184.330 228.254 187.616 " stroke="none" fill="#047ccc" fill-rule="evenodd"></path></g></svg>